<svg id="Layer_1" data-name="Layer 1" xmlns="http://www.w3.org/2000/svg" viewBox="0 0 200 50"><defs><style>.cls-1{fill:#785eff;}</style></defs><path class="cls-1" d="M141.27,26.63a6.07,6.07,0,0,0,4.53-6c0-3.67-2.82-6.34-6.7-6.34H128.35v2.24H139c2.64,0,4.49,1.69,4.49,4.1s-1.85,4.08-4.49,4.08h-4.88a1.11,1.11,0,1,0,0,2.21h4.72l5.78,8.77h2.59l-6-9.06Z"/><path class="cls-1" d="M129.5,18.92a1.15,1.15,0,0,0-1.15,1.15V35.7h2.3V20.07A1.15,1.15,0,0,0,129.5,18.92Z"/><path class="cls-1" d="M63.72,29.73l-.22-.4-.25.38a8.45,8.45,0,0,1-15.4-3.29l0-.23H45.63l0,.31a10.72,10.72,0,0,0,10.55,9.2,10.53,10.53,0,0,0,8.42-4.22l.13-.17-.13-.17A9.74,9.74,0,0,1,63.72,29.73Z"/><path class="cls-1" d="M56.22,14.3a10.72,10.72,0,0,0-10.55,9.2l0,.31h2.18l0-.23a8.45,8.45,0,0,1,15.4-3.29l.25.38.22-.4a9.74,9.74,0,0,1,.92-1.41l.13-.17-.13-.17A10.53,10.53,0,0,0,56.22,14.3Z"/><path class="cls-1" d="M85.31,14.34l-.31,0v2.19l.23,0a8.48,8.48,0,0,1,0,16.73l-.23,0v2.19l.31-.05a10.65,10.65,0,0,0,0-21.1Z"/><path class="cls-1" d="M73.11,24.89a10.72,10.72,0,0,0,9.2,10.55l.31.05V33.3l-.23,0a8.48,8.48,0,0,1,0-16.73l.23,0V14.3l-.31,0A10.74,10.74,0,0,0,73.11,24.89Z"/><path class="cls-1" d="M109.42,18.92a1.14,1.14,0,0,0-1.15,1.15V35.7h2.3V20.07A1.15,1.15,0,0,0,109.42,18.92Z"/><rect class="cls-1" x="100.07" y="14.3" width="18.69" height="2.25"/><path class="cls-1" d="M162.79,14.3,153,35.7h2.48l8.37-18.56L168.3,27h-6.52a1.15,1.15,0,0,0,0,2.3h7.56l2.78,6.37h2.46l-9.71-21.4Z"/><polygon class="cls-1" points="198.19 14.3 195.7 14.3 187.33 32.86 179.04 14.3 176.58 14.3 186.29 35.7 188.38 35.7 198.19 14.3"/><path class="cls-1" d="M23.11,27.72a8.37,8.37,0,0,1-5,5.14,8.41,8.41,0,0,1-5-5.14l-.21-.64h-11l.25,1.18a16.05,16.05,0,0,0,31.44,0l.23-1.15H23.33ZM11.43,29a10.49,10.49,0,0,0,3.12,4.09l.34.26s-4.24.26-7-4.35Zm19.85,0a14.09,14.09,0,0,1-27,0H5.68a10.33,10.33,0,0,0,8.4,6.27,10.2,10.2,0,0,0,5.26-.82h0A10.32,10.32,0,0,0,24.72,29Z"/><path class="cls-1" d="M12.43,22.28a8.38,8.38,0,0,1,5.05-5.14,8.4,8.4,0,0,1,5,5.14l.22.64h11l-.24-1.18a16.05,16.05,0,0,0-31.44,0l-.24,1.15h10.4ZM24.12,21A10.49,10.49,0,0,0,21,16.89l-.35-.26s4.24-.26,7.05,4.35ZM4.27,21a14.09,14.09,0,0,1,27,0h-1.4a10.35,10.35,0,0,0-8.4-6.27,10.16,10.16,0,0,0-5.26.82h0A10.28,10.28,0,0,0,10.83,21Z"/></svg>