<svg id="Layer_1" data-name="Layer 1" xmlns="http://www.w3.org/2000/svg" viewBox="0 0 374 74"><defs><style>.cls-1{fill:none;}.cls-2{fill:#fcae15;}</style></defs><path class="cls-1" d="M180.15,24.2l-.1,0"/><path d="M142.91,33.92c-.62,0-1.47,0-2.46,0l-3.06.1c-4.21.12-8.38.56-12.55,1.08a36.63,36.63,0,0,0-5,.85,22.37,22.37,0,0,0-6.06,2.53,13.23,13.23,0,0,0-6,7.7,9.53,9.53,0,0,0,2.72,10.22,13.24,13.24,0,0,0,6.42,3.3,29.75,29.75,0,0,0,10.18.39A61.86,61.86,0,0,0,146.41,54,151.12,151.12,0,0,0,168.74,40.2,229.83,229.83,0,0,0,187.63,25l7.89.1,0,22.08-5.94,0-.05-5h-9.22l6-4.44,3.66-.16L189.9,31c-3.78,3-9,7-15.53,11.38a170.38,170.38,0,0,1-18.14,11.15,101.12,101.12,0,0,1-18.92,7.75,60.8,60.8,0,0,1-9.32,2A34.31,34.31,0,0,1,117.43,63a20.71,20.71,0,0,1-6.21-2.14,13.8,13.8,0,0,1-7.12-9.74,14.86,14.86,0,0,1,.14-6.89A13.91,13.91,0,0,1,107.82,38a14.83,14.83,0,0,1,7.64-4.17,48,48,0,0,1,7.35-1,87.31,87.31,0,0,1,10.24,0C135.67,33.07,139,33.35,142.91,33.92Z"/><path d="M186.88,72.3l-3.77,0q2.12-6.19,4.27-12.44Q189,55,190.73,50.2h4.92q1.2,3.61,2.41,7.26,2.49,7.45,5,14.84l-4.26,0L197,66.87l-8.65,0Zm5.89-17.78-3.11,9.15,6.19-.06Z"/><path d="M223.16,72.36h-4.72q-2.3-4.17-4.58-8.35l-5.41,8.37-3.71,0q3.51-5.82,7-11.66L205.5,50.23l5-.09,3.93,7.34,4.34-7.24,3.58,0q-3,5.1-5.93,10.19Z"/><path d="M165.35,50.21l4.34,0,4.95,16.28q2.72-8.16,5.42-16.33l3.24,0-7,22.09h-4.08Q168.8,61.26,165.35,50.21Z"/><path d="M151.89,28.46l-5.9-.09V25.1h16.1l0,3.33-5.78,0-.13,18.8-4.21,0Z"/><rect x="227.1" y="50.16" width="3.9" height="22.27"/><path d="M219.76,47.21H215l-4.58-8.35-5.41,8.36h-3.71l7-11.66L202.1,25.08l5-.09,3.93,7.33,4.34-7.23,3.58.05-5.93,10.19Z"/><rect x="227.1" y="24.97" width="3.9" height="22.27"/><path d="M132.69,42.27c-2.12-4.3-8.44-5.47-14.17-2.71s-8.65,8.55-6.53,12.85,8.44,5.46,14.12,2.65S134.76,46.52,132.69,42.27ZM126.37,54c-4.83,2.39-10.24,1.27-12.05-2.5s.59-8.7,5.37-11,10.24-1.27,12,2.5S131.15,51.61,126.37,54Z"/><path d="M114.4,49.18h1.3a7.82,7.82,0,0,0,.78,3.4,5.62,5.62,0,0,1-1.23-1.28A5.38,5.38,0,0,1,114.4,49.18Z"/><path d="M114.73,47.32a4.1,4.1,0,0,1,1-.6,4.92,4.92,0,0,1,.93-.24,9,9,0,0,1,2.55-3.07c0-.48-.07-1-.11-1.45a10.16,10.16,0,0,0-2.76,2.38A10,10,0,0,0,114.73,47.32Z"/><path d="M122,40.82l1.41.65a6.39,6.39,0,0,1,1.54-.58,6.46,6.46,0,0,1,2.9,0,6.48,6.48,0,0,0-2.09-.71A6.4,6.4,0,0,0,122,40.82Z"/><path d="M130,42.44a.55.55,0,0,1,.76.15.54.54,0,0,1-.09.42L128.12,45c-.14.1-1.18.79-1,1.37.07.26.33.39.61.52.62.29,1.45.67,2.47,1.09a5.92,5.92,0,0,1-2.24-.16c-.82-.22-1.74-.47-2-1.19A1.92,1.92,0,0,1,126.5,45Z"/><path d="M122.44,42.06l1.28,1.21a1.12,1.12,0,0,0,.47.18,1.15,1.15,0,0,0,.78-.22l2.26-1.33.19.34a7,7,0,0,1-3,2.07,1.52,1.52,0,0,1-.69-.05,1.84,1.84,0,0,1-.75-.63,6,6,0,0,1-.71-1.05Z"/><path d="M120.35,53a12.11,12.11,0,0,1,1.81-2.25,11.56,11.56,0,0,1,1.22-1,13.48,13.48,0,0,1,1.69.28,13.69,13.69,0,0,1,2.15.68,4.74,4.74,0,0,0-4.32-2,6.73,6.73,0,0,0-2.44,3.64A5,5,0,0,0,120.35,53Z"/><path d="M116.56,48.72a5.8,5.8,0,0,1,1.31-.07,6.59,6.59,0,0,1,1,.17,8.08,8.08,0,0,1-.66,1.46,8.6,8.6,0,0,1-.9,1.27,4.68,4.68,0,0,0,2-1.79,4.85,4.85,0,0,0,.53-1.31,3.1,3.1,0,0,0-1.83-.33A3.17,3.17,0,0,0,116.56,48.72Z"/><path d="M120.18,45.77a5.17,5.17,0,0,1-2.29.61,5.35,5.35,0,0,1-.84-.06A8,8,0,0,0,118,46a9.48,9.48,0,0,0,1.66-.83V43.85a2,2,0,0,1,.59,1.08A2,2,0,0,1,120.18,45.77Z"/><ellipse cx="121.83" cy="45.26" rx="0.77" ry="0.51" transform="translate(-7.14 61.3) rotate(-27.47)"/><ellipse cx="120" cy="47.14" rx="0.77" ry="0.51" transform="translate(-8.93 46.91) rotate(-21.34)"/><ellipse cx="121.09" cy="48.39" rx="0.77" ry="0.51" transform="translate(-9.31 47.39) rotate(-21.34)"/><ellipse cx="123.95" cy="47.37" rx="0.77" ry="0.51" transform="translate(-7.88 62.51) rotate(-27.47)"/><ellipse cx="124.34" cy="45.31" rx="0.77" ry="0.51" transform="translate(-6.88 62.46) rotate(-27.47)"/><circle cx="122.72" cy="48.39" r="0.31"/><circle cx="120.04" cy="48.1" r="0.31"/><circle cx="120.55" cy="46.02" r="0.31"/><circle cx="123.41" cy="44.88" r="0.31"/><circle cx="124.7" cy="46.33" r="0.31"/><path d="M262.58,44.28c-1.71-3.47-6.8-4.41-11.42-2.19s-7,6.89-5.26,10.35,6.8,4.41,11.38,2.14S264.25,47.7,262.58,44.28Zm-5.09,9.4c-3.89,1.93-8.25,1-9.71-2s.47-7,4.32-8.89,8.25-1,9.71,2S261.34,51.8,257.49,53.68Z"/><path d="M247.84,49.84h1a6.58,6.58,0,0,0,.12,1.23,6.3,6.3,0,0,0,.51,1.51,4.27,4.27,0,0,1-1-1A4.4,4.4,0,0,1,247.84,49.84Z"/><path d="M248.11,48.35a3.23,3.23,0,0,1,.85-.49,3.36,3.36,0,0,1,.74-.19,7.75,7.75,0,0,1,.66-1.06,7.53,7.53,0,0,1,1.4-1.42L251.67,44A8.12,8.12,0,0,0,249.44,46,7.89,7.89,0,0,0,248.11,48.35Z"/><path d="M254,43.11l1.13.52a4.84,4.84,0,0,1,1.25-.46,5,5,0,0,1,2.33,0,5,5,0,0,0-4.71-.09Z"/><path d="M260.39,44.41a.45.45,0,0,1,.61.12.42.42,0,0,1-.07.34l-2,1.57c-.11.07-.95.63-.83,1.1.05.2.27.31.48.42.51.23,1.18.54,2,.88a4.75,4.75,0,0,1-1.8-.13c-.67-.18-1.41-.38-1.58-1a1.54,1.54,0,0,1,.42-1.28Z"/><path d="M254.32,44.1l1,1a.81.81,0,0,0,.38.14.87.87,0,0,0,.63-.17L258.18,44l.15.27a5.61,5.61,0,0,1-2.42,1.67,1.39,1.39,0,0,1-.56,0,1.49,1.49,0,0,1-.6-.51,5,5,0,0,1-.57-.84Z"/><path d="M252.64,52.91a9.23,9.23,0,0,1,1.45-1.81,11.18,11.18,0,0,1,1-.83c.41,0,.87.12,1.36.23a12.23,12.23,0,0,1,1.73.55A3.9,3.9,0,0,0,257,50a4,4,0,0,0-2.29-.51,5.45,5.45,0,0,0-2,2.94A5,5,0,0,0,252.64,52.91Z"/><path d="M249.59,49.47a4.8,4.8,0,0,1,1.9.08,6.92,6.92,0,0,1-.54,1.18,6.81,6.81,0,0,1-.72,1,3.71,3.71,0,0,0,1.57-1.44,3.27,3.27,0,0,0,.42-1.05,2.4,2.4,0,0,0-1.47-.27A2.46,2.46,0,0,0,249.59,49.47Z"/><path d="M252.5,47.1a4.21,4.21,0,0,1-1.85.49,4.57,4.57,0,0,1-.67-.05,7,7,0,0,0,.74-.24,8,8,0,0,0,1.34-.66V45.55a1.6,1.6,0,0,1,.47.87A1.58,1.58,0,0,1,252.5,47.1Z"/><ellipse cx="253.83" cy="46.68" rx="0.62" ry="0.41" transform="translate(7.08 122.34) rotate(-27.47)"/><ellipse cx="252.36" cy="48.2" rx="0.62" ry="0.41" transform="translate(-0.24 95.15) rotate(-21.34)"/><ellipse cx="253.24" cy="49.2" rx="0.62" ry="0.41" transform="translate(-0.54 95.54) rotate(-21.34)"/><ellipse cx="255.54" cy="48.38" rx="0.62" ry="0.41" transform="translate(6.49 123.32) rotate(-27.47)"/><ellipse cx="255.85" cy="46.73" rx="0.62" ry="0.41" transform="translate(7.29 123.28) rotate(-27.47)"/><circle cx="254.55" cy="49.2" r="0.25"/><circle cx="252.39" cy="48.97" r="0.25"/><circle cx="252.8" cy="47.3" r="0.25"/><circle cx="255.1" cy="46.38" r="0.25"/><circle cx="256.15" cy="47.55" r="0.25"/><path class="cls-2" d="M254,22.21A97.15,97.15,0,0,1,238.05,17c-2-.8-8.12-3.56-13.48-5.63-1.22-.53-2.55-1-4-1.59-3-1.11-4.51-1.7-5.79-2a51.15,51.15,0,0,0-18-1.64,54.57,54.57,0,0,0-13.59,2.81,61.77,61.77,0,0,0-13.54,6.43,63.8,63.8,0,0,0-5.41,3.87H150.1c2-1.17,5-2.81,8.7-4.67A130.25,130.25,0,0,1,184,4.16a63.68,63.68,0,0,1,12.26-2.34,43.38,43.38,0,0,1,8.81-.05,45.4,45.4,0,0,1,11.57,2.87A77,77,0,0,1,224.15,8c2.38,1.17,4.83,2.45,8.59,4.41,1.76.9,3,1.59,3.19,1.7C239,15.73,244.16,18.22,254,22.21Z"/><path class="cls-2" d="M122.32,22.54a71.94,71.94,0,0,0-18,5.09A65.76,65.76,0,0,0,93,34.07q3.81,8.43,7.63,16.86a19,19,0,0,1-.36-4h0a17.93,17.93,0,0,1,.86-5.28,19.08,19.08,0,0,1,3.68-6.51l0,0a20.09,20.09,0,0,1,3.58-3.19,34.65,34.65,0,0,1,11.18-5,67.87,67.87,0,0,1,12.9-2.36c1.27-.14,2.86-.28,6.95-.48,4.89-.23,9-.43,15.73-.45,12.9,0,22.69.49,24.87.61l.1,0,.39-.06a194.59,194.59,0,0,0-21-2.78C139.23,19.79,125.52,22,122.32,22.54Z"/><path class="cls-2" d="M281,33.46a2.09,2.09,0,0,1-.05.58c-2.44,0-4.72.06-6.79.16-1.28.11-3.19.16-5.47.43a54.7,54.7,0,0,0-10.51,1.64,59.17,59.17,0,0,0-6.11,2.12c-.74.32-1.32.59-1.75.8a17.37,17.37,0,0,0-6.53,5.63,9.4,9.4,0,0,0-1.64,3.61,7.84,7.84,0,0,0,.8,5.52,8.41,8.41,0,0,0,4,3.39c4.25,2,8.62.74,10.56.16a19.83,19.83,0,0,0,6.69-3.5,3.21,3.21,0,0,1,.05.69,22.37,22.37,0,0,1-4.94,2.81,24,24,0,0,1-7.48,1.81,13.33,13.33,0,0,1-1.86.1,14,14,0,0,1-4.56-.63c-1.12-.37-5.36-1.6-7-5.47a7.77,7.77,0,0,1-.53-3.77c.21-3.5,2.55-6.1,3.4-7.11a1.31,1.31,0,0,0,.42-.43,17.06,17.06,0,0,1,5.52-3.76c5.74-2.61,11.26-3.35,17.31-3.88C268.94,34,274.52,33.62,281,33.46Z"/></svg>