<svg id="Layer_1" data-name="Layer 1" xmlns="http://www.w3.org/2000/svg" viewBox="0 0 1920 450"><defs><style>.cls-1{fill:#f7f9f9;}.cls-13,.cls-2,.cls-20,.cls-21,.cls-30,.cls-31,.cls-4{isolation:isolate;}.cls-2{font-size:176.33px;fill:#ff9f00;font-family:Roboto-Bold, Roboto;font-weight:700;}.cls-3{fill:#cb202c;}.cls-4,.cls-6{fill:#ededee;}.cls-4{opacity:0.7;}.cls-5{fill:#850a12;}.cls-7{fill:#494e53;}.cls-13,.cls-21,.cls-8{opacity:0.5;}.cls-9{fill:#a4a4a8;}.cls-10{fill:#2a4360;}.cls-11{fill:#436387;}.cls-12{fill:#700004;}.cls-13{fill:#95111a;}.cls-14{fill:#a9b2b2;}.cls-15{fill:#cbd5d4;}.cls-16{fill:#e6dfd6;}.cls-17{fill:#94918d;}.cls-18{fill:#d8d9da;}.cls-19{fill:#babcbd;}.cls-20,.cls-21,.cls-23{fill:#fff;}.cls-20{opacity:0.6;}.cls-22{fill:#e0efff;}.cls-24{fill:#c6daf1;}.cls-25{fill:#007cff;}.cls-26{fill:#ececec;}.cls-27{fill:#f5f5f5;}.cls-28{fill:#f0f0f0;}.cls-29{fill:#e7e7e7;}.cls-30,.cls-31{font-size:60px;font-family:Montserrat-ExtraBold, Montserrat;font-weight:800;}.cls-30{fill:#10213a;}.cls-31{fill:#ff7300;}</style></defs><g id="Layer_4" data-name="Layer 4"><rect class="cls-1" width="1920" height="450"/><text class="cls-2" transform="translate(808.25 253.5)">404</text><path class="cls-3" d="M1062.25,236.81l-2.52-4.28h0c-.82-.74-1.44-1.59-2.69-1.6a13.58,13.58,0,0,0-2.61.53c-6.85,1.83-12.36,3.28-16.74,4.42-1,.27-15.88-2.42-16.8-2.18-7.64,2,2,6.68,1.58,6.88-1.48.65,16.93,13.24,20.17,17l18.65-18.08A6.64,6.64,0,0,0,1062.25,236.81Z"/><path class="cls-3" d="M1059.84,233.49h0l2.28,3.87a5.72,5.72,0,0,0,.11-.57l-2.52-4.28h0l-.32-.3A2.12,2.12,0,0,0,1059.84,233.49Z"/><path class="cls-4" d="M1021,234.65c.92-.24,15.75,2.45,16.79,2.18,4.38-1.14,9.9-2.58,16.74-4.41a7.38,7.38,0,0,0,2-1.47c-.74.09-1.45.36-2.16.49-6.85,1.83-12.36,3.28-16.74,4.42-1.05.27-15.88-2.42-16.8-2.18-2.77.72-3.26,1.79-2.78,2.89C1018.25,235.83,1019.09,235.15,1021,234.65Z"/><path class="cls-5" d="M1062.25,236.81l-2.52-4.28h0a5.07,5.07,0,0,0-2.21-1.55,7.36,7.36,0,0,1,.62.63c1.25,1.51,3.65,4.33,1.81,6.24-3.25,3.36-7.16,6.24-10.72,9.28-3.09,2.64-6.11,5.39-9.19,8a25.77,25.77,0,0,1,2.6,2.41l18.65-18.08A6.77,6.77,0,0,0,1062.25,236.81Z"/><path class="cls-6" d="M916,170.4c23.4-1.77,26.19,1.61,38,11s44.74,37,57.1,47,24.93,20.91,26.06,22a109,109,0,0,1,8.11,10.08,33.51,33.51,0,0,1,2.63,3.92c.63,1.3-2.09,3.71-4.65,3.73-.59,0-6.89-.59-6.89-.59s-3.38,0-9.64-2.18c-5.38-1.86-58.22-28.15-105.39-66-13.45-10.8-18.35-24.75-15.86-28S916,170.4,916,170.4Z"/><path class="cls-7" d="M937.8,184.4a24.71,24.71,0,0,0,4.29-2.54,1.72,1.72,0,0,0,.58-2q-1.65-1.41-3.66-3.08l-1.11-.91-10.81,2.95a58.08,58.08,0,0,0,5.23,4.56C934.21,184.77,935.5,185.4,937.8,184.4Z"/><path class="cls-7" d="M918.2,170.4s8.69-.91,10.84-.37c.52.12,2.29.64,8.23,5.22l-10.59,3C924.29,176.12,920.83,173.06,918.2,170.4Z"/><g class="cls-8"><path class="cls-7" d="M940.09,183.17c.69-.42,1.36-.87,2-1.34a1.72,1.72,0,0,0,.58-2q-1.65-1.41-3.66-3.08l-1.11-.91-4.63,1.26C935.61,179.07,937.85,181.1,940.09,183.17Z"/><path class="cls-7" d="M924.4,171.23a24.11,24.11,0,0,1,6.16,3.74c.7.53,1.38,1.07,2.06,1.62l4.65-1.33c-5.94-4.58-7.71-5.1-8.23-5.22-1.55-.39-6.5,0-9.14.21A21,21,0,0,1,924.4,171.23Z"/></g><path class="cls-9" d="M946.84,204.54a3,3,0,0,1-.38-.33l-4-3.2c-1.33-2,.56-4.19.58-4.21.21-.26,5.24-6.6,6.74-8a2.16,2.16,0,0,1,3-.14l.22.19,2.32,1.94,2.38,2h0a1.19,1.19,0,0,1,.45.81c.12,1.19-1.29,2.85-1.35,2.92a99.3,99.3,0,0,1-6.68,7.93A2.45,2.45,0,0,1,946.84,204.54Zm-4.1-3.71,3.92,3.17a1.73,1.73,0,0,0,.35.31,2.15,2.15,0,0,0,3-.12q3.51-3.78,6.65-7.9s1.4-1.64,1.28-2.71a.87.87,0,0,0-.33-.61h0L955.23,191l-2.33-2a2.05,2.05,0,0,0-.2-.17,1.86,1.86,0,0,0-2.59.13c-1.49,1.4-6.67,7.93-6.72,8S941.55,199,942.74,200.83Z"/><path class="cls-9" d="M962.09,204l-.1-.08-1.07-.81h0a1.07,1.07,0,0,1,.13-1.29,23.3,23.3,0,0,1,1.72-2.19.72.72,0,0,1,1-.07l.06.05,1.27,1h0a.47.47,0,0,1,.18.31,1.47,1.47,0,0,1-.36.88,24.13,24.13,0,0,1-1.71,2.18.79.79,0,0,1-1.11,0Z"/><path class="cls-10" d="M962.18,203.74a.27.27,0,0,1-.08-.07l-1-.7h0a1,1,0,0,1,.11-1.13s1.17-1.57,1.52-1.92a.63.63,0,0,1,.86-.06h0l1.12.87h0a.37.37,0,0,1,.16.27,1.38,1.38,0,0,1-.31.77,21.47,21.47,0,0,1-1.51,1.91A.68.68,0,0,1,962.18,203.74Z"/><path class="cls-11" d="M962.41,200.88,963.9,202l.2-.26a1.92,1.92,0,0,0,.36-.73.31.31,0,0,0-.09-.22h0l-.78-.62h0c-.16-.12-.42-.13-.7.17-.1.11-.27.32-.45.56Z"/><path class="cls-9" d="M965.82,206.83a.38.38,0,0,1-.09-.09l-1.08-.8h0a1.09,1.09,0,0,1,.12-1.29c.05-.07,1.34-1.8,1.73-2.2a.71.71,0,0,1,1-.06h0l1.27,1h0a.5.5,0,0,1,.18.31,1.47,1.47,0,0,1-.36.88,19.4,19.4,0,0,1-1.72,2.18A.78.78,0,0,1,965.82,206.83Z"/><path class="cls-10" d="M965.92,206.57l-.09-.07-.94-.71h0a1,1,0,0,1,.11-1.13,22.08,22.08,0,0,1,1.51-1.93.63.63,0,0,1,.86,0h0l1.11.86h0a.47.47,0,0,1,.16.27,1.32,1.32,0,0,1-.32.78c-.47.66-1,1.3-1.5,1.91A.69.69,0,0,1,965.92,206.57Z"/><path class="cls-11" d="M966.15,203.71l1.49,1.13.19-.26a1.69,1.69,0,0,0,.37-.73.27.27,0,0,0-.1-.22h0l-.79-.62h0c-.16-.12-.43-.14-.71.17-.09.1-.26.31-.45.55Z"/><path class="cls-9" d="M969.56,209.65a.24.24,0,0,1-.09-.08l-1.08-.81h0a1.09,1.09,0,0,1,.12-1.29c0-.06,1.33-1.79,1.73-2.19a.71.71,0,0,1,1-.06h0l1.27,1h0a.48.48,0,0,1,.19.31,1.57,1.57,0,0,1-.36.88,20.36,20.36,0,0,1-1.72,2.18A.79.79,0,0,1,969.56,209.65Z"/><path class="cls-10" d="M969.66,209.4l-.09-.07-.94-.71h0a.92.92,0,0,1,.11-1.13,22.08,22.08,0,0,1,1.51-1.93.62.62,0,0,1,.86,0h0l1.11.87h0a.41.41,0,0,1,.17.27,1.32,1.32,0,0,1-.32.78c-.47.66-1,1.3-1.51,1.91A.66.66,0,0,1,969.66,209.4Z"/><path class="cls-11" d="M969.88,206.54l1.5,1.13.19-.27a1.67,1.67,0,0,0,.36-.73.26.26,0,0,0-.09-.22h0l-.79-.61h0c-.16-.12-.43-.14-.71.16l-.45.56Z"/><path class="cls-9" d="M973.3,212.48l-.1-.08-1.07-.81h0a1.1,1.1,0,0,1,.13-1.29c0-.07,1.33-1.8,1.73-2.19a.7.7,0,0,1,1-.08h.08l1.27,1h0a.47.47,0,0,1,.18.31,1.42,1.42,0,0,1-.36.88,24.13,24.13,0,0,1-1.71,2.18.78.78,0,0,1-1.1.1Z"/><path class="cls-10" d="M973.39,212.23l-.08-.08-.94-.7h0a1,1,0,0,1,.11-1.14s1.17-1.57,1.52-1.92a.62.62,0,0,1,.86-.06h0l1.12.87h0a.37.37,0,0,1,.16.27,1.38,1.38,0,0,1-.31.77,23.46,23.46,0,0,1-1.51,1.91A.69.69,0,0,1,973.39,212.23Z"/><path class="cls-11" d="M973.62,209.4l1.5,1.13.19-.26a1.79,1.79,0,0,0,.36-.73.26.26,0,0,0-.09-.22h0l-.79-.62h0c-.16-.12-.43-.14-.71.16-.1.11-.26.32-.45.55C973.6,209.4,973.61,209.4,973.62,209.4Z"/><path class="cls-9" d="M977,215.31l-.09-.08-1.07-.81h0a1.06,1.06,0,0,1,.13-1.28c0-.07,1.33-1.8,1.72-2.2a.71.71,0,0,1,1-.06l.06.05,1.27,1h0a.44.44,0,0,1,.18.31,1.42,1.42,0,0,1-.36.88,24.13,24.13,0,0,1-1.71,2.18.78.78,0,0,1-1.12,0Z"/><path class="cls-10" d="M977.09,215.05,977,215l-1-.71h0a1,1,0,0,1,.11-1.13,20.69,20.69,0,0,1,1.52-1.93.64.64,0,0,1,.86,0h0l1.12.86h0a.4.4,0,0,1,.16.28,1.38,1.38,0,0,1-.31.77,23.27,23.27,0,0,1-1.38,1.88.71.71,0,0,1-1,.08Z"/><path class="cls-11" d="M977.36,212.19l1.49,1.13.2-.26a1.92,1.92,0,0,0,.36-.73.27.27,0,0,0-.1-.22h0l-.78-.62h0c-.16-.12-.42-.14-.7.17s-.31.36-.45.55Z"/><path class="cls-9" d="M980.77,218.13a.24.24,0,0,1-.09-.08l-1.08-.81h0a1.09,1.09,0,0,1,.12-1.29,26.76,26.76,0,0,1,1.73-2.19.71.71,0,0,1,1-.06h0l1.27,1h0a.46.46,0,0,1,.19.31,1.57,1.57,0,0,1-.36.88c-.54.76-1.11,1.48-1.72,2.18A.79.79,0,0,1,980.77,218.13Z"/><path class="cls-10" d="M980.87,217.88l-.09-.07-.94-.71h0A1,1,0,0,1,980,216a22.08,22.08,0,0,1,1.51-1.93.62.62,0,0,1,.86,0h0l1.11.87h0a.5.5,0,0,1,.16.27,1.32,1.32,0,0,1-.32.78s-1.08,1.5-1.5,1.91A.69.69,0,0,1,980.87,217.88Z"/><path class="cls-11" d="M981.09,215l1.49,1.13.19-.27a1.69,1.69,0,0,0,.37-.73.3.3,0,0,0-.1-.22h0l-.79-.61h0c-.16-.12-.43-.14-.71.16l-.45.56Z"/><path class="cls-9" d="M984.51,221l-.1-.08-1.07-.81h0a1.09,1.09,0,0,1,.12-1.29,22.09,22.09,0,0,1,1.73-2.19.72.72,0,0,1,1-.07v0l1.27,1h0a.51.51,0,0,1,.19.31,1.6,1.6,0,0,1-.36.89c0,.06-1.24,1.71-1.72,2.17A.78.78,0,0,1,984.51,221Z"/><path class="cls-10" d="M984.6,220.71l-.08-.08-.94-.7h0a.93.93,0,0,1,.11-1.14,23.87,23.87,0,0,1,1.51-1.92.6.6,0,0,1,.86,0h0l1.11.87h0a.41.41,0,0,1,.17.27,1.27,1.27,0,0,1-.32.77,23.46,23.46,0,0,1-1.51,1.91A.7.7,0,0,1,984.6,220.71Z"/><path class="cls-11" d="M984.84,217.84l1.49,1.13.19-.26a1.67,1.67,0,0,0,.36-.73.24.24,0,0,0-.09-.22h0l-.79-.62h0c-.16-.12-.43-.14-.71.16l-.45.56Z"/><path class="cls-9" d="M988.25,223.79l-.1-.08-1.06-.81h0a1.07,1.07,0,0,1,.13-1.29,24.57,24.57,0,0,1,1.72-2.2.71.71,0,0,1,1-.06h0l1.28,1h0a.44.44,0,0,1,.18.31,1.42,1.42,0,0,1-.36.88,24.13,24.13,0,0,1-1.71,2.18.78.78,0,0,1-1.1.1Z"/><path class="cls-10" d="M988.34,223.53l-.08-.07-1-.71h0a1,1,0,0,1,.11-1.13,20.69,20.69,0,0,1,1.52-1.93.63.63,0,0,1,.86-.05h0l1.12.86h0a.4.4,0,0,1,.16.27,1.38,1.38,0,0,1-.31.78,23.46,23.46,0,0,1-1.51,1.91A.68.68,0,0,1,988.34,223.53Z"/><path class="cls-11" d="M988.57,220.67l1.5,1.13.19-.26a1.92,1.92,0,0,0,.36-.73.26.26,0,0,0-.09-.22h0l-.79-.62h0c-.16-.12-.43-.14-.71.17s-.31.36-.45.55C988.58,220.69,988.56,220.66,988.57,220.67Z"/><path class="cls-9" d="M992,226.61a.24.24,0,0,1-.09-.08l-1.07-.81h0a1.07,1.07,0,0,1,.13-1.29,26.25,26.25,0,0,1,1.72-2.19.71.71,0,0,1,1-.06h.05l1.28,1h0a.44.44,0,0,1,.18.31,1.47,1.47,0,0,1-.36.88,24.23,24.23,0,0,1-1.72,2.18.79.79,0,0,1-1.12.07Z"/><path class="cls-10" d="M992.09,226.4l-.08-.07-1-.71h0a1,1,0,0,1,.11-1.13,22.08,22.08,0,0,1,1.51-1.93.62.62,0,0,1,.86,0h.05l1.12.86h0a.4.4,0,0,1,.16.27,1.32,1.32,0,0,1-.32.78,23.35,23.35,0,0,1-1.5,1.91A.69.69,0,0,1,992.09,226.4Z"/><path class="cls-11" d="M992.31,223.5l1.49,1.13.2-.27a1.79,1.79,0,0,0,.36-.73.3.3,0,0,0-.1-.22h0l-.78-.61h0c-.16-.12-.43-.14-.7.17-.1.1-.27.31-.46.55Z"/><path class="cls-9" d="M995.72,229.4a.24.24,0,0,1-.09-.08l-1.08-.81h0a1.09,1.09,0,0,1,.12-1.29A25.14,25.14,0,0,1,996.4,225a.7.7,0,0,1,1-.07h.07l1.27,1h0a.48.48,0,0,1,.19.31,1.6,1.6,0,0,1-.36.89,19.49,19.49,0,0,1-1.72,2.17.79.79,0,0,1-1.1.07Z"/><path class="cls-10" d="M995.82,229.19a.24.24,0,0,1-.09-.08l-.94-.7h0a1,1,0,0,1,.11-1.14s1.17-1.57,1.51-1.92a.62.62,0,0,1,.86-.06h.05l1.11.87h0a.47.47,0,0,1,.16.27,1.27,1.27,0,0,1-.32.77,23.35,23.35,0,0,1-1.5,1.91A.7.7,0,0,1,995.82,229.19Z"/><path class="cls-11" d="M996.09,226.32l1.49,1.13.19-.26a1.81,1.81,0,0,0,.37-.73.3.3,0,0,0-.1-.22h0l-.79-.62h0c-.16-.12-.43-.14-.71.16l-.45.56Z"/><path class="cls-9" d="M999.46,232.27l-.1-.08-1.07-.79h0a1.1,1.1,0,0,1,.13-1.29c.05-.07,1.33-1.8,1.73-2.2a.71.71,0,0,1,1-.06l.05.05,1.27,1h0a.51.51,0,0,1,.19.31,1.43,1.43,0,0,1-.37.88,24.13,24.13,0,0,1-1.71,2.18.79.79,0,0,1-1.11,0Z"/><path class="cls-10" d="M999.55,232l-.08-.07-.94-.71h0a1,1,0,0,1,.11-1.13c.05-.06,1.17-1.58,1.52-1.93a.63.63,0,0,1,.86,0h.05l1.11.86h0a.41.41,0,0,1,.17.27,1.27,1.27,0,0,1-.32.77,23.46,23.46,0,0,1-1.51,1.91A.68.68,0,0,1,999.55,232Z"/><path class="cls-11" d="M999.78,229.15l1.5,1.13.19-.26a1.79,1.79,0,0,0,.36-.73.24.24,0,0,0-.09-.22h0l-.79-.62h0c-.16-.12-.43-.14-.71.17-.1.1-.26.31-.45.55Z"/><path class="cls-9" d="M1003.2,235.09l-.1-.08-1.07-.81h0a1.06,1.06,0,0,1,.13-1.28c.05-.07,1.33-1.8,1.72-2.2a.71.71,0,0,1,1-.06h.06l1.27,1h0a.44.44,0,0,1,.18.31,1.47,1.47,0,0,1-.36.88,24.13,24.13,0,0,1-1.71,2.18.79.79,0,0,1-1.12.07Z"/><path class="cls-10" d="M1003.29,234.84l-.08-.07-1-.71h0a1,1,0,0,1,.11-1.13,20.69,20.69,0,0,1,1.52-1.93.62.62,0,0,1,.86-.05h0l1.12.86h0a.4.4,0,0,1,.16.27,1.38,1.38,0,0,1-.31.78,18.11,18.11,0,0,1-1.51,1.91A.68.68,0,0,1,1003.29,234.84Z"/><path class="cls-11" d="M1003.52,232l1.49,1.13.2-.26a2,2,0,0,0,.36-.74.31.31,0,0,0-.09-.22h0l-.78-.61h0c-.15-.12-.42-.14-.7.17s-.31.36-.45.55Z"/><path class="cls-9" d="M1006.93,237.92a.24.24,0,0,1-.09-.08l-1.07-.81h0a1.09,1.09,0,0,1,.12-1.29c.05-.06,1.34-1.8,1.73-2.19a.7.7,0,0,1,1-.07h0l1.27,1h0a.47.47,0,0,1,.18.31,1.53,1.53,0,0,1-.36.89c-.54.75-1.11,1.48-1.72,2.17A.78.78,0,0,1,1006.93,237.92Z"/><path class="cls-10" d="M1007,237.67l-.08-.07-1-.71h0a1,1,0,0,1,.11-1.14,23.87,23.87,0,0,1,1.51-1.92.62.62,0,0,1,.86,0h0l1.12.87h0a.37.37,0,0,1,.16.27,1.38,1.38,0,0,1-.31.77c-.47.66-1,1.3-1.51,1.91A.71.71,0,0,1,1007,237.67Z"/><path class="cls-11" d="M1007.26,234.81l1.49,1.12c.11-.14.18-.25.19-.26a1.69,1.69,0,0,0,.37-.73.3.3,0,0,0-.1-.22h0l-.79-.62h0c-.16-.12-.42-.14-.7.16-.1.11-.27.32-.46.56Z"/><path class="cls-9" d="M1010.67,240.75l-.09-.08-1.08-.81h0a1.09,1.09,0,0,1,.12-1.29c0-.07,1.34-1.8,1.73-2.2a.71.71,0,0,1,1-.06v.05l1.27,1h0a.51.51,0,0,1,.19.31,1.57,1.57,0,0,1-.36.88,19.4,19.4,0,0,1-1.72,2.18A.78.78,0,0,1,1010.67,240.75Z"/><path class="cls-10" d="M1010.77,240.49l-.09-.07-.94-.71h0a.93.93,0,0,1,.11-1.13s1.17-1.58,1.51-1.92a.62.62,0,0,1,.86-.06h0l1.11.86h0a.41.41,0,0,1,.17.27,1.27,1.27,0,0,1-.32.77,20.12,20.12,0,0,1-1.51,1.91A.67.67,0,0,1,1010.77,240.49Z"/><path class="cls-11" d="M1011,237.63l1.49,1.13.19-.26a1.79,1.79,0,0,0,.36-.73.24.24,0,0,0-.09-.22h0l-.79-.62h0c-.16-.12-.43-.14-.71.17-.09.1-.26.31-.45.55Z"/><path class="cls-9" d="M1014.41,243.57l-.1-.08-1.07-.81h0a1.09,1.09,0,0,1,.13-1.28,24.57,24.57,0,0,1,1.72-2.2.72.72,0,0,1,1-.06h0l1.27,1h0a.44.44,0,0,1,.18.31,1.51,1.51,0,0,1-.35.88,19.4,19.4,0,0,1-1.72,2.18A.78.78,0,0,1,1014.41,243.57Z"/><path class="cls-10" d="M1014.5,243.32l-.08-.07-.94-.71h0a1,1,0,0,1,.11-1.13,20.69,20.69,0,0,1,1.52-1.93.62.62,0,0,1,.86,0h0l1.11.86h0a.48.48,0,0,1,.17.27,1.32,1.32,0,0,1-.32.78s-1.09,1.5-1.51,1.91A.68.68,0,0,1,1014.5,243.32Z"/><path class="cls-11" d="M1014.73,240.46l1.5,1.13.19-.26a1.83,1.83,0,0,0,.36-.74.22.22,0,0,0-.09-.21h0l-.79-.61h0c-.16-.12-.43-.14-.71.17-.1.1-.26.31-.45.55Z"/><path class="cls-9" d="M1018.14,246.4l-.09-.08-1.07-.81h0a1.07,1.07,0,0,1,.13-1.29,24.69,24.69,0,0,1,1.72-2.19.7.7,0,0,1,1-.07h0l1.28,1h0a.47.47,0,0,1,.18.31,1.53,1.53,0,0,1-.36.89,24.09,24.09,0,0,1-1.72,2.17A.78.78,0,0,1,1018.14,246.4Z"/><path class="cls-10" d="M1018.24,246.15l-.08-.07-1-.71h0a1,1,0,0,1,.11-1.14,22.24,22.24,0,0,1,1.52-1.92.62.62,0,0,1,.86,0h0l1.12.87h0a.37.37,0,0,1,.16.27,1.38,1.38,0,0,1-.31.77,23.62,23.62,0,0,1-1.51,1.92A.71.71,0,0,1,1018.24,246.15Z"/><path class="cls-11" d="M1018.47,243.29l1.49,1.12.2-.26a1.79,1.79,0,0,0,.36-.73.31.31,0,0,0-.09-.22h0l-.78-.62h0c-.15-.12-.42-.14-.7.16-.1.11-.27.32-.46.56Z"/><path class="cls-3" d="M918.15,183.15c-7-6.93-9.95-10.85-11.21-13a3.62,3.62,0,0,0-1.48,1.08c-2.49,3.28,2.41,17.23,15.86,28,47.17,37.85,100,64.14,105.39,66,6.26,2.16,9.64,2.18,9.64,2.18s6.3.6,6.89.59a5.91,5.91,0,0,0,4.23-2.11C1001.29,253.92,931.24,196.17,918.15,183.15Z"/><path class="cls-12" d="M1041.28,265.82c-4.34-.89-8.61-2.09-12.85-3.36-8.73-2.63-16.8-6.65-24.85-10.87S987.13,243.28,979,239c-1.58-.83-3.16-1.68-4.73-2.52,27.34,17,49.11,27.64,52.46,28.8,6.26,2.16,9.64,2.18,9.64,2.18s6.3.6,6.89.59a5.8,5.8,0,0,0,3.77-1.62A23.49,23.49,0,0,1,1041.28,265.82Z"/><path class="cls-13" d="M981.09,239.59a60.16,60.16,0,0,1-1.17-8.12c-10.19-6.85-19.92-13.95-28.59-20.58a49.24,49.24,0,0,0-4.85,7.22c12.18,8.56,24.12,16.2,34.92,22.72C981.29,240.4,981.19,240,981.09,239.59Z"/><path class="cls-13" d="M1017.19,253.77a29.64,29.64,0,0,0,3.22,7.31c.35.63.71,1.24,1.09,1.85,2.63,1.26,4.43,2.06,5.21,2.33,6.26,2.16,9.64,2.18,9.64,2.18s6.3.6,6.89.59a5.91,5.91,0,0,0,4.23-2.11C1038.09,263.49,1027.81,259.19,1017.19,253.77Z"/><path class="cls-12" d="M1038.46,262.77l-12.55-7.48a4.52,4.52,0,0,0-2.87-.38c-.93.26-2.11,1.3-1.59,2.51.94,2.18,13.7,17.14,13.7,17.14s2.76,2.9,5.62,3.76c0,0,7.22,3.8,5.88,1s-5.49-13.61-5.49-13.61A7.56,7.56,0,0,0,1038.46,262.77Z"/><path class="cls-3" d="M1038.46,262.77l-12.55-7.48s-4.27-1.76-3,1.25c.93,2.17,12.58,17.24,12.58,17.24a11.27,11.27,0,0,0,3.21,2.66s9.26,5.68,7.92,2.92-5.49-13.61-5.49-13.61A7.53,7.53,0,0,0,1038.46,262.77Z"/><path class="cls-14" d="M968.51,228.4s-7.68-7.78-13.06-11.48l-9.6,13.32h0l-1.39,1.16a82.17,82.17,0,0,0,15.11,8.77c.72.55,3.48-1.23,5.94-4.5S969.23,228.94,968.51,228.4Z"/><path class="cls-15" d="M952.35,226.7c1.87,1.5,3.81,2.91,5.59,4.53,2.15,2,4.33,3.88,6.35,6a17.44,17.44,0,0,0,1.22-1.48c2.47-3.26,3.72-6.77,3-7.32,0,0-7.68-7.78-13.06-11.48l-5.55,7.7C950.73,225.27,951.5,226,952.35,226.7Z"/><path class="cls-15" d="M953.15,235.56l-4.75-2.81c-1.06-.63-2-1.42-3-2.13l-.93.82a82.17,82.17,0,0,0,15.11,8.77c.26.2.78.09,1.45-.28C958.41,238.45,955.72,237.08,953.15,235.56Z"/><path class="cls-16" d="M951.43,225.29c-3,4-6.17,6.76-7,6.14s1-4.38,4-8.39,6.16-6.77,7-6.15S954.46,221.28,951.43,225.29Z"/><path class="cls-17" d="M953.67,219.4c.07-.27.07-.45,0-.53-.44-.32-2.49,1.66-4.59,4.43s-3.44,5.29-3,5.62c.11.09.34,0,.64-.19a19.78,19.78,0,0,1,3-5.09A21.46,21.46,0,0,1,953.67,219.4Z"/><path class="cls-17" d="M953.67,219.4a21.41,21.41,0,0,0-3.94,4.24,19.78,19.78,0,0,0-3,5.09,21.21,21.21,0,0,0,3.95-4.24A19.3,19.3,0,0,0,953.67,219.4Z"/><path class="cls-15" d="M975.66,225.63,957.6,212s-5-3.16-4.45.78,13.44,31.49,13.44,31.49a15.4,15.4,0,0,0,4.11,5s12.67,11.06,11.6,6.1-3.47-24.25-3.47-24.25S977.94,227.21,975.66,225.63Z"/><path class="cls-18" d="M975.66,225.63,957.6,212s-5-3.16-4.45.78,13.44,31.49,13.44,31.49a15.4,15.4,0,0,0,4.11,5s12.67,11.06,11.6,6.1-3.47-24.25-3.47-24.25S977.94,227.21,975.66,225.63Z"/><path class="cls-19" d="M982.3,255.4c-1.08-5-3.47-24.25-3.47-24.25s-.89-3.93-3.17-5.51L973.53,224a24.71,24.71,0,0,1,3.09,8.73c.94,4.62,1.72,9.29,2.71,13.9a51.2,51.2,0,0,1,1,5.64c.11,1.07.29,2.24-.47,3.1a1.44,1.44,0,0,1-.54.41C981.3,256.89,982.68,257.17,982.3,255.4Z"/><path class="cls-20" d="M960,214.59s-5.35-4.32-4.75-1.11,10.75,27,10.75,27,1.89,5.75,5.38,7.93c0,0-3-4.23-3.8-7.47s-8.6-23.57-8.6-23.57S957.23,213.62,960,214.59Z"/><path class="cls-4" d="M1034.25,260.73l-7.37-4.27s-2.75-1.46-2.91-.06l11.55,16.3-8.93-14.39s-.79-1.15.64-.76S1034.25,260.73,1034.25,260.73Z"/><path class="cls-6" d="M932.66,171a30.83,30.83,0,0,1,13.12,4.87c6.61,4.36,54.29,44.19,54.29,44.19l-54.64-42.52s-2.35-2.24-5.16-1.06Z"/><path class="cls-21" d="M911.24,182.65a12.36,12.36,0,0,0,2.78-2.21c2.17-3,3.9-6.75,1.8-9.24,0,0-6.18-2.38-9.85.16,0,0-2.45,2,2.56,12.07A6.33,6.33,0,0,0,911.24,182.65Z"/><path class="cls-6" d="M956.93,202.47s49.52,35.57,66.23,46.32C1023.16,248.79,984.79,228.51,956.93,202.47Z"/><path class="cls-22" d="M1048,83.05c-7.34,0-9.75-5.5-11.47-7.86h0a9.09,9.09,0,0,0-11-3.41,9.39,9.39,0,0,0-7.8-4.86h-.22a18.52,18.52,0,0,0-26.15-1.41,17.59,17.59,0,0,0-1.3,1.29,22.16,22.16,0,0,0-38.34,4.07,12.85,12.85,0,0,0-6.52-2.07,13.06,13.06,0,1,0,8.09,22.77,22.16,22.16,0,0,0,30.56,7,22.76,22.76,0,0,0,2.95-2.22,8.77,8.77,0,0,0,2.1.34,9.39,9.39,0,0,0,5.3-1.34,18.5,18.5,0,0,0,25.38-6.4,18.1,18.1,0,0,0,1.68-3.66,9.09,9.09,0,0,0,12.16,2.9h0c3.92-1.71,6.15-3.13,11.64-3.48,1-.07,1.89-.09,2.76-.07C1051.61,84.59,1050.05,83,1048,83.05Z"/><path class="cls-23" d="M1023.65,74.28s8.73-4.35,13.85,2.45h0c-.38-.58-.71-1.11-1-1.54h0a9.09,9.09,0,0,0-11-3.41,9.39,9.39,0,0,0-7.8-4.86h-.22a18.52,18.52,0,0,0-26.16-1.37,16.5,16.5,0,0,0-1.26,1.25,22.16,22.16,0,0,0-38.34,4.07,12.85,12.85,0,0,0-6.52-2.07,13.07,13.07,0,0,0-13.07,9.13s6.69-9.84,18.41-5.17c0,0-3,2.18-3.11,3.84a18.49,18.49,0,0,1,12.24-1.06,5.89,5.89,0,0,0-5.77-3.37c1.45-3.37,4.1-8.25,13.1-10.8,9.27-2.28,19,2,20,8,0,0-5.47.61-7.9,4.7,0,0,10.63-5.31,20.65,0a10.65,10.65,0,0,0-7.59-5.16s2.67-6.77,13.55-5.82a12.27,12.27,0,0,1,9.22,7S1021.67,67.29,1023.65,74.28Z"/><path class="cls-24" d="M1033.21,84.8c-8,3.14-11-1-11.91-3.14l.37-.13a22.23,22.23,0,0,0,5.18-3.8c-7,2.93-12,.4-12,.4a6.67,6.67,0,0,0,5.68,3.66c-4,10-20.68,15.49-26.45,8.48a8.66,8.66,0,0,1-4.42,1.12c-3.73-.62-4.13-3-4.13-3l5.39-3.59a4.6,4.6,0,0,0,4,.5,22,22,0,0,0,5.18-3.81c-7,2.94-12,.41-12,.41a6.86,6.86,0,0,0,2.67,2.8c-9.26,3.62-16.1-.37-16.1-.37,1.72,1.82,7.69,4.15,7.69,4.15-.8,4.3-5.9,5.49-6,5.52-7.68,1.28-16.75-.85-19.89-7.8a22.18,22.18,0,0,0,5.17-3.8c-7,2.94-12,.41-12,.41a7.14,7.14,0,0,0,4,3.42c-5.89,4.09-13.59,4.76-19.3,1.88a12.14,12.14,0,0,0,9.8,5.8h.56a12.13,12.13,0,0,0,8.09-3.1l.8-.71.57.91a21.3,21.3,0,0,0,17,9.91h1a21.19,21.19,0,0,0,14.12-5.39l.37-.33.48.13a8.78,8.78,0,0,0,1.9.32h.4a8.5,8.5,0,0,0,4.39-1.22l.47-.28.47.28a17.74,17.74,0,0,0,8.2,2.47h.83a17.57,17.57,0,0,0,16.69-12l.6-1.79,1,1.58a8.24,8.24,0,0,0,6.48,3.7h.37a8.14,8.14,0,0,0,4.09-1.1l.13-.06,1.77-.79A26.93,26.93,0,0,1,1042,84C1038.45,84,1035,84.07,1033.21,84.8Z"/><path class="cls-22" d="M827.88,207.06c-5.7-.4-9.43,3.85-14.31,3.86-3.77,0-8.71-1.23-10.64-6.52-1.07-2.79-4.11-4.93-7.91-5.19a10.36,10.36,0,0,0-6.95,2,8.9,8.9,0,0,0-5.06-2,9.51,9.51,0,0,0-2.5.15,8.58,8.58,0,0,0,.3-1.59c.68-6.44-5.16-12.11-13-12.66-6.71-.47-12.73,2.94-14.78,7.94a16.24,16.24,0,0,0-9.66-3.88A17.11,17.11,0,0,0,733,191.69c-.94-3.91-4.93-7-10-7.36a13.52,13.52,0,0,0-5.46.74c-2-7.7-9.91-13.78-20-14.48-12.31-.87-23.14,6.6-24.19,16.67a14.93,14.93,0,0,0,.91,7,6.55,6.55,0,0,0-3.73,5,5.53,5.53,0,0,0,.8,3.46,13.05,13.05,0,0,0-2.51,3.68,13.26,13.26,0,0,0-5.16-1.43c-6.29-.44-11.84,3.38-12.38,8.53s4.13,9.69,10.43,10.13A12.59,12.59,0,0,0,671.78,220a18,18,0,0,0,11.22,4.7,19.9,19.9,0,0,0,4.56-.2c1.87,4,6.38,7,11.92,7.34,7.68.53,14.44-4.09,15.18-10.36a10.63,10.63,0,0,0,2.56.49c4.7.33,8.87-2.24,9.91-5.9a24,24,0,0,0,15.57,6.83,25.39,25.39,0,0,0,17.57-5.17,21.89,21.89,0,0,0,12.34,4.7c8.2.58,15.65-3,19.27-8.6.42.09,3.87,5.18,13.42,5.16,11.8,0,16.89-7,23.06-7.13h1.12a10.82,10.82,0,0,1,5,1.55C837.12,215,835.65,207.61,827.88,207.06Z"/><path class="cls-24" d="M814,215.35c-13.64,4.81-19.14-6.75-19.14-6.75s-3.3,6.56-12.35,6-10.71-4.76-10.71-4.76a9.5,9.5,0,0,0,6.09-5c-17.4,8-28-2.43-28-2.43.3,5.49,7,7.88,7,7.88-6.37,4.18-15.63,4.77-21.85-3.63-5.3,6.87-11.31,1.11-11.31,1.11-6.75,11.55-22.9,6.34-23.7.67,8.44-2.06,12.08-9.89,12.08-9.89-14.65,12.37-32.15,2.88-32.15,2.88,3.69,5.41,11.45,7.21,11.45,7.21-8.37,15-23.8,4.65-23.8,4.65-.87,6.29-8.21,7.71-13.42,6.29a11.46,11.46,0,0,0,7.49,3.34h.14a11.77,11.77,0,0,0,9.24-3.41l.59-.63.63.6A17.09,17.09,0,0,0,683,224h.22a19.7,19.7,0,0,0,4.13-.2l.65-.1.23.49c1.84,3.92,6.15,6.57,11.26,6.93h.18c7.12.42,13.47-4,14.15-9.79l.1-.83,1,.3a9.85,9.85,0,0,0,2.35.44h.11c4.24.25,8-2,9-5.41l.36-1.29,1,1a23,23,0,0,0,15,6.6h.3a24.56,24.56,0,0,0,16.65-5l.55-.44.55.44a21.22,21.22,0,0,0,11.87,4.62h.26c7.55.44,14.71-2.81,18.25-8.29l.29-.45.6.14c.31.06.47.22.82.57,1,1,4.23,4.13,10.89,4.52h1.5c6.66,0,11.06-2.3,14.94-4.32,2.85-1.48,5.32-2.77,8.11-2.81h.91C826.18,210.7,823.16,212.11,814,215.35Z"/><path class="cls-23" d="M669.44,208.26s1.67-3.75,3.63-5.13c0,0-4.15-3.23.62-8.59a6.38,6.38,0,0,0-3.19,4.7,5.53,5.53,0,0,0,.8,3.46,13.05,13.05,0,0,0-2.51,3.68,13.26,13.26,0,0,0-5.16-1.43c-6.29-.44-11.84,3.38-12.38,8.53C653.91,206.92,663.08,204.47,669.44,208.26Z"/><path class="cls-23" d="M772.74,186.23a16.86,16.86,0,0,0-5-1.11c-6.71-.47-12.73,2.94-14.78,7.94a16.24,16.24,0,0,0-9.66-3.88,17.19,17.19,0,0,0-10.3,2.51c-.94-3.91-4.93-7-10-7.36a13.52,13.52,0,0,0-5.46.74c-2-7.7-9.91-13.78-20-14.48-12.31-.87-23.14,6.6-24.19,16.67a14.93,14.93,0,0,0,.91,7,15.87,15.87,0,0,1,.85,2.2s-1.64,1.18-1.81,4.44c0,0,2.24-5.34,10.69-6.55a10.78,10.78,0,0,0-6,.46s-2.63-10.56,9.39-15.83a10,10,0,0,1,5-.85s-4.32,2.67-4.52,5.85c0,0,4.49-6.56,17.72-1.8a8.29,8.29,0,0,0-5-3.92s8.47-.35,13.82,8.93a8.35,8.35,0,0,0-4,4.24s13.33-7.25,21.83,1.78c0,0,12.38-5.6,19.51,1.86a12.07,12.07,0,0,0-4.21,2.1s6.64-2.38,12.2-1.34a16.53,16.53,0,0,0-5-1.79S759.28,184.13,772.74,186.23Z"/><path class="cls-23" d="M800.45,201.18a10.06,10.06,0,0,0-5.43-2,10.36,10.36,0,0,0-6.95,2,8.9,8.9,0,0,0-5.06-2,9.51,9.51,0,0,0-2.5.15s5.84.47,7.22,3.59C787.73,203,794.89,197.64,800.45,201.18Z"/><path class="cls-22" d="M1204.14,236.67c-7.34,0-9.75-5.49-11.47-7.86h0a9.08,9.08,0,0,0-11-3.42,9.39,9.39,0,0,0-7.8-4.86h-.22a18.5,18.5,0,0,0-26.14-1.33c-.42.38-.83.78-1.21,1.2a22.15,22.15,0,0,0-38.33,4.07,12.81,12.81,0,0,0-6.53-2.12,13.06,13.06,0,1,0,8.1,22.77,22.18,22.18,0,0,0,33.5,4.74,10.11,10.11,0,0,0,2.11.35,9.45,9.45,0,0,0,5.29-1.35,18.52,18.52,0,0,0,25.37-6.47,18.78,18.78,0,0,0,1.64-3.59,9.1,9.1,0,0,0,12.16,2.9h0c3.92-1.71,6.15-3.13,11.64-3.48,1-.07,1.89-.08,2.76-.07C1207.81,238.21,1206.24,236.66,1204.14,236.67Z"/><path class="cls-23" d="M1179.84,227.9s8.73-4.35,13.86,2.45h0l-1-1.54h0a9.08,9.08,0,0,0-11-3.42,9.39,9.39,0,0,0-7.8-4.86h-.22a18.5,18.5,0,0,0-26.14-1.33c-.42.38-.83.78-1.21,1.2a22.15,22.15,0,0,0-38.33,4.07,12.81,12.81,0,0,0-6.53-2.12,13,13,0,0,0-13.06,9.13s6.69-9.84,18.41-5.17c0,0-3,2.19-3.12,3.84a18.49,18.49,0,0,1,12.24-1.06,5.89,5.89,0,0,0-5.77-3.37c1.45-3.3,4.13-8.2,13.12-10.75,9.26-2.28,19,2,20,8.05,0,0-5.47.61-7.9,4.71,0,0,10.63-5.32,20.65,0a10.67,10.67,0,0,0-7.59-5.17s2.63-6.76,13.55-5.76a12.27,12.27,0,0,1,9.23,7S1177.87,220.91,1179.84,227.9Z"/><path class="cls-24" d="M1189.41,238.37c-8,3.14-11-1-11.91-3.14l.37-.13a22.23,22.23,0,0,0,5.18-3.8c-7,2.93-12,.4-12,.4a6.67,6.67,0,0,0,5.68,3.66c-4,10-20.67,15.49-26.45,8.48a8.66,8.66,0,0,1-4.42,1.12c-3.72-.62-4.13-3-4.13-3l5.44-3.48a4.57,4.57,0,0,0,4,.5,22.33,22.33,0,0,0,5.19-3.81c-7,2.94-12,.41-12,.41a7,7,0,0,0,2.67,2.8c-9.26,3.62-16.1-.37-16.1-.37,1.72,1.82,7.7,4.15,7.7,4.15-.8,4.3-5.91,5.49-6,5.52-7.67,1.28-16.75-.84-19.89-7.8a22.19,22.19,0,0,0,5.18-3.79c-7,2.93-12,.4-12,.4a7.18,7.18,0,0,0,4,3.42c-5.89,4.09-13.58,4.76-19.3,1.88a12.17,12.17,0,0,0,9.8,5.8h.57a12.16,12.16,0,0,0,8.08-3.09l.8-.72.58.91a21.3,21.3,0,0,0,17,9.91h1a21.19,21.19,0,0,0,14.12-5.39l.37-.33.49.13a8.78,8.78,0,0,0,1.9.32h.4a8.46,8.46,0,0,0,4.38-1.22l.47-.28.47.28a17.74,17.74,0,0,0,8.2,2.47h.83a17.59,17.59,0,0,0,16.7-12.06l.59-1.79,1,1.58a8.26,8.26,0,0,0,6.48,3.7h.38a8.35,8.35,0,0,0,4.09-1.1l.12-.06c.63-.27,1.21-.54,1.77-.79a26.93,26.93,0,0,1,7.08-2.41C1194.64,237.57,1191.17,237.69,1189.41,238.37Z"/><path class="cls-25" d="M704.39,286.35a1.65,1.65,0,1,0-1.66,1.64h0A1.65,1.65,0,0,0,704.39,286.35Z"/><circle class="cls-25" cx="591.47" cy="224.13" r="1.17"/><circle class="cls-25" cx="783.89" cy="54.55" r="1.67"/><circle class="cls-25" cx="823.99" cy="121.9" r="1.17"/><path class="cls-25" d="M901.34,330.46a1.17,1.17,0,1,0-1.17,1.17h0a1.16,1.16,0,0,0,1.17-1.15Z"/><path class="cls-25" d="M679.51,354a1.17,1.17,0,1,0-1.17,1.17h0A1.17,1.17,0,0,0,679.51,354Z"/><circle class="cls-25" cx="772.1" cy="294" r="1.17"/><path class="cls-25" d="M993.73,119.63a1.65,1.65,0,0,1-3.29.26,1.13,1.13,0,0,1,0-.26,1.65,1.65,0,0,1,3.29,0Z"/><circle class="cls-25" cx="880.81" cy="181.85" r="1.17"/><circle class="cls-25" cx="1073.23" cy="351.43" r="1.67"/><circle class="cls-25" cx="1113.32" cy="284.08" r="1.17"/><path class="cls-25" d="M1190.68,75.52a1.17,1.17,0,1,1-1.17-1.17,1.17,1.17,0,0,1,1.17,1.17Z"/><path class="cls-25" d="M968.85,52a1.17,1.17,0,1,1-2.34-.06,1.18,1.18,0,0,1,1.17-1.14A1.17,1.17,0,0,1,968.85,52Z"/><circle class="cls-25" cx="1061.44" cy="111.98" r="1.17"/><polygon class="cls-26" points="689.51 115.49 690.94 118.38 694.13 118.85 691.82 121.1 692.37 124.27 689.51 122.77 686.66 124.27 687.2 121.1 684.9 118.85 688.09 118.38 689.51 115.49"/><polygon class="cls-27" points="975.08 251.58 976.5 254.47 979.69 254.93 977.38 257.18 977.93 260.36 975.08 258.86 972.22 260.36 972.77 257.18 970.46 254.93 973.65 254.47 975.08 251.58"/><polygon class="cls-27" points="918.51 335.47 919.94 338.36 923.13 338.82 920.82 341.07 921.37 344.25 918.51 342.75 915.66 344.25 916.21 341.07 913.9 338.82 917.09 338.36 918.51 335.47"/><path class="cls-26" d="M789.12,64.24l.53,1.07,1.18.17a.36.36,0,0,1,.2.62l-.86.83.21,1.18a.36.36,0,0,1-.29.42.34.34,0,0,1-.24,0l-1.06-.56-1,.56a.35.35,0,0,1-.49-.14.34.34,0,0,1,0-.24l.21-1.18-.86-.83a.36.36,0,0,1,0-.51.39.39,0,0,1,.22-.11l1.18-.17.53-1.07a.36.36,0,0,1,.5-.1A.47.47,0,0,1,789.12,64.24Z"/><path class="cls-27" d="M643.39,321.74l.53,1.08,1.18.17a.36.36,0,0,1,.32.38.35.35,0,0,1-.12.23l-.86.84.21,1.18a.36.36,0,0,1-.32.41.39.39,0,0,1-.21,0l-1.06-.56-1,.56a.38.38,0,0,1-.5-.17.37.37,0,0,1,0-.21l.21-1.18-.86-.84a.35.35,0,0,1,.2-.61l1.18-.17.53-1.08a.37.37,0,0,1,.52-.08A.3.3,0,0,1,643.39,321.74Z"/><path class="cls-26" d="M667.19,52.9l.53,1.07,1.18.17a.36.36,0,0,1,.2.62l-.85.83.2,1.18a.35.35,0,0,1-.29.41.31.31,0,0,1-.23,0l-1.06-.56-1.06.56a.35.35,0,0,1-.48-.16.33.33,0,0,1,0-.22l.2-1.18-.86-.83a.37.37,0,0,1,0-.52.35.35,0,0,1,.19-.1L666,54l.52-1.07a.36.36,0,0,1,.48-.17A.46.46,0,0,1,667.19,52.9Z"/><path class="cls-26" d="M665.76,265.55a1.17,1.17,0,1,1-1.17-1.17h0A1.17,1.17,0,0,1,665.76,265.55Z"/><path class="cls-26" d="M833,118.71a1.17,1.17,0,1,1-1.17-1.17h0A1.17,1.17,0,0,1,833,118.71Z"/><path class="cls-27" d="M772.14,53.87A1.17,1.17,0,1,1,771,52.69h0A1.17,1.17,0,0,1,772.14,53.87Z"/><circle class="cls-28" cx="772.53" cy="333.58" r="6.48" transform="translate(-55.97 186.38) rotate(-13.28)"/><path class="cls-29" d="M770.28,329.8a6.26,6.26,0,0,0-3.69,1.2,6.35,6.35,0,0,0-.54,2.58,6.47,6.47,0,0,0,9.8,5.56h0a6.32,6.32,0,0,0-5.57-9.33Z"/><polygon class="cls-26" points="938.04 103.81 939.47 106.7 942.65 107.17 940.35 109.42 940.89 112.59 938.04 111.09 935.18 112.59 935.73 109.42 933.42 107.17 936.61 106.7 938.04 103.81"/><polygon class="cls-27" points="1223.6 239.9 1225.03 242.79 1228.22 243.25 1225.91 245.5 1226.45 248.68 1223.6 247.18 1220.75 248.68 1221.29 245.5 1218.98 243.25 1222.17 242.79 1223.6 239.9"/><polygon class="cls-27" points="1167.04 323.79 1168.47 326.68 1171.66 327.14 1169.35 329.39 1169.89 332.57 1167.04 331.07 1164.19 332.57 1164.73 329.39 1162.42 327.14 1165.61 326.68 1167.04 323.79"/><path class="cls-26" d="M1037.64,52.56l.53,1.07,1.19.17a.38.38,0,0,1,.3.43.44.44,0,0,1-.1.19l-.86.83.2,1.18a.35.35,0,0,1-.3.41.29.29,0,0,1-.22,0l-1.06-.56-1.06.56a.37.37,0,0,1-.49-.16.4.4,0,0,1,0-.22l.2-1.18-.86-.83a.37.37,0,0,1,0-.52.35.35,0,0,1,.19-.1l1.19-.17.53-1.07a.34.34,0,0,1,.46-.18A.39.39,0,0,1,1037.64,52.56Z"/><path class="cls-27" d="M891.91,310.06l.53,1.08,1.19.17a.35.35,0,0,1,.3.41.35.35,0,0,1-.1.2l-.83.88.2,1.18a.35.35,0,0,1-.29.41.31.31,0,0,1-.23,0l-1.06-.56-1.06.56a.35.35,0,0,1-.48-.16.33.33,0,0,1,0-.22l.2-1.18-.86-.84a.36.36,0,0,1,0-.51.35.35,0,0,1,.2-.1l1.19-.17.53-1.08a.36.36,0,0,1,.47-.17A.44.44,0,0,1,891.91,310.06Z"/><path class="cls-26" d="M915.72,41.22l.53,1.07,1.18.17a.36.36,0,0,1,.2.62l-.86.83.21,1.18a.36.36,0,0,1-.32.41.39.39,0,0,1-.21,0l-1.06-.56-1.06.56a.35.35,0,0,1-.48-.16.33.33,0,0,1,0-.22l.2-1.18-.85-.83a.36.36,0,0,1,0-.51.39.39,0,0,1,.22-.11l1.18-.17.53-1.07a.36.36,0,0,1,.48-.17A.46.46,0,0,1,915.72,41.22Z"/><path class="cls-26" d="M914.28,253.87a1.17,1.17,0,1,1-1.17-1.17h0A1.17,1.17,0,0,1,914.28,253.87Z"/><path class="cls-26" d="M1081.52,107a1.17,1.17,0,1,1-1.17-1.17,1.17,1.17,0,0,1,1.17,1.17Z"/><path class="cls-27" d="M1020.67,42.19A1.17,1.17,0,1,1,1019.5,41a1.17,1.17,0,0,1,1.17,1.18Z"/><circle class="cls-28" cx="1021.05" cy="321.9" r="6.48" transform="translate(539.71 1278.18) rotate(-80.78)"/><path class="cls-29" d="M1018.81,318.08a6.29,6.29,0,0,0-3.7,1.2,6.48,6.48,0,0,0,9.27,8.14h0a6.34,6.34,0,0,0-2.6-8.58,6.27,6.27,0,0,0-3-.75Z"/><text class="cls-30" transform="translate(862.46 298.32)">oops..!</text><text class="cls-31" transform="translate(669.93 392.91)">PAGE NOT FOUND</text></g></svg>