<svg id="Layer_1" data-name="Layer 1" xmlns="http://www.w3.org/2000/svg" viewBox="0 0 1920 450"><defs><style>.cls-1{fill:#f7f9f9;}.cls-2{fill:#e0efff;}.cls-23,.cls-24,.cls-3{fill:#fff;}.cls-4{fill:#c6daf1;}.cls-5{fill:#ff3541;}.cls-6{fill:#cb202c;}.cls-7,.cls-9{fill:#ededee;}.cls-16,.cls-23,.cls-24,.cls-30,.cls-32,.cls-7{isolation:isolate;}.cls-7{opacity:0.7;}.cls-8{fill:#850a12;}.cls-10{fill:#494e53;}.cls-11,.cls-16,.cls-24{opacity:0.5;}.cls-12{fill:#a4a4a8;}.cls-13{fill:#2a4360;}.cls-14{fill:#436387;}.cls-15{fill:#700004;}.cls-16{fill:#95111a;}.cls-17{fill:#a9b2b2;}.cls-18{fill:#cbd5d4;}.cls-19{fill:#e6dfd6;}.cls-20{fill:#94918d;}.cls-21{fill:#d8d9da;}.cls-22{fill:#babcbd;}.cls-23{opacity:0.6;}.cls-25{fill:#007cff;}.cls-26{fill:#ececec;}.cls-27{fill:#f5f5f5;}.cls-28{fill:#f0f0f0;}.cls-29{fill:#e7e7e7;}.cls-30,.cls-32{font-size:60px;}.cls-30,.cls-36{fill:#10213a;}.cls-30,.cls-32,.cls-36{font-family:Montserrat-ExtraBold, Montserrat;font-weight:800;}.cls-31{letter-spacing:0.01em;}.cls-32{fill:#ff7300;}.cls-33{letter-spacing:-0.01em;}.cls-34{letter-spacing:0.01em;}.cls-35{letter-spacing:-0.03em;}.cls-36{font-size:30px;}.cls-37{letter-spacing:-0.02em;}.cls-38{letter-spacing:0em;}.cls-39{letter-spacing:-0.01em;}</style></defs><g id="Layer_1-2" data-name="Layer 1-2"><g id="Layer_4" data-name="Layer 4"><rect class="cls-1" width="1920" height="450"/><path class="cls-2" d="M1048,63c-7.3,0-9.8-5.5-11.5-7.9h0a9.1,9.1,0,0,0-11-3.4,9.5,9.5,0,0,0-7.8-4.9h-.2a18.6,18.6,0,0,0-26.2-1.4,8,8,0,0,0-1.3,1.3,22.2,22.2,0,0,0-30.9-5.1h0a21.5,21.5,0,0,0-7.4,9.2,12.5,12.5,0,0,0-6.5-2.1,13.1,13.1,0,1,0-1.9,26.1h.6a12.7,12.7,0,0,0,9.3-3.3,22.2,22.2,0,0,0,30.6,7h0l3-2.2,2.1.3a9.7,9.7,0,0,0,5.3-1.3,18.6,18.6,0,0,0,25.4-6.4,17.6,17.6,0,0,0,1.7-3.7,9.2,9.2,0,0,0,12.2,2.9h0c3.9-1.7,6.2-3.1,11.6-3.5h2.8C1051.6,64.6,1050.1,63,1048,63Z"/><path class="cls-3" d="M1023.7,54.3s8.7-4.3,13.8,2.4h0l-1-1.5h0a9.1,9.1,0,0,0-11-3.4,9.5,9.5,0,0,0-7.8-4.9h-.2a18.6,18.6,0,0,0-26.2-1.4,8,8,0,0,0-1.3,1.3,22.2,22.2,0,0,0-30.9-5.1h0a21.5,21.5,0,0,0-7.4,9.2,12.5,12.5,0,0,0-6.5-2.1,13.2,13.2,0,0,0-13.1,9.1s6.7-9.8,18.4-5.2c0,0-3,2.2-3.1,3.8a18.9,18.9,0,0,1,12.2-1.1,6,6,0,0,0-5.8-3.4c1.5-3.4,4.1-8.2,13.1-10.8s19,2,20,8c0,0-5.5.6-7.9,4.7,0,0,10.6-5.3,20.7,0a10.6,10.6,0,0,0-7.6-5.2s2.7-6.8,13.5-5.8a12.1,12.1,0,0,1,9.2,7C1014.9,50.1,1021.7,47.3,1023.7,54.3Z"/><path class="cls-4" d="M1033.2,64.8c-8,3.1-11-1-11.9-3.1h.4a23.9,23.9,0,0,0,5.2-3.8c-7,2.9-12,.4-12,.4a6.7,6.7,0,0,0,5.7,3.7c-4,10-20.7,15.5-26.5,8.5a8.5,8.5,0,0,1-4.4,1.1c-3.7-.6-4.1-3-4.1-3l5.4-3.6a4.4,4.4,0,0,0,4,.5,23.9,23.9,0,0,0,5.2-3.8c-7,2.9-12,.4-12,.4a6.1,6.1,0,0,0,2.7,2.8c-9.3,3.6-16.1-.4-16.1-.4,1.7,1.8,7.7,4.2,7.7,4.2-.8,4.3-5.9,5.5-6,5.5-7.7,1.3-16.8-.8-19.9-7.8a23.9,23.9,0,0,0,5.2-3.8c-7,2.9-12,.4-12,.4a7.1,7.1,0,0,0,4,3.4c-5.9,4.1-13.6,4.8-19.3,1.9a12.3,12.3,0,0,0,9.8,5.8h.6a12,12,0,0,0,8.1-3.1l.8-.7.6.9a21.2,21.2,0,0,0,17,9.9h1a21.1,21.1,0,0,0,14.1-5.4l.4-.3h.5a6.3,6.3,0,0,0,1.9.3h.4a8.6,8.6,0,0,0,4.4-1.2l.5-.3.5.3a18.3,18.3,0,0,0,8.2,2.5h.8a17.5,17.5,0,0,0,16.7-12l.6-1.8,1,1.6a8.2,8.2,0,0,0,6.5,3.7h.4a8.7,8.7,0,0,0,4.1-1.1h.1l1.8-.8a28.3,28.3,0,0,1,7.1-2.4C1038.4,63.9,1035,64.1,1033.2,64.8Z"/><path class="cls-2" d="M827.9,187.1c-5.7-.4-9.4,3.9-14.3,3.9s-8.7-1.2-10.6-6.5c-1.1-2.8-4.1-4.9-7.9-5.2a10.3,10.3,0,0,0-7,2,8.5,8.5,0,0,0-5.1-2,10.5,10.5,0,0,0-2.5.1l.3-1.6c.7-6.4-5.2-12.1-13-12.7S755.1,168,753,173a16.4,16.4,0,0,0-9.7-3.9,17.3,17.3,0,0,0-10.4,2.5c-.9-3.9-4.9-7-10-7.4a14.6,14.6,0,0,0-5.5.7c-2-7.7-9.9-13.8-20-14.5-12.3-.9-23.1,6.6-24.2,16.7a15.1,15.1,0,0,0,.9,7,6.4,6.4,0,0,0-3.7,5,6.2,6.2,0,0,0,.8,3.5,13.4,13.4,0,0,0-2.5,3.7,13.4,13.4,0,0,0-5.2-1.4c-6.3-.4-11.8,3.4-12.4,8.5s4.1,9.7,10.4,10.1a13.1,13.1,0,0,0,10.1-3.6,17.9,17.9,0,0,0,11.2,4.7,23.6,23.6,0,0,0,4.6-.2c1.9,4,6.4,6.9,11.9,7.3,7.7.5,14.4-4.1,15.2-10.4a10.9,10.9,0,0,0,2.6.5c4.7.3,8.9-2.2,9.9-5.9a24,24,0,0,0,15.6,6.8,25.3,25.3,0,0,0,17.6-5.2,22,22,0,0,0,12.3,4.7c8.2.6,15.7-3,19.3-8.6.4.1,3.9,5.2,13.4,5.2,11.8,0,16.9-7,23.1-7.1h1.1a9.9,9.9,0,0,1,5,1.6C837.1,195,835.7,187.6,827.9,187.1Z"/><path class="cls-4" d="M814,195.3c-13.6,4.8-19.1-6.8-19.1-6.8s-3.3,6.6-12.3,6-10.7-4.8-10.7-4.8a9.3,9.3,0,0,0,6.1-5c-17.4,8-28-2.4-28-2.4.3,5.5,7,7.9,7,7.9-6.4,4.2-15.6,4.8-21.8-3.6-5.3,6.9-11.3,1.1-11.3,1.1-6.8,11.6-22.9,6.3-23.7.7,8.4-2.1,12.1-9.9,12.1-9.9-14.7,12.4-32.2,2.9-32.2,2.9,3.7,5.4,11.5,7.2,11.5,7.2-8.4,15-23.8,4.6-23.8,4.6-.9,6.3-8.2,7.7-13.4,6.3a11.2,11.2,0,0,0,7.5,3.3h.1a11.7,11.7,0,0,0,9.2-3.4l.6-.6.6.6a17.6,17.6,0,0,0,10.7,4.6h.2a18.8,18.8,0,0,0,4.1-.2h.7l.2.5c1.8,3.9,6.2,6.6,11.3,6.9h.2c7.1.4,13.5-4,14.2-9.8v-.8l1,.3a8.5,8.5,0,0,0,2.3.4h.1c4.2.2,8-2,9-5.4l.4-1.3,1,1a23,23,0,0,0,15,6.6h.3a25,25,0,0,0,16.7-5l.5-.4.5.4a21.6,21.6,0,0,0,11.9,4.6h.3c7.5.4,14.7-2.8,18.2-8.3l.3-.4h.6a1.6,1.6,0,0,1,.8.6c1,1,4.2,4.1,10.9,4.5h1.5c6.7,0,11.1-2.3,14.9-4.3s5.3-2.8,8.1-2.8h.9C826.2,190.7,823.2,192.1,814,195.3Z"/><path class="cls-3" d="M669.4,188.3s1.7-3.8,3.6-5.1c0,0-4.2-3.2.6-8.6a6.6,6.6,0,0,0-3.2,4.7,6.2,6.2,0,0,0,.8,3.5,13.4,13.4,0,0,0-2.5,3.7,13.4,13.4,0,0,0-5.2-1.4c-6.3-.4-11.8,3.4-12.4,8.5C653.9,186.9,663.1,184.5,669.4,188.3Z"/><path class="cls-3" d="M772.7,166.2a17.2,17.2,0,0,0-5-1.1c-6.7-.5-12.7,2.9-14.8,7.9a16.4,16.4,0,0,0-9.7-3.9,17,17,0,0,0-10.3,2.5c-.9-3.9-4.9-7-10-7.4a14.6,14.6,0,0,0-5.5.7c-2-7.7-9.9-13.8-20-14.5-12.3-.9-23.1,6.6-24.2,16.7a15.1,15.1,0,0,0,.9,7,14.3,14.3,0,0,1,.8,2.2s-1.6,1.2-1.8,4.4c0,0,2.2-5.3,10.7-6.6a10.3,10.3,0,0,0-6,.5s-2.6-10.6,9.4-15.8a10.8,10.8,0,0,1,5-.9s-4.3,2.7-4.5,5.9c0,0,4.5-6.6,17.7-1.8a8.5,8.5,0,0,0-5-3.9s8.5-.4,13.8,8.9a8.6,8.6,0,0,0-4,4.2S723.5,164,732,173c0,0,12.4-5.6,19.5,1.9a11.1,11.1,0,0,0-4.2,2.1s6.6-2.4,12.2-1.3a14.3,14.3,0,0,0-5-1.8C754.7,174,759.3,164.1,772.7,166.2Z"/><path class="cls-3" d="M800.5,181.2a9.7,9.7,0,0,0-5.4-2,10.3,10.3,0,0,0-7,2,8.5,8.5,0,0,0-5.1-2,10.5,10.5,0,0,0-2.5.1s5.8.5,7.2,3.6C787.7,183,794.9,177.6,800.5,181.2Z"/><path class="cls-2" d="M1204.1,216.7c-7.3,0-9.8-5.5-11.5-7.9h0a9.1,9.1,0,0,0-11-3.4,9.5,9.5,0,0,0-7.8-4.9h-.2a18.4,18.4,0,0,0-26-1.4h-.1l-1.2,1.2a22.2,22.2,0,0,0-30.9-5.1,21.5,21.5,0,0,0-7.4,9.2,12.5,12.5,0,0,0-6.5-2.1,13.1,13.1,0,0,0-1.3,26.1,12.7,12.7,0,0,0,9.3-3.3,22.1,22.1,0,0,0,30.4,7h.1l3-2.2,2.1.4a9,9,0,0,0,5.3-1.4,18.6,18.6,0,0,0,25.4-6.5,14.6,14.6,0,0,0,1.6-3.6,9.2,9.2,0,0,0,12.2,2.9h0c3.9-1.7,6.2-3.1,11.6-3.5h2.8C1207.8,218.2,1206.2,216.7,1204.1,216.7Z"/><path class="cls-3" d="M1179.8,207.9s8.7-4.4,13.9,2.4h0l-1-1.5h0a9.1,9.1,0,0,0-11-3.4,9.5,9.5,0,0,0-7.8-4.9h-.2a18.4,18.4,0,0,0-26-1.4h-.1l-1.2,1.2a22.2,22.2,0,0,0-30.9-5.1,21.5,21.5,0,0,0-7.4,9.2,12.5,12.5,0,0,0-6.5-2.1,13.2,13.2,0,0,0-13.1,9.1s6.7-9.8,18.4-5.2c0,0-3,2.2-3.1,3.8A18.9,18.9,0,0,1,1116,209a6,6,0,0,0-5.8-3.4c1.4-3.3,4.1-8.2,13.1-10.8s19,2,20,8.1c0,0-5.5.6-7.9,4.7,0,0,10.6-5.3,20.7,0a10.6,10.6,0,0,0-7.6-5.2s2.6-6.8,13.6-5.8a12.1,12.1,0,0,1,9.2,7C1171.2,203.8,1177.9,200.9,1179.8,207.9Z"/><path class="cls-4" d="M1189.4,218.4c-8,3.1-11-1-11.9-3.1h.4a23.9,23.9,0,0,0,5.2-3.8c-7,2.9-12,.4-12,.4a6.7,6.7,0,0,0,5.7,3.7c-4,10-20.7,15.5-26.4,8.5a8.5,8.5,0,0,1-4.4,1.1c-3.7-.6-4.1-3-4.1-3l5.4-3.5a4.4,4.4,0,0,0,4,.5,21.7,21.7,0,0,0,5.2-3.8c-7,2.9-12,.4-12,.4a6.1,6.1,0,0,0,2.7,2.8c-9.3,3.6-16.1-.4-16.1-.4,1.7,1.8,7.7,4.1,7.7,4.1-.8,4.3-5.9,5.5-6,5.5-7.7,1.3-16.8-.8-19.9-7.8a23.9,23.9,0,0,0,5.2-3.8c-7,2.9-12,.4-12,.4a7.4,7.4,0,0,0,4,3.4c-5.9,4.1-13.6,4.8-19.3,1.9a12.3,12.3,0,0,0,9.8,5.8h.6a12,12,0,0,0,8.1-3.1l.8-.7.6.9a21.2,21.2,0,0,0,17,9.9h1a21.1,21.1,0,0,0,14.1-5.4l.4-.3h.5a6.3,6.3,0,0,0,1.9.3h.4a8.6,8.6,0,0,0,4.4-1.2l.5-.3.5.3a18.3,18.3,0,0,0,8.2,2.5h.8a17.6,17.6,0,0,0,16.7-12.1l.6-1.8,1,1.6a8.2,8.2,0,0,0,6.5,3.7h.4a8.7,8.7,0,0,0,4.1-1.1h.1l1.8-.8a28.3,28.3,0,0,1,7.1-2.4C1194.6,217.6,1191.2,217.7,1189.4,218.4Z"/><path class="cls-5" d="M974.8,85.2a79.6,79.6,0,0,0-87.3,45.5l9.8,2A69.6,69.6,0,0,1,1012.8,118L904.6,205.3A69.3,69.3,0,0,1,890.7,156l-3.9-1.1-5.6-1.6a79.3,79.3,0,1,0,93.6-68.1ZM946.9,231.6a69.1,69.1,0,0,1-35.9-19l107.6-86.8a69.6,69.6,0,0,1-71.7,105.8Z"/><path class="cls-6" d="M1056.7,205.5l-3-5.2h0c-1-.9-1.7-2-3.2-2l-3.2.6-20.1,5.4c-1.4.3-19.2-2.9-20.3-2.7-9.2,2.4,2.4,8.1,1.9,8.3s20.4,16,24.4,20.6l22.6-21.9A8.5,8.5,0,0,0,1056.7,205.5Z"/><path class="cls-6" d="M1053.8,201.5h0l2.8,4.7a1.7,1.7,0,0,0,.1-.7l-3-5.2h0l-.4-.4A4.3,4.3,0,0,0,1053.8,201.5Z"/><path class="cls-7" d="M1007,202.9c1.1-.2,19,2.9,20.3,2.7l20.1-5.3a14.4,14.4,0,0,0,2.5-1.8c-.9.1-1.7.4-2.7.6l-20.2,5.3c-1.3.3-19.1-2.9-20.2-2.7-3.4.9-4,2.2-3.4,3.5C1003.6,204.2,1004.7,203.5,1007,202.9Z"/><path class="cls-8" d="M1056.7,205.5l-3-5.2h0a7.3,7.3,0,0,0-2.6-2l.7.8c1.4,1.8,4.4,5.2,2.2,7.5-3.9,4.1-8.7,7.4-13,11.2s-7.3,6.5-11.1,9.6a29.9,29.9,0,0,1,3.2,2.9l22.5-21.8A5,5,0,0,0,1056.7,205.5Z"/><path class="cls-9" d="M880.2,125.3c28.3-2.2,31.7,1.9,45.9,13.3s54,44.6,68.9,56.7,30.1,25.2,31.5,26.6a116.3,116.3,0,0,1,9.8,12.2,38.8,38.8,0,0,1,3.2,4.7c.7,1.6-2.6,4.4-5.7,4.4l-8.3-.7s-4.1,0-11.6-2.6-70.3-34.1-127.3-79.7c-16.3-13-22.1-29.9-19.2-33.8S880.2,125.3,880.2,125.3Z"/><path class="cls-10" d="M906.6,142.2a53.9,53.9,0,0,0,5.2-3,2.1,2.1,0,0,0,.7-2.4l-4.5-3.7-1.3-1.1-13,3.5c2,1.9,4.1,3.7,6.3,5.6S903.8,143.4,906.6,142.2Z"/><path class="cls-10" d="M882.9,125.3s10.5-1.1,13-.5c.6.1,2.8.8,9.9,6.3L893,134.7C890.3,132.2,886,128.6,882.9,125.3Z"/><g class="cls-11"><path class="cls-10" d="M909.3,140.8l2.5-1.6a2.2,2.2,0,0,0,.7-2.4L908,133l-1.3-1-5.6,1.6A108.3,108.3,0,0,1,909.3,140.8Z"/><path class="cls-10" d="M890.4,126.3a31.4,31.4,0,0,1,7.5,4.4l2.5,2,5.7-1.6c-7.1-5.6-9.3-6.2-9.9-6.3s-7.9,0-11,.3A24.4,24.4,0,0,1,890.4,126.3Z"/></g><path class="cls-12" d="M917.4,166.5l-.5-.4-4.8-3.9c-1.6-2.5.7-5,.7-5s6.3-8,8.1-9.7a2.6,2.6,0,0,1,3.6-.2h0l.3.2,2.8,2.3,2.9,2.3h0a2.1,2.1,0,0,1,.6,1c.1,1.5-1.6,3.5-1.6,3.5a93.4,93.4,0,0,1-8.1,9.6A2.9,2.9,0,0,1,917.4,166.5Zm-4.9-4.5,4.7,3.9.3.3a2.7,2.7,0,0,0,3.7-.1c2.7-3,5.5-6.3,8-9.5,0,0,1.7-2,1.6-3.3a.8.8,0,0,0-.3-.7h0l-2.9-2.3-2.8-2.4-.3-.3a2.2,2.2,0,0,0-3.1.2c-1.8,1.6-8.1,9.5-8.1,9.6S911,159.8,912.5,162Z"/><path class="cls-12" d="M935.9,165.9h0l-1.5-1.1h0a1.6,1.6,0,0,1,.2-1.6,25.6,25.6,0,0,1,2-2.6.9.9,0,0,1,1.2-.2v.2l1.6,1.2h0l.3.3a2.2,2.2,0,0,1-.5,1.1l-2,2.7a1.2,1.2,0,0,1-1.4,0Z"/><path class="cls-13" d="M936,165.5h0l-1.3-1h0a1,1,0,0,1,.1-1.3,21.5,21.5,0,0,1,1.8-2.3.9.9,0,0,1,1.1-.1h0l1.3,1.1h0l.3.3a1.3,1.3,0,0,1-.4,1,23.1,23.1,0,0,1-1.8,2.3A.8.8,0,0,1,936,165.5Z"/><path class="cls-14" d="M936.2,162.1l1.9,1.4.2-.4a3.5,3.5,0,0,0,.5-.8c0-.2,0-.3-.1-.3h0l-1-.7h0a.8.8,0,0,0-.9.2l-.6.6Z"/><path class="cls-12" d="M940.4,169.2h0l-1.5-1h0a1.5,1.5,0,0,1,.1-1.6,24.7,24.7,0,0,1,2.1-2.7.9.9,0,0,1,1.2-.1h0l1.6,1.2h0l.2.4a1.6,1.6,0,0,1-.5,1.1,25.6,25.6,0,0,1-2,2.6.7.7,0,0,1-1,.3A.2.2,0,0,1,940.4,169.2Z"/><path class="cls-13" d="M940.5,169h0l-1.2-1h0a1,1,0,0,1,.1-1.3,13,13,0,0,1,1.8-2.3.9.9,0,0,1,1.1-.1h0l1.3,1.1h0l.3.3a1.3,1.3,0,0,1-.4,1,23.1,23.1,0,0,1-1.8,2.3A1.3,1.3,0,0,1,940.5,169Z"/><path class="cls-14" d="M940.7,165.5l1.8,1.3.3-.3a3.6,3.6,0,0,0,.4-.9c0-.1,0-.2-.1-.2h0l-1-.7h0c-.2-.2-.5-.2-.8.2l-.6.6Z"/><path class="cls-12" d="M944.9,172.8h0l-1.4-1.1h0a1.5,1.5,0,0,1,.1-1.6l2-2.7a1.1,1.1,0,0,1,1.2-.1h0l1.6,1.2h0l.2.4a2.1,2.1,0,0,1-.4,1.1,26.5,26.5,0,0,1-2.1,2.6A1.1,1.1,0,0,1,944.9,172.8Z"/><path class="cls-13" d="M945.1,172.4h0l-1.2-1h0a.9.9,0,0,1,.1-1.3,13,13,0,0,1,1.8-2.3.8.8,0,0,1,1.1,0h0l1.3,1.1h0l.3.3a1.5,1.5,0,0,1-.4,1,23.1,23.1,0,0,1-1.8,2.3A1.3,1.3,0,0,1,945.1,172.4Z"/><path class="cls-14" d="M945.3,168.9l1.8,1.3.3-.3a3.6,3.6,0,0,0,.4-.9c0-.1,0-.2-.1-.2h0l-1-.8h0c-.2-.1-.5-.1-.8.3l-.6.6Z"/><path class="cls-12" d="M949.4,176.1h0L948,175h0a1.5,1.5,0,0,1,.1-1.6,17.1,17.1,0,0,1,2.1-2.6.8.8,0,0,1,1.2-.1h.1l1.6,1.2h0l.2.3a1.6,1.6,0,0,1-.5,1.1,23.4,23.4,0,0,1-2,2.7.9.9,0,0,1-1.3.1h-.1Z"/><path class="cls-13" d="M949.5,175.8h0l-1.2-1h0a1.2,1.2,0,0,1,.2-1.4,22.2,22.2,0,0,1,1.8-2.2.8.8,0,0,1,1-.2h0l1.4,1.1h0l.2.4a1.9,1.9,0,0,1-.3,1l-1.9,2.3A1.3,1.3,0,0,1,949.5,175.8Z"/><path class="cls-14" d="M949.8,172.4l1.8,1.3.2-.3a4.1,4.1,0,0,0,.5-.9c0-.1,0-.2-.1-.2h0l-1-.8h0c-.2-.1-.5-.1-.9.3l-.6.6Z"/><path class="cls-12" d="M953.9,179.5h0l-1.5-1.1h0a1.8,1.8,0,0,1,.1-1.6l2.1-2.6a.9.9,0,0,1,1.2-.1h.1l1.6,1.2h0a.5.5,0,0,1,.2.4,1.2,1.2,0,0,1-.4,1,18.9,18.9,0,0,1-2,2.7,1,1,0,0,1-1.4,0Z"/><path class="cls-13" d="M954,179.3h0l-1.3-1h0a1.2,1.2,0,0,1,.1-1.4,12.4,12.4,0,0,1,1.8-2.2.8.8,0,0,1,1.1,0h0l1.3,1h0c.1.2.1.3.3.4a1.3,1.3,0,0,1-.4,1,19.5,19.5,0,0,1-1.7,2.3,1.7,1.7,0,0,1-1.2-.1Z"/><path class="cls-14" d="M954.4,175.8l1.8,1.3.2-.4a2.2,2.2,0,0,0,.5-.8c0-.1,0-.2-.1-.2h0l-1-.8h0c-.3-.1-.5-.1-.9.3l-.6.6Z"/><path class="cls-12" d="M958.5,182.9h0l-1.5-1.1h0a1.5,1.5,0,0,1,.1-1.6,17.1,17.1,0,0,1,2.1-2.6.8.8,0,0,1,1.2-.1h0l1.6,1.2h0l.2.3a2.2,2.2,0,0,1-.5,1.1l-2,2.7a.9.9,0,0,1-1.1.2Z"/><path class="cls-13" d="M958.6,182.6h0l-1.2-1h0a1.1,1.1,0,0,1,.1-1.3c.5-.8,1.2-1.5,1.8-2.3a1.1,1.1,0,0,1,1.1-.1h0l1.3,1.1h0l.3.4a1.4,1.4,0,0,1-.4,1s-1.3,1.8-1.8,2.3A1.1,1.1,0,0,1,958.6,182.6Z"/><path class="cls-14" d="M958.8,179.1l1.8,1.4.3-.4a5.6,5.6,0,0,0,.5-.8c0-.1,0-.3-.2-.3h0l-1-.7h0c-.2-.1-.4-.1-.8.2l-.6.7Z"/><path class="cls-12" d="M962.9,186.4h0l-1.4-1.1h0a1.5,1.5,0,0,1,.1-1.6,17.1,17.1,0,0,1,2.1-2.6.8.8,0,0,1,1.2-.1h0l1.5,1.2h0c.1.1.3.2.3.4l-.5,1a13.9,13.9,0,0,1-2.1,2.7A1.3,1.3,0,0,1,962.9,186.4Z"/><path class="cls-13" d="M963,186h0l-1.2-1h0a1.1,1.1,0,0,1,.2-1.3,13,13,0,0,1,1.8-2.3.8.8,0,0,1,1.1,0h0l1.3,1.1h0c.1.1.2.2.2.3a1.1,1.1,0,0,1-.3,1,23.1,23.1,0,0,1-1.8,2.3A1.5,1.5,0,0,1,963,186Z"/><path class="cls-14" d="M963.3,182.5l1.8,1.4.2-.4a1.8,1.8,0,0,0,.5-.8c0-.2,0-.3-.1-.3h0l-1-.7h0a.7.7,0,0,0-.8.2l-.6.6Z"/><path class="cls-12" d="M967.4,189.8h0l-1.4-1.1h0a1.5,1.5,0,0,1,.1-1.6,25.6,25.6,0,0,1,2-2.6.9.9,0,0,1,1.2-.2h0l1.6,1.2h0l.2.4a1.5,1.5,0,0,1-.4,1.1,26.5,26.5,0,0,1-2.1,2.6c-.1.5-.7.5-1.2.2Z"/><path class="cls-13" d="M967.5,189.4h0l-1.2-1h0a1,1,0,0,1,.1-1.3l1.8-2.3a.9.9,0,0,1,1.1-.1h0l1.4,1.1h0l.2.3a1.3,1.3,0,0,1-.4,1,23.1,23.1,0,0,1-1.8,2.3A.9.9,0,0,1,967.5,189.4Z"/><path class="cls-14" d="M967.9,186l1.8,1.3.2-.3a4.1,4.1,0,0,0,.5-.9c0-.1,0-.2-.1-.2h0l-1-.7h0c-.3-.2-.5-.2-.9.2l-.6.6Z"/><path class="cls-12" d="M972,193.1h0l-1.4-1h0a1.3,1.3,0,0,1,.1-1.6l2-2.7a1.1,1.1,0,0,1,1.2-.1h0l1.6,1.2h0c.1.2.3.3.3.4a2.2,2.2,0,0,1-.5,1.1,25.6,25.6,0,0,1-2,2.6.7.7,0,0,1-1,.3l-.3-.2Z"/><path class="cls-13" d="M972.1,192.9h0l-1.2-1h0a1,1,0,0,1,.1-1.3l1.8-2.3a.8.8,0,0,1,1.1,0h0l1.3,1.1h0l.3.3a1.2,1.2,0,0,1-.4,1,23.1,23.1,0,0,1-1.8,2.3A1.1,1.1,0,0,1,972.1,192.9Z"/><path class="cls-14" d="M972.3,189.4l1.9,1.3.2-.3a4.1,4.1,0,0,0,.5-.9c0-.1,0-.2-.1-.2h0l-1-.7h0c-.3-.2-.5-.2-.9.2l-.6.6Z"/><path class="cls-12" d="M976.5,196.5h0l-1.5-1.1h0a1.4,1.4,0,0,1,.1-1.5,17.8,17.8,0,0,1,2.1-2.7.9.9,0,0,1,1.2-.1h0l1.6,1.2h0l.2.4a2.7,2.7,0,0,1-.5,1.1,25.6,25.6,0,0,1-2,2.6.7.7,0,0,1-1,.3Z"/><path class="cls-13" d="M976.6,196.3h0l-1.2-1h0a.9.9,0,0,1,.1-1.3,21.5,21.5,0,0,1,1.8-2.3.8.8,0,0,1,1.1-.1h0l1.3,1h0c.1.2.1.3.3.4a1.8,1.8,0,0,1-.4,1,23.1,23.1,0,0,1-1.8,2.3A1.3,1.3,0,0,1,976.6,196.3Z"/><path class="cls-14" d="M976.9,192.8l1.8,1.3.3-.3a4.1,4.1,0,0,0,.5-.9c0-.1,0-.2-.2-.2h0l-1-.8h0c-.2-.1-.4-.1-.8.3l-.6.6Z"/><path class="cls-12" d="M981,200h0l-1.5-1.1h0a1.6,1.6,0,0,1,.2-1.6,16.4,16.4,0,0,1,2-2.6.9.9,0,0,1,1.2-.1h0l1.6,1.2h0a.5.5,0,0,1,.2.4,1.9,1.9,0,0,1-.5,1,18.9,18.9,0,0,1-2,2.7.8.8,0,0,1-1.1.1Z"/><path class="cls-13" d="M981,199.7h0l-1.2-1h0a1.2,1.2,0,0,1,.1-1.4l1.8-2.2a.9.9,0,0,1,1.1-.2h0l1.3,1.1h0a.5.5,0,0,1,.3.4,1.4,1.4,0,0,1-.4,1l-1.8,2.3A.9.9,0,0,1,981,199.7Z"/><path class="cls-14" d="M981.4,196.3l1.8,1.3.3-.4a2,2,0,0,0,.4-.8c0-.1,0-.2-.1-.2h0l-1-.8h0c-.2-.1-.5-.1-.8.3s-.4.2-.6.6Z"/><path class="cls-12" d="M985.5,203.4h0l-1.4-1.1h0a1.2,1.2,0,0,1,.1-1.5,18.9,18.9,0,0,1,2-2.7.9.9,0,0,1,1.2-.1h.2l1.5,1.2h0c.1.1.3.2.3.4a1.2,1.2,0,0,1-.5,1,18.9,18.9,0,0,1-2,2.7.8.8,0,0,1-1.2.2Z"/><path class="cls-13" d="M985.6,203.1h0l-1.3-1h0a1.2,1.2,0,0,1,.1-1.4l1.8-2.3a1.1,1.1,0,0,1,1.1-.1h0l1.3,1.1h0c.2.1.2.2.3.4a1.4,1.4,0,0,1-.4,1,18.1,18.1,0,0,1-1.8,2.3A1.1,1.1,0,0,1,985.6,203.1Z"/><path class="cls-14" d="M985.9,199.7l1.8,1.3.2-.4a2.2,2.2,0,0,0,.5-.8c0-.1,0-.2-.1-.2h0l-1-.8h0c-.3-.1-.5-.1-.9.3l-.6.6Z"/><path class="cls-12" d="M990,206.8h0l-1.5-1.1h0a1.6,1.6,0,0,1,.2-1.6,25.6,25.6,0,0,1,2-2.6.8.8,0,0,1,1.2-.1h0l1.6,1.2h0l.2.3a1.5,1.5,0,0,1-.4,1.1c-.7.9-1.3,1.8-2.1,2.7a.8.8,0,0,1-1,.3Z"/><path class="cls-13" d="M990.1,206.6h0l-1.3-1h0a1.1,1.1,0,0,1,.1-1.4,18.1,18.1,0,0,1,1.8-2.3,1.1,1.1,0,0,1,1.1,0h0l1.3,1.1h0l.3.4a2.1,2.1,0,0,1-.4,1l-1.8,2.3A1.4,1.4,0,0,1,990.1,206.6Z"/><path class="cls-14" d="M990.5,203.1l1.8,1.3.2-.4a2.2,2.2,0,0,0,.5-.8c0-.1,0-.3-.1-.3h0l-1-.7h0a.8.8,0,0,0-.9.2l-.6.7Z"/><path class="cls-12" d="M994.6,210.3h0l-1.5-1.1h0a1.5,1.5,0,0,1,.1-1.6,25.6,25.6,0,0,1,2-2.6.8.8,0,0,1,1.2-.1h0l1.6,1.2h0l.2.4a1.5,1.5,0,0,1-.4,1.1,17.1,17.1,0,0,1-2.1,2.6A1.1,1.1,0,0,1,994.6,210.3Z"/><path class="cls-13" d="M994.7,209.9h0l-1.2-1h0a1.1,1.1,0,0,1,.1-1.3s1.4-1.9,1.8-2.3a.9.9,0,0,1,1.1-.1h0l1.3,1.1h0l.3.3a1.2,1.2,0,0,1-.4,1,23.1,23.1,0,0,1-1.8,2.3A.9.9,0,0,1,994.7,209.9Z"/><path class="cls-14" d="M994.9,206.4l1.8,1.4.3-.4a3,3,0,0,0,.4-.8c0-.2,0-.3-.1-.3h0l-1-.7h0a.7.7,0,0,0-.8.2l-.6.6Z"/><path class="cls-12" d="M999,213.7h0l-1.4-1.1h0a1.4,1.4,0,0,1,.1-1.6,25.6,25.6,0,0,1,2-2.6.9.9,0,0,1,1.2-.2h0l1.6,1.3h0c.1.1.2.2.2.3a1.5,1.5,0,0,1-.4,1.1,23.4,23.4,0,0,1-2,2.7A1.2,1.2,0,0,1,999,213.7Z"/><path class="cls-13" d="M999.1,213.3h0l-1.2-1h0a1.1,1.1,0,0,1,.2-1.3,13,13,0,0,1,1.8-2.3.9.9,0,0,1,1.1-.1h0l1.3,1.1h0l.2.3a1.7,1.7,0,0,1-.3,1l-1.8,2.3A1.1,1.1,0,0,1,999.1,213.3Z"/><path class="cls-14" d="M999.4,209.9l1.8,1.4.2-.4a3.5,3.5,0,0,0,.5-.8c0-.2,0-.3-.1-.3h0l-1-.7h0a.7.7,0,0,0-.8.2c-.2,0-.4.4-.6.6Z"/><path class="cls-12" d="M1003.5,217.1h0L1002,216h0a1.5,1.5,0,0,1,.1-1.6,17.1,17.1,0,0,1,2.1-2.6.8.8,0,0,1,1.2-.1h0l1.6,1.2h0l.2.3a1.6,1.6,0,0,1-.5,1.1l-2,2.7a.8.8,0,0,1-1.1.1Z"/><path class="cls-13" d="M1003.6,216.8h0l-1.3-1h0a1.1,1.1,0,0,1,.1-1.3,20.3,20.3,0,0,1,1.8-2.3.8.8,0,0,1,1.1,0h0l1.3,1.1h0l.3.3a1.2,1.2,0,0,1-.4,1,23.1,23.1,0,0,1-1.8,2.3Z"/><path class="cls-14" d="M1004,213.3l1.8,1.3.3-.3a3.6,3.6,0,0,0,.4-.9c0-.1,0-.2-.1-.2h0l-1-.7h0c-.2-.2-.5-.2-.8.2s-.4.4-.6.6Z"/><path class="cls-6" d="M882.8,140.8c-8.5-8.4-12.1-13.2-13.5-15.7a3,3,0,0,0-1.8,1.3c-3,4,2.8,20.8,19.1,33.8,57,45.6,120.8,77.4,127.3,79.7s11.6,2.6,11.6,2.6l8.3.7a6.8,6.8,0,0,0,5.1-2.5C983.2,226.1,898.6,156.4,882.8,140.8Z"/><path class="cls-15" d="M1031.5,240.5c-5.2-1.1-10.4-2.6-15.5-4.1-10.5-3.2-20.2-8-29.9-13.2s-19.9-10-29.7-15.2l-5.7-3c33,20.5,59.3,33.3,63.4,34.8,7.6,2.6,11.6,2.6,11.6,2.6l8.3.7a6.6,6.6,0,0,0,4.6-1.9A24.1,24.1,0,0,1,1031.5,240.5Z"/><path class="cls-16" d="M958.8,208.8a63,63,0,0,1-1.4-9.7c-12.3-8.4-24-16.8-34.6-24.9a65.2,65.2,0,0,0-5.7,8.7c14.7,10.4,29.1,19.5,42.1,27.4Z"/><path class="cls-16" d="M1002.4,226a34.7,34.7,0,0,0,3.9,8.8,18.6,18.6,0,0,0,1.3,2.3,44.6,44.6,0,0,0,6.3,2.8c7.6,2.6,11.6,2.6,11.6,2.6l8.3.8a6.9,6.9,0,0,0,5.1-2.6C1027.6,237.7,1015.2,232.5,1002.4,226Z"/><path class="cls-15" d="M1028.1,236.9l-15.2-9.1a6,6,0,0,0-3.5-.5c-1.1.4-2.5,1.6-1.9,3S1024,251,1024,251s3.4,3.5,6.8,4.6c0,0,8.6,4.6,7.1,1.2s-6.7-16.4-6.7-16.4A7.6,7.6,0,0,0,1028.1,236.9Z"/><path class="cls-6" d="M1028.1,236.9l-15.2-9.1s-5.2-2.2-3.6,1.6,15.2,20.7,15.2,20.7a15.5,15.5,0,0,0,3.9,3.3s11.2,6.9,9.5,3.5-6.7-16.4-6.7-16.4A7.3,7.3,0,0,0,1028.1,236.9Z"/><path class="cls-17" d="M943.6,195.3s-9.3-9.4-15.8-13.9l-11.6,16.1h0l-1.7,1.4a107.2,107.2,0,0,0,18.2,10.7c.9.7,4.3-1.5,7.2-5.5S944.5,195.9,943.6,195.3Z"/><path class="cls-18" d="M924.1,193.3c2.3,1.8,4.6,3.5,6.7,5.4a104,104,0,0,1,7.6,7.2l1.5-1.8c3-4,4.4-8.2,3.6-8.8s-9.3-9.4-15.8-13.9l-6.7,9.3Z"/><path class="cls-18" d="M925,204l-5.8-3.4a32.7,32.7,0,0,1-3.6-2.5l-1.1,1a106.7,106.7,0,0,0,18.2,10.6c.4.3,1,.1,1.8-.3C931.4,207.5,928.2,205.8,925,204Z"/><path class="cls-19" d="M923,191.6c-3.6,4.8-7.5,8.2-8.5,7.3s1.3-5.3,4.9-10.1,7.5-8.2,8.4-7.4S926.7,186.8,923,191.6Z"/><path class="cls-20" d="M925.8,184.5c.1-.4.1-.5,0-.6s-3,2-5.6,5.3-4.1,6.4-3.6,6.7.3,0,.7-.2a25.7,25.7,0,0,1,3.6-6.2A23.2,23.2,0,0,1,925.8,184.5Z"/><path class="cls-20" d="M925.8,184.5a25.3,25.3,0,0,0-4.8,5,25.7,25.7,0,0,0-3.6,6.2,29,29,0,0,0,4.8-5.1A37.6,37.6,0,0,0,925.8,184.5Z"/><path class="cls-18" d="M952.3,191.9l-21.8-16.4s-6-3.8-5.5,1,16.2,38,16.2,38a18.1,18.1,0,0,0,5,6s15.3,13.4,14,7.4-4.3-29.2-4.3-29.2S955,193.9,952.3,191.9Z"/><path class="cls-21" d="M952.3,191.9l-21.8-16.4s-6-3.8-5.5,1,16.2,38,16.2,38a18.1,18.1,0,0,0,5,6s15.3,13.4,14,7.4-4.3-29.2-4.3-29.2S955,193.9,952.3,191.9Z"/><path class="cls-22" d="M960.3,227.9c-1.3-6-4.2-29.2-4.2-29.2s-1.1-4.7-3.9-6.6l-2.5-2a32.9,32.9,0,0,1,3.7,10.5c1.1,5.6,2.1,11.3,3.3,16.8.5,2.2.9,4.5,1.2,6.8s.3,2.6-.6,3.7l-.6.5C959.1,229.7,960.8,230.1,960.3,227.9Z"/><path class="cls-23" d="M933.4,178.7s-6.4-5.2-5.8-1.4,13,32.6,13,32.6,2.2,7,6.5,9.6c0,0-3.6-5.1-4.6-9.1s-10.4-28.5-10.4-28.5S930,177.5,933.4,178.7Z"/><path class="cls-7" d="M1022.9,234.3l-8.9-5.2s-3.4-1.8-3.5-.1l13.9,19.7-10.8-17.4s-1-1.3.7-1S1022.9,234.3,1022.9,234.3Z"/><path class="cls-9" d="M900.4,126a37.1,37.1,0,0,1,15.8,6c8,5.3,65.6,53.4,65.6,53.4l-66-51.4a6.1,6.1,0,0,0-6.2-1.3Z"/><path class="cls-24" d="M874.5,140.2a17,17,0,0,0,3.3-2.7c2.7-3.6,4.7-8.2,2.2-11.1,0,0-7.5-2.9-11.8.2,0,0-3,2.5,3.1,14.6A17,17,0,0,0,874.5,140.2Z"/><path class="cls-9" d="M929.6,164.1s59.8,43,79.9,55.8C1009.7,220,963.3,195.4,929.6,164.1Z"/><path class="cls-5" d="M974.7,85.2A79.6,79.6,0,0,0,893.4,120c4.3-1.8,9-2.5,13.7-3.5l1.4-.2a69.5,69.5,0,0,1,98.2-4.6,72.3,72.3,0,0,1,6.1,6.3L904.6,205.3a69.1,69.1,0,0,1-13.8-34.2,10.1,10.1,0,0,1-5.1-2.7l-3-2.7-.4-.3a5.6,5.6,0,0,1-1.7-.9,79.3,79.3,0,1,0,94.1-79.3Zm53.6,91A69.6,69.6,0,0,1,911,212.7l107.6-86.9a69.8,69.8,0,0,1,9.7,50.4Z"/><path class="cls-25" d="M704.4,286.3a1.7,1.7,0,1,0-1.7,1.6h0a1.5,1.5,0,0,0,1.7-1.4Z"/><circle class="cls-25" cx="591.5" cy="224.1" r="1.2"/><circle class="cls-25" cx="783.9" cy="54.5" r="1.7"/><circle class="cls-25" cx="824" cy="121.9" r="1.2"/><path class="cls-25" d="M901.3,330.5a1.2,1.2,0,1,0-1.2,1.2h0A1.3,1.3,0,0,0,901.3,330.5Z"/><path class="cls-25" d="M679.5,354a1.2,1.2,0,1,0-1.2,1.2h0A1.3,1.3,0,0,0,679.5,354Z"/><circle class="cls-25" cx="772.1" cy="294" r="1.2"/><path class="cls-25" d="M993.7,119.6a1.7,1.7,0,0,1-1.4,1.9,1.8,1.8,0,0,1-1.9-1.4v-.5a1.7,1.7,0,0,1,1.8-1.5A1.7,1.7,0,0,1,993.7,119.6Z"/><circle class="cls-25" cx="880.8" cy="181.8" r="1.2"/><circle class="cls-25" cx="1073.2" cy="351.4" r="1.7"/><circle class="cls-25" cx="1113.3" cy="284.1" r="1.2"/><path class="cls-25" d="M1190.7,75.5a1.2,1.2,0,1,1-1.2-1.2h0A1.2,1.2,0,0,1,1190.7,75.5Z"/><path class="cls-25" d="M968.8,52a1.2,1.2,0,1,1-1.1-1.2,1.1,1.1,0,0,1,1.1,1.1Z"/><circle class="cls-25" cx="1061.4" cy="112" r="1.2"/><polygon class="cls-26" points="689.5 115.5 690.9 118.4 694.1 118.8 691.8 121.1 692.4 124.3 689.5 122.8 686.7 124.3 687.2 121.1 684.9 118.8 688.1 118.4 689.5 115.5"/><polygon class="cls-27" points="975.1 251.6 976.5 254.5 979.7 254.9 977.4 257.2 977.9 260.4 975.1 258.9 972.2 260.4 972.8 257.2 970.5 254.9 973.7 254.5 975.1 251.6"/><polygon class="cls-27" points="918.5 335.5 919.9 338.4 923.1 338.8 920.8 341.1 921.4 344.2 918.5 342.7 915.7 344.2 916.2 341.1 913.9 338.8 917.1 338.4 918.5 335.5"/><path class="cls-26" d="M789.1,64.2l.5,1.1,1.2.2c.2,0,.3.2.3.4s0,.2-.1.2l-.9.8.2,1.2c0,.2-.1.4-.3.4h-.2l-1.1-.6-1,.6a.4.4,0,0,1-.5-.1c0-.1-.1-.2,0-.2l.2-1.2-.9-.8c-.1-.1-.2-.4,0-.5h.2l1.2-.2.5-1.1c.1-.2.3-.2.5-.1Z"/><path class="cls-27" d="M643.4,321.7l.5,1.1,1.2.2c.2,0,.3.2.3.4s0,.2-.1.2l-.9.8.2,1.2c0,.2-.1.4-.3.4h-.2l-1.1-.6-1,.6a.4.4,0,0,1-.5-.2h0v-.2l.2-1.2-.9-.8a.3.3,0,0,1,0-.5h.2l1.2-.2.5-1.1a.5.5,0,0,1,.7,0Z"/><path class="cls-26" d="M667.2,52.9l.5,1.1,1.2.2c.2,0,.3.2.3.4s0,.2-.1.2l-.8.8.2,1.2c0,.2-.1.4-.3.4H668l-1.1-.6-1.1.6a.4.4,0,0,1-.5-.2h0v-.2l.2-1.2-.9-.8a.5.5,0,0,1,0-.5h.2L666,54l.5-1.1a.4.4,0,0,1,.5-.2h0C667.1,52.8,667.2,52.8,667.2,52.9Z"/><path class="cls-26" d="M665.8,265.5a1.2,1.2,0,0,1-1.2,1.2,1.2,1.2,0,0,1-1.2-1.1h0a1.2,1.2,0,0,1,1.2-1.2h0A1.5,1.5,0,0,1,665.8,265.5Z"/><path class="cls-26" d="M833,118.7a1.2,1.2,0,1,1-1.2-1.2h0A1.2,1.2,0,0,1,833,118.7Z"/><path class="cls-27" d="M772.1,53.9a1.2,1.2,0,1,1-2.4,0,1.2,1.2,0,0,1,1.1-1.2h.1a1.2,1.2,0,0,1,1.2,1.1Z"/><circle class="cls-28" cx="772.5" cy="333.6" r="6.5"/><path class="cls-29" d="M770.3,329.8a6.3,6.3,0,0,0-3.7,1.2,5.8,5.8,0,0,0-.5,2.6,6.5,6.5,0,0,0,6.5,6.5h0a6.3,6.3,0,0,0,3.3-.9h0a6.4,6.4,0,0,0-2.5-8.6,6.8,6.8,0,0,0-3.1-.8Z"/><polygon class="cls-26" points="938 103.8 939.5 106.7 942.7 107.2 940.3 109.4 940.9 112.6 938 111.1 935.2 112.6 935.7 109.4 933.4 107.2 936.6 106.7 938 103.8"/><polygon class="cls-27" points="1223.6 239.9 1225 242.8 1228.2 243.2 1225.9 245.5 1226.4 248.7 1223.6 247.2 1220.8 248.7 1221.3 245.5 1219 243.2 1222.2 242.8 1223.6 239.9"/><polygon class="cls-27" points="1167 323.8 1168.5 326.7 1171.7 327.1 1169.3 329.4 1169.9 332.6 1167 331.1 1164.2 332.6 1164.7 329.4 1162.4 327.1 1165.6 326.7 1167 323.8"/><path class="cls-26" d="M1037.6,52.6l.5,1.1,1.2.2c.2,0,.3.2.3.4s0,.1-.1.2l-.9.8.2,1.2c0,.2-.1.4-.3.4h-.2l-1.1-.6-1.1.6a.4.4,0,0,1-.5-.2h0v-.2l.2-1.2-.9-.8a.5.5,0,0,1,0-.5h.2l1.2-.2.5-1.1a.4.4,0,0,1,.5-.2h0C1037.5,52.4,1037.6,52.5,1037.6,52.6Z"/><path class="cls-27" d="M891.9,310.1l.5,1.1,1.2.2c.2,0,.3.2.3.4s0,.1-.1.2l-.8.9.2,1.2c0,.2-.1.4-.3.4h-.2l-1.1-.6-1.1.6a.4.4,0,0,1-.5-.2h0v-.2l.2-1.2-.9-.8a.5.5,0,0,1,0-.5h.2l1.2-.2.5-1.1c.1-.2.3-.2.5-.2S891.9,310,891.9,310.1Z"/><path class="cls-26" d="M915.7,41.2l.5,1.1,1.2.2c.2,0,.3.2.3.4s0,.2-.1.2l-.9.8.2,1.2c0,.2-.1.4-.3.4h-.2l-1.1-.6-1.1.6a.4.4,0,0,1-.5-.2h0v-.2l.2-1.2-.8-.8c-.1-.1-.2-.4,0-.5h.2l1.2-.2.5-1.1a.4.4,0,0,1,.5-.2h0C915.6,41.1,915.7,41.1,915.7,41.2Z"/><path class="cls-26" d="M914.3,253.9a1.2,1.2,0,0,1-1.2,1.2,1.2,1.2,0,0,1-1.2-1.1h0a1.2,1.2,0,0,1,1.2-1.2h0a1.2,1.2,0,0,1,1.2,1.1Z"/><path class="cls-26" d="M1081.5,107a1.2,1.2,0,1,1-1.2-1.2h0A1.2,1.2,0,0,1,1081.5,107Z"/><path class="cls-27" d="M1020.7,42.2a1.2,1.2,0,1,1-1.2-1.2A1.2,1.2,0,0,1,1020.7,42.2Z"/><circle class="cls-28" cx="1021" cy="321.9" r="6.5"/><path class="cls-29" d="M1018.8,318.1a6.3,6.3,0,0,0-3.7,1.2,6.5,6.5,0,0,0,9.3,8.1h0a6.4,6.4,0,0,0-2.5-8.6h-.1a7.8,7.8,0,0,0-3-.7Z"/><text class="cls-30" transform="translate(862.5 288.3)">oops.<tspan class="cls-31" x="171.4" y="0">.</tspan><tspan x="188.9" y="0">!</tspan></text><text class="cls-32" transform="translate(541.9 392.9)"><tspan class="cls-33">P</tspan><tspan x="43.6" y="0">LEASE T</tspan><tspan class="cls-33" x="302.4" y="0">R</tspan><tspan x="346.2" y="0">Y </tspan><tspan class="cls-33" x="405.2" y="0">A</tspan><tspan x="451.8" y="0">GAIN </tspan><tspan class="cls-34" x="631.3" y="0">L</tspan><tspan class="cls-35" x="668.4" y="0">A</tspan><tspan x="713.5" y="0">TER</tspan></text></g></g><text class="cls-36" transform="translate(766 328.5)">So<tspan class="cls-31" x="39.4" y="0">m</tspan><tspan x="71" y="0">ethi</tspan><tspan class="cls-31" x="133.9" y="0">n</tspan><tspan x="155" y="0">g </tspan><tspan class="cls-37" x="184.9" y="0">w</tspan><tspan class="cls-38" x="213.1" y="0">ent w</tspan><tspan class="cls-39" x="304.1" y="0">r</tspan><tspan x="317.2" y="0">o</tspan><tspan class="cls-31" x="337.2" y="0">n</tspan><tspan x="358.3" y="0">g.</tspan></text></svg>