<svg id="Layer_1" data-name="Layer 1" xmlns="http://www.w3.org/2000/svg" viewBox="0 0 1920 450"><defs><style>.cls-1{fill:#f7f9f9;}.cls-2{fill:#ff3541;}.cls-3{fill:#cb202c;}.cls-4,.cls-6{fill:#ededee;}.cls-4{opacity:0.7;}.cls-13,.cls-20,.cls-21,.cls-30,.cls-31,.cls-4{isolation:isolate;}.cls-5{fill:#850a12;}.cls-7{fill:#494e53;}.cls-13,.cls-21,.cls-8{opacity:0.5;}.cls-9{fill:#a4a4a8;}.cls-10{fill:#2a4360;}.cls-11{fill:#436387;}.cls-12{fill:#700004;}.cls-13{fill:#95111a;}.cls-14{fill:#a9b2b2;}.cls-15{fill:#cbd5d4;}.cls-16{fill:#e6dfd6;}.cls-17{fill:#94918d;}.cls-18{fill:#d8d9da;}.cls-19{fill:#babcbd;}.cls-20,.cls-21,.cls-23{fill:#fff;}.cls-20{opacity:0.6;}.cls-22{fill:#e0efff;}.cls-24{fill:#c6daf1;}.cls-25{fill:#007cff;}.cls-26{fill:#ececec;}.cls-27{fill:#f5f5f5;}.cls-28{fill:#f0f0f0;}.cls-29{fill:#e7e7e7;}.cls-30,.cls-31{font-size:60px;font-family:Montserrat-ExtraBold, Montserrat;font-weight:800;}.cls-30{fill:#10213a;}.cls-31{fill:#ff7300;}</style></defs><g id="Layer_1-2" data-name="Layer 1"><g id="Layer_4" data-name="Layer 4"><rect class="cls-1" width="1920" height="450"/><path class="cls-2" d="M974.76,105.25a79.47,79.47,0,0,0-87.24,45.49c3,.53,6.22,1.18,9.82,2A69.55,69.55,0,0,1,1012.81,138L904.56,225.31A69.48,69.48,0,0,1,890.69,176l-3.92-1.07q-2.88-.78-5.56-1.63a79.33,79.33,0,1,0,93.55-68.05ZM946.9,251.56A69.23,69.23,0,0,1,911,232.64l107.62-86.81a69.56,69.56,0,0,1-71.7,105.73Z"/><path class="cls-3" d="M1056.72,225.46l-3-5.19h0c-1-.84-1.69-1.93-3.26-1.93a24,24,0,0,0-3.14.6c-8.21,2.18-15,4-20.16,5.31-1.33.37-19.19-2.89-20.28-2.65-9.17,2.41,2.41,8.09,1.93,8.33-1.81.72,20.4,15.93,24.39,20.52l22.57-21.85A8,8,0,0,0,1056.72,225.46Z"/><path class="cls-3" d="M1053.83,221.48h0l2.77,4.71a1.58,1.58,0,0,0,.12-.73l-3-5.19h0l-.37-.36A3.45,3.45,0,0,0,1053.83,221.48Z"/><path class="cls-4" d="M1007,222.93c1.09-.24,19,2.89,20.28,2.65,5.31-1.33,12-3.14,20.16-5.31a11.18,11.18,0,0,0,2.41-1.81c-.84.12-1.69.48-2.65.6-8.21,2.18-15,4-20.16,5.32-1.33.36-19.19-2.9-20.28-2.66-3.38.84-4,2.17-3.38,3.5C1003.61,224.25,1004.7,223.53,1007,222.93Z"/><path class="cls-5" d="M1056.72,225.46l-3-5.19h0a7.25,7.25,0,0,0-2.66-1.93l.73.72c1.44,1.81,4.46,5.19,2.17,7.49-3.86,4.1-8.69,7.48-12.92,11.22-3.74,3.14-7.36,6.52-11.1,9.66a24.31,24.31,0,0,1,3.14,2.9l22.57-21.85A5.65,5.65,0,0,0,1056.72,225.46Z"/><path class="cls-6" d="M880.24,145.31c28.25-2.17,31.63,1.93,45.87,13.28s54,44.66,68.93,56.73,30.06,25.23,31.51,26.56a134,134,0,0,1,9.77,12.19,39,39,0,0,1,3.14,4.71c.73,1.57-2.53,4.47-5.67,4.47-.72,0-8.33-.73-8.33-.73s-4.1,0-11.59-2.65c-6.52-2.3-70.25-34.05-127.23-79.68-16.3-13-22.09-29.93-19.19-33.79S880.24,145.31,880.24,145.31Z"/><path class="cls-7" d="M906.56,162.21a44.93,44.93,0,0,0,5.19-3,2.1,2.1,0,0,0,.72-2.41c-1.32-1.09-2.77-2.42-4.46-3.75L906.68,152l-13,3.5c2.05,1.93,4.11,3.74,6.28,5.55S903.78,163.42,906.56,162.21Z"/><path class="cls-7" d="M882.9,145.31s10.5-1.09,13-.48c.6.12,2.77.72,9.89,6.27L893,154.72C890.26,152.19,886,148.57,882.9,145.31Z"/><g class="cls-8"><path class="cls-7" d="M909.33,160.76c.85-.48,1.69-1.09,2.42-1.57a2.1,2.1,0,0,0,.72-2.41c-1.32-1.09-2.77-2.42-4.46-3.75L906.68,152l-5.55,1.57C903.9,155.81,906.56,158.23,909.33,160.76Z"/><path class="cls-7" d="M890.38,146.27a31.74,31.74,0,0,1,7.49,4.47c.84.6,1.69,1.33,2.53,1.93l5.68-1.57c-7.13-5.55-9.3-6.15-9.9-6.27-1.81-.49-7.85,0-11,.24A31.87,31.87,0,0,1,890.38,146.27Z"/></g><path class="cls-9" d="M917.42,186.47c-.12-.12-.36-.24-.48-.36l-4.83-3.86c-1.57-2.54.73-5.07.73-5.07.24-.37,6.27-8,8.08-9.66a2.51,2.51,0,0,1,3.62-.12c.13.12.25.12.25.24l2.77,2.29,2.9,2.3h0a1.65,1.65,0,0,1,.6,1c.12,1.45-1.57,3.5-1.57,3.5a102.78,102.78,0,0,1-8.08,9.54A2.85,2.85,0,0,1,917.42,186.47ZM912.47,182l4.71,3.86.36.36a2.61,2.61,0,0,0,3.62-.12c2.78-3,5.56-6.28,8.09-9.54,0,0,1.69-1.93,1.57-3.26a.86.86,0,0,0-.36-.72h0l-2.9-2.29-2.77-2.42-.25-.24a2.26,2.26,0,0,0-3.13.12c-1.81,1.69-8.09,9.54-8.09,9.66S911,179.83,912.47,182Z"/><path class="cls-9" d="M935.89,185.87h0l-1.45-1.09h0a1.49,1.49,0,0,1,.12-1.57,22.28,22.28,0,0,1,2.06-2.65.9.9,0,0,1,1.2-.12l.12.12,1.57,1.2h0c.12.12.24.25.24.37a1.47,1.47,0,0,1-.48,1.08,22.37,22.37,0,0,1-2,2.66,1,1,0,0,1-1.33,0Z"/><path class="cls-10" d="M936,185.51h0l-1.33-1h0a1.08,1.08,0,0,1,.13-1.33s1.44-1.93,1.81-2.29a.89.89,0,0,1,1.08-.12h0l1.33,1.08h0c.12.13.24.25.24.37a1.36,1.36,0,0,1-.36,1c-.6.85-1.21,1.57-1.81,2.3A.91.91,0,0,1,936,185.51Z"/><path class="cls-11" d="M936.25,182.13l1.81,1.32.25-.36a3,3,0,0,0,.48-.84c0-.12,0-.24-.12-.24h0l-1-.73h0c-.24-.12-.48-.12-.84.24l-.61.61Z"/><path class="cls-9" d="M940.36,189.25h0l-1.45-1.09h0a1.49,1.49,0,0,1,.12-1.57,23.11,23.11,0,0,1,2.05-2.65.91.91,0,0,1,1.21-.12h0l1.57,1.2h0c.12.12.24.24.24.37a1.47,1.47,0,0,1-.48,1.08,20.14,20.14,0,0,1-2.06,2.66A.73.73,0,0,1,940.36,189.25Z"/><path class="cls-10" d="M940.48,189h0l-1.21-1h0a1.09,1.09,0,0,1,.12-1.33,21,21,0,0,1,1.81-2.29.91.91,0,0,1,1.09-.12h0l1.33,1.09h0c.12.12.12.24.24.36a1.36,1.36,0,0,1-.36,1c-.61.85-1.21,1.57-1.81,2.3A1.11,1.11,0,0,1,940.48,189Z"/><path class="cls-11" d="M940.72,185.51l1.81,1.32.24-.36a3,3,0,0,0,.48-.84c0-.12,0-.24-.12-.24h0l-1-.73h0c-.24-.12-.48-.12-.85.24l-.6.61Z"/><path class="cls-9" d="M944.94,192.75h0l-1.44-1.09h0a1.45,1.45,0,0,1,.12-1.57,23.11,23.11,0,0,1,2-2.65.94.94,0,0,1,1.21-.12h0l1.57,1.2h0c.12.12.24.25.24.37a2.09,2.09,0,0,1-.49,1.08,19.87,19.87,0,0,1-2.05,2.66A.94.94,0,0,1,944.94,192.75Z"/><path class="cls-10" d="M945.07,192.39h0l-1.21-1h0a1.09,1.09,0,0,1,.12-1.33,21,21,0,0,1,1.81-2.29.91.91,0,0,1,1.09,0h0l1.32,1.09h0c.12.12.25.24.25.36a1.37,1.37,0,0,1-.37,1c-.6.85-1.2,1.57-1.81,2.3A1.32,1.32,0,0,1,945.07,192.39Z"/><path class="cls-11" d="M945.31,188.89l1.81,1.32.24-.36a3,3,0,0,0,.48-.84c0-.12,0-.24-.12-.24h0l-1-.73h0c-.25-.12-.49-.12-.85.24l-.6.61Z"/><path class="cls-9" d="M949.41,196.13h0L948,195h0a1.49,1.49,0,0,1,.12-1.57,22.28,22.28,0,0,1,2.06-2.65.91.91,0,0,1,1.2-.12h.12l1.57,1.2h0c.12.12.24.25.24.37a1.47,1.47,0,0,1-.48,1.08,22.37,22.37,0,0,1-2,2.66.94.94,0,0,1-1.33.12Z"/><path class="cls-10" d="M949.53,195.77h0l-1.21-1h0a1.08,1.08,0,0,1,.13-1.33s1.44-1.93,1.81-2.29a.89.89,0,0,1,1.08-.12h0l1.33,1.09h0c.12.12.24.24.24.36a1.36,1.36,0,0,1-.36,1c-.6.85-1.21,1.57-1.81,2.3A1.11,1.11,0,0,1,949.53,195.77Z"/><path class="cls-11" d="M949.77,192.39l1.81,1.32.25-.36a3,3,0,0,0,.48-.84c0-.12,0-.24-.12-.24h0l-1-.73h0c-.24-.12-.48-.12-.84.24l-.61.61Z"/><path class="cls-9" d="M953.88,199.51h0l-1.45-1.09h0a1.49,1.49,0,0,1,.12-1.57,23.11,23.11,0,0,1,2.05-2.65.94.94,0,0,1,1.21-.12l.12.12,1.57,1.2h0c.12.13.24.25.24.37a1.47,1.47,0,0,1-.48,1.08,23.47,23.47,0,0,1-2,2.66.94.94,0,0,1-1.33,0Z"/><path class="cls-10" d="M954,199.27h0l-1.33-1h0a1.09,1.09,0,0,1,.12-1.33,21,21,0,0,1,1.81-2.29.91.91,0,0,1,1.09,0h0l1.33,1.09h0c.12.12.12.24.24.36a1.36,1.36,0,0,1-.36,1,17,17,0,0,1-1.69,2.3,1.44,1.44,0,0,1-1.21-.12Z"/><path class="cls-11" d="M954.36,195.77l1.81,1.32.24-.36a3.33,3.33,0,0,0,.49-.84c0-.12,0-.24-.13-.24h0l-1-.73h0c-.24-.12-.48-.12-.85.24a1.47,1.47,0,0,0-.6.61Z"/><path class="cls-9" d="M958.46,202.89h0L957,201.8h0a1.45,1.45,0,0,1,.12-1.57,23.11,23.11,0,0,1,2.05-2.65.94.94,0,0,1,1.21-.12h0l1.57,1.2h0c.12.12.24.25.24.37a2.09,2.09,0,0,1-.49,1.08,21.37,21.37,0,0,1-2.05,2.66A.75.75,0,0,1,958.46,202.89Z"/><path class="cls-10" d="M958.59,202.65h0l-1.21-1h0a1.09,1.09,0,0,1,.12-1.33,21,21,0,0,1,1.81-2.29.91.91,0,0,1,1.09-.12h0l1.32,1.09h0c.12.12.12.24.25.36a1.37,1.37,0,0,1-.37,1s-1.32,1.81-1.81,2.3A1.07,1.07,0,0,1,958.59,202.65Z"/><path class="cls-11" d="M958.83,199.15l1.81,1.32.24-.36a3,3,0,0,0,.48-.84c0-.12,0-.24-.12-.24h0l-1-.73h0c-.25-.12-.49-.12-.85.24l-.6.61Z"/><path class="cls-9" d="M962.93,206.39h0l-1.45-1.09h0a1.49,1.49,0,0,1,.12-1.57,22.28,22.28,0,0,1,2.06-2.65.92.92,0,0,1,1.2-.12v.12l1.57,1.21h0c.12.12.24.24.24.36a2.16,2.16,0,0,1-.48,1.08,20.09,20.09,0,0,1-2.05,2.66A1.1,1.1,0,0,1,962.93,206.39Z"/><path class="cls-10" d="M963.05,206h0l-1.21-1h0a1.08,1.08,0,0,1,.13-1.33,19.87,19.87,0,0,1,1.81-2.29.9.9,0,0,1,1.08,0h0l1.33,1.09h0c.12.12.24.24.24.36a1.36,1.36,0,0,1-.36,1c-.6.85-1.21,1.57-1.81,2.3A1.4,1.4,0,0,1,963.05,206Z"/><path class="cls-11" d="M963.29,202.53l1.81,1.32.25-.36a3,3,0,0,0,.48-.84c0-.12,0-.24-.12-.24h0l-1-.73h0c-.24-.12-.48-.12-.84.24l-.61.61Z"/><path class="cls-9" d="M967.4,209.77h0L966,208.68h0a1.49,1.49,0,0,1,.12-1.57,23.11,23.11,0,0,1,2-2.65.94.94,0,0,1,1.21-.12h0l1.57,1.2h0c.12.13.24.25.24.37a1.47,1.47,0,0,1-.48,1.08,22.44,22.44,0,0,1-2.06,2.66c-.12.48-.72.48-1.2.12Z"/><path class="cls-10" d="M967.52,209.41h0l-1.21-1h0a1.09,1.09,0,0,1,.12-1.33,21,21,0,0,1,1.81-2.29.91.91,0,0,1,1.09-.12h0l1.33,1.09h0c.12.12.12.24.24.36a1.36,1.36,0,0,1-.36,1c-.61.85-1.21,1.57-1.81,2.3A1.11,1.11,0,0,1,967.52,209.41Z"/><path class="cls-11" d="M967.88,206l1.81,1.33.24-.37a3.33,3.33,0,0,0,.49-.84c0-.12,0-.24-.13-.24h0l-1-.73h0c-.24-.12-.48-.12-.85.24a1.47,1.47,0,0,0-.6.61Z"/><path class="cls-9" d="M972,213.15h0l-1.44-1.09h0a1.45,1.45,0,0,1,.12-1.57,23.11,23.11,0,0,1,2.05-2.65.94.94,0,0,1,1.21-.12h0l1.57,1.2h0c.12.13.24.25.24.37a1.44,1.44,0,0,1-.49,1.08,21.37,21.37,0,0,1-2,2.66.74.74,0,0,1-1.21.12Z"/><path class="cls-10" d="M972.11,212.91h0l-1.21-1h0a1.09,1.09,0,0,1,.12-1.33,21,21,0,0,1,1.81-2.29.91.91,0,0,1,1.09,0h0l1.32,1.09h0c.12.12.12.24.25.36a1.41,1.41,0,0,1-.37,1c-.6.84-1.2,1.56-1.81,2.29A1.1,1.1,0,0,1,972.11,212.91Z"/><path class="cls-11" d="M972.35,209.41l1.81,1.33.24-.37a3,3,0,0,0,.48-.84c0-.12,0-.24-.12-.24h0l-1-.73h0c-.25-.12-.49-.12-.85.24l-.6.61Z"/><path class="cls-9" d="M976.45,216.53h0L975,215.44h0a1.49,1.49,0,0,1,.12-1.57,22.28,22.28,0,0,1,2.06-2.65.92.92,0,0,1,1.2-.12h0l1.57,1.2h0c.12.13.24.25.24.37a2.16,2.16,0,0,1-.48,1.08,20.09,20.09,0,0,1-2.05,2.66.74.74,0,0,1-1.21.12Z"/><path class="cls-10" d="M976.57,216.29h0l-1.21-1h0a1.08,1.08,0,0,1,.13-1.33s1.44-1.93,1.81-2.29a.89.89,0,0,1,1.08-.12h0l1.33,1.09h0c.12.12.12.24.24.36a1.36,1.36,0,0,1-.36,1c-.6.85-1.21,1.57-1.81,2.3A1.11,1.11,0,0,1,976.57,216.29Z"/><path class="cls-11" d="M976.93,212.79l1.81,1.33.25-.37a3,3,0,0,0,.48-.84c0-.12,0-.24-.12-.24h0l-1-.73h0c-.24-.12-.48-.12-.84.24l-.61.61Z"/><path class="cls-9" d="M981,220h0l-1.45-1.09h0a1.49,1.49,0,0,1,.12-1.57,23.11,23.11,0,0,1,2-2.65.94.94,0,0,1,1.21-.12v.12l1.57,1.21h0c.12.12.24.24.24.36a2.16,2.16,0,0,1-.48,1.08,22.61,22.61,0,0,1-2,2.66.81.81,0,0,1-1.21,0Z"/><path class="cls-10" d="M981,219.67h0l-1.21-1h0a1.09,1.09,0,0,1,.12-1.33,21,21,0,0,1,1.81-2.29.91.91,0,0,1,1.09-.12h0l1.33,1.09h0c.12.12.24.24.24.36a1.36,1.36,0,0,1-.36,1c-.61.85-1.21,1.57-1.81,2.3A.92.92,0,0,1,981,219.67Z"/><path class="cls-11" d="M981.4,216.29l1.81,1.33.24-.37a3.33,3.33,0,0,0,.49-.84c0-.12,0-.24-.13-.24h0l-1-.73h0c-.24-.12-.48-.12-.85.24-.24,0-.36.25-.6.61Z"/><path class="cls-9" d="M985.5,223.41h0l-1.44-1.09h0a1.45,1.45,0,0,1,.12-1.57,23.11,23.11,0,0,1,2.05-2.65.94.94,0,0,1,1.21-.12h.12l1.57,1.21h0c.12.12.24.24.24.36a1.44,1.44,0,0,1-.49,1.08,21.37,21.37,0,0,1-2,2.66.87.87,0,0,1-1.33.12Z"/><path class="cls-10" d="M985.63,223.05h0l-1.33-1h0a1.09,1.09,0,0,1,.12-1.33,21,21,0,0,1,1.81-2.29.91.91,0,0,1,1.09-.12h0l1.32,1.09h0c.12.12.12.24.24.36a1.36,1.36,0,0,1-.36,1,18.84,18.84,0,0,1-1.81,2.3A.9.9,0,0,1,985.63,223.05Z"/><path class="cls-11" d="M985.87,219.67l1.81,1.33.24-.37a3,3,0,0,0,.48-.84c0-.12,0-.24-.12-.24h0l-1-.73h0c-.25-.12-.49-.12-.85.24-.24.13-.36.37-.6.61Z"/><path class="cls-9" d="M990,226.79h0l-1.45-1.09h0a1.49,1.49,0,0,1,.12-1.57,23.11,23.11,0,0,1,2.05-2.65.94.94,0,0,1,1.21-.12h0l1.57,1.2h0c.12.13.24.25.24.37a1.47,1.47,0,0,1-.48,1.08,22.37,22.37,0,0,1-2.05,2.66A.74.74,0,0,1,990,226.79Z"/><path class="cls-10" d="M990.09,226.55h0l-1.33-1h0a1.09,1.09,0,0,1,.12-1.33,21,21,0,0,1,1.81-2.29.91.91,0,0,1,1.09,0h0l1.33,1.09h0c.12.12.24.24.24.36a1.4,1.4,0,0,1-.36,1c-.61.84-1.21,1.56-1.81,2.29A1.19,1.19,0,0,1,990.09,226.55Z"/><path class="cls-11" d="M990.45,223.05l1.81,1.33c.12-.13.25-.25.25-.37a3,3,0,0,0,.48-.84c0-.12,0-.24-.12-.24h0l-1-.73h0c-.24-.12-.48-.12-.84.24a1.49,1.49,0,0,0-.61.61Z"/><path class="cls-9" d="M994.56,230.29h0l-1.45-1.09h0a1.49,1.49,0,0,1,.12-1.57,23.11,23.11,0,0,1,2-2.65.94.94,0,0,1,1.21-.12V225l1.57,1.21h0c.12.12.24.24.24.36a1.47,1.47,0,0,1-.48,1.08,18.9,18.9,0,0,1-2.06,2.66A1.09,1.09,0,0,1,994.56,230.29Z"/><path class="cls-10" d="M994.68,229.93h0l-1.21-1h0a1.09,1.09,0,0,1,.12-1.33s1.45-1.93,1.81-2.29a.91.91,0,0,1,1.09-.12h0l1.33,1.09h0c.12.12.24.24.24.36a1.36,1.36,0,0,1-.36,1c-.61.85-1.21,1.57-1.81,2.3A1.09,1.09,0,0,1,994.68,229.93Z"/><path class="cls-11" d="M994.92,226.43l1.81,1.33.24-.37a3,3,0,0,0,.48-.84c0-.12,0-.24-.12-.24h0l-1-.73h0c-.24-.12-.48-.12-.85.24l-.6.61Z"/><path class="cls-9" d="M999,233.67h0l-1.44-1.09h0a1.45,1.45,0,0,1,.12-1.57,23.11,23.11,0,0,1,2-2.65.94.94,0,0,1,1.21-.12h0l1.56,1.21h0c.13.12.25.24.25.36a1.88,1.88,0,0,1-.37,1.08,19.25,19.25,0,0,1-2,2.66A1.1,1.1,0,0,1,999,233.67Z"/><path class="cls-10" d="M999.14,233.31h0l-1.2-1h0a1.09,1.09,0,0,1,.12-1.33,21,21,0,0,1,1.81-2.29.91.91,0,0,1,1.09-.12h0l1.32,1.09h0c.12.12.12.24.24.36a1.36,1.36,0,0,1-.36,1s-1.33,1.82-1.81,2.3A1.11,1.11,0,0,1,999.14,233.31Z"/><path class="cls-11" d="M999.39,229.93l1.81,1.33.24-.37a3,3,0,0,0,.48-.84c0-.12,0-.24-.12-.24h0l-1-.73h0c-.24-.12-.48-.12-.84.24-.12,0-.36.37-.6.61Z"/><path class="cls-9" d="M1003.49,237.05h0L1002,236h0a1.49,1.49,0,0,1,.12-1.57,23.11,23.11,0,0,1,2.05-2.65.94.94,0,0,1,1.21-.12h0l1.57,1.21h0c.12.12.24.24.24.36a1.47,1.47,0,0,1-.48,1.08,22.37,22.37,0,0,1-2,2.66A.8.8,0,0,1,1003.49,237.05Z"/><path class="cls-10" d="M1003.61,236.81h0l-1.33-1h0a1.08,1.08,0,0,1,.12-1.32,20.11,20.11,0,0,1,1.81-2.3.91.91,0,0,1,1.09,0h0l1.33,1.09h0c.12.12.24.24.24.36a1.4,1.4,0,0,1-.36,1c-.61.84-1.21,1.57-1.81,2.29A3.77,3.77,0,0,1,1003.61,236.81Z"/><path class="cls-11" d="M1004,233.31l1.81,1.33.25-.37a3,3,0,0,0,.48-.84c0-.12,0-.24-.12-.24h0l-1-.73h0c-.24-.12-.48-.12-.84.24-.24.13-.37.37-.61.61Z"/><path class="cls-3" d="M882.78,160.76c-8.45-8.33-12.07-13.16-13.52-15.69a3.85,3.85,0,0,0-1.81,1.33c-3,4,2.89,20.76,19.19,33.79,57,45.63,120.71,77.38,127.23,79.68,7.61,2.65,11.59,2.65,11.59,2.65s7.61.73,8.33.73a7,7,0,0,0,5.07-2.54C983.21,246.1,898.59,176.45,882.78,160.76Z"/><path class="cls-12" d="M1031.5,260.47c-5.19-1.09-10.39-2.54-15.46-4.11-10.5-3.13-20.28-8-29.93-13.15s-19.92-10-29.7-15.21c-1.93-1-3.86-2.06-5.67-3,33,20.52,59.27,33.32,63.37,34.76,7.61,2.66,11.59,2.66,11.59,2.66s7.61.72,8.33.72a7.16,7.16,0,0,0,4.59-1.93A23.15,23.15,0,0,1,1031.5,260.47Z"/><path class="cls-13" d="M958.83,228.84a67.31,67.31,0,0,1-1.45-9.78c-12.31-8.32-24-16.77-34.53-24.86a67.65,67.65,0,0,0-5.79,8.69c14.73,10.38,29.09,19.55,42.13,27.4Z"/><path class="cls-13" d="M1002.4,246a34,34,0,0,0,3.87,8.82c.36.72.84,1.44,1.32,2.29a44.82,44.82,0,0,0,6.28,2.78c7.61,2.65,11.59,2.65,11.59,2.65s7.61.73,8.33.73a7,7,0,0,0,5.07-2.54C1027.63,257.69,1015.2,252.5,1002.4,246Z"/><path class="cls-12" d="M1028.12,256.85l-15.21-9.06a5.85,5.85,0,0,0-3.5-.48c-1.09.36-2.54,1.57-1.94,3C1008.56,253,1024,271,1024,271s3.38,3.5,6.76,4.59c0,0,8.69,4.58,7.12,1.2s-6.64-16.41-6.64-16.41A8.77,8.77,0,0,0,1028.12,256.85Z"/><path class="cls-3" d="M1028.12,256.85l-15.21-9.06s-5.19-2.17-3.63,1.57c1.09,2.66,15.21,20.77,15.21,20.77a14.32,14.32,0,0,0,3.87,3.25s11.22,6.89,9.53,3.51-6.64-16.42-6.64-16.42A8.37,8.37,0,0,0,1028.12,256.85Z"/><path class="cls-14" d="M943.62,215.32s-9.3-9.41-15.82-13.88L916.22,217.5h0l-1.69,1.44a105.61,105.61,0,0,0,18.22,10.63c.85.72,4.23-1.45,7.12-5.44S944.46,215.93,943.62,215.32Z"/><path class="cls-15" d="M924.06,213.27c2.3,1.81,4.59,3.5,6.76,5.43q4,3.45,7.61,7.24l1.44-1.81c3-4,4.47-8.2,3.63-8.81,0,0-9.3-9.41-15.82-13.88l-6.64,9.3C922.13,211.58,923.1,212.43,924.06,213.27Z"/><path class="cls-15" d="M925,224l-5.8-3.38a40.32,40.32,0,0,1-3.62-2.53l-1.08,1a105.61,105.61,0,0,0,18.22,10.63c.36.24,1,.12,1.81-.37C931.43,227.51,928.17,225.82,925,224Z"/><path class="cls-16" d="M923,211.58c-3.63,4.83-7.49,8.21-8.45,7.36s1.2-5.31,4.82-10.14,7.49-8.2,8.45-7.36S926.72,206.75,923,211.58Z"/><path class="cls-17" d="M925.75,204.46c.12-.36.12-.48,0-.61-.48-.36-3,2.06-5.55,5.32s-4.11,6.39-3.62,6.76c.12.12.36,0,.72-.25a24.39,24.39,0,0,1,3.62-6.15A27.54,27.54,0,0,1,925.75,204.46Z"/><path class="cls-17" d="M925.75,204.46a26.86,26.86,0,0,0-4.71,5.07,24.69,24.69,0,0,0-3.62,6.15,31.36,31.36,0,0,0,4.83-5.07A33.49,33.49,0,0,0,925.75,204.46Z"/><path class="cls-15" d="M952.31,211.94l-21.85-16.41s-6-3.87-5.43,1,16.17,38,16.17,38a19.89,19.89,0,0,0,4.95,6s15.33,13.4,14,7.36-4.22-29.21-4.22-29.21S955,213.87,952.31,211.94Z"/><path class="cls-18" d="M952.31,211.94l-21.85-16.41s-6-3.87-5.43,1,16.17,38,16.17,38a19.89,19.89,0,0,0,4.95,6s15.33,13.4,14,7.36-4.22-29.21-4.22-29.21S955,213.87,952.31,211.94Z"/><path class="cls-19" d="M960.28,247.91c-1.33-6-4.23-29.21-4.23-29.21s-1.09-4.71-3.86-6.64l-2.54-1.93a30.4,30.4,0,0,1,3.74,10.5c1.09,5.56,2.06,11.23,3.26,16.78a64.39,64.39,0,0,1,1.21,6.76c.12,1.33.36,2.66-.6,3.74a1.15,1.15,0,0,1-.61.49C959.07,249.73,960.76,250.09,960.28,247.91Z"/><path class="cls-20" d="M933.36,198.66s-6.4-5.19-5.8-1.32,13,32.59,13,32.59,2.29,7,6.52,9.53c0,0-3.62-5.07-4.59-9.05s-10.38-28.49-10.38-28.49S930,197.46,933.36,198.66Z"/><path class="cls-4" d="M1022.93,254.31l-8.94-5.19s-3.38-1.81-3.5-.12l13.88,19.68-10.74-17.39s-1-1.32.72-1C1016.29,250.93,1022.93,254.31,1022.93,254.31Z"/><path class="cls-6" d="M900.4,146A37.11,37.11,0,0,1,916.22,152c8,5.31,65.54,53.35,65.54,53.35L915.85,154a6.33,6.33,0,0,0-6.27-1.33Z"/><path class="cls-21" d="M874.45,160.16a14.38,14.38,0,0,0,3.38-2.66c2.65-3.62,4.71-8.21,2.17-11.1,0,0-7.48-2.9-11.83.24,0,0-3,2.41,3.14,14.6A13.87,13.87,0,0,0,874.45,160.16Z"/><path class="cls-6" d="M929.61,184.06s59.76,43,79.92,55.89C1009.65,240,963.29,215.44,929.61,184.06Z"/><path class="cls-2" d="M974.72,105.24A79.43,79.43,0,0,0,893.4,140c4.31-1.77,9-2.47,13.73-3.51a11.58,11.58,0,0,1,1.42-.21,69.49,69.49,0,0,1,104.24,1.7L904.58,225.34a69.78,69.78,0,0,1-13.78-34.27,11,11,0,0,1-5.13-2.64c-1-.88-2-1.86-2.95-2.77l-.44-.26a8.92,8.92,0,0,1-1.68-.87,79.33,79.33,0,1,0,94.12-79.29Zm53.58,90.93A69.57,69.57,0,0,1,911,232.66l107.59-86.86A69.37,69.37,0,0,1,1028.3,196.17Z"/><path class="cls-22" d="M1048,83c-7.3,0-9.8-5.5-11.5-7.9h0a9.14,9.14,0,0,0-11-3.4,9.46,9.46,0,0,0-7.8-4.9h-.2a18.61,18.61,0,0,0-26.2-1.4,8,8,0,0,0-1.3,1.3,22.12,22.12,0,0,0-30.9-5.1,21.51,21.51,0,0,0-7.4,9.2,12.53,12.53,0,0,0-6.5-2.1,13.07,13.07,0,1,0-1.3,26.1,12.71,12.71,0,0,0,9.3-3.3,22.19,22.19,0,0,0,30.6,7c1-.7,2-1.4,3-2.2a7.61,7.61,0,0,0,2.1.3,9.72,9.72,0,0,0,5.3-1.3,18.55,18.55,0,0,0,25.4-6.4,17.64,17.64,0,0,0,1.7-3.7,9.18,9.18,0,0,0,12.2,2.9h0c3.9-1.7,6.2-3.1,11.6-3.5a27.15,27.15,0,0,1,2.8-.1C1051.6,84.6,1050.1,83,1048,83Z"/><path class="cls-23" d="M1023.7,74.3s8.7-4.3,13.8,2.4h0c-.4-.6-.7-1.1-1-1.5h0a9.14,9.14,0,0,0-11-3.4,9.46,9.46,0,0,0-7.8-4.9h-.2a18.61,18.61,0,0,0-26.2-1.4,15.93,15.93,0,0,0-1.3,1.3,22.12,22.12,0,0,0-30.9-5.1,21.51,21.51,0,0,0-7.4,9.2,12.53,12.53,0,0,0-6.5-2.1,13.15,13.15,0,0,0-13.1,9.1s6.7-9.8,18.4-5.2c0,0-3,2.2-3.1,3.8a19,19,0,0,1,12.2-1.1,6,6,0,0,0-5.8-3.4c1.5-3.4,4.1-8.2,13.1-10.8,9.3-2.3,19,2,20,8,0,0-5.5.6-7.9,4.7,0,0,10.6-5.3,20.7,0a10.61,10.61,0,0,0-7.6-5.2s2.7-6.8,13.5-5.8a12.1,12.1,0,0,1,9.2,7C1014.9,70.1,1021.7,67.3,1023.7,74.3Z"/><path class="cls-24" d="M1033.2,84.8c-8,3.1-11-1-11.9-3.1l.4-.1a23.92,23.92,0,0,0,5.2-3.8c-7,2.9-12,.4-12,.4a6.7,6.7,0,0,0,5.7,3.7c-4,10-20.7,15.5-26.5,8.5a8.47,8.47,0,0,1-4.4,1.1c-3.7-.6-4.1-3-4.1-3l5.4-3.6a4.4,4.4,0,0,0,4,.5,23.92,23.92,0,0,0,5.2-3.8c-7,2.9-12,.4-12,.4a6.62,6.62,0,0,0,2.7,2.8c-9.3,3.6-16.1-.4-16.1-.4,1.7,1.8,7.7,4.2,7.7,4.2-.8,4.3-5.9,5.5-6,5.5-7.7,1.3-16.8-.8-19.9-7.8a23.92,23.92,0,0,0,5.2-3.8c-7,2.9-12,.4-12,.4a7.08,7.08,0,0,0,4,3.4c-5.9,4.1-13.6,4.8-19.3,1.9a12.31,12.31,0,0,0,9.8,5.8h.6a12,12,0,0,0,8.1-3.1l.8-.7.6.9a21.21,21.21,0,0,0,17,9.9h1a21.05,21.05,0,0,0,14.1-5.4l.4-.3.5.1a6.28,6.28,0,0,0,1.9.3h.4a8.56,8.56,0,0,0,4.4-1.2l.5-.3.5.3a18.27,18.27,0,0,0,8.2,2.5h.8a17.54,17.54,0,0,0,16.7-12l.6-1.8,1,1.6a8.16,8.16,0,0,0,6.5,3.7h.4a8.69,8.69,0,0,0,4.1-1.1l.1-.1,1.8-.8a28.3,28.3,0,0,1,7.1-2.4C1038.4,83.9,1035,84.1,1033.2,84.8Z"/><path class="cls-22" d="M827.9,207.1c-5.7-.4-9.4,3.9-14.3,3.9-3.8,0-8.7-1.2-10.6-6.5-1.1-2.8-4.1-4.9-7.9-5.2a10.45,10.45,0,0,0-7,2,8.52,8.52,0,0,0-5.1-2,10.48,10.48,0,0,0-2.5.1c.1-.5.2-1.1.3-1.6.7-6.4-5.2-12.1-13-12.7-6.7-.5-12.7,2.9-14.8,7.9a16.38,16.38,0,0,0-9.7-3.9,17.33,17.33,0,0,0-10.4,2.5c-.9-3.9-4.9-7-10-7.4a14.63,14.63,0,0,0-5.5.7c-2-7.7-9.9-13.8-20-14.5-12.3-.9-23.1,6.6-24.2,16.7a15.08,15.08,0,0,0,.9,7,6.43,6.43,0,0,0-3.7,5,6.23,6.23,0,0,0,.8,3.5,13.4,13.4,0,0,0-2.5,3.7,13.42,13.42,0,0,0-5.2-1.4c-6.3-.4-11.8,3.4-12.4,8.5s4.1,9.7,10.4,10.1a13.07,13.07,0,0,0,10.1-3.6,18,18,0,0,0,11.2,4.7,23.63,23.63,0,0,0,4.6-.2c1.9,4,6.4,6.9,11.9,7.3,7.7.5,14.4-4.1,15.2-10.4a10.89,10.89,0,0,0,2.6.5c4.7.3,8.9-2.2,9.9-5.9a24,24,0,0,0,15.6,6.8,25.33,25.33,0,0,0,17.6-5.2,22,22,0,0,0,12.3,4.7c8.2.6,15.7-3,19.3-8.6.4.1,3.9,5.2,13.4,5.2,11.8,0,16.9-7,23.1-7.1h1.1a9.86,9.86,0,0,1,5,1.6C837.1,215,835.7,207.6,827.9,207.1Z"/><path class="cls-24" d="M814,215.3c-13.6,4.8-19.1-6.8-19.1-6.8s-3.3,6.6-12.3,6-10.7-4.8-10.7-4.8a9.29,9.29,0,0,0,6.1-5c-17.4,8-28-2.4-28-2.4.3,5.5,7,7.9,7,7.9-6.4,4.2-15.6,4.8-21.8-3.6-5.3,6.9-11.3,1.1-11.3,1.1-6.8,11.6-22.9,6.3-23.7.7,8.4-2.1,12.1-9.9,12.1-9.9-14.7,12.4-32.2,2.9-32.2,2.9,3.7,5.4,11.5,7.2,11.5,7.2-8.4,15-23.8,4.6-23.8,4.6-.9,6.3-8.2,7.7-13.4,6.3a11.24,11.24,0,0,0,7.5,3.3h.1a11.68,11.68,0,0,0,9.2-3.4l.6-.6.6.6a17.63,17.63,0,0,0,10.7,4.6h.2a18.5,18.5,0,0,0,4.1-.2l.7-.1.2.5c1.8,3.9,6.2,6.6,11.3,6.9h.2c7.1.4,13.5-4,14.2-9.8l.1-.8,1,.3a10.11,10.11,0,0,0,2.3.4h.1c4.2.2,8-2,9-5.4l.4-1.3,1,1a23,23,0,0,0,15,6.6h.3a25,25,0,0,0,16.7-5l.5-.4.5.4a21.36,21.36,0,0,0,11.9,4.6h.3c7.5.4,14.7-2.8,18.2-8.3l.3-.4.6.1a1.41,1.41,0,0,1,.8.6c1,1,4.2,4.1,10.9,4.5h1.5c6.7,0,11.1-2.3,14.9-4.3,2.8-1.5,5.3-2.8,8.1-2.8h.9C826.2,210.7,823.2,212.1,814,215.3Z"/><path class="cls-23" d="M669.4,208.3s1.7-3.8,3.6-5.1c0,0-4.2-3.2.6-8.6a6.59,6.59,0,0,0-3.2,4.7,6.23,6.23,0,0,0,.8,3.5,13.4,13.4,0,0,0-2.5,3.7,13.42,13.42,0,0,0-5.2-1.4c-6.3-.4-11.8,3.4-12.4,8.5C653.9,206.9,663.1,204.5,669.4,208.3Z"/><path class="cls-23" d="M772.7,186.2a17.23,17.23,0,0,0-5-1.1c-6.7-.5-12.7,2.9-14.8,7.9a16.38,16.38,0,0,0-9.7-3.9,17,17,0,0,0-10.3,2.5c-.9-3.9-4.9-7-10-7.4a14.63,14.63,0,0,0-5.5.7c-2-7.7-9.9-13.8-20-14.5-12.3-.9-23.1,6.6-24.2,16.7a15.08,15.08,0,0,0,.9,7,14.27,14.27,0,0,1,.8,2.2s-1.6,1.2-1.8,4.4c0,0,2.2-5.3,10.7-6.6a10.26,10.26,0,0,0-6,.5s-2.6-10.6,9.4-15.8a10.84,10.84,0,0,1,5-.9s-4.3,2.7-4.5,5.9c0,0,4.5-6.6,17.7-1.8a8.48,8.48,0,0,0-5-3.9s8.5-.4,13.8,8.9a8.59,8.59,0,0,0-4,4.2S723.5,184,732,193c0,0,12.4-5.6,19.5,1.9a11.08,11.08,0,0,0-4.2,2.1s6.6-2.4,12.2-1.3a15,15,0,0,0-5-1.8C754.7,194,759.3,184.1,772.7,186.2Z"/><path class="cls-23" d="M800.5,201.2a9.94,9.94,0,0,0-5.4-2,10.45,10.45,0,0,0-7,2,8.52,8.52,0,0,0-5.1-2,10.48,10.48,0,0,0-2.5.1s5.8.5,7.2,3.6C787.7,203,794.9,197.6,800.5,201.2Z"/><path class="cls-22" d="M1204.1,236.7c-7.3,0-9.8-5.5-11.5-7.9h0a9.14,9.14,0,0,0-11-3.4,9.46,9.46,0,0,0-7.8-4.9h-.2a18.41,18.41,0,0,0-26.1-1.3l-1.2,1.2a22.21,22.21,0,0,0-30.9-5.1,21.51,21.51,0,0,0-7.4,9.2,12.53,12.53,0,0,0-6.5-2.1,13.07,13.07,0,0,0-1.3,26.1,12.71,12.71,0,0,0,9.3-3.3,22.09,22.09,0,0,0,30.5,7c1-.7,2-1.4,3-2.2a15.52,15.52,0,0,0,2.1.4,9,9,0,0,0,5.3-1.4,18.58,18.58,0,0,0,25.4-6.5,14.62,14.62,0,0,0,1.6-3.6,9.18,9.18,0,0,0,12.2,2.9h0c3.9-1.7,6.2-3.1,11.6-3.5a27.15,27.15,0,0,1,2.8-.1C1207.8,238.2,1206.2,236.7,1204.1,236.7Z"/><path class="cls-23" d="M1179.8,227.9s8.7-4.4,13.9,2.4h0c-.4-.6-.7-1.1-1-1.5h0a9.14,9.14,0,0,0-11-3.4,9.46,9.46,0,0,0-7.8-4.9h-.2a18.41,18.41,0,0,0-26.1-1.3l-1.2,1.2a22.21,22.21,0,0,0-30.9-5.1,21.51,21.51,0,0,0-7.4,9.2,12.53,12.53,0,0,0-6.5-2.1,13.15,13.15,0,0,0-13.1,9.1s6.7-9.8,18.4-5.2c0,0-3,2.2-3.1,3.8A19,19,0,0,1,1116,229a6,6,0,0,0-5.8-3.4c1.4-3.3,4.1-8.2,13.1-10.8,9.3-2.3,19,2,20,8.1,0,0-5.5.6-7.9,4.7,0,0,10.6-5.3,20.7,0a10.61,10.61,0,0,0-7.6-5.2s2.6-6.8,13.6-5.8a12.1,12.1,0,0,1,9.2,7C1171.2,223.8,1177.9,220.9,1179.8,227.9Z"/><path class="cls-24" d="M1189.4,238.4c-8,3.1-11-1-11.9-3.1l.4-.1a23.92,23.92,0,0,0,5.2-3.8c-7,2.9-12,.4-12,.4a6.7,6.7,0,0,0,5.7,3.7c-4,10-20.7,15.5-26.4,8.5a8.47,8.47,0,0,1-4.4,1.1c-3.7-.6-4.1-3-4.1-3l5.4-3.5a4.4,4.4,0,0,0,4,.5,21.73,21.73,0,0,0,5.2-3.8c-7,2.9-12,.4-12,.4a6.62,6.62,0,0,0,2.7,2.8c-9.3,3.6-16.1-.4-16.1-.4,1.7,1.8,7.7,4.1,7.7,4.1-.8,4.3-5.9,5.5-6,5.5-7.7,1.3-16.8-.8-19.9-7.8a23.92,23.92,0,0,0,5.2-3.8c-7,2.9-12,.4-12,.4a7.42,7.42,0,0,0,4,3.4c-5.9,4.1-13.6,4.8-19.3,1.9a12.31,12.31,0,0,0,9.8,5.8h.6a12,12,0,0,0,8.1-3.1l.8-.7.6.9a21.21,21.21,0,0,0,17,9.9h1a21.05,21.05,0,0,0,14.1-5.4l.4-.3.5.1a6.28,6.28,0,0,0,1.9.3h.4a8.56,8.56,0,0,0,4.4-1.2l.5-.3.5.3a18.27,18.27,0,0,0,8.2,2.5h.8a17.63,17.63,0,0,0,16.7-12.1l.6-1.8,1,1.6a8.16,8.16,0,0,0,6.5,3.7h.4a8.69,8.69,0,0,0,4.1-1.1l.1-.1c.6-.3,1.2-.5,1.8-.8a28.3,28.3,0,0,1,7.1-2.4C1194.6,237.6,1191.2,237.7,1189.4,238.4Z"/><path class="cls-25" d="M704.4,286.3a1.65,1.65,0,1,0-1.7,1.6h0A1.55,1.55,0,0,0,704.4,286.3Z"/><circle class="cls-25" cx="591.5" cy="224.1" r="1.2"/><circle class="cls-25" cx="783.9" cy="54.5" r="1.7"/><circle class="cls-25" cx="824" cy="121.9" r="1.2"/><path class="cls-25" d="M901.3,330.5a1.2,1.2,0,1,0-1.2,1.2h0a1.29,1.29,0,0,0,1.2-1.2Z"/><path class="cls-25" d="M679.5,354a1.2,1.2,0,1,0-1.2,1.2h0A1.29,1.29,0,0,0,679.5,354Z"/><circle class="cls-25" cx="772.1" cy="294" r="1.2"/><path class="cls-25" d="M993.7,119.6a1.66,1.66,0,1,1-3.3.3v-.3a1.67,1.67,0,0,1,1.8-1.5A1.61,1.61,0,0,1,993.7,119.6Z"/><circle class="cls-25" cx="880.8" cy="181.8" r="1.2"/><circle class="cls-25" cx="1073.2" cy="351.4" r="1.7"/><circle class="cls-25" cx="1113.3" cy="284.1" r="1.2"/><path class="cls-25" d="M1190.7,75.5a1.2,1.2,0,1,1-1.2-1.2,1.22,1.22,0,0,1,1.2,1.2Z"/><path class="cls-25" d="M968.8,52a1.15,1.15,0,1,1-1.1-1.2,1.08,1.08,0,0,1,1.1,1.2Z"/><circle class="cls-25" cx="1061.4" cy="112" r="1.2"/><polygon class="cls-26" points="689.5 115.5 690.9 118.4 694.1 118.8 691.8 121.1 692.4 124.3 689.5 122.8 686.7 124.3 687.2 121.1 684.9 118.8 688.1 118.4 689.5 115.5"/><polygon class="cls-27" points="975.1 251.6 976.5 254.5 979.7 254.9 977.4 257.2 977.9 260.4 975.1 258.9 972.2 260.4 972.8 257.2 970.5 254.9 973.7 254.5 975.1 251.6"/><polygon class="cls-27" points="918.5 335.5 919.9 338.4 923.1 338.8 920.8 341.1 921.4 344.2 918.5 342.7 915.7 344.2 916.2 341.1 913.9 338.8 917.1 338.4 918.5 335.5"/><path class="cls-26" d="M789.1,64.2l.5,1.1,1.2.2c.2,0,.3.2.3.4s0,.2-.1.2l-.9.8.2,1.2c0,.2-.1.4-.3.4h-.2l-1.1-.6-1,.6a.44.44,0,0,1-.5-.1c0-.1-.1-.2,0-.2l.2-1.2-.9-.8c-.1-.1-.2-.4,0-.5s.1-.1.2-.1l1.2-.2.5-1.1c.1-.2.3-.2.5-.1Z"/><path class="cls-27" d="M643.4,321.7l.5,1.1,1.2.2c.2,0,.3.2.3.4s0,.2-.1.2l-.9.8.2,1.2c0,.2-.1.4-.3.4h-.2l-1.1-.6-1,.6a.37.37,0,0,1-.5-.2v-.2l.2-1.2-.9-.8a.33.33,0,0,1,0-.5c.1-.1.1-.1.2-.1l1.2-.2.5-1.1a.6.6,0,0,1,.7,0Z"/><path class="cls-26" d="M667.2,52.9l.5,1.1,1.2.2c.2,0,.3.2.3.4s0,.2-.1.2l-.8.8.2,1.2c0,.2-.1.4-.3.4H668l-1.1-.6-1.1.6a.37.37,0,0,1-.5-.2v-.2l.2-1.2-.9-.8a.45.45,0,0,1,0-.5c.1-.1.1-.1.2-.1L666,54l.5-1.1a.37.37,0,0,1,.5-.2C667.1,52.8,667.2,52.8,667.2,52.9Z"/><path class="cls-26" d="M665.8,265.5a1.22,1.22,0,0,1-1.2,1.2,1.16,1.16,0,0,1-1.2-1.2,1.22,1.22,0,0,1,1.2-1.2h0A1.38,1.38,0,0,1,665.8,265.5Z"/><path class="cls-26" d="M833,118.7a1.2,1.2,0,1,1-1.2-1.2h0A1.22,1.22,0,0,1,833,118.7Z"/><path class="cls-27" d="M772.1,53.9a1.2,1.2,0,1,1-2.4,0,1.16,1.16,0,0,1,1.2-1.2h0A1.16,1.16,0,0,1,772.1,53.9Z"/><circle class="cls-28" cx="772.5" cy="333.6" r="6.5"/><path class="cls-29" d="M770.3,329.8a6.28,6.28,0,0,0-3.7,1.2,5.75,5.75,0,0,0-.5,2.6,6.49,6.49,0,0,0,6.5,6.5,6.29,6.29,0,0,0,3.3-.9h0a6.37,6.37,0,0,0-2.5-8.6,7.14,7.14,0,0,0-3.1-.8Z"/><polygon class="cls-26" points="938 103.8 939.5 106.7 942.7 107.2 940.3 109.4 940.9 112.6 938 111.1 935.2 112.6 935.7 109.4 933.4 107.2 936.6 106.7 938 103.8"/><polygon class="cls-27" points="1223.6 239.9 1225 242.8 1228.2 243.2 1225.9 245.5 1226.4 248.7 1223.6 247.2 1220.8 248.7 1221.3 245.5 1219 243.2 1222.2 242.8 1223.6 239.9"/><polygon class="cls-27" points="1167 323.8 1168.5 326.7 1171.7 327.1 1169.3 329.4 1169.9 332.6 1167 331.1 1164.2 332.6 1164.7 329.4 1162.4 327.1 1165.6 326.7 1167 323.8"/><path class="cls-26" d="M1037.6,52.6l.5,1.1,1.2.2c.2,0,.3.2.3.4s0,.1-.1.2l-.9.8.2,1.2c0,.2-.1.4-.3.4h-.2l-1.1-.6-1.1.6a.37.37,0,0,1-.5-.2v-.2l.2-1.2-.9-.8a.45.45,0,0,1,0-.5c.1-.1.1-.1.2-.1l1.2-.2.5-1.1a.37.37,0,0,1,.5-.2C1037.5,52.4,1037.6,52.5,1037.6,52.6Z"/><path class="cls-27" d="M891.9,310.1l.5,1.1,1.2.2c.2,0,.3.2.3.4s0,.1-.1.2l-.8.9.2,1.2c0,.2-.1.4-.3.4h-.2l-1.1-.6-1.1.6a.37.37,0,0,1-.5-.2v-.2l.2-1.2-.9-.8a.45.45,0,0,1,0-.5c.1-.1.1-.1.2-.1l1.2-.2.5-1.1c.1-.2.3-.2.5-.2S891.9,310,891.9,310.1Z"/><path class="cls-26" d="M915.7,41.2l.5,1.1,1.2.2c.2,0,.3.2.3.4s0,.2-.1.2l-.9.8.2,1.2c0,.2-.1.4-.3.4h-.2l-1.1-.6-1.1.6a.37.37,0,0,1-.5-.2v-.2l.2-1.2-.8-.8c-.1-.1-.2-.4,0-.5s.1-.1.2-.1l1.2-.2.5-1.1a.37.37,0,0,1,.5-.2C915.6,41.1,915.7,41.1,915.7,41.2Z"/><path class="cls-26" d="M914.3,253.9a1.22,1.22,0,0,1-1.2,1.2,1.16,1.16,0,0,1-1.2-1.2,1.22,1.22,0,0,1,1.2-1.2h0A1.16,1.16,0,0,1,914.3,253.9Z"/><path class="cls-26" d="M1081.5,107a1.2,1.2,0,1,1-1.2-1.2,1.22,1.22,0,0,1,1.2,1.2Z"/><path class="cls-27" d="M1020.7,42.2a1.2,1.2,0,1,1-1.2-1.2,1.22,1.22,0,0,1,1.2,1.2Z"/><circle class="cls-28" cx="1021" cy="321.9" r="6.5"/><path class="cls-29" d="M1018.8,318.1a6.28,6.28,0,0,0-3.7,1.2,6.48,6.48,0,0,0,9.3,8.1h0a6.32,6.32,0,0,0-2.6-8.6,7.75,7.75,0,0,0-3-.7Z"/><text class="cls-30" transform="translate(862.46 298.32)">oops..!</text><text class="cls-31" transform="translate(578.55 392.91)">FLIGHT NOT AVAILABLE</text></g></g></svg>