<?xml version="1.0" encoding="utf-8"?>
<!-- Generator: Adobe Illustrator 25.4.1, SVG Export Plug-In . SVG Version: 6.00 Build 0)  -->
<svg version="1.1" id="Layer_1" xmlns="http://www.w3.org/2000/svg" xmlns:xlink="http://www.w3.org/1999/xlink" x="0px" y="0px"
	 viewBox="0 0 30 30" style="enable-background:new 0 0 30 30;" xml:space="preserve">
<g>
	<path d="M22.47,24.97c-5.12,0-10.19,0-15.3,0c0-5.45,0-10.87,0-16.36c1.16,0.01,2.31,0.02,3.47,0.03c0-0.55-0.01-1.1-0.01-1.65
		c0.02-0.25,0.1-0.91,0.57-1.42c0.09-0.1,0.27-0.29,0.56-0.42c0.29-0.13,0.55-0.14,0.7-0.14c0.25,0,2.94-0.01,4.98,0.06
		c0.2,0.01,0.55,0.03,0.93,0.24c0.59,0.33,0.98,0.97,1,1.72c0.01,0.5,0,0.99,0,1.57c1.06,0,2.06,0,3.1,0
		C22.47,14.09,22.47,19.5,22.47,24.97z M18.4,8.61c0-0.56,0.02-1.04,0-1.51c-0.01-0.3-0.06-0.47-0.18-0.64
		c-0.26-0.36-0.73-0.42-0.91-0.43c-1.57,0-3.14,0-4.71,0c-0.19,0-0.51,0.1-0.7,0.37c-0.14,0.19-0.15,0.42-0.14,0.56
		c0,0.55,0,1.1,0,1.65C13.97,8.61,16.18,8.61,18.4,8.61z"/>
	<path d="M23.54,8.62c0.82,0,1.59-0.03,2.36,0.01c1.05,0.05,1.86,0.94,1.87,2.05c0.02,1.14,0.01,2.29,0.01,3.43
		c0,2.86,0,5.72,0,8.58c0,1.49-0.83,2.31-2.33,2.31c-0.62,0-1.24,0-1.91,0C23.54,19.52,23.54,14.1,23.54,8.62z"/>
	<path d="M6.09,8.61c0,5.49,0,10.9,0,16.32c-0.77,0-1.53,0.09-2.25-0.02c-1.02-0.16-1.61-0.98-1.62-2.09c-0.01-2.18,0-4.36,0-6.54
		c0-1.79-0.01-3.57,0-5.36c0.01-1.51,0.81-2.31,2.32-2.31C5.04,8.61,5.54,8.61,6.09,8.61z"/>
</g>
</svg>
