<svg id="Layer_1" data-name="Layer 1" xmlns="http://www.w3.org/2000/svg" viewBox="0 0 22 22"><path d="M18.18,12.52l-.89-.24V8.49c-.08,0-15.06,0-15.21,0v8.57a.4.4,0,0,0,.33.36H11.7l.31.89H2.53a1.25,1.25,0,0,1-.8-.25,1.26,1.26,0,0,1-.53-1V4.32a1.3,1.3,0,0,1,.25-.79,1.22,1.22,0,0,1,1-.52H4.05a.45.45,0,1,1,0,.89H2.54a.39.39,0,0,0-.15,0,.38.38,0,0,0-.3.36V7.58h15.2V7.52q0-1.6,0-3.21A.39.39,0,0,0,17,3.9H15.46a.48.48,0,0,1-.26-.07.44.44,0,0,1-.19-.5A.45.45,0,0,1,15.42,3H17a1.28,1.28,0,0,1,1.19,1,2.45,2.45,0,0,1,0,.27v8.19Z"/><path d="M14.06,3.42V4.76a.66.66,0,0,1-.49.69.91.91,0,0,1-.87-.14.58.58,0,0,1-.23-.49V2a.57.57,0,0,1,.17-.41.92.92,0,0,1,1.22,0,.6.6,0,0,1,.2.47Z"/><path d="M6.89,3.42V4.75a.67.67,0,0,1-.52.71,1,1,0,0,1-.72-.07.63.63,0,0,1-.36-.6V2a.58.58,0,0,1,.25-.48.92.92,0,0,1,1.09,0A.62.62,0,0,1,6.89,2v1.4Z"/><path d="M9.65,3h1.44l.15,0a.43.43,0,0,1,.34.46.46.46,0,0,1-.43.41h-3a.51.51,0,0,1-.29-.08A.45.45,0,0,1,8.16,3H9.65Z"/><path d="M7.94,13.14h-1c-.1,0-.11,0-.12-.1a1.61,1.61,0,0,1,0-.69c0-.1,0-.1.13-.1H9c.1,0,.11,0,.13.1a1.78,1.78,0,0,1,0,.69c0,.09,0,.1-.13.1Z"/><path d="M4.46,10.6h-1c-.1,0-.1,0-.13-.1a1.73,1.73,0,0,1,0-.68c0-.1,0-.1.13-.1h2c.1,0,.11,0,.13.09a1.73,1.73,0,0,1,0,.68c0,.11,0,.11-.13.11Z"/><path d="M7.93,10.6h-1c-.1,0-.11,0-.13-.1a1.61,1.61,0,0,1,0-.69c0-.09,0-.09.12-.09H9c.11,0,.11,0,.13.1a1.56,1.56,0,0,1,0,.68c0,.1,0,.1-.12.1Z"/><path d="M4.46,13.14h-1c-.09,0-.1,0-.12-.1a1.61,1.61,0,0,1,0-.69c0-.1,0-.1.13-.1h2c.1,0,.12,0,.13.11a1.68,1.68,0,0,1,0,.67c0,.1,0,.11-.14.11Z"/><path d="M8,14.79H9c.09,0,.11,0,.12.1a1.61,1.61,0,0,1,0,.69c0,.08,0,.09-.12.09h-2c-.09,0-.11,0-.12-.09a3.4,3.4,0,0,1,0-.45,1,1,0,0,1,0-.24c0-.09,0-.1.12-.1Z"/><path d="M11.4,10.6h-1c-.1,0-.11,0-.13-.1a1.61,1.61,0,0,1,0-.69c0-.09,0-.09.12-.09h2c.11,0,.11,0,.13.1a1.56,1.56,0,0,1,0,.68c0,.1,0,.1-.12.1Z"/><path d="M11.41,14.79h1c.1,0,.11,0,.13.1a2,2,0,0,1,0,.69c0,.08,0,.09-.12.09h-2c-.08,0-.1,0-.11-.09s0-.3,0-.45a2,2,0,0,1,0-.24c0-.09,0-.1.13-.1Z"/><path d="M4.48,14.79h1c.1,0,.11,0,.13.09a2.06,2.06,0,0,1,0,.7c0,.08,0,.09-.12.09h-2c-.1,0-.12,0-.13-.1s0-.29,0-.43a2.06,2.06,0,0,1,0-.26c0-.08,0-.09.12-.09Z"/><path d="M11.13,13.14h-.74c-.09,0-.1,0-.12-.09a1.7,1.7,0,0,1,0-.71c0-.08,0-.09.12-.09h2c.09,0,.11,0,.12.1a2.89,2.89,0,0,1,0,.29.09.09,0,0,1,0,.08l-.56.39a.18.18,0,0,1-.1,0Z"/><path d="M17.68,18.19a.51.51,0,0,1-.36-.15l-4-4a.5.5,0,0,1,.71-.71l4,4A.5.5,0,0,1,18,18,.47.47,0,0,1,17.68,18.19Z"/><path d="M13.65,18.19A.5.5,0,0,1,13.3,18a.5.5,0,0,1,0-.71l4-4A.5.5,0,1,1,18,14l-4,4A.51.51,0,0,1,13.65,18.19Z"/></svg>