<?xml version="1.0" encoding="utf-8"?>
<!-- Generator: Adobe Illustrator 25.4.1, SVG Export Plug-In . SVG Version: 6.00 Build 0)  -->
<svg version="1.1" id="Layer_1" xmlns="http://www.w3.org/2000/svg" xmlns:xlink="http://www.w3.org/1999/xlink" x="0px" y="0px"
	 viewBox="0 0 50 50" style="enable-background:new 0 0 50 50;" xml:space="preserve">
<style type="text/css">
	.st0{fill:#474747;}
</style>
<g>
	<path class="st0" d="M25,48.8c-6.6-0.1-12.3-2.4-17-7.1c-3.9-3.9-6.2-8.7-6.7-14.2C0.7,20,2.9,13.5,8.3,8.1c4.7-4.7,10.4-7,17-6.9
		c6.6,0.1,12.2,2.5,16.8,7.2c4.1,4.2,6.3,9.2,6.6,15c0.4,7.2-1.9,13.4-7,18.5C37.1,46.5,31.5,48.7,25,48.8z M25.8,3.4
		c-3.2,0-5.6,0.4-8,1.2c-4,1.4-7.3,3.8-9.9,7.2c-1.8,2.3-3,4.8-3.8,7.6c-0.5,1.8-0.6,3.5-0.7,5.3c0,0.3,0,0.7,0.1,1
		c0.1,1.1,0.2,2.1,0.3,3.2c0.3,1.9,0.9,3.8,1.8,5.5c3.5,6.9,9.1,10.9,16.8,12c3.4,0.5,6.7,0.1,9.9-1.1c3.3-1.2,6.1-3,8.5-5.5
		c3.6-3.9,5.6-8.5,5.8-13.9c0-0.7,0.1-1.4,0-2.1c-0.2-3.3-1-6.4-2.7-9.3C39.6,7.3,33.3,3.7,25.8,3.4z"/>
	<path class="st0" d="M17.1,34.7c-0.8,0-1.3-0.4-1.6-1.1c-0.3-0.7-0.2-1.4,0.4-1.9c0.8-0.8,1.7-1.7,2.5-2.5c0.4-0.4,0.9-0.9,1.3-1.3
		c0.7-0.7,1.3-1.3,2-2c0.2-0.2,0.4-0.4,0.7-0.6c0.2-0.2,0.2-0.3,0-0.4c-0.9-0.9-1.9-1.9-2.8-2.8c-1.2-1.2-2.4-2.4-3.6-3.6
		c-0.9-0.9-0.7-2.2,0.3-2.8c0.7-0.4,1.6-0.3,2.2,0.3c1.1,1.1,2.2,2.2,3.3,3.3c1,1,2,2,3.1,3.1c0.2,0.2,0.3,0.2,0.5,0
		c2.1-2.1,4.2-4.2,6.2-6.2c0.6-0.6,1.2-0.9,2-0.6c1.2,0.5,1.6,2,0.6,2.9c-0.9,0.9-1.7,1.7-2.6,2.6c-1.3,1.3-2.5,2.5-3.8,3.8
		c-0.2,0.2-0.2,0.4,0,0.6c0.9,0.9,1.9,1.8,2.8,2.7c1.2,1.2,2.4,2.4,3.6,3.6c0.9,1,0.6,2.5-0.6,2.9c-0.7,0.3-1.4,0.1-1.9-0.4
		c-1.3-1.3-2.7-2.7-4-4c-0.6-0.6-1.1-1.1-1.7-1.7c-0.2-0.2-0.4-0.4-0.7-0.7c-0.2-0.2-0.4-0.2-0.6,0c-1.7,1.7-3.4,3.5-5.2,5.2
		c-0.4,0.4-0.8,0.8-1.2,1.2C18,34.5,17.6,34.7,17.1,34.7z"/>
</g>
</svg>
