<svg id="Layer_1" data-name="Layer 1" xmlns="http://www.w3.org/2000/svg" viewBox="0 0 14 12"><defs><style>.cls-1{fill:#785eff;fill-rule:evenodd;}</style></defs><path class="cls-1" d="M.2,8c.73.22.69.11,1.59-.7s.5-.65,1.56-.59,2.7-.08,3.54,0c0,.64-1.23,3.34-1.4,4.34h.66c.39,0,.31,0,.6-.35.59-.83,2.47-3.54,2.9-4a14.68,14.68,0,0,0,3.68-.29c.29-.16.74-.49.47-.81-.67-.78-2.53-.47-3.8-.47-.51,0-.38,0-.72-.43S6.39.89,6.28.89H5.35A7.23,7.23,0,0,0,5.72,2l.8,2.1c.15.35.27.71.39,1.08H5.11c-3,0-2.19.59-3.42-.47C1,4.13.81,3.69.13,4.13A3.42,3.42,0,0,1,.2,8Z"/></svg>