<svg id="Layer_1" data-name="Layer 1" xmlns="http://www.w3.org/2000/svg" viewBox="0 0 24 24"><defs><style>.cls-1{fill:none;stroke:#414042;stroke-miterlimit:10;stroke-width:0.25px;}</style></defs><circle class="cls-1" cx="9.03" cy="9.31" r="1.51" transform="translate(-0.64 0.66) rotate(-4.07)"/><path class="cls-1" d="M10.73,11.46H7.33c-.75,0-1.24,1-.91,1.89l1.92,5a.72.72,0,0,0,1.38,0l1.92-5C12,12.48,11.48,11.46,10.73,11.46Z"/><circle class="cls-1" cx="15.1" cy="9.31" r="1.51"/><path class="cls-1" d="M16.8,11.46H13.4c-.75,0-1.24,1-.91,1.89l1.92,5a.72.72,0,0,0,1.38,0l1.91-5C18,12.48,17.55,11.46,16.8,11.46Z"/><polygon class="cls-1" points="20.15 21.07 3.85 21.07 3.85 5.34 4.99 5.34 4.99 19.93 19.01 19.93 19.01 5.34 20.15 5.34 20.15 21.07"/><polygon class="cls-1" points="7.1 6.64 6.29 5.83 9.1 3.02 11.77 5.69 10.96 6.5 9.1 4.63 7.1 6.64"/><polygon class="cls-1" points="15.03 6.55 12.36 3.88 13.16 3.07 15.03 4.93 17.03 2.93 17.84 3.74 15.03 6.55"/></svg>