<svg id="Layer_1" data-name="Layer 1" xmlns="http://www.w3.org/2000/svg" viewBox="0 0 22 22"><path d="M8.07,20.07h2.11v-6H8.08c0,.08,0,.16,0,.24v1.87c0,.28-.13.45-.35.45s-.37-.17-.37-.44c0-.63,0-1.27,0-1.9v-.23H7.07c-1.66,0-3.33,0-5,0A1.82,1.82,0,0,1,.22,12.21c0-1.63,0-3.26,0-4.89A1.78,1.78,0,0,1,2.07,5.49H7.35V1.74c0-.46.09-.55.55-.55h2.55c.34,0,.46.12.46.46V3.33c0,.29-.13.46-.36.46s-.36-.17-.36-.46V1.93H8.09V5.49h4.76a1,1,0,0,1,.24,0,.36.36,0,0,1-.07.7H2.09A1,1,0,0,0,1,7.35C1,9,1,10.58.94,12.2a1.11,1.11,0,0,0,1.14,1.13H16.76a1.19,1.19,0,0,0,.7-.2l3.05-2.06a1.14,1.14,0,0,0,.11-1.88L17.45,6.48a1.06,1.06,0,0,0-.72-.27h-2c-.29,0-.45-.14-.45-.37s.17-.36.46-.36h2.06a1.57,1.57,0,0,1,1.06.38c1.11.94,2.23,1.88,3.33,2.85A1.86,1.86,0,0,1,21,11.64c-1,.7-2,1.37-3.05,2.06a1.94,1.94,0,0,1-1.14.35H10.91v6.26c0,.39-.11.5-.51.5H7.83c-.36,0-.48-.12-.48-.49,0-.8,0-1.6,0-2.4,0-.3.19-.49.44-.43a.37.37,0,0,1,.28.42v2.16Z"/><path d="M15.8,10.16H12.25c-.41,0-.58-.11-.58-.37s.18-.35.57-.34h3.15a.63.63,0,0,0,.34-.08c-.39-.27-.78-.54-1.16-.82l-.28-.19a.34.34,0,0,1-.08-.5.32.32,0,0,1,.49-.08c.23.14.45.3.67.46l1.71,1.2c.32.23.33.49,0,.72-.77.55-1.54,1.1-2.32,1.63a.57.57,0,0,1-.46,0c-.09,0-.13-.25-.13-.38s.12-.18.21-.25l1.23-.88Z"/><path d="M8.72,9a4.41,4.41,0,0,1,.77-.24.93.93,0,0,1,1.1,1c0,.48,0,1,0,1.46a.29.29,0,0,1-.33.33c-.2,0-.3-.13-.3-.33V9.87c0-.37-.16-.56-.45-.56S9,9.52,9,9.87v1.24c0,.22-.07.38-.31.38s-.32-.15-.32-.37c0-.41,0-.82,0-1.24s-.17-.57-.47-.57-.48.23-.48.6v1.18c0,.22-.07.41-.33.4s-.31-.18-.31-.4c0-.65,0-1.3,0-1.95,0-.36.19-.46.53-.3a.25.25,0,0,0,.17,0A1.06,1.06,0,0,1,8.72,9Z"/><path d="M4.71,9.71l.93-.84c.16-.14.34-.25.51,0s0,.36-.12.5L5.32,10l.8,1c.15.17.22.35,0,.5s-.36.05-.5-.13-.51-.62-.81-1a1.77,1.77,0,0,0-.12.34c0,.17,0,.34,0,.51a.28.28,0,0,1-.3.32c-.21,0-.3-.14-.3-.33V8c0-.21,0-.39.29-.4s.32.18.32.4c0,.44,0,.88,0,1.32Z"/></svg>