<svg id="Layer_1" data-name="Layer 1" xmlns="http://www.w3.org/2000/svg" viewBox="0 0 24 24"><defs><style>.cls-1{fill:#414042;}</style></defs><path class="cls-1" d="M6.6,9.12A11.79,11.79,0,0,1,5.05,6.46a.18.18,0,0,0-.24-.08.16.16,0,0,0-.09.22,12.13,12.13,0,0,0,1.6,2.74.21.21,0,0,0,.15.07.21.21,0,0,0,.11,0A.18.18,0,0,0,6.6,9.12Z"/><path class="cls-1" d="M4.73,5.62c-.05-.17-.09-.34-.13-.5A.19.19,0,0,0,4.38,5a.18.18,0,0,0-.14.22l.15.52a.16.16,0,0,0,.18.12h0A.17.17,0,0,0,4.73,5.62Z"/><path class="cls-1" d="M15.53,11.25a1.08,1.08,0,0,0,1.51,0l4.14-4.14a.19.19,0,0,0,0-.26.19.19,0,0,0-.23,0h0L16.78,11a.72.72,0,0,1-1,0L14.45,9.66a.72.72,0,0,1,0-1l4.14-4.13a.18.18,0,1,0-.26-.26h0L14.19,8.4a1.08,1.08,0,0,0,0,1.51l.16.15-2,1.72L3.66,3.13a.21.21,0,0,0-.17,0,.19.19,0,0,0-.13.13c-.62,2,1.05,5.45,3,7.41a8.94,8.94,0,0,0,1.52,1.22.64.64,0,0,0,.68,0,3.53,3.53,0,0,1,1.06-.43.6.6,0,0,1,.63.25l.79,1.18L5.64,17.4l-.16.14A1.71,1.71,0,0,0,7.9,20a.93.93,0,0,0,.16-.18l4.19-5.09,2.29,3.47,1.1,1.66.13.15a1.67,1.67,0,0,0,1.19.5H17a1.67,1.67,0,0,0,1.21-.6,1.72,1.72,0,0,0-.13-2.27l0,0L18,17.44l-1.3-1.3a.12.12,0,0,0-.05-.05L15.55,15l-.05,0-1.91-1.9L15.28,11Zm-7.77,8.3a.93.93,0,0,1-.13.15,1.34,1.34,0,0,1-1.9-1.9.74.74,0,0,1,.13-.12l2.88.68ZM9,18.05l-2.8-.67,1-.82h0l2.52.6Zm1-1.19-2.45-.59,3.71-3.12.8,1.21Zm6.64-.25,1.11,1.1h0l.07.08,0,0a1.35,1.35,0,0,1,.11,1.8,1.3,1.3,0,0,1-1.84.17L16,19.72l-.1-.11v0Zm-.31-.31-.68,2.87L14.88,18l.61-2.55Zm-1.13-1.13-.57,2.44-4.06-6.15A1,1,0,0,0,9.77,11h0l-.22,0a3.62,3.62,0,0,0-1.17.48.26.26,0,0,1-.29,0,8.29,8.29,0,0,1-1.46-1.18c-1.75-1.74-3.33-4.85-3-6.75ZM13.33,12.8,12.56,12l1.95-1.64.44.44Z"/><path class="cls-1" d="M19.42,5.15a.18.18,0,0,0-.25,0L15.45,8.87a.19.19,0,0,0,0,.25.18.18,0,0,0,.24,0l3.71-3.71A.19.19,0,0,0,19.42,5.15Z"/><path class="cls-1" d="M20.29,6A.19.19,0,0,0,20,6L16.32,9.73a.19.19,0,0,0,0,.26.18.18,0,0,0,.12,0,.19.19,0,0,0,.13,0l3.72-3.71A.19.19,0,0,0,20.29,6Z"/><path class="cls-1" d="M16.42,4.34a9,9,0,0,0-10,.41.19.19,0,0,0,0,.25.21.21,0,0,0,.15.07.2.2,0,0,0,.11,0,8.61,8.61,0,0,1,9.55-.39.19.19,0,0,0,.25-.06A.19.19,0,0,0,16.42,4.34Z"/><path class="cls-1" d="M4.77,17.05h0A8.67,8.67,0,0,1,4,8.29a.17.17,0,1,0-.31-.16h0a9,9,0,0,0,.83,9.12.17.17,0,0,0,.15.07.19.19,0,0,0,.1,0A.18.18,0,0,0,4.77,17.05Z"/><path class="cls-1" d="M15.12,20.11a.18.18,0,0,0-.22-.1A8.64,8.64,0,0,1,9,20.16a.17.17,0,0,0-.22.13.18.18,0,0,0,.1.21A9.06,9.06,0,0,0,15,20.35.18.18,0,0,0,15.12,20.11Z"/><path class="cls-1" d="M20.31,9.32a.18.18,0,0,0-.35.1h0a8.62,8.62,0,0,1-1.29,7.69.18.18,0,0,0,0,.25h0a.15.15,0,0,0,.11,0,.17.17,0,0,0,.14-.07A9,9,0,0,0,20.31,9.32Z"/></svg>