<svg id="Layer_1" data-name="Layer 1" xmlns="http://www.w3.org/2000/svg" viewBox="0 0 22 22"><path d="M4.21,10.6V1.73a.84.84,0,0,1,.9-.9h8.74a.84.84,0,0,1,.94.94V9.4c0,.12,0,.24,0,.35a.14.14,0,0,0,.16.16c.1,0,.23,0,.25.14,0,0,.09,0,.13,0a6,6,0,0,1,.74.07,1.36,1.36,0,0,1,1,1.1,2.35,2.35,0,0,1,0,.26v5.65a.78.78,0,0,0,.32.69.71.71,0,0,0,1.11-.46,1.28,1.28,0,0,0,0-.19V10a.26.26,0,0,0-.17-.28c-.35-.17-.67-.37-1-.57a.56.56,0,0,1-.27-.5V6.53a.37.37,0,0,1,.07-.2l.48-.64c.14-.17.14-.17,0-.3-.44-.33-.88-.66-1.31-1L15.76,4c-.08-.06-.08-.12,0-.21.21-.31.21-.31.51-.09.83.63,1.66,1.25,2.48,1.89a1.52,1.52,0,0,1,.6,1.26c0,.92,0,1.85,0,2.77,0,0,0,.12-.06.13s-.13.16-.13.27c0,2.15,0,4.29,0,6.44a8.14,8.14,0,0,1,0,1,1.36,1.36,0,0,1-1.92,1.09,1.33,1.33,0,0,1-.83-1.29q0-2.83,0-5.67a.78.78,0,0,0-.39-.74,1.36,1.36,0,0,0-.72-.09s-.07.05-.08.08-.1.14-.2.13-.2,0-.2.19v8.36c0,.19,0,.22.23.22h1a.35.35,0,0,1,.38.39c0,.22,0,.43,0,.64a.35.35,0,0,1-.36.39H3.12c-.34,0-.46-.12-.46-.46v-.54c0-.31.11-.42.42-.42H4c.13,0,.19-.05.19-.19v-9ZM14,7.17V1.8c0-.2,0-.23-.22-.23H5.24c-.27,0-.29,0-.29.29L5,9.41C5,10.59,5,11.78,5,13c0,2.16,0,4.32,0,6.47v.15c0,.12,0,.18.17.17h8.77c.1,0,.15,0,.15-.15V7.17Zm4.3,1h0c0-.28,0-.55,0-.83,0-.12-.06-.18-.18-.17h-.39c-.18,0-.2,0-.2.2,0,.41,0,.81,0,1.22a.27.27,0,0,0,.14.24l.47.26c.12.07.16.05.16-.09S18.34,8.44,18.34,8.16Z"/><path d="M9.5,2.49h3.22c.3,0,.39.09.39.38V8.24c0,.29-.09.38-.39.38H6.28c-.29,0-.38-.09-.38-.37V2.86c0-.29.08-.37.38-.37Zm0,5.38h2.64c.21,0,.22,0,.22-.22V3.51c0-.27,0-.27-.26-.27H6.88c-.22,0-.23,0-.23.23V7.65c0,.2,0,.22.21.22Z"/></svg>