<svg id="Layer_1" data-name="Layer 1" xmlns="http://www.w3.org/2000/svg" viewBox="0 0 24 24"><defs><style>.cls-1{fill:none;stroke:#414042;stroke-miterlimit:10;stroke-width:0.25px;}</style></defs><g id="_20" data-name="20"><path class="cls-1" d="M22.63,13.52a5.28,5.28,0,0,0-5.14-4.16,5.78,5.78,0,0,0-1.1.11c-.19,0-1.67.08-4.06.09V.63h-.67V9.56c-2.39,0-3.87-.05-4.06-.09a5.78,5.78,0,0,0-1.1-.11,5.28,5.28,0,0,0-5.14,4.16c-.49,2.29-.89,9.15,2.21,9.81a1.65,1.65,0,0,0,.31,0c1,0,2-.95,3.1-2.06.51-.48,1-1,1.58-1.45.29,0,1.54-.07,3.43-.07s3.15,0,3.44.07c.56.46,1.07,1,1.58,1.45,1.13,1.11,2.11,2.06,3.1,2.06a1.65,1.65,0,0,0,.31,0c1.31-.28,2.16-1.73,2.45-4.21A19.1,19.1,0,0,0,22.63,13.52ZM8,18.76a1,1,0,1,1,1-1A1,1,0,0,1,8,18.76Zm7.15-1a1,1,0,1,1,1.05,1A1,1,0,0,1,15.11,17.72Zm7.1,1.33c-.15,1.23-.59,3.35-1.93,3.63l-.17,0c-.72,0-1.65-.9-2.64-1.86-.49-.48-1-1-1.55-1.44a.88.88,0,0,0,.24,0,1.73,1.73,0,1,0-.86-.24c-.46,0-1.38-.06-3.31-.06-1.73,0-2.65,0-3.15.05A1.7,1.7,0,0,0,8,16a1.71,1.71,0,0,0,0,3.41h.1c-.55.45-1.05.94-1.54,1.42-1.07,1-2.07,2-2.81,1.84-2.27-.48-2.31-6.13-1.7-9A4.62,4.62,0,0,1,6.5,10a5.21,5.21,0,0,1,1,.1c.44.1,3.86.1,4.54.1s4.09,0,4.53-.1a5.21,5.21,0,0,1,1-.1A4.62,4.62,0,0,1,22,13.66,18.73,18.73,0,0,1,22.21,19.05Z"/><polygon class="cls-1" points="5.81 12.09 4.63 12.09 4.63 13.53 3.18 13.53 3.18 14.71 4.63 14.71 4.63 16.16 5.81 16.16 5.81 14.71 7.25 14.71 7.25 13.53 5.81 13.53 5.81 12.09"/><path class="cls-1" d="M16.82,13.45a.67.67,0,0,0,0,1.34.67.67,0,1,0,0-1.34Z"/><path class="cls-1" d="M18.65,11.59a.67.67,0,1,0,.67.67A.67.67,0,0,0,18.65,11.59Z"/><path class="cls-1" d="M18.65,15.28a.67.67,0,1,0,.67.67A.67.67,0,0,0,18.65,15.28Z"/><path class="cls-1" d="M20.48,13.45a.67.67,0,1,0,.67.67A.67.67,0,0,0,20.48,13.45Z"/></g></svg>