<?xml version="1.0" encoding="utf-8"?>
<!-- Generator: Adobe Illustrator 25.4.1, SVG Export Plug-In . SVG Version: 6.00 Build 0)  -->
<svg version="1.1" id="Layer_1" xmlns="http://www.w3.org/2000/svg" xmlns:xlink="http://www.w3.org/1999/xlink" x="0px" y="0px"
	 viewBox="0 0 50 50" style="enable-background:new 0 0 50 50;" xml:space="preserve">
<g>
	<g>
		<path d="M45.14,43.91h-7.03V12.75h1.39c1.07,0,1.94-0.87,1.94-1.94V8.42c0-1.07-0.87-1.94-1.94-1.94h-5.82V6.36
			c0-1.24-1-2.24-2.21-2.24H18.53c-1.21,0-2.21,1-2.21,2.22v0.12L16.2,6.48h-5.63c-1.07,0-1.94,0.87-1.94,1.94v2.39
			c0,1.07,0.87,1.94,1.94,1.94h1.39v7.17c0,0.44,0.36,0.8,0.8,0.8h0.36c0.45,0,0.8-0.36,0.8-0.8v-7.17h22.22v31.16h-4.75v-9.12h1.71
			c0.4,0,0.72-0.32,0.72-0.72v-0.33c0-0.39-0.32-0.71-0.72-0.71H16.9c-0.4,0-0.72,0.32-0.72,0.71v0.33c0,0.4,0.32,0.72,0.72,0.72
			h1.71v9.12h-4.69v-20.2c0-0.44-0.35-0.8-0.8-0.8h-0.36c-0.44,0-0.8,0.36-0.8,0.8v20.2h-7.1c-0.45,0-0.8,0.36-0.8,0.8v0.37
			c0,0.44,0.35,0.8,0.8,0.8h40.28c0.45,0,0.8-0.36,0.8-0.8v-0.37C45.94,44.27,45.59,43.91,45.14,43.91z M16.32,10.92h-5.86V8.31
			h5.86V10.92z M31.85,11.06H18.08V6.23h13.77V11.06z M24.15,43.91h-3.78v-9.12h3.78V43.91z M29.63,43.91h-3.71v-9.12h3.71V43.91z
			 M33.68,10.92V8.31h5.86v2.61H33.68z"/>
	</g>
	<g>
		<path d="M21.51,24.05h-4.25c-0.54,0-0.97,0.44-0.97,0.97v4.25c0,0.54,0.43,0.98,0.97,0.98h4.25c0.54,0,0.97-0.44,0.97-0.98v-4.25
			C22.48,24.49,22.05,24.05,21.51,24.05z M21.07,28.83H17.7v-3.37h3.37V28.83z"/>
	</g>
	<g>
		<path d="M32.74,24.05h-4.25c-0.54,0-0.97,0.44-0.97,0.97v4.25c0,0.54,0.43,0.98,0.97,0.98h4.25c0.54,0,0.97-0.44,0.97-0.98v-4.25
			C33.71,24.49,33.28,24.05,32.74,24.05z M32.3,28.83h-3.37v-3.37h3.37V28.83z"/>
	</g>
	<g>
		<path d="M21.51,15.32h-4.25c-0.54,0-0.97,0.43-0.97,0.97v4.25c0,0.54,0.43,0.97,0.97,0.97h4.25c0.54,0,0.97-0.43,0.97-0.97v-4.25
			C22.48,15.75,22.05,15.32,21.51,15.32z M21.07,20.1H17.7v-3.37h3.37V20.1z"/>
	</g>
	<g>
		<path d="M32.74,15.32h-4.25c-0.54,0-0.97,0.43-0.97,0.97v4.25c0,0.54,0.43,0.97,0.97,0.97h4.25c0.54,0,0.97-0.43,0.97-0.97v-4.25
			C33.71,15.75,33.28,15.32,32.74,15.32z M32.3,20.1h-3.37v-3.37h3.37V20.1z"/>
	</g>
</g>
</svg>
