<?xml version="1.0" encoding="utf-8"?>
<!-- Generator: Adobe Illustrator 25.4.1, SVG Export Plug-In . SVG Version: 6.00 Build 0)  -->
<svg version="1.1" id="Layer_1" xmlns="http://www.w3.org/2000/svg" xmlns:xlink="http://www.w3.org/1999/xlink" x="0px" y="0px"
	 viewBox="0 0 631.5 489.1" style="enable-background:new 0 0 631.5 489.1;" xml:space="preserve">
<style type="text/css">
	.st0{fill:#E8EEF4;}
	.st1{fill:#151535;}
	.st2{fill:#785EFF;}
	.st3{fill:#FFFFFF;}
	.st4{fill:#F9EDD3;}
	.st5{fill:none;stroke:#CCCCCC;stroke-width:0.75;stroke-miterlimit:10;}
	.st6{fill:#EAE9FF;}
	.st7{fill:#262626;}
	.st8{fill:#F1F2F2;}
	.st9{fill:#1D1D1B;}
	.st10{fill:none;stroke:#262626;stroke-miterlimit:10;}
	.st11{opacity:0.31;}
	.st12{fill:none;stroke:#A2A2A2;stroke-width:2;stroke-miterlimit:10;}
	.st13{fill:#F8F9FD;}
</style>
<g>
	<path class="st8" d="M158.9,355.5c-30.3-5-61-8-90.6-16.6c-5.5-1.6-11.4-3.8-14.2-8.8c-2.6-4.7-1.6-10.9,1.3-15.5
		c6.8-10.8,19-17.4,29.4-24.4c13.4-9,27-17.6,40.8-26c19-11.4,38.3-22.2,58-32.4c17.7-9.2,33.2-20.1,51.5-28.1c4.6-2,9.3-4,14.3-3.9
		c4,0,7.9,1.4,11.7,2.9c22.9,9,272.4,135,297.9,151.5c4.7,3,9.5,6.3,12.5,11.2c8.5,13.6-1.6,27.7-14.2,31.7
		c-7.5,2.4-15.6,2.2-23.5,2C408,394.8,283.2,376,158.9,355.5z"/>
	<path class="st9" d="M158.9,355.5l0.4-2.4c-30.4-5-61.1-8-90.3-16.6c-2.7-0.8-5.4-1.7-7.7-2.9c-2.3-1.2-4-2.7-5.1-4.7
		c-0.8-1.5-1.2-3.1-1.2-4.9c0-2.7,0.9-5.7,2.5-8.1c3.2-5.1,7.7-9.2,12.7-13c5.1-3.8,10.7-7.1,15.9-10.7c13.4-9,27-17.6,40.7-25.9
		c18.9-11.4,38.2-22.2,57.8-32.3c17.9-9.3,33.3-20.2,51.4-28c4.5-2,8.9-3.7,13.2-3.7l0.1,0l0,0c3.5,0,7.1,1.2,10.9,2.7
		c1.3,0.5,3.6,1.5,6.7,3c11.5,5.3,34,16.3,61.6,30c41.4,20.6,94.2,47.3,139,70.3c22.4,11.5,42.7,22.1,58.6,30.5
		c7.9,4.2,14.7,7.9,20.1,10.9c5.4,3,9.3,5.3,11.5,6.6c4.7,3,9.1,6.2,11.8,10.5c2,3.1,2.8,6.2,2.8,9.1c0,4.2-1.7,8.3-4.6,11.7
		c-2.9,3.4-6.9,6.1-11.1,7.4c-5,1.6-10.3,2-15.7,2c-2.3,0-4.6-0.1-7-0.2c-125.5-4.3-250.2-23.1-374.6-43.6L158.9,355.5l-0.4,2.4
		c124.4,20.5,249.3,39.4,375.2,43.7c2.3,0.1,4.7,0.2,7.1,0.2c5.7,0,11.5-0.4,17.2-2.2c5.1-1.7,9.8-4.8,13.3-8.9
		c3.5-4.1,5.7-9.2,5.7-14.8c0-3.8-1.1-7.8-3.5-11.7c-3.4-5.4-8.5-8.9-13.2-11.9c-3.3-2.1-10-5.9-19.3-11
		c-32.6-17.7-97.3-50.8-156.3-80.6c-29.5-14.9-57.6-28.9-79.6-39.7c-11-5.4-20.5-10-27.8-13.5c-7.4-3.5-12.6-5.9-15.2-6.9
		c-3.8-1.5-8-3-12.6-3.1l0,0l-0.2,0c-5.6,0-10.5,2.2-15.1,4.1c-18.6,8.1-34.1,19.1-51.7,28.2c-19.7,10.2-39.1,21-58.1,32.5
		c-13.8,8.4-27.5,17-40.9,26c-5.1,3.4-10.8,6.8-16.1,10.8c-5.3,4-10.3,8.5-13.9,14.3c-2,3.1-3.2,6.9-3.2,10.6c0,2.5,0.5,5,1.8,7.2
		c1.7,3,4.3,5.1,7,6.6c2.8,1.5,5.8,2.5,8.6,3.3c29.8,8.8,60.7,11.7,90.9,16.7L158.9,355.5z"/>
	<path class="st8" d="M87,316.8c11.5,2.1,23.1,3,34.7,4.3c35.5,3.9,70.9,11.7,106.1,17.8c42.4,7.3,85,14.1,127.7,20.1
		c43.2,6.1,86.6,11,130.2,13c18.4,0.8,37.9,2.5,56.3,0.6c8.3-0.9,26.3-4.3,22.7-14.4c-1.9-1.5-3.8-2.8-5.8-4
		c-25.4-16.4-275-142.4-297.9-151.5c-3.8-1.5-7.7-2.9-11.7-2.9c-5,0-9.7,1.9-14.3,3.9c-18.3,8-33.8,18.9-51.5,28.1
		c-19.7,10.2-39,21-58,32.4c-13.8,8.3-27.4,17-40.8,26c-8,5.4-17.2,10.6-24.1,17.7C66.4,313.9,81.3,315.8,87,316.8z"/>
	<path class="st9" d="M87,316.8l-0.4,2.4c11.6,2.1,23.3,3,34.9,4.3c35.4,3.8,70.7,11.7,106,17.8c42.5,7.3,85.1,14.1,127.7,20.1
		c43.3,6.1,86.7,11,130.5,13.1c12.2,0.6,24.9,1.5,37.6,1.5c6.4,0,12.8-0.2,19.1-0.9c3.9-0.4,9.9-1.3,15-3.3c2.6-1,5-2.2,6.9-4
		c1-0.9,1.8-1.9,2.4-3c0.6-1.2,0.9-2.5,0.9-3.9c0-1.1-0.2-2.2-0.6-3.4c-0.2-0.4-0.4-0.8-0.8-1.1c-1.9-1.5-4-2.9-6-4.2
		c-3.3-2.1-10-5.9-19.3-11c-32.6-17.7-97.3-50.8-156.3-80.6c-29.5-14.9-57.6-28.9-79.6-39.7c-11-5.4-20.5-10-27.8-13.5
		c-7.4-3.5-12.6-5.9-15.2-6.9c-3.8-1.5-8-3-12.6-3.1l-0.2,0c-5.6,0-10.5,2.2-15.1,4.1c-18.6,8.1-34.1,19.1-51.7,28.2
		c-19.7,10.2-39.1,21-58.1,32.5c-13.8,8.4-27.5,17-40.9,26c-7.9,5.3-17.3,10.6-24.5,18.1c-0.9,0.9-0.9,2.4,0,3.3
		c1.8,1.8,4,3.2,6.5,4.3c3.7,1.7,7.9,2.8,11.8,3.6c3.9,0.8,7.4,1.3,9.4,1.7L87,316.8l0.4-2.4c-2.9-0.5-8-1.3-13-2.6
		c-2.5-0.7-5-1.4-7.1-2.4c-2.1-0.9-3.9-2.1-5-3.2l-1.7,1.7l1.7,1.7c6.5-6.8,15.6-12,23.7-17.4c13.4-9,27-17.6,40.7-25.9
		c18.9-11.4,38.2-22.2,57.8-32.3c17.9-9.3,33.3-20.2,51.4-28c4.5-2,8.9-3.7,13.2-3.7l0.1,0c3.5,0,7.1,1.2,10.9,2.7
		c1.3,0.5,3.6,1.5,6.7,3c11.5,5.3,34,16.3,61.6,30c41.4,20.6,94.2,47.3,139,70.3c22.4,11.5,42.7,22.1,58.6,30.5
		c7.9,4.2,14.7,7.9,20.1,10.9c5.4,3,9.3,5.3,11.5,6.6c1.9,1.3,3.8,2.5,5.6,3.9l1.5-1.9l-2.3,0.8c0.2,0.7,0.3,1.3,0.3,1.8
		c0,0.6-0.1,1.2-0.4,1.7c-0.5,1-1.5,2-3,2.9c-2.2,1.4-5.5,2.5-8.7,3.3c-3.2,0.8-6.5,1.3-8.9,1.5c-6.1,0.6-12.3,0.9-18.6,0.9
		c-12.4,0-25-0.9-37.3-1.5c-43.5-2-86.9-6.9-130-13c-42.6-6-85.2-12.8-127.6-20.1c-35.1-6.1-70.5-14-106.3-17.8
		c-11.6-1.3-23.2-2.2-34.5-4.2L87,316.8z"/>
	<path class="st8" d="M396.1,327.8c38.6,27.4,78.9,52.4,120.7,74.8c11.9,6.4,16.3-8.1,22.5-17.2c7.6-11,15-22,22.4-33.2
		c4.4-6.7,8.8-13.6,10.7-21.3L396.1,327.8z"/>
	<path class="st9" d="M396.1,327.8l-1.4,2c38.7,27.4,79.1,52.5,120.9,74.9c2.3,1.2,4.5,1.9,6.6,1.9c2.6,0,4.9-0.9,6.7-2.4
		c2.8-2.1,4.9-5.2,6.8-8.3c1.9-3.2,3.6-6.5,5.5-9.1c7.6-11,15.1-22.1,22.4-33.2c4.4-6.7,9-13.8,11-22.1c0.2-0.7,0-1.5-0.4-2
		c-0.4-0.6-1.1-0.9-1.9-0.9l-176.3-3.1c-1,0-2,0.7-2.3,1.6c-0.3,1,0,2.1,0.9,2.7L396.1,327.8l0,2.4l176.3,3.1l0-2.4l-2.3-0.6
		c-1.8,7.2-6,13.9-10.4,20.6c-7.3,11.1-14.8,22.2-22.3,33.1c-2.7,4-5,8.7-7.4,12.2c-1.2,1.8-2.5,3.2-3.7,4.1
		c-1.3,0.9-2.4,1.4-3.9,1.4c-1.2,0-2.6-0.3-4.4-1.3c-41.6-22.3-81.9-47.3-120.4-74.6L396.1,327.8l0,2.4L396.1,327.8z"/>
	<path class="st8" d="M234.3,301.7c17.5,16.3,29.2,44.4,41.8,64.8c2.1,3.3,4.2,6.7,7.3,9.1c7.2,5.5,17.3,4,26.1,2.3
		c47.9-9.3,95.7-19.3,143.4-29.8c6.6-1.5,48.1-9.7,30.7-21c-6.2-4-20.1-3-27.4-3.7c-21.6-2.1-43.2-4.3-64.8-6.4
		c-26.9-2.7-53.9-5.3-80.8-8C285.7,306.5,259.2,301.2,234.3,301.7z"/>
	<path class="st9" d="M234.3,301.7l-1.6,1.8c8.4,7.9,15.7,18.8,22.3,30.3c6.6,11.5,12.7,23.7,19.1,34c2.1,3.3,4.3,7,7.9,9.7
		c2.2,1.7,4.6,2.8,7.1,3.4c2.5,0.7,5.1,0.9,7.6,0.9c4.5,0,9.1-0.8,13.3-1.6c47.9-9.3,95.7-19.3,143.4-29.8c1.3-0.3,4.3-0.9,7.8-1.8
		c5.4-1.3,12.2-3.2,17.9-5.6c2.8-1.2,5.4-2.6,7.4-4.2c1-0.8,1.9-1.7,2.5-2.7c0.7-1,1.1-2.3,1.1-3.6c0-1.5-0.6-2.9-1.5-4.1
		c-0.9-1.2-2.2-2.3-3.8-3.4c-1.9-1.2-4.2-2-6.7-2.5c-3.7-0.8-7.8-1-11.7-1.2c-3.9-0.1-7.6-0.2-10.1-0.4c-21.6-2.1-43.2-4.3-64.8-6.4
		c-26.9-2.7-53.9-5.3-80.8-8c-23.6-2.3-48.9-7.3-73.1-7.3c-1.1,0-2.3,0-3.4,0c-1,0-1.8,0.6-2.2,1.5c-0.3,0.9-0.1,1.9,0.6,2.6
		L234.3,301.7l0,2.4c1.1,0,2.2,0,3.3,0c23.6,0,48.7,4.9,72.6,7.3c26.9,2.7,53.9,5.3,80.8,8c21.6,2.1,43.2,4.3,64.8,6.4
		c3.9,0.4,9.2,0.3,14.2,0.6c2.5,0.2,5,0.4,7.1,0.9c2.1,0.4,3.9,1.1,5,1.8c1.3,0.9,2.2,1.7,2.6,2.3c0.5,0.6,0.5,1,0.5,1.3
		c0,0.3-0.1,0.8-0.7,1.5c-1,1.2-3.3,2.7-6.2,4c-4.3,2-10,3.7-15,5c-5,1.3-9.3,2.2-11.2,2.6c-47.6,10.5-95.4,20.5-143.3,29.8
		c-4.1,0.8-8.4,1.5-12.4,1.5c-2.3,0-4.4-0.2-6.4-0.8c-2-0.5-3.8-1.4-5.4-2.6c-2.6-2-4.7-5.1-6.7-8.4c-6.2-10.1-12.3-22.2-19-33.9
		c-6.7-11.7-14.1-23-23.2-31.4L234.3,301.7l0,2.4L234.3,301.7z"/>
	<path class="st8" d="M121.3,252.9c-15.3,21.5-27.6,45.1-36.4,70c-1.5,4.3-2.9,9.4-0.3,13.2c2.1,3.1,6.1,4.3,9.8,4.9
		c13.1,2.2,26.6,0.4,39.7-1.7c45.6-7.4,90.4-19.3,135.1-31.2L121.3,252.9z"/>
	<path class="st9" d="M121.3,252.9l-1.9-1.4c-15.5,21.7-27.9,45.5-36.7,70.6c-0.9,2.7-1.9,5.7-1.9,8.9c0,2.2,0.5,4.4,1.8,6.4
		c1.4,2.1,3.3,3.4,5.3,4.3c2,0.9,4.1,1.4,6.1,1.7c4.4,0.7,8.9,1.1,13.3,1.1c9.2,0,18.3-1.3,27.2-2.7c45.8-7.5,90.6-19.4,135.3-31.3
		c1-0.3,1.7-1.2,1.8-2.2c0.1-1-0.6-2-1.6-2.4l-147.8-55.2c-1-0.4-2.2,0-2.8,0.9L121.3,252.9l-0.8,2.2l147.8,55.2l0.8-2.2l-0.6-2.3
		c-44.7,11.9-89.4,23.8-134.9,31.2c-8.8,1.4-17.7,2.7-26.4,2.7c-4.2,0-8.4-0.3-12.5-1c-1.8-0.3-3.5-0.7-4.9-1.3
		c-1.4-0.6-2.5-1.5-3.2-2.5c-0.7-1.1-1-2.3-1-3.8c0-2.2,0.7-4.8,1.6-7.3c8.7-24.7,20.9-48.1,36.1-69.4L121.3,252.9l-0.8,2.2
		L121.3,252.9z"/>
	<path class="st8" d="M571.5,314.2c-2.5-4.9-5.1-9.9-7.5-14.9c-4-8.2-19.1-30.2-29.2-31.2l-433.2-43.1c-4.2-0.4-16,10.3-19.5,12.9
		c-6.7,4.8-13.1,9.9-19.1,15.5c-11.5,10.6-22.1,19.2-25.1,35.5c-0.6,3-0.7,6.6,1.4,8.8c2,2,5.3,2.2,8,1.3c2.7-0.9,5-2.6,7.5-3.9
		c14.8-7.8,35.8-2.8,50.8,2c26.9,8.7,55.4-0.3,82.9,9.7c10,3.6,19.4,9.3,29.9,10.6c13.3,1.7,28.4-3.3,39.4,4.6
		c7.4,5.3,10.7,15.3,18.6,19.7c9.9,5.5,21.9,0.2,32.6-3.4c30-10.1,62.7-5.8,94.1-1.4c25.3,3.6,50.8,8.1,76,11c29,3.4,61.3,4.8,87,20
		c3.8,2.2,7.4,4.9,11.7,5.9c4.3,1,9.5-0.4,11.3-4.4c0.7-1.6,0.8-3.3,0.8-5C589.4,346.8,579.2,329.3,571.5,314.2z"/>
	<path class="st9" d="M571.5,314.2l2.1-1.1c-2.5-4.9-5.1-9.9-7.5-14.9c-1.1-2.2-2.8-5.2-5-8.5c-3.3-4.9-7.5-10.6-12.1-15.2
		c-2.3-2.3-4.6-4.3-6.9-5.9c-2.3-1.6-4.7-2.7-7.2-2.9l-433.2-43.1c-0.2,0-0.3,0-0.5,0c-1,0-1.9,0.3-2.8,0.6
		c-1.6,0.6-3.2,1.6-4.9,2.7c-2.6,1.7-5.2,3.8-7.6,5.7c-1.2,0.9-2.2,1.8-3.2,2.6c-0.9,0.7-1.7,1.4-2.2,1.7
		c-6.7,4.8-13.2,10-19.4,15.6c-5.7,5.3-11.3,10.1-16,15.9c-4.6,5.7-8.3,12.4-9.9,21c-0.2,1.2-0.4,2.5-0.4,3.9c0,1.2,0.1,2.4,0.5,3.6
		c0.4,1.2,1,2.4,2,3.4c0.9,0.9,2,1.6,3.1,2c1.1,0.4,2.3,0.6,3.4,0.6c1.4,0,2.7-0.2,3.9-0.6c3.2-1.1,5.6-2.9,7.9-4.1
		c5.1-2.7,11.2-3.8,17.6-3.8c10.6,0,22.2,3,31.4,6c13.9,4.5,28,4.4,41.9,4.5c13.9,0.1,27.6,0.4,40.9,5.2c4.8,1.8,9.7,4.1,14.7,6.1
		c5,2.1,10.2,3.9,15.8,4.6c2.4,0.3,4.8,0.4,7.3,0.4c4.9,0,9.7-0.4,14.3-0.4c3.2,0,6.2,0.2,9,0.8c2.8,0.6,5.4,1.6,7.7,3.3
		c3.3,2.3,5.8,5.9,8.6,9.6c2.8,3.7,5.7,7.7,10.3,10.2c3.5,1.9,7.2,2.7,10.8,2.7c4.1,0,8.2-0.9,12.2-2.1c4-1.2,7.9-2.6,11.5-3.8
		c13.3-4.5,27.1-6.1,41.2-6.1c17.1,0,34.6,2.4,51.8,4.8c25.2,3.5,50.7,8.1,76.1,11.1c14.5,1.7,29.8,2.9,44.6,5.5
		c14.8,2.6,29,6.7,41.5,14.1c1.8,1.1,3.7,2.3,5.7,3.4c2,1.1,4.2,2.1,6.7,2.7c1,0.2,2.1,0.3,3.2,0.3c2.1,0,4.3-0.4,6.2-1.4
		c1.9-1,3.6-2.5,4.6-4.7c0.8-1.9,1-3.8,1-5.4c0-0.2,0-0.4,0-0.6l0,0c-0.2-9.2-2.9-18.2-6.6-26.8c-3.6-8.6-8.2-16.8-12-24.3
		L571.5,314.2l-2.1,1.1c3.9,7.6,8.4,15.7,11.9,24c3.5,8.3,6,16.8,6.2,25l0,0c0,0.2,0,0.4,0,0.5c0,1.4-0.1,2.6-0.6,3.5
		c-0.5,1-1.3,1.8-2.4,2.4c-1.1,0.6-2.6,0.9-4,0.9c-0.7,0-1.5-0.1-2.1-0.2c-1.8-0.4-3.6-1.2-5.4-2.2c-1.8-1-3.7-2.2-5.6-3.4
		c-13.2-7.8-28-12-43.1-14.7c-15.1-2.7-30.5-3.9-44.9-5.6c-25.2-2.9-50.6-7.5-76-11c-17.2-2.4-34.9-4.8-52.4-4.8
		c-14.5,0-28.9,1.6-42.8,6.3c-3.7,1.3-7.6,2.7-11.3,3.8c-3.7,1.1-7.4,1.9-10.8,1.9c-3.1,0-5.9-0.6-8.5-2.1c-3.4-1.9-6-5.2-8.7-8.8
		c-2.7-3.7-5.5-7.7-9.6-10.7c-2.9-2.1-6.2-3.4-9.5-4.1c-3.3-0.7-6.7-0.9-10-0.9c-4.8,0-9.7,0.4-14.3,0.4c-2.3,0-4.5-0.1-6.6-0.4
		c-4.9-0.6-9.7-2.3-14.6-4.3c-4.8-2-9.7-4.3-14.8-6.2c-14.2-5.2-28.6-5.4-42.5-5.5c-14-0.1-27.5,0-40.5-4.2
		c-9.4-3-21.3-6.2-32.8-6.2c-6.9,0-13.8,1.2-19.8,4.3c-2.7,1.5-5,3.1-7.2,3.8c-0.8,0.3-1.6,0.4-2.4,0.4c-0.7,0-1.3-0.1-1.8-0.3
		c-0.5-0.2-0.9-0.4-1.3-0.8c-0.4-0.4-0.6-0.9-0.8-1.5c-0.2-0.6-0.3-1.3-0.3-2.2c0-1,0.1-2,0.3-3c1.5-7.7,4.6-13.5,8.9-18.8
		c4.3-5.3,9.7-10,15.5-15.3c6-5.5,12.3-10.5,18.9-15.3c1-0.7,2.3-1.8,4-3.2c2.4-2,5.4-4.4,8.1-6.3c1.4-0.9,2.6-1.7,3.7-2.3
		c0.5-0.3,1-0.5,1.4-0.6c0.4-0.1,0.6-0.1,0.7-0.1l0,0l433.2,43.1c0.9,0.1,1.9,0.4,3.1,1c2.1,1.1,4.5,3,7,5.3
		c3.7,3.6,7.4,8.1,10.4,12.5c3.1,4.3,5.5,8.5,6.7,11c2.4,5.1,5,10,7.5,15L571.5,314.2z"/>
	<path class="st8" d="M244,254.6l-125.8-14.5c-3.6,14.3,0.7,29.9,9.8,41.5c9.1,11.6,22.5,19.3,36.8,22.9c17.4,4.4,36.6,2.9,52.2-6.1
		C232.5,289.5,243.8,272.6,244,254.6z"/>
	<path class="st9" d="M244,254.6l0.3-2.4l-125.8-14.5c-1.2-0.1-2.3,0.6-2.6,1.8c-0.9,3.6-1.3,7.3-1.3,10.9
		c0,11.7,4.3,23.4,11.5,32.6c9.5,12.1,23.4,20,38.1,23.8c6.4,1.6,13,2.5,19.7,2.5c12,0,23.9-2.8,34.3-8.8
		c8.1-4.7,15.1-11.4,20.1-19.4c5-7.9,8-17.1,8.2-26.5c0-1.2-0.9-2.3-2.1-2.4L244,254.6l-2.4,0c-0.1,8.5-2.9,16.8-7.4,24.1
		c-4.6,7.3-11,13.5-18.4,17.8c-9.6,5.6-20.7,8.2-31.9,8.2c-6.2,0-12.5-0.8-18.5-2.3c-13.8-3.5-26.8-11-35.5-22.1
		c-6.6-8.4-10.5-19.1-10.5-29.7c0-3.3,0.4-6.6,1.2-9.8l-2.3-0.6l-0.3,2.4L243.8,257L244,254.6l-2.4,0L244,254.6z"/>
	<path class="st8" d="M466.2,274l-156-18c-4.4,17.7,0.9,37.1,12.1,51.5c11.3,14.4,28,23.9,45.6,28.4c21.6,5.5,45.4,3.6,64.7-7.5
		C451.9,317.2,465.8,296.3,466.2,274z"/>
	<path class="st9" d="M466.2,274l0.3-2.4l-156-18c-1.2-0.1-2.3,0.6-2.6,1.8c-1.1,4.4-1.6,8.9-1.6,13.4c0,14.4,5.3,28.7,14.2,40.1
		c11.7,14.9,28.8,24.6,46.9,29.3c7.9,2,16.1,3.1,24.2,3.1c14.7,0,29.5-3.4,42.3-10.8c10-5.8,18.5-14.1,24.7-23.8
		c6.1-9.7,9.9-21,10-32.6c0-1.2-0.9-2.3-2.1-2.4L466.2,274l-2.4,0c-0.2,10.6-3.6,21-9.3,30.1c-5.7,9.1-13.7,16.9-23,22.2
		c-12,6.9-25.9,10.2-39.9,10.2c-7.8,0-15.5-1-23-2.9c-17.3-4.4-33.5-13.7-44.3-27.6c-8.3-10.5-13.2-23.9-13.2-37.1
		c0-4.1,0.5-8.2,1.5-12.3l-2.3-0.6l-0.3,2.4l156,18L466.2,274l-2.4,0L466.2,274z"/>
	<path class="st8" d="M581.5,288c-8.7-8.9-17.8-17.3-27.3-25.2L74,212.7c-9.2,8-16.5,18.4-20.8,29.8c-1.5,3.8-2.6,7.9-2.2,11.9
		c1.2,12.3,16.1,18.8,28.4,17.1c12.2-1.7,23-8.6,34.8-12.5c8.9-2.9,19.7-3.7,27,2.2c3.1,2.5,5.3,6,8.5,8.3c10.9,8,25.9-0.5,36.6-8.8
		c2.1,10.5,6.7,23.2,17.3,24.3c7.7,0.8,14.1-5.3,20.3-10c6.2-4.7,15.6-8,21.1-2.5c3.2,3.2,3.6,8.2,5.1,12.4
		c3.7,10.2,15.7,16.5,26.2,13.8c11.3-2.9,19.4-14.4,31-15.6c11.6-1.2,21.2,8.1,30.5,15c21.9,16.1,51.3,21.5,77.4,14.1
		c10.5-3,20.5-7.9,31.2-10.2c10.7-2.3,22.9-1.6,31.2,5.5c9.2,7.9,11.7,22,21.6,29.1c10.3,7.4,26.8,3.4,32.4-8
		c2.2-4.3,2.8-9.3,5-13.7c2.2-4.3,6.8-8.2,11.5-7c5,1.3,7,7,9.9,11.2c4.5,6.6,12.8,10.5,20.7,9.2c7.9-1.3,14.7-8.1,15.4-16
		C595,303.2,588.1,294.8,581.5,288z"/>
	<path class="st9" d="M581.5,288l1.7-1.7c-8.7-8.9-17.9-17.4-27.5-25.4c-0.4-0.3-0.8-0.5-1.3-0.5L74.3,210.3
		c-0.7-0.1-1.3,0.1-1.8,0.6c-9.5,8.3-17,19-21.5,30.8c-1.3,3.4-2.4,7.1-2.4,11.1c0,0.6,0,1.3,0.1,1.9l0,0c0.3,3.2,1.4,6,3.1,8.5
		c2.5,3.7,6.2,6.4,10.4,8.3c4.2,1.8,8.8,2.8,13.4,2.8c1.4,0,2.8-0.1,4.2-0.3c6.5-0.9,12.4-3.1,18.2-5.6c5.8-2.5,11.3-5.1,17-7
		c3.9-1.3,8.2-2.1,12.2-2.1c4.8,0,9.1,1.1,12.5,3.9c1.3,1.1,2.6,2.5,3.9,4c1.3,1.5,2.8,3.1,4.6,4.4c3.5,2.6,7.5,3.7,11.5,3.7
		c5,0,10.1-1.7,14.8-4c4.8-2.4,9.2-5.4,13.2-8.5l-1.5-1.9l-2.3,0.5c1.1,5.4,2.8,11.4,5.7,16.4c1.5,2.5,3.3,4.8,5.5,6.5
		c2.3,1.8,5,3,8.1,3.3c0.5,0.1,1.1,0.1,1.6,0.1c4.2,0,7.9-1.7,11.2-3.7c3.3-2.1,6.3-4.7,9.2-6.8c1.8-1.4,3.9-2.6,6.1-3.5
		c2.2-0.9,4.3-1.4,6.3-1.4c1.1,0,2.2,0.2,3.1,0.5c0.9,0.3,1.8,0.9,2.5,1.6c1.2,1.2,2,2.8,2.6,4.9c0.6,2,1.1,4.4,2,6.7
		c1.8,4.8,5.2,8.8,9.3,11.6c4.2,2.8,9.1,4.4,14.2,4.4c1.9,0,3.7-0.2,5.6-0.7c6.3-1.6,11.3-5.4,16.2-8.8c2.4-1.7,4.8-3.3,7.2-4.5
		c2.4-1.2,4.8-2,7.3-2.3c0.6-0.1,1.2-0.1,1.8-0.1c4.7,0,9.2,1.9,13.7,4.7c4.5,2.8,8.9,6.6,13.4,9.9c15.8,11.7,35.4,17.8,55,17.8
		c8.3,0,16.5-1.1,24.5-3.4c10.8-3.1,20.7-8,31-10.2c3.3-0.7,6.8-1.1,10.2-1.1c3.6,0,7,0.4,10.3,1.4c3.2,1,6.2,2.5,8.7,4.7
		c4.2,3.6,7,8.8,10,14.2c3,5.4,6.2,11.1,11.7,15c4,2.9,8.8,4.2,13.5,4.2c4.5,0,9.1-1.2,13-3.4c3.9-2.2,7.3-5.5,9.4-9.7
		c1.2-2.4,1.9-4.9,2.6-7.2c0.7-2.3,1.4-4.5,2.4-6.4c0.8-1.6,2-3.1,3.4-4.2c1.4-1.1,2.9-1.7,4.2-1.7c0.4,0,0.8,0,1.2,0.1
		c0.9,0.2,1.6,0.6,2.3,1.2c1.1,0.9,2.1,2.2,3.1,3.9c1,1.6,2,3.4,3.1,5.2c4.4,6.4,11.8,10.5,19.6,10.5c1.1,0,2.3-0.1,3.4-0.3
		c4.5-0.8,8.6-3,11.7-6.2c3.1-3.2,5.3-7.4,5.7-11.9c0.1-0.7,0.1-1.3,0.1-2c0-5-1.8-9.5-4.3-13.6c-2.5-4.1-5.8-7.7-9-10.9L581.5,288
		l-1.7,1.7c3.1,3.1,6.1,6.6,8.3,10.1c2.2,3.6,3.6,7.3,3.6,11c0,0.5,0,1-0.1,1.5c-0.3,3.4-1.9,6.6-4.4,9.1c-2.4,2.5-5.7,4.3-9.1,4.8
		c-0.9,0.1-1.8,0.2-2.7,0.2c-6,0-12.2-3.3-15.6-8.4c-1.3-1.9-2.5-4.4-4.2-6.8c-0.8-1.2-1.8-2.3-2.9-3.3c-1.2-1-2.5-1.8-4.2-2.2
		c-0.8-0.2-1.6-0.3-2.4-0.3c-2.7,0-5.2,1.1-7.2,2.7c-2,1.6-3.6,3.6-4.7,5.8c-1.2,2.4-2,4.9-2.7,7.2c-0.7,2.3-1.4,4.5-2.3,6.5
		c-1.6,3.2-4.2,5.8-7.5,7.6c-3.2,1.8-7,2.8-10.7,2.8c-3.9,0-7.7-1.1-10.7-3.3c-4.4-3.2-7.3-8.1-10.3-13.5c-3-5.4-6-11.1-11.1-15.5
		c-3.1-2.7-6.6-4.5-10.4-5.6c-3.8-1.2-7.7-1.7-11.7-1.7c-3.8,0-7.6,0.5-11.2,1.2c-11.1,2.4-21.1,7.4-31.3,10.2
		c-7.5,2.1-15.4,3.2-23.2,3.2c-18.6,0-37.2-5.9-52.1-16.9c-4.3-3.2-8.8-7-13.7-10.1c-4.9-3.1-10.2-5.5-16.2-5.5
		c-0.8,0-1.5,0-2.3,0.1c-3.3,0.3-6.2,1.4-9,2.8c-4.1,2.1-7.8,4.9-11.4,7.3c-3.6,2.5-7.2,4.6-11,5.5c-1.4,0.4-2.9,0.5-4.4,0.5
		c-4,0-8.1-1.3-11.5-3.6c-3.4-2.3-6.1-5.5-7.5-9.3c-0.7-1.9-1.2-4.2-1.9-6.5c-0.7-2.3-1.8-4.8-3.8-6.8c-1.3-1.3-2.7-2.2-4.3-2.8
		c-1.5-0.6-3.2-0.8-4.8-0.8c-2.8,0-5.5,0.7-8.1,1.8c-2.6,1.1-5,2.5-7.1,4.1c-3,2.3-5.9,4.7-8.8,6.6c-2.9,1.8-5.8,3-8.7,3
		c-0.4,0-0.7,0-1.1-0.1c-2.2-0.2-4-1-5.7-2.3c-2.5-1.9-4.5-5-6.1-8.6c-1.6-3.6-2.7-7.7-3.5-11.5c-0.2-0.8-0.7-1.5-1.5-1.8
		c-0.8-0.3-1.6-0.2-2.3,0.4c-3.7,2.9-8,5.8-12.3,8c-4.3,2.2-8.7,3.5-12.7,3.5c-3.1,0-6-0.8-8.6-2.7c-1.4-1-2.6-2.3-3.9-3.8
		c-1.3-1.5-2.7-3-4.5-4.5c-4.5-3.6-10-5-15.5-5c-4.7,0-9.4,0.9-13.7,2.4c-6.1,2-11.8,4.7-17.4,7.1c-5.6,2.4-11.2,4.5-17,5.3
		c-1.2,0.2-2.3,0.2-3.5,0.2c-5.2,0-10.7-1.5-14.8-4.2c-2.1-1.3-3.8-3-5-4.8c-1.3-1.8-2.1-3.9-2.3-6.3l0,0c0-0.5-0.1-1-0.1-1.4
		c0-3,0.9-6.2,2.1-9.4c4.2-11.1,11.2-21.1,20.2-28.9l-1.6-1.8l-0.2,2.4l480.2,50.2l0.2-2.4l-1.5,1.8c9.5,7.9,18.5,16.2,27.1,25
		L581.5,288z"/>
	<path class="st8" d="M166.1,240.6c-30.3-5-61-8-90.6-16.6c-5.5-1.6-11.4-3.8-14.2-8.8c-2.6-4.7-1.5-10.9,1.3-15.5
		c6.8-10.8,19-17.4,29.4-24.4c13.4-9,27-17.6,40.8-26c19-11.4,38.3-22.2,58-32.4c17.7-9.2,33.2-20.1,51.5-28.1c4.6-2,9.3-4,14.3-3.9
		c4,0,7.9,1.4,11.7,2.9c22.9,9,272.4,135,297.9,151.5c4.7,3,9.5,6.3,12.5,11.2c8.5,13.6-1.6,27.7-14.2,31.7
		c-7.5,2.4-15.6,2.2-23.5,2C415.2,279.9,290.4,261.1,166.1,240.6z"/>
	<path class="st9" d="M166.1,240.6l0.4-2.4c-30.4-5-61.1-8-90.3-16.6c-2.7-0.8-5.4-1.7-7.7-2.9c-2.3-1.2-4-2.7-5.1-4.7
		c-0.8-1.5-1.2-3.1-1.2-4.9c0-2.7,0.9-5.7,2.5-8.1c3.2-5.1,7.7-9.2,12.7-13c5.1-3.8,10.7-7.1,15.9-10.7c13.4-9,27-17.6,40.7-25.9
		c18.9-11.4,38.2-22.2,57.8-32.3c17.9-9.3,33.3-20.2,51.4-28c4.5-2,8.9-3.7,13.2-3.7l0.1,0l0,0c3.5,0,7.1,1.2,10.8,2.7
		c1.3,0.5,3.6,1.5,6.7,3c11.5,5.3,34,16.3,61.6,30c41.4,20.6,94.2,47.3,139,70.3c22.4,11.5,42.7,22.1,58.6,30.5
		c7.9,4.2,14.7,7.9,20.1,10.9c5.4,3,9.3,5.3,11.5,6.6c4.7,3,9.1,6.2,11.8,10.5c2,3.1,2.8,6.2,2.8,9.1c0,4.2-1.7,8.3-4.6,11.7
		c-2.9,3.4-6.9,6.1-11.1,7.4c-5,1.6-10.3,2-15.7,2c-2.3,0-4.6-0.1-6.9-0.2c-125.5-4.3-250.2-23.1-374.6-43.6L166.1,240.6l-0.4,2.4
		c124.4,20.5,249.3,39.4,375.2,43.7c2.3,0.1,4.7,0.2,7.1,0.2c5.7,0,11.5-0.4,17.2-2.2c5.1-1.7,9.8-4.8,13.3-8.9
		c3.5-4.1,5.7-9.2,5.7-14.8c0-3.8-1.1-7.8-3.5-11.7c-3.4-5.4-8.5-8.9-13.2-11.9c-3.3-2.1-10-5.9-19.3-11
		c-32.6-17.7-97.3-50.8-156.3-80.6c-29.5-14.9-57.6-28.9-79.6-39.7c-11-5.4-20.5-10-27.8-13.5c-7.4-3.5-12.6-5.9-15.2-6.9
		c-3.8-1.5-8-3-12.6-3.1h0l-0.2,0c-5.6,0-10.5,2.2-15.1,4.1c-18.6,8.1-34.1,19.1-51.7,28.2c-19.7,10.2-39.1,21-58.1,32.5
		c-13.8,8.4-27.5,17-40.9,26c-5.1,3.4-10.8,6.8-16.1,10.8c-5.3,4-10.3,8.5-13.9,14.3c-2,3.1-3.2,6.9-3.2,10.6c0,2.5,0.5,5,1.8,7.2
		c1.7,3,4.3,5.1,7,6.6c2.8,1.5,5.8,2.5,8.6,3.3c29.8,8.8,60.7,11.7,90.9,16.7L166.1,240.6z"/>
	<path class="st9" d="M94.2,202l-0.4,2.4c11.6,2.1,23.3,3,34.9,4.3c35.4,3.8,70.7,11.7,106,17.8c42.5,7.3,85.1,14.1,127.7,20.1
		c43.3,6.1,86.7,11,130.5,13.1c12.2,0.6,24.9,1.5,37.6,1.5c6.4,0,12.8-0.2,19.1-0.9c3.9-0.4,9.9-1.3,15-3.3c2.6-1,5-2.2,6.9-4
		c1-0.9,1.8-1.9,2.4-3c0.6-1.2,0.9-2.5,0.9-3.9c0-1.1-0.2-2.2-0.6-3.4c-0.2-0.4-0.4-0.8-0.8-1.1c-1.9-1.5-4-2.9-5.9-4.2
		c-3.3-2.1-10-5.9-19.3-11c-32.6-17.7-97.3-50.8-156.3-80.6c-29.5-14.9-57.6-28.9-79.6-39.7c-11-5.4-20.5-10-27.8-13.5
		c-7.4-3.5-12.6-5.9-15.2-6.9c-3.8-1.5-8-3-12.6-3.1l-0.2,0c-5.6,0-10.5,2.2-15.1,4.1c-18.6,8.1-34.1,19.1-51.7,28.2
		c-19.7,10.2-39.1,21-58.1,32.5c-13.8,8.4-27.5,17-40.9,26c-7.9,5.3-17.3,10.6-24.5,18.1c-0.9,0.9-0.9,2.4,0,3.3
		c1.8,1.8,4,3.2,6.5,4.3c3.7,1.7,7.9,2.8,11.8,3.6c3.9,0.8,7.4,1.3,9.4,1.7L94.2,202l0.4-2.4c-2.9-0.5-8-1.3-13-2.6
		c-2.5-0.7-5-1.4-7.1-2.4c-2.1-0.9-3.9-2.1-5-3.2l-1.7,1.7l1.7,1.7c6.5-6.8,15.6-12,23.7-17.4c13.4-9,27-17.6,40.7-25.9
		c18.9-11.4,38.2-22.2,57.8-32.3c17.9-9.3,33.3-20.2,51.4-28c4.5-2,8.9-3.7,13.2-3.7l0.1,0c3.5,0,7.1,1.2,10.9,2.7
		c1.3,0.5,3.6,1.5,6.7,3c11.5,5.3,34,16.3,61.6,30c41.4,20.6,94.2,47.3,139,70.3c22.4,11.5,42.7,22.1,58.6,30.5
		c7.9,4.2,14.7,7.9,20.1,10.9c5.4,3,9.3,5.3,11.5,6.6c1.9,1.3,3.8,2.5,5.6,3.9l1.5-1.9l-2.3,0.8c0.2,0.7,0.3,1.3,0.3,1.8
		c0,0.6-0.1,1.2-0.4,1.7c-0.5,1-1.5,2-3,2.9c-2.2,1.4-5.5,2.5-8.7,3.3c-3.2,0.8-6.5,1.3-8.9,1.5c-6.1,0.6-12.3,0.9-18.6,0.9
		c-12.4,0-25-0.9-37.3-1.5c-43.5-2-86.9-6.9-130-13c-42.6-6-85.2-12.8-127.6-20.1c-35.1-6.1-70.5-14-106.3-17.8
		c-11.6-1.3-23.2-2.2-34.5-4.2L94.2,202z"/>
	<path class="st9" d="M115.1,185.7c5.4,0,5.4-8.4,0-8.4C109.7,177.3,109.7,185.7,115.1,185.7z"/>
	<path class="st9" d="M134.5,168.6c5.4,0,5.4-8.4,0-8.4C129.1,160.3,129.1,168.6,134.5,168.6z"/>
	<path class="st9" d="M146.4,197.1c5.4,0,5.4-8.4,0-8.4C141,188.7,141,197.1,146.4,197.1z"/>
	<path class="st9" d="M202.7,207.3c5.4,0,5.4-8.4,0-8.4C197.3,198.9,197.3,207.3,202.7,207.3z"/>
	<path class="st9" d="M227.7,200.5c5.4,0,5.4-8.4,0-8.4C222.3,192.1,222.3,200.5,227.7,200.5z"/>
	<path class="st9" d="M135,184.5c5.4,0,5.4-8.4,0-8.4C129.6,176.2,129.6,184.5,135,184.5z"/>
	<path class="st9" d="M164,177.7c5.4,0,5.4-8.4,0-8.4C158.6,169.4,158.6,177.7,164,177.7z"/>
	<path class="st9" d="M180.5,208.4c5.4,0,5.4-8.4,0-8.4C175.1,200,175.1,208.4,180.5,208.4z"/>
	<path class="st9" d="M231.1,218.7c5.4,0,5.4-8.4,0-8.4C225.7,210.3,225.7,218.7,231.1,218.7z"/>
	<path class="st9" d="M259.5,218.1c5.4,0,5.4-8.4,0-8.4C254.1,209.7,254.1,218.1,259.5,218.1z"/>
	<path class="st9" d="M289.1,226.6c5.4,0,5.4-8.4,0-8.4C283.7,218.2,283.7,226.6,289.1,226.6z"/>
	<path class="st9" d="M224.8,114.6c5.4,0,5.4-8.4,0-8.4C219.4,106.3,219.4,114.6,224.8,114.6z"/>
	<path class="st9" d="M238.5,107.2c5.4,0,5.4-8.4,0-8.4C233.1,98.9,233.1,107.2,238.5,107.2z"/>
	<path class="st9" d="M243,118.6c5.4,0,5.4-8.4,0-8.4C237.6,110.2,237.6,118.6,243,118.6z"/>
</g>
</svg>
