<svg id="Layer_1" data-name="Layer 1" xmlns="http://www.w3.org/2000/svg" viewBox="0 0 22 22"><path d="M3.49,14.66a.29.29,0,0,1,.32-.25H8.34a.26.26,0,1,1,0,.5H3.81A.29.29,0,0,1,3.49,14.66Z"/><path d="M14.77,13a.28.28,0,0,1,.31-.25h5.56A.28.28,0,0,1,21,13a.29.29,0,0,1-.31.25H15.08A.29.29,0,0,1,14.77,13Z"/><path d="M1.05,16.31a.29.29,0,0,1,.31-.25H11a.3.3,0,0,1,.32.25.29.29,0,0,1-.32.25H1.36A.28.28,0,0,1,1.05,16.31Z"/><path d="M15.12,14.7a4.5,4.5,0,0,1-2.67-3.37,4.36,4.36,0,0,1,.36-2.79A4.53,4.53,0,0,1,15.1,6.31c.14-.06.2-.13.2-.24a.24.24,0,0,0,0-.13.28.28,0,0,0-.14-.1,5.83,5.83,0,0,0-1.93-.38l-.58,0a4.86,4.86,0,0,0-1.27.33A5,5,0,0,0,8.51,8.63a4.9,4.9,0,0,0,.09,3.9,4.86,4.86,0,0,0,4.39,3,5.54,5.54,0,0,0,2.12-.38c.13-.05.19-.12.19-.23A.23.23,0,0,0,15.12,14.7Zm-.84.24a4.37,4.37,0,0,1-1.07.14,3.15,3.15,0,0,1-.53,0,4.56,4.56,0,1,1,1.58-9l.15,0-.13.09a5,5,0,0,0-2.36,4.3,5,5,0,0,0,2.38,4.31l.14.09Z"/></svg>