<svg width="19" height="33" viewBox="0 0 19 33" fill="none" xmlns="http://www.w3.org/2000/svg">
<path d="M4.09092 28.3205C3.73237 28.3681 3.39699 28.5253 3.13008 28.7708C2.86317 29.0163 2.6776 29.3383 2.59843 29.6933C2.56728 29.7998 2.53301 29.8406 2.41772 29.8406C2.31045 29.8507 2.20227 29.837 2.10091 29.8002C1.99954 29.7635 1.90748 29.7047 1.8313 29.6281C1.75511 29.5515 1.69668 29.4589 1.66017 29.3569C1.62365 29.2549 1.60996 29.1461 1.62007 29.0382C1.62007 27.5652 1.62007 26.0921 1.62007 24.6191C1.62007 24.337 1.59202 24.0549 1.60136 23.7697C1.63564 22.8295 1.60136 21.8892 1.60136 20.949C1.60303 20.895 1.59673 20.8412 1.58267 20.7891C1.57024 20.7407 1.5458 20.6963 1.51162 20.6601C1.47744 20.6239 1.43466 20.597 1.3873 20.5819C1.33994 20.5669 1.28956 20.5642 1.24089 20.5741C1.19221 20.584 1.14686 20.6063 1.10907 20.6387C1.03623 20.7147 0.994035 20.8152 0.990662 20.9207C0.990662 21.955 0.990662 22.9924 0.990662 24.0298C0.990662 24.0643 0.990662 24.0957 0.990662 24.127C0.990662 24.4091 1.02494 24.6943 1.02494 24.9763C1.02494 25.202 0.990659 25.4245 0.987543 25.6502C0.987543 26.23 0.987543 26.8098 0.987543 27.3928V29.0508C0.977844 29.2368 1.00687 29.4228 1.07275 29.5969C1.13863 29.771 1.23993 29.9294 1.37015 30.0618C1.50037 30.1943 1.65666 30.298 1.82899 30.3662C2.00133 30.4344 2.18593 30.4657 2.37098 30.458C2.49872 30.458 2.5517 30.4925 2.58909 30.6241C2.6719 30.9749 2.85918 31.2918 3.12588 31.5326C3.39258 31.7735 3.726 31.9267 4.08158 31.9718C4.43963 32.0451 4.81159 32.0021 5.14371 31.8488C5.47584 31.6956 5.75094 31.4401 5.92926 31.1193C6.13073 30.8196 6.23447 30.4643 6.2261 30.1026C6.21772 29.7409 6.09765 29.3908 5.88253 29.1009C5.69649 28.8048 5.42602 28.5719 5.10642 28.4327C4.78682 28.2935 4.43294 28.2544 4.09092 28.3205ZM5.56471 30.4862C5.49361 30.7209 5.35565 30.9294 5.1679 31.0859C4.98014 31.2425 4.75086 31.3402 4.50844 31.3669C4.18454 31.3951 3.86251 31.2949 3.61104 31.0876C3.35958 30.8803 3.19858 30.5824 3.1624 30.2574C3.14705 30.0939 3.16454 29.929 3.21381 29.7724C3.26309 29.6158 3.34314 29.4708 3.44923 29.346C3.55532 29.2211 3.68527 29.119 3.83137 29.0457C3.97747 28.9724 4.13672 28.9293 4.29968 28.9191C4.58223 28.8988 4.86304 28.9777 5.09428 29.1423C5.32551 29.3069 5.49286 29.547 5.56783 29.8218C5.62428 30.0397 5.6232 30.2688 5.56471 30.4862Z" fill="black" stroke="black" stroke-width="0.1"/>
<path d="M12.4819 21.1903C12.7716 21.1903 12.8807 21.0838 12.8807 20.7954V18.9149C12.8807 18.6234 12.7779 18.52 12.485 18.52H6.50569C6.22526 18.52 6.12244 18.6266 6.12244 18.9118C6.12244 19.5386 6.12244 20.1655 6.12244 20.7923C6.12244 21.0838 6.22837 21.1903 6.51814 21.1903H12.4819ZM6.73314 20.366C6.73314 20.0056 6.73314 19.6452 6.73314 19.2848C6.73314 19.1625 6.77365 19.128 6.89205 19.128H12.1142C12.1796 19.128 12.2606 19.1092 12.2606 19.2221V20.5666H12.0768C10.3631 20.5666 8.64938 20.5666 6.93567 20.5666C6.76742 20.5729 6.72691 20.5165 6.73314 20.366Z" fill="black" stroke="black" stroke-width="0.1"/>
<path d="M4.08157 25.0516C4.08982 25.1168 4.11996 25.1772 4.16699 25.2228C4.21402 25.2684 4.27512 25.2964 4.34018 25.3023C4.40558 25.3148 4.47326 25.3029 4.53059 25.2689C4.58792 25.2349 4.63099 25.181 4.65176 25.1174C4.67727 25.0418 4.68888 24.9622 4.68604 24.8824V16.3198C4.68772 16.2669 4.68142 16.2141 4.66735 16.1631C4.65266 16.0963 4.61482 16.0369 4.56059 15.9955C4.50636 15.9542 4.43927 15.9336 4.37134 15.9375C4.18439 15.9375 4.05975 16.0785 4.05975 16.3136V24.8761C4.06232 24.9351 4.06961 24.9938 4.08157 25.0516Z" fill="black" stroke="black" stroke-width="0.1"/>
<path d="M14.3078 23.0237C14.3078 23.0864 14.3078 23.1522 14.3078 23.2149V23.5597C14.3078 23.8982 14.3078 24.2335 14.3078 24.572C14.3078 24.7162 14.3078 24.8603 14.3078 25.0045C14.3076 25.0845 14.3379 25.1615 14.3923 25.2197C14.4468 25.278 14.5213 25.3131 14.6006 25.3179C14.6782 25.3183 14.753 25.2896 14.8106 25.2375C14.8683 25.1853 14.9045 25.1134 14.9122 25.0358C14.9153 24.9878 14.9153 24.9397 14.9122 24.8917C14.9122 24.0486 14.9122 23.2055 14.9122 22.3593C14.9122 22.2872 14.9122 22.212 14.9122 22.1462V20.8298C14.9122 19.3223 14.9122 17.8179 14.9122 16.3103C14.9122 16.0784 14.7907 15.9374 14.6006 15.9374C14.4106 15.9374 14.2891 16.0816 14.2891 16.3135V22.8795C14.2907 22.9281 14.2969 22.9764 14.3078 23.0237Z" fill="black" stroke="black" stroke-width="0.1"/>
<path d="M8.26927 21.8704C8.2598 21.8031 8.22885 21.7408 8.18108 21.6927C8.13331 21.6447 8.07131 21.6135 8.00442 21.604C7.93699 21.5959 7.86884 21.6118 7.81189 21.649C7.75494 21.6863 7.7128 21.7424 7.69284 21.8077C7.67346 21.8738 7.66503 21.9426 7.66791 22.0115C7.66791 22.9047 7.66791 23.7979 7.66791 24.688C7.66791 25.4528 7.66791 26.2144 7.66791 26.9791C7.66888 27.0792 7.69805 27.1771 7.75204 27.2612C7.78548 27.3103 7.83482 27.3462 7.89165 27.3628C7.94847 27.3793 8.00926 27.3756 8.06363 27.3521C8.1332 27.3299 8.19282 27.2839 8.23211 27.222C8.2714 27.1602 8.28786 27.0864 8.27862 27.0136V22.0303C8.28022 21.9768 8.27709 21.9233 8.26927 21.8704Z" fill="black" stroke="black" stroke-width="0.1"/>
<path d="M11.3384 21.8673C11.332 21.7991 11.302 21.7354 11.2535 21.6872C11.2051 21.6391 11.1414 21.6096 11.0735 21.604C11.008 21.5943 10.9411 21.6078 10.8843 21.6421C10.8275 21.6763 10.7843 21.7294 10.7619 21.7921C10.7418 21.8526 10.7323 21.9163 10.7339 21.9801C10.7339 23.6517 10.7339 25.3232 10.7339 26.9948C10.7307 27.0376 10.7307 27.0805 10.7339 27.1233C10.7458 27.1975 10.7839 27.2648 10.8411 27.3132C10.8982 27.3615 10.9708 27.3875 11.0455 27.3866C11.1187 27.3818 11.1879 27.3513 11.2409 27.3002C11.2939 27.2492 11.3273 27.181 11.3352 27.1076C11.3384 27.0533 11.3384 26.9989 11.3352 26.9446V22.0271C11.3409 21.9741 11.342 21.9206 11.3384 21.8673Z" fill="black" stroke="black" stroke-width="0.1"/>
<path d="M10.7245 17.7364C10.7245 17.9778 10.8835 18.1282 11.0953 18.0937C11.2574 18.0655 11.3446 17.9339 11.3446 17.7176V13.7529C11.3493 13.705 11.3493 13.6567 11.3446 13.6087C11.3347 13.5647 11.3154 13.5234 11.2882 13.4876C11.2609 13.4517 11.2263 13.4222 11.1866 13.4011C11.147 13.38 11.1033 13.3677 11.0585 13.3651C11.0137 13.3626 10.9689 13.3698 10.9271 13.3862C10.8635 13.4149 10.8106 13.4631 10.7759 13.5239C10.7412 13.5847 10.7265 13.655 10.7339 13.7247C10.7339 14.3954 10.7339 15.0693 10.7339 15.74L10.7245 17.7364Z" fill="black" stroke="black" stroke-width="0.1"/>
<path d="M7.65541 17.7333C7.65541 17.9809 7.80808 18.1251 8.01995 18.0937C8.18509 18.0686 8.27234 17.937 8.27234 17.7207V13.756C8.277 13.7081 8.277 13.6598 8.27234 13.6118C8.25917 13.5456 8.22506 13.4853 8.17509 13.4402C8.12511 13.395 8.06195 13.3672 7.99503 13.3611C7.92741 13.3517 7.85867 13.3671 7.80143 13.4045C7.74419 13.4419 7.7023 13.4988 7.68345 13.5648C7.66427 13.632 7.65585 13.7018 7.65852 13.7717C7.65852 14.4205 7.65852 15.0724 7.65852 15.7212V16.1881C7.6554 16.7021 7.65229 17.2193 7.65541 17.7333Z" fill="black" stroke="black" stroke-width="0.1"/>
<path d="M18 27.8315C18 25.1696 18 22.5087 18 19.8488C18 17.2746 18 14.7004 18 12.1262C18.0099 11.433 17.7595 10.7615 17.2989 10.2457C17.1556 10.0796 16.9126 10.0044 16.8129 9.78187C16.8129 9.78187 16.7942 9.78187 16.7848 9.76307C16.3077 9.41977 15.7356 9.23562 15.149 9.23653C14.4542 9.23653 13.7593 9.23653 13.0645 9.23653C12.9212 9.23653 12.8776 9.20204 12.8776 9.0516C12.8776 7.48452 12.8776 5.91745 12.8776 4.37544C12.8776 4.31589 12.8776 4.25947 12.8776 4.19052H13.5319C13.5802 4.19797 13.6296 4.19388 13.6761 4.17856C13.7226 4.16324 13.7648 4.13714 13.7994 4.10235C13.834 4.06756 13.86 4.02507 13.8752 3.97831C13.8904 3.93156 13.8945 3.88187 13.8871 3.83324C13.8871 3.32341 13.8871 2.81254 13.8871 2.30062C13.8882 2.20445 13.8766 2.10855 13.8528 2.01541C13.7846 1.7186 13.6164 1.45468 13.3767 1.26844C13.137 1.0822 12.8407 0.985131 12.5379 0.993685H6.41531C6.34015 0.993895 6.26513 1.00018 6.19097 1.01249C5.8975 1.05519 5.62663 1.19528 5.42136 1.41051C5.34974 1.49209 5.289 1.58271 5.24064 1.68007C5.15071 1.85628 5.09869 2.04957 5.08796 2.24735C5.08796 3.0685 5.08796 3.67338 5.08796 3.8771C5.08694 3.94994 5.11118 4.02087 5.15651 4.07769C5.18711 4.11375 5.22544 4.14236 5.26862 4.16136C5.31179 4.18036 5.35869 4.18926 5.40578 4.1874C5.57715 4.1874 5.74852 4.1874 5.91989 4.1874C6.09126 4.1874 6.11307 4.21873 6.11307 4.3723C6.11307 5.93729 6.11307 7.50437 6.11307 9.07355C6.11307 9.20831 6.07568 9.24592 5.94482 9.24592C5.2531 9.24592 4.56451 9.24592 3.87591 9.24592C3.65681 9.24475 3.4383 9.26896 3.2247 9.31802C2.5821 9.46131 2.00868 9.82406 1.60196 10.3446C1.19524 10.8651 0.980319 11.5113 0.993758 12.1732C0.993758 14.3525 0.993758 16.5297 0.993758 18.7048C0.993758 18.9179 0.993758 19.1342 0.993758 19.3505C0.998771 19.4256 1.0305 19.4964 1.08313 19.5499C1.13577 19.6034 1.20579 19.6361 1.28041 19.642C1.35649 19.6426 1.43017 19.6152 1.48757 19.565C1.54496 19.5148 1.58211 19.4452 1.59199 19.3693C1.59671 19.2889 1.59671 19.2083 1.59199 19.1279C1.59199 17.4794 1.59199 15.8277 1.59199 14.1791C1.59199 14.0255 1.62939 13.9754 1.78518 13.9785C2.48936 13.9785 3.19665 13.9973 3.90083 13.9785C4.14383 13.9829 4.38511 13.9366 4.60945 13.8425C4.83379 13.7485 5.03634 13.6088 5.20435 13.4321C5.37236 13.2555 5.50218 13.0457 5.58565 12.8161C5.66912 12.5865 5.70442 12.342 5.68932 12.098V9.86022H9.94867C9.99261 9.86557 10.0372 9.86143 10.0794 9.84809C10.1216 9.83476 10.1606 9.81252 10.1936 9.78286C10.2266 9.75321 10.253 9.71682 10.2709 9.67612C10.2888 9.63542 10.298 9.59133 10.2976 9.54681C10.2979 9.50258 10.2889 9.4588 10.2711 9.41833C10.2534 9.37787 10.2273 9.34165 10.1946 9.31205C10.162 9.28245 10.1234 9.26013 10.0816 9.24657C10.0397 9.23301 9.99549 9.22853 9.95179 9.23339H9.80846C8.83009 9.23339 7.85171 9.23339 6.87646 9.23339C6.75182 9.23339 6.70508 9.20204 6.7082 9.07041C6.7082 8.67237 6.7082 8.27747 6.7082 7.87943V4.37544C6.7082 4.29395 6.68016 4.19366 6.82348 4.19993C7.10688 4.21127 7.38621 4.12926 7.61904 3.96634C7.85186 3.80342 8.02546 3.5685 8.11344 3.29729C8.12776 3.25229 8.15764 3.21395 8.19765 3.18922C8.23767 3.1645 8.28518 3.15502 8.33155 3.16252C9.07623 3.16252 9.8178 3.16252 10.5594 3.16252C10.6253 3.14876 10.694 3.16046 10.7517 3.19531C10.8094 3.23015 10.852 3.28557 10.871 3.35056C10.949 3.56662 11.0833 3.75766 11.2598 3.90375C11.4363 4.04983 11.6484 4.14561 11.8743 4.18112C11.9927 4.19993 12.1142 4.20305 12.2388 4.21246V9.22712H11.625C11.3944 9.22712 11.2542 9.34935 11.2573 9.54053C11.2604 9.73172 11.4038 9.85395 11.6312 9.85395C12.1266 9.85395 12.6252 9.85395 13.1206 9.85395C13.2764 9.85395 13.3075 9.90409 13.3044 10.0483C13.3044 10.719 13.3044 11.3897 13.3044 12.0635C13.291 12.431 13.3806 12.7949 13.563 13.1135C13.7284 13.3893 13.9649 13.615 14.2473 13.7668C14.5298 13.9185 14.8478 13.9906 15.1677 13.9754H17.1868C17.2927 13.9754 17.3457 13.9754 17.3737 14.0036C17.4018 14.0318 17.4017 14.1697 17.3986 14.1822C17.3612 14.3703 17.3706 20.1121 17.3986 28.8407C17.4085 28.9769 17.4012 29.1138 17.3768 29.2481C17.3632 29.3588 17.3271 29.4655 17.2709 29.5616C17.1947 29.6516 17.0987 29.7225 16.9906 29.7688C16.8824 29.815 16.765 29.8353 16.6477 29.828C16.5137 29.828 16.4514 29.7904 16.4171 29.6525C16.3136 29.2569 16.0824 28.9072 15.7598 28.6581C15.4372 28.4091 15.0415 28.2749 14.6349 28.2766C14.2281 28.2768 13.8329 28.413 13.5114 28.6638C13.1899 28.9145 12.9604 29.2656 12.8589 29.6619C12.8277 29.7966 12.7685 29.8248 12.6408 29.8248H7.62426C7.55882 29.8248 7.49651 29.8248 7.43108 29.8248C7.36242 29.8358 7.29937 29.8695 7.25194 29.9206C7.20451 29.9717 7.17544 30.0373 7.16935 30.1069C7.16267 30.1767 7.18096 30.2466 7.22094 30.3041C7.26092 30.3615 7.31996 30.4027 7.38745 30.4203C7.46009 30.436 7.53443 30.4424 7.60867 30.4391C9.28187 30.4391 10.9551 30.4391 12.6283 30.4391C12.7654 30.4391 12.8277 30.4673 12.8651 30.6209C12.9709 31.01 13.2001 31.3537 13.5179 31.5997C13.8356 31.8458 14.2245 31.9808 14.6255 31.9843C15.0323 31.9872 15.4285 31.8543 15.7521 31.6065C16.0758 31.3586 16.3086 31.0098 16.414 30.6146C16.4452 30.483 16.4982 30.4391 16.6384 30.4391C16.9431 30.4532 17.2432 30.3597 17.4867 30.1749C17.7302 29.99 17.9018 29.7254 17.9719 29.4268C18.01 29.2202 18.0247 29.0099 18.0156 28.8C18.0031 28.4897 18 28.1606 18 27.8315ZM5.09731 12.0917C5.11043 12.2597 5.0872 12.4286 5.02921 12.5867C4.97121 12.7448 4.87984 12.8884 4.76138 13.0075C4.64292 13.1267 4.50019 13.2186 4.34302 13.2769C4.18586 13.3352 4.01799 13.3586 3.85097 13.3454H1.75402H1.61069C1.65743 12.6528 1.51722 11.9664 1.7696 11.3051C1.9309 10.8841 2.21394 10.5215 2.58217 10.2639C2.9504 10.0064 3.38693 9.86575 3.8354 9.86022C4.25292 9.86022 4.66733 9.86022 5.10043 9.86022C5.10043 9.92918 5.10043 9.9856 5.10043 10.0451L5.09731 12.0917ZM12.1547 3.5919C12.0177 3.60174 11.8809 3.56918 11.7629 3.49858C11.6448 3.42799 11.551 3.32275 11.4941 3.19699C11.4323 3.07207 11.3812 2.94205 11.3414 2.80836C11.3264 2.73315 11.2845 2.66609 11.2237 2.61988C11.1628 2.57367 11.0872 2.55153 11.0112 2.55763H8.00127C7.80497 2.55763 7.72085 2.63912 7.6523 2.8303C7.6 2.98668 7.53323 3.13778 7.45288 3.28162C7.39783 3.38204 7.31566 3.46474 7.21587 3.5202C7.11608 3.57566 7.00273 3.60161 6.88891 3.59504C6.50567 3.59504 6.12242 3.59504 5.72048 3.59504C5.72048 3.13431 5.7049 2.69867 5.72048 2.26615C5.73336 2.10686 5.8011 1.95708 5.91202 1.84265C6.02294 1.72822 6.17008 1.65631 6.32807 1.63932C6.40277 1.63464 6.4777 1.63464 6.55241 1.63932H12.4725C12.6326 1.61902 12.795 1.653 12.9338 1.73587C13.0726 1.81874 13.18 1.94576 13.239 2.0969C13.2696 2.18355 13.2864 2.27453 13.2888 2.36645C13.2888 2.72374 13.2888 3.08417 13.2888 3.4446C13.2888 3.56997 13.2483 3.59817 13.1331 3.59817C12.8059 3.5731 12.4787 3.56996 12.1547 3.5919ZM17.3862 13.2232C17.3862 13.3391 17.3488 13.3705 17.2366 13.3705C16.5231 13.3705 15.8064 13.3705 15.0929 13.3705C14.9368 13.3774 14.7809 13.352 14.6349 13.2956C14.489 13.2392 14.3562 13.1532 14.2448 13.0429C14.1334 12.9326 14.0458 12.8005 13.9875 12.6546C13.9292 12.5087 13.9013 12.3523 13.9058 12.1952C13.8902 11.4555 13.9058 10.7127 13.9058 9.97305C13.9058 9.95111 13.9058 9.92917 13.9058 9.87275C14.6068 9.92917 15.3173 9.75366 15.9872 10.0545C16.3957 10.216 16.7463 10.4977 16.9932 10.8629C17.24 11.228 17.3715 11.6596 17.3706 12.1012C17.3986 12.4616 17.3799 12.8377 17.3862 13.2138V13.2232ZM14.6255 31.4013C14.4626 31.4018 14.3012 31.3695 14.1509 31.3064C14.0005 31.2433 13.8642 31.1507 13.7498 31.034C13.6355 30.9172 13.5455 30.7787 13.4851 30.6265C13.4246 30.4743 13.395 30.3115 13.3979 30.1477C13.3971 29.9861 13.4282 29.826 13.4896 29.6767C13.5509 29.5274 13.6413 29.3919 13.7553 29.2781C13.8693 29.1643 14.0047 29.0745 14.1535 29.0139C14.3024 28.9534 14.4618 28.9233 14.6224 28.9253C14.7831 28.9245 14.9423 28.9556 15.091 29.0168C15.2397 29.0779 15.375 29.168 15.489 29.2819C15.603 29.3957 15.6936 29.531 15.7556 29.6801C15.8176 29.8293 15.8497 29.9892 15.8501 30.1508C15.8445 30.4757 15.7136 30.7857 15.4852 31.0155C15.2568 31.2453 14.9486 31.3769 14.6255 31.3825V31.4013Z" fill="black" stroke="black" stroke-width="0.1"/>
</svg>
