<svg id="Layer_1" data-name="Layer 1" xmlns="http://www.w3.org/2000/svg" viewBox="0 0 50 50"><defs><style>.cls-1{font-size:6px;font-family:Poppins-SemiBold, Poppins;font-weight:600;}</style></defs><path d="M27.8,8.55c-1.53,1.14-2.2,1.14-3.6,0L11.94,27.44H40c-.1-.18-.18-.33-.27-.46l-7.71-11.9c-.12-.18-.25-.37-.36-.56a.55.55,0,1,1,.94-.58c.29.43.57.86.85,1.3l7.71,11.9a.68.68,0,0,0,.65.35c1.15,0,2.31,0,3.46,0,.46,0,.76.29.64.64a1,1,0,0,1-.46.45,1.54,1.54,0,0,1-.57,0H7.79c-.65,0-.65,0-.65.65V43.29c0,.58,0,.59.59.59H44.27c.58,0,.59,0,.59-.58V31.12a4,4,0,0,1,0-.49.51.51,0,0,1,.53-.5.54.54,0,0,1,.56.47,3.39,3.39,0,0,1,0,.45v13c0,.78-.15.93-.94.93H7c-.82,0-1-.14-1-1V28.4c0-.78.14-.92.94-.92,1.07,0,2.13,0,3.2,0a.68.68,0,0,0,.65-.35L22.91,8.46A7.88,7.88,0,0,0,24,6.4a2,2,0,0,1,2.09-1.35,2.2,2.2,0,0,1,2,1.68,2.21,2.21,0,0,0,.28.65c.91,1.42,1.84,2.83,2.74,4.25a.91.91,0,0,1,.13.69c-.16.46-.71.44-1,0-.71-1.07-1.41-2.16-2.11-3.24C28,8.89,27.92,8.72,27.8,8.55ZM26,8.27a1,1,0,0,0,1.07-1,1.05,1.05,0,1,0-2.1,0A1,1,0,0,0,26,8.27Z"/><path d="M26,30.56H40.39c.75,0,.8.05,1,.8a1.28,1.28,0,0,0,1,1c.71.14.76.21.76.93q0,3,0,5.91c0,.64-.08.74-.7.86a1.26,1.26,0,0,0-1.12,1.14c-.1.58-.23.69-.87.69H14.19a3.2,3.2,0,0,1-.44,0,.53.53,0,0,1-.52-.56.52.52,0,0,1,.53-.54,4.73,4.73,0,0,1,.53,0H39.63c.4,0,.67,0,.83-.5a2,2,0,0,1,1.26-1.17.41.41,0,0,0,.31-.46c0-1.62,0-3.23,0-4.85a.43.43,0,0,0-.33-.48A2.2,2.2,0,0,1,40.39,32a.49.49,0,0,0-.56-.35H12.23a.57.57,0,0,0-.65.42,2.16,2.16,0,0,1-1.27,1.24.44.44,0,0,0-.35.47c0,1.62,0,3.23,0,4.85a.46.46,0,0,0,.35.48,2.33,2.33,0,0,1,1.48,2.09c0,.36-.12.63-.49.66s-.56-.21-.62-.56c-.15-.85-.41-1.11-1.29-1.27a.58.58,0,0,1-.54-.63c0-2.12,0-4.24,0-6.36a.61.61,0,0,1,.57-.67c.87-.16,1.11-.4,1.27-1.28a.61.61,0,0,1,.64-.56H26Z"/><text class="cls-1" transform="translate(16.05 38.38)">Room 1</text></svg>