<svg id="Layer_1" data-name="Layer 1" xmlns="http://www.w3.org/2000/svg" viewBox="0 0 50 50"><path d="M10.65,35.87c.08-.28.15-.55.23-.82a14.54,14.54,0,0,1,.88-2.21,14.18,14.18,0,0,1,1.91-3,14.74,14.74,0,0,1,2.78-2.57c.39-.27.8-.52,1.21-.77a.72.72,0,0,1,.92.12,9.27,9.27,0,0,0,2.12,1.61,9.1,9.1,0,0,0,2.36.89,9.36,9.36,0,0,0,2.89.16,9.11,9.11,0,0,0,3-.86,8.91,8.91,0,0,0,2.45-1.77.73.73,0,0,1,.55-.25.83.83,0,0,1,.41.1,14.58,14.58,0,0,1,3.24,2.51,15.19,15.19,0,0,1,2.57,3.59,13.71,13.71,0,0,1,1.06,2.75c0,.15.09.3.14.49.06-.09.12-.15.17-.22a18.13,18.13,0,0,0,1.84-3.12,16.93,16.93,0,0,0,.93-2.49c.14-.52.27-1,.38-1.57a15.19,15.19,0,0,0,.3-2.32,17.15,17.15,0,0,0-.1-3.36c-.08-.57-.16-1.15-.28-1.71a17.65,17.65,0,0,0-.73-2.45,18.08,18.08,0,0,0-2.31-4.28,3.88,3.88,0,0,1-.4-.57.74.74,0,0,1,.26-.94.72.72,0,0,1,1,.08,5.14,5.14,0,0,1,.53.68,19.54,19.54,0,0,1,3,6.38,19.4,19.4,0,0,1,.6,3.71,18.2,18.2,0,0,1-.06,3.3c-.08.65-.17,1.3-.3,1.94s-.31,1.3-.5,1.94a18.08,18.08,0,0,1-1.72,3.9,19.44,19.44,0,0,1-2.41,3.31,19.16,19.16,0,0,1-3,2.7,19.59,19.59,0,0,1-3.08,1.84,17.47,17.47,0,0,1-3,1.16c-.67.18-1.35.33-2,.46a18.19,18.19,0,0,1-4.48.26,19.38,19.38,0,0,1-2.83-.36A19,19,0,0,1,17.45,43c-.64-.28-1.26-.6-1.89-.92A.76.76,0,0,1,16,40.69a1.38,1.38,0,0,1,.46.18,18.11,18.11,0,0,0,5.68,1.92A18.39,18.39,0,0,0,26,43a18.76,18.76,0,0,0,2.36-.28A17.27,17.27,0,0,0,31.06,42a17.93,17.93,0,0,0,2.61-1.17,18.43,18.43,0,0,0,3.56-2.57l.76-.75a.2.2,0,0,0,.06-.19,12.19,12.19,0,0,0-.7-2.65,13.31,13.31,0,0,0-5.2-6.42.11.11,0,0,0-.16,0,10.66,10.66,0,0,1-1.86,1.33,10.11,10.11,0,0,1-2.23.93,10.46,10.46,0,0,1-3.56.39,9.84,9.84,0,0,1-2.21-.38,10.52,10.52,0,0,1-2.68-1.18A9.62,9.62,0,0,1,18,28.27a.16.16,0,0,0-.24,0,13.34,13.34,0,0,0-2.89,2.56,13.16,13.16,0,0,0-2,3.2,11.16,11.16,0,0,0-.76,2.31c-.1.47-.18,1-.26,1.42a.76.76,0,0,1-1.34.42,19.25,19.25,0,0,1-2.12-2.8,20.26,20.26,0,0,1-1.6-3.15A19.95,19.95,0,0,1,5.61,27.5a20,20,0,0,1-.07-4.37c.07-.66.18-1.31.29-2a16.91,16.91,0,0,1,.64-2.42,20.62,20.62,0,0,1,1.41-3.19A19.73,19.73,0,0,1,12,10.36a19.44,19.44,0,0,1,4.33-2.91,17.68,17.68,0,0,1,2.26-.94A17.09,17.09,0,0,1,21,5.85a19.53,19.53,0,0,1,5-.38,19,19,0,0,1,6.08,1.31c.48.19,1,.41,1.43.63a.75.75,0,0,1,.48.68.72.72,0,0,1-.42.71.73.73,0,0,1-.69,0A17.12,17.12,0,0,0,31,8a18.86,18.86,0,0,0-2.37-.66A18.44,18.44,0,0,0,24,7a17.86,17.86,0,0,0-2.4.29,18.66,18.66,0,0,0-2.2.56,18.45,18.45,0,0,0-3.19,1.39,18.18,18.18,0,0,0-2.44,1.63,18.63,18.63,0,0,0-3,3,18,18,0,0,0-2.22,3.67,18.4,18.4,0,0,0-.86,2.28,18.22,18.22,0,0,0-.68,6.62,18.74,18.74,0,0,0,.34,2.35,17.63,17.63,0,0,0,1.55,4.35,17,17,0,0,0,1.64,2.63Z"/><path d="M17.4,19.4A7.6,7.6,0,1,1,25,27,7.59,7.59,0,0,1,17.4,19.4ZM25,13.32a6.07,6.07,0,1,0,6.07,6.14A6.08,6.08,0,0,0,25,13.32Z"/></svg>