<?xml version="1.0" encoding="utf-8"?>
<!-- Generator: Adobe Illustrator 25.2.1, SVG Export Plug-In . SVG Version: 6.00 Build 0)  -->
<svg version="1.1" id="Layer_1" xmlns="http://www.w3.org/2000/svg" xmlns:xlink="http://www.w3.org/1999/xlink" x="0px" y="0px"
	 viewBox="0 0 50 50" style="enable-background:new 0 0 50 50;" xml:space="preserve">
<style type="text/css">
	.st0{fill:#756096;}
	.st1{fill:#9B7AC7;}
	.st2{fill:none;stroke:#868686;stroke-width:0.75;stroke-miterlimit:10;}
	.st3{fill:#E94D75;}
	.st4{fill:#1D1D1B;}
	.st5{fill:none;stroke:#E8477A;stroke-width:0.5;stroke-miterlimit:10;}
	.st6{fill:none;stroke:#DD255E;stroke-width:0.5;stroke-miterlimit:10;}
	.st7{fill:#9C9B9B;}
	.st8{fill:none;stroke:#868686;stroke-width:0.5;stroke-miterlimit:10;}
	.st9{fill:#868686;}
	.st10{fill:#E8477A;}
	.st11{fill:#DD255E;}
	.st12{fill:#7B5FA4;}
	.st13{fill:#7B60A5;}
	.st14{fill:#AFB5BF;}
	.st15{fill:#DEDEE0;}
	.st16{fill:#ABA5B5;}
	.st17{fill:#D6D6D6;}
	.st18{fill:none;stroke:#868686;stroke-width:2;stroke-miterlimit:10;}
	.st19{fill:none;stroke:#DD255E;stroke-width:2;stroke-miterlimit:10;}
	.st20{fill:none;stroke:#7B5FA4;stroke-width:8;stroke-miterlimit:10;}
	.st21{fill:none;stroke:#B0B5C0;stroke-width:8;stroke-miterlimit:10;}
	.st22{fill:none;stroke:#DEDEE0;stroke-width:8;stroke-miterlimit:10;}
	.st23{fill:none;stroke:#868686;stroke-miterlimit:10;}
	.st24{fill:#8F8A9B;}
	.st25{fill:#FFFFFF;}
	.st26{fill:#AAB6C2;}
	.st27{fill:#216835;}
	.st28{fill:#1C3F75;}
	.st29{fill:#298346;}
	.st30{fill:#25723B;}
	.st31{fill:#DFEDED;}
	.st32{fill:#5C7D9E;}
	.st33{fill:none;stroke:#63547F;stroke-width:0.75;stroke-miterlimit:10;}
	.st34{fill:#554A6D;}
	.st35{fill:none;stroke:#216835;stroke-width:0.25;stroke-miterlimit:10;}
	.st36{fill:none;stroke:#AAAAAA;stroke-width:0.25;stroke-miterlimit:10;}
	.st37{fill:#A9A9A9;}
	.st38{fill:#F9F9F9;}
	.st39{fill:#AAAAAA;}
	.st40{fill:#63547F;}
	.st41{fill:none;stroke:#756096;stroke-width:0.75;stroke-miterlimit:10;}
</style>
<path class="st1" d="M38.96,28.62V16.81c0-1.31-1.06-2.37-2.36-2.37c-1.2,0-2.2,0.91-2.34,2.08c-0.08-0.02-0.17-0.03-0.25-0.03
	h-0.62v-4.95c0-0.71-0.44-1.37-1.1-1.67v-3.1h0.01V2.9c0-1.01-0.82-1.82-1.83-1.82h-8.45c-1.01,0-1.83,0.81-1.83,1.82v1.93
	C19.53,5.12,19.1,5.78,19.1,6.5v3.44c-0.59,0.31-0.97,0.93-0.97,1.6v4.95h-0.87c-0.16-1.15-1.16-2.05-2.34-2.05
	c-1.3,0-2.36,1.06-2.36,2.37v11.81c-0.01,5.28-0.01,10.55-0.01,15.82c0,2.87,2.33,5.2,5.21,5.2h16.02c2.86,0,5.19-2.33,5.19-5.2
	C38.97,39.17,38.97,33.9,38.96,28.62z M27.49,31.29c0,0.87-0.62,1.58-1.37,1.58v-3.14C26.87,29.73,27.49,30.43,27.49,31.29z
	 M25.42,29.73v3.14c-0.77,0-1.39-0.71-1.39-1.58C24.03,30.43,24.65,29.73,25.42,29.73z"/>
<g>
	<rect x="25.46" y="4.69" class="st0" width="3.54" height="0.65"/>
	<rect x="22.91" y="4.69" class="st0" width="1.9" height="0.65"/>
	<rect x="25.94" y="9.77" class="st0" width="1.58" height="0.65"/>
	<rect x="24.44" y="13.77" class="st0" width="1.27" height="0.65"/>
	<rect x="26.09" y="13.77" class="st0" width="3.33" height="0.65"/>
	<path class="st0" d="M38.96,28.62V16.81c0-1.31-1.06-2.37-2.36-2.37c-1.2,0-2.2,0.91-2.34,2.08c-0.08-0.02-0.17-0.03-0.25-0.03
		h-0.62v-4.95c0-0.71-0.44-1.37-1.1-1.67v-3.1h0.01V2.9c0-1.01-0.82-1.82-1.83-1.82h-8.45c-1.01,0-1.83,0.81-1.83,1.82v1.93
		C19.53,5.12,19.1,5.78,19.1,6.5v3.44c-0.59,0.31-0.97,0.93-0.97,1.6v4.95h-0.87c-0.16-1.15-1.16-2.05-2.34-2.05
		c-1.3,0-2.36,1.06-2.36,2.37v11.81c-0.01,5.28-0.01,10.55-0.01,15.82c0,2.87,2.33,5.2,5.21,5.2h16.02c2.86,0,5.19-2.33,5.19-5.2
		C38.97,39.17,38.97,33.9,38.96,28.62z M18.78,14.42h4.86v-0.65h-4.86v-2.23c0-0.39,0.19-0.74,0.52-0.96
		c0.09-0.08,0.2-0.14,0.31-0.16h6.1V9.78h-5.96V6.5c0-0.44,0.24-0.83,0.64-1.03c0.08-0.05,0.16-0.07,0.24-0.1
		c0.03,0,0.07-0.02,0.1-0.03h1.69V4.69h-1.58V2.9c0-0.65,0.54-1.17,1.18-1.17h8.45c0.64,0,1.18,0.52,1.18,1.17v6.88h-3.5v0.64h3.69
		c0.09,0.02,0.19,0.04,0.27,0.08c0.38,0.19,0.63,0.6,0.63,1.04v2.23h-2.92v0.65h2.92v1.87H18.78V14.42z M17.29,17.12h16.72
		c0.07,0,0.15,0.02,0.22,0.03v12.76c-0.06,0.15-0.29,0.61-0.84,0.93c-0.4,0.24-0.74,0.3-0.86,0.32c-1.06,0-2.94-0.02-4.46-0.04
		h-0.03c-0.09-1.18-1.07-2.1-2.28-2.1c-1.2,0-2.17,0.91-2.28,2.07c-0.01-0.01-0.01,0-0.02-0.01h-3.85
		c-0.52-0.03-1.04-0.19-1.48-0.47c-0.42-0.25-0.69-0.53-0.84-0.72V17.12z M27.49,31.29c0,0.87-0.62,1.58-1.37,1.58v-3.14
		C26.87,29.73,27.49,30.43,27.49,31.29z M25.42,29.73v3.14c-0.77,0-1.39-0.71-1.39-1.58C24.03,30.43,24.65,29.73,25.42,29.73z
		 M17.78,31.16c0.54,0.32,1.16,0.51,1.81,0.55c0.35,0,0.81,0,1.32,0.01c0.45,0,0.94,0,1.42,0.01h1.17c0.19,1.07,1.12,1.89,2.26,1.89
		c1.12,0,2.04-0.81,2.25-1.85h0.03c1.51,0,3.36,0.02,4.44,0.02h0.08c0.35-0.04,0.78-0.17,1.16-0.39c0.2-0.13,0.36-0.28,0.51-0.41
		v0.04l0.22-0.28c0.08-0.09,0.13-0.19,0.2-0.28c0.03-0.06,0.07-0.1,0.1-0.16h1.17l0.02,6.28c0,0.31-0.09,0.53-0.26,0.68
		c-0.21,0.16-0.43,0.15-0.51,0.14h-19.1c-0.46,0-0.83-0.38-0.83-0.85v-6.25h1.58C17.11,30.66,17.42,30.94,17.78,31.16z M38.33,44.44
		c0,2.52-2.04,4.56-4.55,4.56H17.76c-2.52,0-4.57-2.04-4.57-4.56v-4.95c0.45,0.51,1.12,0.86,1.86,0.86h21.42
		c0.74,0,1.4-0.35,1.86-0.85V44.44z M38.33,37.85c0,0.17-0.03,0.32-0.07,0.46l-0.02,0.02v0.04c-0.22,0.77-0.93,1.34-1.77,1.34H15.05
		c-0.85,0-1.55-0.59-1.78-1.35l0.01-0.03l-0.02-0.02c-0.04-0.14-0.07-0.29-0.07-0.46V16.81c0-0.95,0.78-1.73,1.73-1.73
		c0.96,0,1.73,0.78,1.73,1.73v12.86h-2.04v6.89c0,0.81,0.65,1.48,1.46,1.48h18.99c0.05,0.02,0.11,0.02,0.18,0.02
		c0.17,0,0.52-0.04,0.84-0.29c0.45-0.36,0.5-0.91,0.49-1.21v-6.89h-1.7V16.74c0.04-0.93,0.79-1.66,1.73-1.66
		c0.95,0,1.73,0.78,1.73,1.73V37.85z"/>
</g>
</svg>
