<svg id="Layer_1" data-name="Layer 1" xmlns="http://www.w3.org/2000/svg" viewBox="0 0 150 14.29"><defs><style>.cls-1,.cls-2{fill:none;stroke:#bd8100;stroke-miterlimit:10;stroke-width:0.75px;}.cls-2{stroke-dasharray:4.02 1.01;}.cls-3{fill:#bd8100;}</style></defs><line class="cls-1" x1="1.87" y1="7.15" x2="3.87" y2="7.15"/><line class="cls-2" x1="4.87" y1="7.15" x2="130.02" y2="7.15"/><line class="cls-1" x1="130.52" y1="7.15" x2="132.52" y2="7.15"/><path class="cls-3" d="M134.21,4.85V8.22a.28.28,0,0,0,.15.24c.4.16,1.67.38,2,.47l.51-.68-.13.27-.13.46.3,0,.12-.4a1.21,1.21,0,0,1,1.07-.68h0a1.2,1.2,0,0,1,1.06.68l.12.4h3.88l.53-.7-.13.27L143.5,9h.32l.12-.4A1.2,1.2,0,0,1,145,7.92h0a1.23,1.23,0,0,1,1.07.68l.12.4h1.38s.19,0,.19-.16V8s0-.07,0-.21a15.36,15.36,0,0,0-.47-2.3,1.77,1.77,0,0,0-.37-.17,2.69,2.69,0,0,1,.57,0,1.14,1.14,0,0,1,.22.41c.12.45.37.39.37.39a.07.07,0,0,0,.06-.09c0-.08,0-.71-.42-.89a2.42,2.42,0,0,0-.56-.1l0-.1a.3.3,0,0,0-.27-.16,42.91,42.91,0,0,0-4.54-.16h-2.76L142,4.47l-.06,0a.72.72,0,0,0-.37-.11H136a.34.34,0,0,0-.25.1l-.21.21h-1.1A.19.19,0,0,0,134.21,4.85Zm10.94,1.91V5.12c.55,0,1.28.07,1.6.11a11.73,11.73,0,0,1,.57,2.54H147a1.36,1.36,0,0,1-.85-.49A1.57,1.57,0,0,0,145.15,6.76Zm-3-.07V5.08h2.57V6.7h-2.57Zm-3,0V5.08h2.57V6.69Zm-3,0V5.08h2.57V6.69h-1.94A5.53,5.53,0,0,1,136.13,6.66Zm-1.48-.31V5.08h1V6.59l-.55-.12Z"/><path class="cls-3" d="M144.12,8.87a.92.92,0,1,0,1.08-.72A.92.92,0,0,0,144.12,8.87Zm.54.11a.37.37,0,1,1,.29.43A.36.36,0,0,1,144.66,9Z"/><path class="cls-3" d="M137.27,8.87a.91.91,0,1,0,1.08-.72A.92.92,0,0,0,137.27,8.87Zm.53.11a.38.38,0,0,1,.44-.29.36.36,0,0,1,.29.43.38.38,0,0,1-.44.29A.36.36,0,0,1,137.8,9Z"/></svg>