<svg id="Layer_1" data-name="Layer 1" xmlns="http://www.w3.org/2000/svg" viewBox="0 0 50 50"><defs><style>.cls-1{stroke:#000;stroke-miterlimit:10;stroke-width:0.75px;}</style></defs><path class="cls-1" d="M46.83,32l-.26-4.2a2.33,2.33,0,0,0-.49-1.29A6.16,6.16,0,0,0,44.39,25a6.25,6.25,0,0,0-2.09-.8c-2.09-.4-3.71-.75-4.58-.94l-.45-.1c-3.27-.69-6.06-3.06-8.11-4.79l-.05-.05A9.11,9.11,0,0,0,26,16.47,8.84,8.84,0,0,0,23.21,16l-7.89.24a7.19,7.19,0,0,0-4,1.33L4.81,22.2l0,0a6.41,6.41,0,0,0-1.6,4.94l.1,4A2.86,2.86,0,0,0,6.11,34h2a4.62,4.62,0,1,0,0-.94h-2A1.92,1.92,0,0,1,4.2,31.19l-.1-4.05v0a5.52,5.52,0,0,1,1.33-4.2l6.45-4.57a6.35,6.35,0,0,1,3.47-1.16l7.87-.24a8.12,8.12,0,0,1,2.52.42A8.25,8.25,0,0,1,28.5,19l.06.05c2.12,1.8,5,4.26,8.51,5l.45.09c.88.19,2.5.54,4.61.95a5.31,5.31,0,0,1,3.22,2,1.43,1.43,0,0,1,.29.78l.26,4.23v.06a.78.78,0,0,1-.09.56.85.85,0,0,1-.53.36h-4a4.62,4.62,0,0,0-9.19,0H21.44a.47.47,0,0,0,0,.94H32.13a4.62,4.62,0,0,0,9.19,0H45.4a1.78,1.78,0,0,0,1.22-.81A1.74,1.74,0,0,0,46.83,32ZM12.69,29.84A3.69,3.69,0,1,1,9,33.53,3.7,3.7,0,0,1,12.69,29.84Zm24,7.38a3.69,3.69,0,1,1,3.69-3.69A3.69,3.69,0,0,1,36.72,37.22Z"/></svg>