<?xml version="1.0" encoding="utf-8"?>
<!-- Generator: Adobe Illustrator 25.4.1, SVG Export Plug-In . SVG Version: 6.00 Build 0)  -->
<svg version="1.1" id="Layer_1" xmlns="http://www.w3.org/2000/svg" xmlns:xlink="http://www.w3.org/1999/xlink" x="0px" y="0px"
	 viewBox="0 0 50 50" style="enable-background:new 0 0 50 50;" xml:space="preserve">
<path d="M43.7,32.3v-0.8C43.7,31.8,43.7,32,43.7,32.3z"/>
<path d="M7.6,32.1L7.6,32.1z"/>
<path d="M43.7,31.2c-0.3-3.2-2.9-5.8-6.2-6c-1.8-0.1-3.5,0.5-4.9,1.7c-0.7,0.6-1.2,1.3-1.6,2.1c-0.4-0.8-0.9-1.5-1.6-2.1
	c-1.3-1.2-3-1.8-4.8-1.7c-2.4,0.2-4.5,1.7-5.5,3.9c-0.5-1-1.2-1.8-2-2.4c-1.4-1.1-3.2-1.6-5-1.4c-3.4,0.5-5.9,3.5-5.9,6.9v7.7h33
	c0.4,0,0.7-0.3,0.7-0.7c0-0.4-0.3-0.7-0.7-0.7c0,0,0,0,0,0h-7.6v-6.7c0.1-0.6,0.2-1.2,0.5-1.8c0.3-0.8,0.8-1.4,1.4-2
	c1-1,2.5-1.5,3.9-1.4c2.7,0.2,4.8,2.3,5,5c0,0.2,0,0.4,0,0.6v7.6h1.3v-8.2C43.7,31.4,43.7,31.3,43.7,31.2z M18.3,38.5H7.6v-6.4
	c0-2.8,2-5.1,4.7-5.6c1.4-0.2,2.9,0.2,4,1.1c1,0.9,1.7,2.1,2,3.4L18.3,38.5z M30.3,38.5H19.6L19.5,31c0.6-2.4,2.7-4.2,5.2-4.5
	c1.4,0,2.8,0.4,3.8,1.4c0.9,0.8,1.5,1.9,1.8,3.1L30.3,38.5z"/>
<path d="M42.4,31.6c0,0.2,0,0.4,0,0.6V31.6z"/>
<path d="M43.7,31.2v0.4C43.7,31.4,43.7,31.3,43.7,31.2z"/>
<g>
	<path d="M13.3,17.3c-1.6,0-3,1.3-3,3s1.3,3,3,3s3-1.3,3-3S15,17.3,13.3,17.3z M15.1,20.3c0,1-0.8,1.8-1.8,1.8s-1.8-0.8-1.8-1.8
		s0.8-1.8,1.8-1.8S15.1,19.3,15.1,20.3z"/>
	<path d="M25,17.3c-1.6,0-3,1.3-3,3s1.3,3,3,3s3-1.3,3-3S26.6,17.3,25,17.3z M25,22.1c-1,0-1.8-0.8-1.8-1.8s0.8-1.8,1.8-1.8
		s1.8,0.8,1.8,1.8S26,22.1,25,22.1z"/>
	<path d="M37.2,17.3c-1.6,0-3,1.3-3,3s1.3,3,3,3s3-1.3,3-3S38.8,17.3,37.2,17.3z M39,20.3c0,1-0.8,1.8-1.8,1.8s-1.8-0.8-1.8-1.8
		s0.8-1.8,1.8-1.8C38.2,18.5,39,19.3,39,20.3z"/>
	<path d="M31.6,10.1c-1.6,0-3,1.3-3,3s1.3,3,3,3c1.6,0,3-1.3,3-3C34.6,11.4,33.3,10.1,31.6,10.1z M31.6,11.3L31.6,11.3
		c1,0,1.8,0.8,1.8,1.8c0,1-0.8,1.8-1.8,1.8s-1.8-0.8-1.8-1.8C29.8,12.1,30.6,11.3,31.6,11.3L31.6,11.3L31.6,11.3z"/>
	<path d="M18.9,10.1c-1.6,0-3,1.3-3,3s1.3,3,3,3c1.6,0,3-1.3,3-3C21.9,11.4,20.5,10.1,18.9,10.1z M18.9,11.3
		C18.9,11.3,18.9,11.3,18.9,11.3c1,0,1.8,0.8,1.8,1.8c0,1-0.8,1.8-1.8,1.8s-1.8-0.8-1.8-1.8C17.1,12.1,17.9,11.3,18.9,11.3
		L18.9,11.3L18.9,11.3z"/>
</g>
</svg>
