<svg id="Layer_1" data-name="Layer 1" xmlns="http://www.w3.org/2000/svg" viewBox="0 0 50 50"><path d="M23.84,30.7c-1.23,1.31-2.35,2.54-3.49,3.74-2.5,2.63-5,5.28-7.52,7.85a3.69,3.69,0,0,1-5.91-.71A3.57,3.57,0,0,1,7.69,37c5.6-4.94,6.65-5.75,8.52-7.29,0,0,.81-.66,1.16-.45a1.32,1.32,0,0,1,.26.24.9.9,0,0,1,.19.36c0,.32-.27.62-.55.85-2.69,2.3-5.39,4.58-8.08,6.87-.18.15-.36.3-.52.46a2.3,2.3,0,1,0,3.22,3.27c2.18-2.32,4.34-4.68,6.51-7q5.37-5.78,10.73-11.57a1.2,1.2,0,0,1,1.45-.4,4,4,0,0,0,4.43-1c2.82-2.68,5.66-5.32,8.5-8a3.52,3.52,0,0,1,.9-.64.66.66,0,0,1,.61.1.68.68,0,0,1,.06.62,4.14,4.14,0,0,1-.75.93c-2.69,2.6-5.4,5.16-8.07,7.78A5.86,5.86,0,0,1,33,23.94c-.12,0-.67,0-1.36,0l-1.46-.07L27.9,26.46,39.39,37.33A4.25,4.25,0,0,1,40.8,41a3.67,3.67,0,0,1-1.21,2.1,3.9,3.9,0,0,1-3.23.81,4,4,0,0,1-2.42-1.55ZM25,29.53c5.39,6.41,9.35,11,10.18,12a2.85,2.85,0,0,0,1.49,1,2.37,2.37,0,0,0,1,0A2.1,2.1,0,0,0,39.29,41a2.37,2.37,0,0,0,.07-1.08,2.6,2.6,0,0,0-.79-1.34c-.81-.78-5.42-5-11.81-10.83Z"/><path d="M21.86,16.28a14.65,14.65,0,0,1-.3,3.4,1.31,1.31,0,0,0,0,.77,1.13,1.13,0,0,0,.3.47c2.41,2.48,2,2.27,4.39.16a1.63,1.63,0,0,0,.65-1.49,6.32,6.32,0,0,1,2.42-5.51c2.65-2.39,5.19-4.9,7.78-7.34.4-.37.89-1,1.43-.48s-.16,1-.54,1.41C35.28,10.3,32.6,13,29.86,15.53a4.26,4.26,0,0,0-1.39,4.66,1.51,1.51,0,0,1-.39,1.25c-2,1.79-4.1,3.52-6.15,5.28a1,1,0,0,1-1.55-.14L18.54,24.3a1.17,1.17,0,0,0-1.36-.4c-2.26.59-4.53.61-6.44-.86-3.45-2.66-5.68-6.11-5.87-10.58C4.73,9,7.1,6.79,10.54,6.87a12.58,12.58,0,0,1,7.77,3.34c2.59,2.13,3.14,3.64,3.27,4.13A8.67,8.67,0,0,1,21.86,16.28Zm.79,7.54c-.81-.75-1.59-1.56-2.45-2.27a1.33,1.33,0,0,1-.34-1.93,5.41,5.41,0,0,0-.39-6.11,13.36,13.36,0,0,0-7.46-5C8,7.53,5.6,10,6.52,14A15.71,15.71,0,0,0,10,20.42,6,6,0,0,0,17.5,22a1,1,0,0,1,1.44.33c.61.76,1.13,1.34,1.39,1.65a9,9,0,0,0,1,1.06Z"/><path d="M32.9,16.45a.73.73,0,0,1-.61-.38.88.88,0,0,1,.23-.92c.57-.64,1.21-1.22,1.84-1.8q2.49-2.32,5-4.61c.4-.36.89-1,1.43-.44s-.13,1-.53,1.41C38.11,11.83,36,14,33.81,16A1.3,1.3,0,0,1,32.9,16.45Z"/><path d="M42.27,10.16a.66.66,0,0,1,.47.25.71.71,0,0,1,.13.57.86.86,0,0,1-.3.46c-.38.33-3.1,3-6.89,6.78a.85.85,0,0,1-1,.3.76.76,0,0,1-.34-.69,1,1,0,0,1,.29-.67c.44-.51,3.17-3.09,7-6.58A.81.81,0,0,1,42.27,10.16Z"/></svg>