<svg id="Layer_1" data-name="Layer 1" xmlns="http://www.w3.org/2000/svg" viewBox="0 0 24 24"><defs><style>.cls-1{fill:none;stroke:#414042;stroke-miterlimit:10;stroke-width:0.13px;}</style></defs><path class="cls-1" d="M11.25.44h-.4V6.79a2,2,0,0,1-1.68,2V.44h-2V8.78a2,2,0,0,1-1.68-2V.44h-.4A1.63,1.63,0,0,0,3.45,2.06V6.79a4,4,0,0,0,3.7,4V23.65h2V10.82a4,4,0,0,0,3.7-4V2.06A1.63,1.63,0,0,0,11.25.44Z"/><path class="cls-1" d="M20.53,9.09V1.52A1.16,1.16,0,0,0,18.62.63a6.63,6.63,0,0,0-2.4,5.1v6.32a3.26,3.26,0,0,0,2.31,3.11v8.49h2V9.09Z"/></svg>