<?xml version="1.0" encoding="utf-8"?>
<!-- Generator: Adobe Illustrator 25.4.1, SVG Export Plug-In . SVG Version: 6.00 Build 0)  -->
<svg version="1.1" id="Layer_1" xmlns="http://www.w3.org/2000/svg" xmlns:xlink="http://www.w3.org/1999/xlink" x="0px" y="0px"
	 viewBox="0 0 50 50" style="enable-background:new 0 0 50 50;" xml:space="preserve">
<style type="text/css">
	.st0{fill:#6C59F9;}
</style>
<g>
	<g>
		<path class="st0" d="M45.1,43.9h-7V12.8h1.4c1.1,0,1.9-0.9,1.9-1.9V8.4c0-1.1-0.9-1.9-1.9-1.9h-5.8V6.4c0-1.2-1-2.2-2.2-2.2H18.5
			c-1.2,0-2.2,1-2.2,2.2v0.1l-0.1,0h-5.6c-1.1,0-1.9,0.9-1.9,1.9v2.4c0,1.1,0.9,1.9,1.9,1.9H12v7.2c0,0.4,0.4,0.8,0.8,0.8h0.4
			c0.4,0,0.8-0.4,0.8-0.8v-7.2h22.2v31.2h-4.8v-9.1h1.7c0.4,0,0.7-0.3,0.7-0.7v-0.3c0-0.4-0.3-0.7-0.7-0.7H16.9
			c-0.4,0-0.7,0.3-0.7,0.7v0.3c0,0.4,0.3,0.7,0.7,0.7h1.7v9.1h-4.7V23.7c0-0.4-0.4-0.8-0.8-0.8h-0.4c-0.4,0-0.8,0.4-0.8,0.8v20.2
			H4.9c-0.4,0-0.8,0.4-0.8,0.8v0.4c0,0.4,0.3,0.8,0.8,0.8h40.3c0.5,0,0.8-0.4,0.8-0.8v-0.4C45.9,44.3,45.6,43.9,45.1,43.9z
			 M16.3,10.9h-5.9V8.3h5.9V10.9z M31.9,11.1H18.1V6.2h13.8V11.1z M24.1,43.9h-3.8v-9.1h3.8V43.9z M29.6,43.9h-3.7v-9.1h3.7
			C29.6,34.8,29.6,43.9,29.6,43.9z M33.7,10.9V8.3h5.9v2.6H33.7z"/>
	</g>
	<g>
		<path class="st0" d="M21.5,24h-4.2c-0.5,0-1,0.4-1,1v4.2c0,0.5,0.4,1,1,1h4.2c0.5,0,1-0.4,1-1V25C22.5,24.5,22,24,21.5,24z
			 M21.1,28.8h-3.4v-3.4h3.4V28.8z"/>
	</g>
	<g>
		<path class="st0" d="M32.7,24h-4.2c-0.5,0-1,0.4-1,1v4.2c0,0.5,0.4,1,1,1h4.2c0.5,0,1-0.4,1-1V25C33.7,24.5,33.3,24,32.7,24z
			 M32.3,28.8h-3.4v-3.4h3.4V28.8z"/>
	</g>
	<g>
		<path class="st0" d="M21.5,15.3h-4.2c-0.5,0-1,0.4-1,1v4.2c0,0.5,0.4,1,1,1h4.2c0.5,0,1-0.4,1-1v-4.2C22.5,15.8,22,15.3,21.5,15.3
			z M21.1,20.1h-3.4v-3.4h3.4V20.1z"/>
	</g>
	<g>
		<path class="st0" d="M32.7,15.3h-4.2c-0.5,0-1,0.4-1,1v4.2c0,0.5,0.4,1,1,1h4.2c0.5,0,1-0.4,1-1v-4.2
			C33.7,15.8,33.3,15.3,32.7,15.3z M32.3,20.1h-3.4v-3.4h3.4V20.1z"/>
	</g>
</g>
</svg>
