<svg id="Layer_1" data-name="Layer 1" xmlns="http://www.w3.org/2000/svg" viewBox="0 0 22 22"><path d="M13.63,4.31l-2.41,2L11,6.46l-.37.3-.37-.3-.21-.18.21-.17.37-.3L11,5.5l2.16-1.76a.31.31,0,0,1,.22-.09.37.37,0,0,1,.24.66Z"/><path d="M11.22,6.28,11,6.46l-.37.3-.37-.3-.21-.18-2.41-2a.37.37,0,0,1-.06-.52.38.38,0,0,1,.29-.14.35.35,0,0,1,.23.09L10.27,5.5l.37.31.37.3Z"/><path d="M13.65,18.09l-2.41-2L11,15.94l-.37-.3-.37.3-.21.18.21.17.37.3.37.3,2.16,1.77a.37.37,0,0,0,.51-.05A.37.37,0,0,0,13.65,18.09Z"/><path d="M11.24,16.12,11,15.94l-.37-.3-.37.3-.21.18-2.41,2a.37.37,0,0,0-.06.52.37.37,0,0,0,.29.13.4.4,0,0,0,.23-.08l2.16-1.77.37-.3.37-.3Z"/><path d="M18.46,13.21a.35.35,0,0,1-.24.08l-1.3,0-.64-.77,2,.07a.38.38,0,0,1,.35.39A.37.37,0,0,1,18.46,13.21Z"/><path d="M3.24,12.51l3,.87.27.07.45.13,0,.48,0,.27-.26-.07-.46-.14L5.71,14,3,13.22a.35.35,0,0,1-.2-.14.39.39,0,0,1-.05-.32A.38.38,0,0,1,3.24,12.51Z"/><path d="M6.23,13.38l.27.07.45.13,0,.48,0,.27-.25,3.11a.38.38,0,0,1-.4.34A.39.39,0,0,1,6,17.62a.48.48,0,0,1-.06-.24l.23-2.78,0-.48,0-.47Z"/><path d="M5.21,9.93H3.13a.37.37,0,1,1,0-.74H4.65Z"/><path d="M18.45,10.73l-2.9-1.11-.26-.1-.45-.17.08-.47L15,8.6l.26.1.44.17.45.17,2.6,1a.34.34,0,0,1,.18.15.36.36,0,0,1,0,.32A.37.37,0,0,1,18.45,10.73Z"/><path d="M15.55,9.62l-.26-.1-.45-.17.08-.47L15,8.6l.52-3.07a.37.37,0,0,1,.43-.3.4.4,0,0,1,.26.18.4.4,0,0,1,0,.24L15.75,8.4l-.08.47-.08.47Z"/><path d="M11,2.17v7l-.74-.56V2.17a.41.41,0,0,1,.37-.45A.42.42,0,0,1,11,2.17Z"/><path d="M11,13.69v6.5a.41.41,0,0,1-.37.45.42.42,0,0,1-.38-.45V13.13Z"/><path d="M8.84,12l.64.48L6.91,14.09h0l-.27.17h0l-.48.31h0L3.38,16.26a.42.42,0,0,1-.57-.08A.42.42,0,0,1,3,15.63L5.67,14h0l.53-.32.32-.2Z"/><path d="M18.91,7.25,16,9l-.43.26h0l-.36.22-2.05,1.26-.64-.48,2.38-1.45h0l.22-.14.61-.37h0l2.76-1.69a.4.4,0,0,1,.57.08A.41.41,0,0,1,18.91,7.25Z"/><path d="M1.55,4.8,19.93,18.66a.48.48,0,0,0,.67,0,.49.49,0,0,0-.15-.66L2.07,4.12a.48.48,0,0,0-.67,0A.47.47,0,0,0,1.55,4.8Z"/></svg>