<svg id="Layer_1" data-name="Layer 1" xmlns="http://www.w3.org/2000/svg" viewBox="0 0 14 12"><defs><style>.cls-1{fill:#bd8100;fill-rule:evenodd;}</style></defs><path class="cls-1" d="M13.81,8a3.42,3.42,0,0,1,.07-3.87c-.68-.44-.89,0-1.56.58-1.23,1.06-.39.47-3.42.47H7.1c.12-.37.24-.73.39-1.08L8.29,2A8.5,8.5,0,0,0,8.66.89H7.73c-.11,0-2.66,3.4-3,3.85s-.21.43-.72.43c-1.27,0-3.13-.31-3.8.47-.27.32.18.65.47.81a14.68,14.68,0,0,0,3.68.29c.43.46,2.31,3.17,2.9,4,.29.39.21.35.6.35h.66c-.17-1-1.42-3.7-1.4-4.34.84-.08,2.48.06,3.54,0s.66-.22,1.56.59.86.92,1.59.7Z"/></svg>