<svg id="Layer_1" data-name="Layer 1" xmlns="http://www.w3.org/2000/svg" viewBox="0 0 50 50"><path d="M39.26,23.68H10.74A5.74,5.74,0,0,0,5,29.42v7.83H5a.45.45,0,0,0,.44.45h.78a.45.45,0,0,0,.45-.45h0V33.82H43.33v3.43h0a.45.45,0,0,0,.45.45h.78a.45.45,0,0,0,.44-.45h0V29.42A5.74,5.74,0,0,0,39.26,23.68ZM6.67,32.15V29.42a4.07,4.07,0,0,1,4.07-4.07H39.26a4.07,4.07,0,0,1,4.07,4.07v2.73Z"/><path d="M35.51,12.29h-21A5.74,5.74,0,0,0,8.75,18v4.23a.45.45,0,0,0,.44.45H10a.45.45,0,0,0,.45-.45V18A4.07,4.07,0,0,1,14.49,14h21A4.07,4.07,0,0,1,39.58,18v4.23a.45.45,0,0,0,.45.45h.78a.45.45,0,0,0,.44-.45V18A5.74,5.74,0,0,0,35.51,12.29Z"/><path d="M12.64,16.59V22a.43.43,0,0,0,.43.43h.8a.44.44,0,0,0,.44-.43V17.71h8V22a.43.43,0,0,0,.43.43h.81A.43.43,0,0,0,24,22V16.59a.55.55,0,0,0-.55-.55H13.18A.55.55,0,0,0,12.64,16.59Z"/><path d="M26,16.59V22a.43.43,0,0,0,.43.43h.81a.43.43,0,0,0,.43-.43V17.71h8V22a.44.44,0,0,0,.44.43h.8a.43.43,0,0,0,.43-.43V16.59a.55.55,0,0,0-.54-.55H26.52A.55.55,0,0,0,26,16.59Z"/></svg>