<?xml version="1.0" encoding="utf-8"?>
<!-- Generator: Adobe Illustrator 26.0.1, SVG Export Plug-In . SVG Version: 6.00 Build 0)  -->
<svg version="1.1" id="Layer_1" xmlns="http://www.w3.org/2000/svg" xmlns:xlink="http://www.w3.org/1999/xlink" x="0px" y="0px"
	 viewBox="0 0 233.9 233.9" style="enable-background:new 0 0 233.9 233.9;" xml:space="preserve">
<style type="text/css">
	.st0{fill:#FFFFFF;stroke:#A5A5A5;stroke-width:2;stroke-miterlimit:10;}
	.st1{fill:none;stroke:#A5A5A5;stroke-width:2;stroke-miterlimit:10;}
	.st2{fill:#A5A5A5;}
	.st3{fill:none;stroke:#808285;stroke-miterlimit:10;}
</style>
<g>
	<path class="st1" d="M102.7,187.4h28.6c5.3,0,9.6-4.3,9.6-9.6V56c0-5.3-4.3-9.6-9.6-9.6h-28.6c-5.3,0-9.6,4.3-9.6,9.6v121.9
		C93.1,183.2,97.4,187.4,102.7,187.4z"/>
	<path class="st1" d="M106.2,178.5h21.6c1,0,1.8-0.8,1.8-1.8v-5.8c0-1-0.8-1.8-1.8-1.8h-21.6c-1,0-1.8,0.8-1.8,1.8v5.8
		C104.4,177.7,105.2,178.5,106.2,178.5z"/>
</g>
</svg>
