<?xml version="1.0" encoding="utf-8"?>
<!-- Generator: Adobe Illustrator 26.0.1, SVG Export Plug-In . SVG Version: 6.00 Build 0)  -->
<svg version="1.1" id="Layer_1" xmlns="http://www.w3.org/2000/svg" xmlns:xlink="http://www.w3.org/1999/xlink" x="0px" y="0px"
	 viewBox="0 0 233.9 233.9" style="enable-background:new 0 0 233.9 233.9;" xml:space="preserve">
<style type="text/css">
	.st0{fill:#FFFFFF;stroke:#A5A5A5;stroke-width:2;stroke-miterlimit:10;}
	.st1{fill:none;stroke:#A5A5A5;stroke-width:2;stroke-miterlimit:10;}
	.st2{fill:#A5A5A5;}
	.st3{display:none;}
	.st4{display:inline;fill:none;stroke:#A5A5A5;stroke-width:2;stroke-miterlimit:10;}
	.st5{fill:none;stroke:#808285;stroke-miterlimit:10;}
</style>
<path class="st2" d="M139.4,113.8c-1.5-11-11-19.5-22.4-19.5c-11.5,0-20.9,8.5-22.4,19.5c-0.1,1-0.2,2.1-0.2,3.1c0,1,0.1,2,0.2,3
	c1.4,10.1,9.3,18.1,19.4,19.4c1,0.1,2,0.2,3,0.2c1.1,0,2.1-0.1,3.1-0.2c10-1.4,18-9.4,19.3-19.4c0.1-1,0.2-2,0.2-3
	C139.6,115.9,139.5,114.8,139.4,113.8z M116.9,99.2c8.7,0,16,6.3,17.4,14.6h-11.6c-1.1-2.1-3.3-3.5-5.9-3.5c-2.5,0-4.7,1.4-5.9,3.5
	H99.5C101,105.5,108.2,99.2,116.9,99.2z M119.5,116.9c0,1.5-1.2,2.6-2.6,2.6c-1.4,0-2.6-1.2-2.6-2.6c0-1.4,1.2-2.6,2.6-2.6
	C118.4,114.3,119.5,115.5,119.5,116.9z M99.5,120H111c0.6,1.3,1.6,2.3,2.9,2.9v11.5C106.5,133.1,100.7,127.3,99.5,120z M120.1,134.4
	v-11.6c1.2-0.6,2.2-1.6,2.8-2.8h11.5C133.1,127.3,127.4,133.1,120.1,134.4z"/>
<g class="st3">
	<path class="st4" d="M102.7,187.4h28.6c5.3,0,9.6-4.3,9.6-9.6V56c0-5.3-4.3-9.6-9.6-9.6h-28.6c-5.3,0-9.6,4.3-9.6,9.6v121.9
		C93.1,183.2,97.4,187.4,102.7,187.4z"/>
	<path class="st4" d="M106.2,178.5h21.6c1,0,1.8-0.8,1.8-1.8v-5.8c0-1-0.8-1.8-1.8-1.8h-21.6c-1,0-1.8,0.8-1.8,1.8v5.8
		C104.4,177.7,105.2,178.5,106.2,178.5z"/>
</g>
</svg>
