<svg id="Layer_1" data-name="Layer 1" xmlns="http://www.w3.org/2000/svg" viewBox="0 0 50 50"><defs><style>.cls-1{fill:#6d6e71;}</style></defs><path class="cls-1" d="M25,3.78A21.22,21.22,0,1,0,46.22,25,21.22,21.22,0,0,0,25,3.78ZM22.76,36.07a5.85,5.85,0,0,1-.16,1.17c-.16,1.08-.25,2.16-.37,3.24a1.94,1.94,0,0,1-1,1.74,2.06,2.06,0,0,1-1.14.05,8.46,8.46,0,0,1-.9-.23c-.4-.14-.79-.28-1.17-.44a22,22,0,0,1-2.15-1.13,18.62,18.62,0,0,1-7.77-9A3.22,3.22,0,0,1,8,29.7a1.55,1.55,0,0,1,1.27-1.35c.83-.21,1.69-.22,2.51-.42a14.8,14.8,0,0,0,2.75-.77,8.34,8.34,0,0,1,2.87-.24,4.88,4.88,0,0,1,4.24,3,12.51,12.51,0,0,1,.78,3.06A11,11,0,0,1,22.76,36.07Zm19.11-4.56a18.62,18.62,0,0,1-7.77,9A22,22,0,0,1,32,41.6c-.38.16-.77.3-1.17.44a8.46,8.46,0,0,1-.9.23,2.06,2.06,0,0,1-1.14-.05,1.94,1.94,0,0,1-1-1.74c-.12-1.08-.21-2.16-.37-3.24a5.85,5.85,0,0,1-.16-1.17,11,11,0,0,1,.36-3.13,12.51,12.51,0,0,1,.78-3.06,4.88,4.88,0,0,1,4.24-3,8.34,8.34,0,0,1,2.87.24,14.8,14.8,0,0,0,2.75.77c.82.2,1.68.21,2.51.42A1.55,1.55,0,0,1,42,29.7,3.22,3.22,0,0,1,41.87,31.51Zm-.33-7.94a1.57,1.57,0,0,1-1.25-.06c-1-.44-2-1-3-1.38A3.26,3.26,0,0,0,36,21.84,9.82,9.82,0,0,1,32.2,21a29.69,29.69,0,0,0-3.45-1.15,17,17,0,0,0-7.5,0A29.69,29.69,0,0,0,17.8,21a9.82,9.82,0,0,1-3.78.8,3.26,3.26,0,0,0-1.28.29c-1,.39-2,.94-3,1.38a1.57,1.57,0,0,1-1.25.06,1.75,1.75,0,0,1-.77-1.16,2.64,2.64,0,0,1,.24-1.63,14.32,14.32,0,0,1,1.61-2.72,5.25,5.25,0,0,0,.94-3.8.17.17,0,0,0,0-.07,2.64,2.64,0,0,1,.22-.32,1.71,1.71,0,0,1,.11-.14c.79-.74,1.54-1.51,2.35-2.23a18,18,0,0,1,23.7,0c.8.72,1.56,1.5,2.35,2.24a1.71,1.71,0,0,1,.11.14,2.64,2.64,0,0,1,.22.32.17.17,0,0,0,0,.07,5.25,5.25,0,0,0,.94,3.8,14.32,14.32,0,0,1,1.61,2.72,2.64,2.64,0,0,1,.24,1.63A1.75,1.75,0,0,1,41.54,23.57Z"/></svg>