<svg id="Layer_1" data-name="Layer 1" xmlns="http://www.w3.org/2000/svg" viewBox="0 0 50 50"><defs><style>.cls-1{fill:#8f79ff;}</style></defs><path class="cls-1" d="M34.46,11.82H15.54a.73.73,0,0,1-.65-.8v0a.74.74,0,0,1,.65-.65H34.46a.73.73,0,0,1,.65.8v0A.74.74,0,0,1,34.46,11.82Z"/><path class="cls-1" d="M43.78,43H6.22a4.1,4.1,0,0,1-4.1-4.09V14.45a4.12,4.12,0,0,1,4.1-4.1H11a.73.73,0,0,1,.65.8v0a.74.74,0,0,1-.65.65H6.22a2.63,2.63,0,0,0-2.63,2.63V38.86a2.62,2.62,0,0,0,2.62,2.62H43.78a2.62,2.62,0,0,0,2.63-2.61h0V14.45a2.63,2.63,0,0,0-2.63-2.63H39a.73.73,0,0,1-.65-.8v0a.74.74,0,0,1,.65-.65h4.79a4.12,4.12,0,0,1,4.1,4.1V38.86A4.11,4.11,0,0,1,43.83,43Z"/><path class="cls-1" d="M39.27,19.35H2.86a.73.73,0,1,1,0-1.46H39.27a.73.73,0,1,1,0,1.46Z"/><path class="cls-1" d="M13.77,15.12h-1a2.5,2.5,0,0,1-2.5-2.5V9.55a2.5,2.5,0,0,1,2.5-2.5h1a2.5,2.5,0,0,1,2.5,2.5v3.07A2.5,2.5,0,0,1,13.77,15.12Zm-1-6.6a1,1,0,0,0-1,1v3.07a1,1,0,0,0,1,1h1a1,1,0,0,0,1-1v-3a1,1,0,0,0-1-1Z"/><path class="cls-1" d="M37.22,15.12h-1a2.5,2.5,0,0,1-2.5-2.5V9.55a2.5,2.5,0,0,1,2.5-2.5h1a2.5,2.5,0,0,1,2.5,2.5v3.07A2.5,2.5,0,0,1,37.22,15.12Zm-1-6.6a1,1,0,0,0-1,1v3.07a1,1,0,0,0,1,1h1a1,1,0,0,0,1-1v-3a1,1,0,0,0-1-1Z"/><path class="cls-1" d="M19.83,38.13h-.24a3,3,0,0,1-2.21-1.25,3.09,3.09,0,0,1,.41-4l3-3-3.05-3a3,3,0,0,1,0-4.24,3,3,0,0,1,4.34.08l3,3,3.05-3a3,3,0,0,1,4.31,4.24l-.15.15-3,3,3,3a3,3,0,0,1,0,4.24,2.89,2.89,0,0,1-4.1.06,1.8,1.8,0,0,1-.19-.2l-3-3-3.05,3A3,3,0,0,1,19.83,38.13Zm0-14.87a1.49,1.49,0,0,0-.84.26,1.54,1.54,0,0,0-.37,2.15h0a1.63,1.63,0,0,0,.17.2l3.05,3.05a1.47,1.47,0,0,1,0,2.07l-3,3a1.62,1.62,0,0,0-.27,2,1.48,1.48,0,0,0,1.13.65,1.54,1.54,0,0,0,1.22-.44l3-3a1.46,1.46,0,0,1,2,0h0l3,3a1.64,1.64,0,0,0,2.07.26,1.54,1.54,0,0,0,.37-2.15h0a1.63,1.63,0,0,0-.17-.2l-3-3.12a1.49,1.49,0,0,1,0-2.07l3-3a1.63,1.63,0,0,0,.25-2.06,1.48,1.48,0,0,0-1.13-.65,1.54,1.54,0,0,0-1.22.44l-3,3a1.47,1.47,0,0,1-2.06,0l-3-3a1.83,1.83,0,0,0-1.27-.4Zm9,6.18.52.52h0Z"/></svg>