<svg id="Layer_2" data-name="Layer 2" xmlns="http://www.w3.org/2000/svg" viewBox="0 0 50 50"><defs><style>.cls-1{fill:#fffefd;stroke-width:0.25px;}.cls-1,.cls-2{stroke:#00bf0a;stroke-miterlimit:10;}.cls-2{fill:none;stroke-width:1.96px;}.cls-3{fill:#00bf0a;}</style></defs><path class="cls-1" d="M10,5.07H40A4.41,4.41,0,0,1,44.4,9.52v31A4.42,4.42,0,0,1,40,44.92H10A4.42,4.42,0,0,1,5.6,40.47V9.52A4.41,4.41,0,0,1,10,5.07Z"/><path class="cls-2" d="M5.6,18v24a2.88,2.88,0,0,0,2.88,2.88H41a2.88,2.88,0,0,0,2.88-2.88h0V17.17"/><path class="cls-3" d="M38.35,44l-27.23.09,1.05-4.23H37.42Z"/></svg>