<svg id="Layer_1" data-name="Layer 1" xmlns="http://www.w3.org/2000/svg" viewBox="0 0 50 50"><defs><style>.cls-1,.cls-2{fill:#bd8100;stroke:#231f20;stroke-miterlimit:10;stroke-width:0.25px;}.cls-1{fill-rule:evenodd;}</style></defs><path class="cls-1" d="M36.35,10.5A3.4,3.4,0,1,0,33,7.11,3.39,3.39,0,0,0,36.35,10.5Z"/><path class="cls-2" d="M35.89,44a2.09,2.09,0,0,1-1.83,2.27A2.09,2.09,0,0,1,32.22,44V24.89a2.08,2.08,0,0,1,1.84-2.27,2.08,2.08,0,0,1,1.83,2.27Z"/><path class="cls-2" d="M40.47,44a2.09,2.09,0,0,1-1.83,2.27A2.09,2.09,0,0,1,36.8,44V24.89a2.08,2.08,0,0,1,1.84-2.27,2.08,2.08,0,0,1,1.83,2.27Z"/><polygon class="cls-1" points="30.74 30.97 41.95 30.97 39.2 13.42 33.49 13.42 30.74 30.97"/><path class="cls-1" d="M32.19,11.59H40.5a2.6,2.6,0,0,1,2.56,2.63v2.39H29.64V14.22A2.6,2.6,0,0,1,32.19,11.59Z"/><path class="cls-2" d="M30.48,26.84a1.46,1.46,0,0,1-2.88-.48l2-12.25a1.46,1.46,0,0,1,2.89.48Z"/><path class="cls-2" d="M42.21,26.84a1.46,1.46,0,0,0,2.88-.48l-2-12.25a1.46,1.46,0,1,0-2.88.48Z"/><path class="cls-1" d="M12.93,10.5a3.4,3.4,0,1,0-3.4-3.39A3.4,3.4,0,0,0,12.93,10.5Z"/><path class="cls-2" d="M7.81,26.58a1.46,1.46,0,0,1-2.92,0V14.17a1.46,1.46,0,1,1,2.92,0Z"/><path class="cls-2" d="M20.63,26.58a1.47,1.47,0,0,1-2.93,0V14.17a1.47,1.47,0,1,1,2.93,0Z"/><path class="cls-2" d="M12.3,44a2.09,2.09,0,0,1-1.83,2.27A2.09,2.09,0,0,1,8.63,44V24.89a2.08,2.08,0,0,1,1.84-2.27,2.08,2.08,0,0,1,1.83,2.27Z"/><path class="cls-2" d="M16.88,44a2.09,2.09,0,0,1-1.83,2.27A2.09,2.09,0,0,1,13.21,44V24.89a2.08,2.08,0,0,1,1.84-2.27,2.08,2.08,0,0,1,1.83,2.27Z"/><rect class="cls-2" x="8.63" y="15.5" width="8.25" height="12.28"/><path class="cls-1" d="M7.44,11.59H18.08a2.6,2.6,0,0,1,2.55,2.63v2.39H4.89V14.22A2.59,2.59,0,0,1,7.44,11.59Z"/><rect class="cls-2" x="24.36" y="3.71" width="1.28" height="42.57"/></svg>