<svg id="Layer_1" data-name="Layer 1" xmlns="http://www.w3.org/2000/svg" viewBox="0 0 65 66"><defs><style>.cls-1{fill:#bd8100;}</style></defs><path class="cls-1" d="M21.28,18.85c1.28,1.34,2.62,2.68,4,4,0,.53,0,1.08,0,1.63a50.4,50.4,0,0,0,.41,5.62v.11l.65.41.12-.27c1.37-3.2,2.94-5.33,6.29-5.25,3.51.07,4.79,2.69,6.14,5.46l.13.26.74-.27v-.16c.18-1.7.31-3.43.38-5.13,0-.81,0-1.61.07-2.39.48-.36,1-.73,1.43-1.12A50.33,50.33,0,0,0,50,10.46a2.7,2.7,0,0,0-.87-3.85,2.28,2.28,0,0,0-1.37-.36,2.5,2.5,0,0,0-1.61,1c-1.33,1.6-4.12,5.68-5.3,7.42l-.49.7a20.44,20.44,0,0,1-3.95,4.23,11.58,11.58,0,0,1-1.65.27,15.2,15.2,0,0,1-2.27,0H32c-2.26-.06-2.87-.08-3.46-.53a2.59,2.59,0,0,1-.53-.53c-1.18-1.48-2-2.44-2.69-3.21a30.66,30.66,0,0,1-3.08-4C21.5,10.46,20.78,9.27,20.1,8c-.43-.59-1.3-1.81-2.53-1.82A2.52,2.52,0,0,0,15.73,7,2.76,2.76,0,0,0,15,8.34a3.2,3.2,0,0,0,.46,2.3A44.19,44.19,0,0,0,21.28,18.85Z"/><path class="cls-1" d="M48.37,43.13a4.39,4.39,0,0,0,1.25-2.3,4.1,4.1,0,0,0-3.29-4.47c-2-.34-3.91-.63-5.7-.84A2.35,2.35,0,0,1,38.56,34c-.43-1-.92-2-1.4-2.94-.28-.58-.57-1.15-.84-1.73a3.94,3.94,0,0,0-3.7-2.51,3.76,3.76,0,0,0-1.91.44,4.22,4.22,0,0,0-1.82,2l-.64,1.29c-.55,1.1-1.1,2.24-1.61,3.38a2.43,2.43,0,0,1-2.17,1.58c-1.46.17-2.94.4-4.36.62l-1.06.18a3.87,3.87,0,0,0-3.36,2.91,5,5,0,0,0-.12,1.59c.14,1.52,2,3.85,5,5.92l.25.22c.52.41.8.64.94,1.1a2.44,2.44,0,0,1-.25,1.69,17.55,17.55,0,0,0-.87,5.15,4.82,4.82,0,0,0,1.22,3.51,3.61,3.61,0,0,0,2.62,1.09,4.2,4.2,0,0,0,1.79-.41l.19-.09a23,23,0,0,0,2.85-1.48c1.07-.62,2.18-1.24,3.31-1.83l.15-.08.13.09c1,.63,2,1.23,2.94,1.79s1.43.78,1.83,1a6.37,6.37,0,0,1,.59.3,4.86,4.86,0,0,0,2.46.76,3.8,3.8,0,0,0,2.24-.76c1.39-1,1.88-2.36,1.53-4.45,0-.12,0-.27-.06-.45A10.65,10.65,0,0,0,44,51.72a5.56,5.56,0,0,0-.19-.61,8.5,8.5,0,0,1-.38-1.48,3.54,3.54,0,0,1,0-1.86,3,3,0,0,1,1.35-1.45A19.15,19.15,0,0,0,48.37,43.13Zm-6.2,3.5a2.13,2.13,0,0,0-.55.81,2,2,0,0,0,0,1.07c.14.61.32,1.27.5,2,.67,2.45,1.36,5,.41,6.49a2,2,0,0,1-.68.69,1.75,1.75,0,0,1-.8.19,5.78,5.78,0,0,1-2.35-.76c-1.85-.91-4.6-2.54-4.73-2.61A2.69,2.69,0,0,0,32.57,54a2.62,2.62,0,0,0-1.27.38c-1.76,1-3.63,2-5.43,2.88l-.07,0a3.15,3.15,0,0,1-1.38.36,1.74,1.74,0,0,1-1.29-.52,3,3,0,0,1-.65-2.24c.1-.59.19-1.16.28-1.74.24-1.54.5-3.13.82-4.74a1.8,1.8,0,0,0-.65-1.89l-.25-.24C21.24,45,19.75,43.59,18.4,42.1a3.13,3.13,0,0,1-.82-2.51A3.13,3.13,0,0,1,19.73,38,62.66,62.66,0,0,1,26,37.15,1.84,1.84,0,0,0,27.66,36c.24-.52.48-1.05.7-1.57a22.7,22.7,0,0,1,2.15-4.15c.55-.78,1.25-1.73,2.17-1.73h.07c.44,0,1,.26,1.93,1.77a26.84,26.84,0,0,1,2,3.72c.31.68.59,1.31,1,2.08a2.42,2.42,0,0,0,1.41,1,19.83,19.83,0,0,0,2.36.29,22,22,0,0,1,3.93.67c1.09.3,2.44.68,2.68,1.67.12.45-.07,1-1.28,2.41C45.13,44,42.23,46.59,42.17,46.63Z"/><path class="cls-1" d="M17.34,48.59h-.06a2.13,2.13,0,0,0-1.2.4,22.26,22.26,0,0,1-3.19,1.69c-1.42.65-2.64,0-2.82-1.29a3.5,3.5,0,0,1,.11-1.72c1.06-2.7.33-4.91-2.24-6.76a2.11,2.11,0,0,1-.62-3.45,2.9,2.9,0,0,1,1.42-.62,15,15,0,0,1,1.68-.28h.06c.54,0,1.33-.11,2.71-.26l.16,0,.05-.14c.45-1.18.92-2.29,1.38-3.31A3.74,3.74,0,0,1,16.27,31a2.38,2.38,0,0,1,1-.23,1.76,1.76,0,0,1,.86.19,2.44,2.44,0,0,1,1,1.13c.07.13.15.27.24.41a14.48,14.48,0,0,0,.93,1.38l.09.12,1.95-.3-.11-.29c-.89-2.3-2.28-4.05-3.62-4.56a5.22,5.22,0,0,0-1.42-.29,5.29,5.29,0,0,0-2,.58c-2.78,1.47-3.12,5-3.15,5.46v0h0a10.63,10.63,0,0,0-1.28-.07,6.75,6.75,0,0,0-5.07,1.83,3.89,3.89,0,0,0-.84,1.39,5,5,0,0,0,.89,4.13,4.39,4.39,0,0,0,1.49,1.34,2.27,2.27,0,0,1,1.1,1.16,2.34,2.34,0,0,1-.15,1.85l0,.06a5.09,5.09,0,0,0-.39,2.24c.09,1.69.94,3.79,2.58,4.42a4.22,4.22,0,0,0,1.57.31,5.74,5.74,0,0,0,2.8-.84c.21-.11.4-.23.6-.35l.06,0a4.12,4.12,0,0,1,2.06-.79,2.35,2.35,0,0,1,1.32.43l.24.16.12-.25a2.11,2.11,0,0,0-.13-2.2A2,2,0,0,0,17.34,48.59Z"/><path class="cls-1" d="M56.52,34.53l-1.31-.2a3.28,3.28,0,0,1-2.53-1.94c-.12-.27-.23-.51-.33-.71a6.56,6.56,0,0,0-2.3-2.85,3.79,3.79,0,0,0-2-.6,1.67,1.67,0,0,0-.31,0A4.49,4.49,0,0,0,44.9,30a11.16,11.16,0,0,0-1.13,1.68c-.35.59-.66,1.12-.93,1.63l-.14.26.27.09c1,.37,1.46.53,1.86.37a2.08,2.08,0,0,0,.93-1.33l.07-.25A2.12,2.12,0,0,1,46,32a3,3,0,0,1,.58-.88,2.27,2.27,0,0,1,1.34-.58h.13c.7.08,1.1.7,1.63,1.51a21.8,21.8,0,0,1,1.64,3.22,2,2,0,0,0,1.84,1.3,28.73,28.73,0,0,1,3.57.52,2.06,2.06,0,0,1,1.71,1.29,2.14,2.14,0,0,1-.66,2.08,17.61,17.61,0,0,1-2.07,2,3,3,0,0,0-1.13,1.53,2.62,2.62,0,0,0,.1,1.78l0,.17A12.62,12.62,0,0,1,55,47.28c.21,1.35.45,2.87-.3,3.49a1.54,1.54,0,0,1-1,.32,5.29,5.29,0,0,1-2.2-.6,7.25,7.25,0,0,1-.8-.51l-.39-.28a4.34,4.34,0,0,0-2.44-1.11,2.19,2.19,0,0,0-1.8,1,2,2,0,0,0,0,2l.18.3A1.55,1.55,0,0,1,47,51a1.86,1.86,0,0,1,2,.27,5.05,5.05,0,0,0,.56.5c.13.1.26.2.43.31a7.23,7.23,0,0,0,1.61.82,5.69,5.69,0,0,0,1.84.29,3.82,3.82,0,0,0,2.41-.73,4.93,4.93,0,0,0,1.6-3.71,6.13,6.13,0,0,0-.35-2.46A2.6,2.6,0,0,1,57,44.38a2.54,2.54,0,0,1,1.18-1.31A5.15,5.15,0,0,0,59.7,41.6c.08-.11,1.43-2.14,1-3.84C60.37,36.23,58.72,35,56.52,34.53Z"/><path class="cls-1" d="M10,28.11a1.61,1.61,0,0,1,.41.93,3.56,3.56,0,0,0,.09.39,8.32,8.32,0,0,0,.54,1.46l.24.49.22-.51a6.67,6.67,0,0,1,4.33-3.78,6.37,6.37,0,0,1,4.34.48l.49.24-.14-.53-.29-1.15A8,8,0,0,1,20,24.75a4.46,4.46,0,0,1,.51-1.53l.05-.11a12.55,12.55,0,0,0,.59-1.51c.14-.94-.61-2-2.29-3.15l-.3-.21-.08.36c-.12.48-.26,1-.41,1.44-.56,1.74-.87,2.7-1.66,3.36a16.88,16.88,0,0,1-2,.82c-1.69.67-2.37.8-3,.58a2,2,0,0,1-.52-.27c-3.13-2-6.2-3.9-7.52-4.91A2.47,2.47,0,0,0,1.33,19a2,2,0,0,0-.95.68A1.87,1.87,0,0,0,0,20.71,2.8,2.8,0,0,0,1.22,22.8,18.7,18.7,0,0,0,4.31,25a41.82,41.82,0,0,0,5.25,2.91A1.1,1.1,0,0,1,10,28.11Z"/><path class="cls-1" d="M64.38,19.34a1.75,1.75,0,0,0-1-.34,2.81,2.81,0,0,0-1.92.94,30.15,30.15,0,0,1-5.73,4,4.78,4.78,0,0,1-1.93.84A5.51,5.51,0,0,1,51,24.22a5.16,5.16,0,0,1-2.49-1.37A3,3,0,0,1,48,21.78c-.11-.32-.26-.73-.48-1.31s-.55-1.32-.84-2l-.16-.35-.25.29-.61.7a14,14,0,0,1-1.08,1.17,1.87,1.87,0,0,0-.66,1.26,1.71,1.71,0,0,0,.29,1,11.5,11.5,0,0,1,1,1.94,1.4,1.4,0,0,1-.19.77,3.58,3.58,0,0,0-.39,1.5,4.85,4.85,0,0,0,0,.66l0,.37.33-.17a6.42,6.42,0,0,1,4.63-.45,6.55,6.55,0,0,1,4,3.47l.29.64.18-.68a5.13,5.13,0,0,1,1.37-2.49,4,4,0,0,1,1.62-.91l.92-.37c1.36-.58,2.85-1.79,5.83-4.19a2.74,2.74,0,0,0,1.25-1.94A1.81,1.81,0,0,0,64.38,19.34Z"/><path class="cls-1" d="M32.63,18.45h.06a4.82,4.82,0,0,0,3.4-1.39,4.74,4.74,0,0,0,1.44-3.37,5,5,0,0,0-1.47-3.59,4.74,4.74,0,0,0-3.38-1.42,5.06,5.06,0,0,0-3.5,1.56,4.91,4.91,0,0,0-1.47,3.41A5,5,0,0,0,32.63,18.45Z"/><path class="cls-1" d="M12.72,23.7h.14a3.41,3.41,0,0,0,3.33-3.54,3.48,3.48,0,0,0-1.07-2.45,3.32,3.32,0,0,0-2.43-.94,3.7,3.7,0,0,0-3.46,3.51,3.28,3.28,0,0,0,1,2.43A3.53,3.53,0,0,0,12.72,23.7Z"/><path class="cls-1" d="M49,20.38a3.45,3.45,0,0,0,3.42,3.33h0a3.41,3.41,0,0,0,3.4-3.46,3.52,3.52,0,0,0-1.1-2.46,3.36,3.36,0,0,0-2.39-1A3.54,3.54,0,0,0,49,20.38Z"/></svg>