<?xml version="1.0" encoding="utf-8"?>
<!-- Generator: Adobe Illustrator 25.4.1, SVG Export Plug-In . SVG Version: 6.00 Build 0)  -->
<svg version="1.1" id="Layer_1" xmlns="http://www.w3.org/2000/svg" xmlns:xlink="http://www.w3.org/1999/xlink" x="0px" y="0px"
	 viewBox="0 0 65 66" style="enable-background:new 0 0 65 66;" xml:space="preserve">
<style type="text/css">
	.st0{fill:#BD8100;}
</style>
<path class="st0" d="M18.3,33.8c-4.9,0-8.9,4-8.9,8.9c0,4.9,4,8.9,8.9,8.9c4.9,0,8.9-4,8.9-8.9c0,0,0,0,0,0
	C27.2,37.7,23.2,33.7,18.3,33.8C18.3,33.7,18.3,33.7,18.3,33.8z M18.2,49.8c-4-0.1-7.2-3.4-7.1-7.4c0.1-4,3.4-7.2,7.4-7.1
	c3.9,0.1,7.1,3.3,7.1,7.2c0,4-3.2,7.2-7.2,7.3C18.3,49.8,18.2,49.8,18.2,49.8z"/>
<path class="st0" d="M40.9,5c-3.6,0-6.4,2.9-6.4,6.4s2.9,6.4,6.4,6.4s6.4-2.9,6.4-6.4c0,0,0,0,0,0C47.3,7.9,44.4,5,40.9,5z
	 M40.9,16.5c-2.8,0-5.1-2.3-5.1-5.1s2.3-5.1,5.1-5.1c2.8,0,5.1,2.3,5.1,5.1c0,0,0,0,0,0C46,14.2,43.7,16.5,40.9,16.5z"/>
<path class="st0" d="M40.4,54.5H39v-4.7c-0.1-1.8,0.4-3.6,1.5-5.1c0.4-0.6,0.9-1,1.5-1.5l0.2-0.1l8.6-3.3l0.5,1.2l-8.6,3.3
	c-0.4,0.3-0.8,0.7-1.1,1.2c-0.9,1.2-1.3,2.7-1.2,4.2V54.5z"/>
<polygon class="st0" points="65,59.8 54.7,59.8 45.7,49.4 45.7,42.5 47,42.5 47,48.9 55.3,58.5 65,58.5 "/>
<path class="st0" d="M36.2,41.4L36,41.5v-0.1L36.2,41.4z"/>
<path class="st0" d="M41.7,31.2c-0.1-1.3,0.2-2.6,0.7-3.7c0.7-1.3,1.7-2.3,3-3l0.6,1.2c-2,1-3.2,3.1-3,5.3L41.7,31.2z"/>
<rect x="23.7" y="19.2" class="st0" width="6.6" height="1.3"/>
<rect x="13.1" y="15.9" class="st0" width="2" height="1.3"/>
<rect x="13.1" y="21.2" class="st0" width="3.3" height="1.3"/>
<rect x="20.4" y="11.9" class="st0" width="4.7" height="1.3"/>
<g>
	<path class="st0" d="M29.1,35.8C29.1,35.8,29.1,35.8,29.1,35.8C29.1,35.7,29.1,35.7,29.1,35.8C29.1,35.8,29.1,35.8,29.1,35.8z"/>
	<path class="st0" d="M53,46.8l-1.2-6c1.1-0.6,2-1.6,2.5-2.7c0.8-1.6,0.4-2.7-1.5-8.5l-1.1-3.3c-0.7-1.9-1.6-3.8-2.7-5.5
		c-0.8-1.2-1.4-2-2.3-2.3c-2-0.7-3.9,0.8-4.7,1.5l-4.5,5.2h-5.7c-0.3,0-1.3,0-2.2,0.8c-0.9,0.8-1.1,1.9-1.1,2.1c0.1,0,0.3-0.1,0.5,0
		c0.5,0.1,0.8,0.6,0.8,0.6c0,0,0-0.1,0-0.1c0,0,0,0,0-0.1c0-1.1,0.9-2,2-2H38l4.8-5.5c0.9-0.8,2.2-1.5,3.3-1.2
		c0.5,0.2,0.9,0.6,1.6,1.7c1.1,1.6,1.9,3.4,2.6,5.2c0.4,1.2,0.8,2.3,1.1,3.3c1.9,5.8,2.1,6.4,1.6,7.5c-0.5,1-1.4,1.8-2.4,2.4
		l-0.4,0.2l0.2,1.2l1.2,6L59,56v2.4h-9.7l-3.3-4l-5.7-0.6l-0.6-0.1h-3.5c0-0.8-0.1-1.7-0.1-2.5c0,0,0-0.6,0-1.1c0-1.3-0.1-4.5,0-8.7
		c1.2-0.9,2.9-2,5-2.9c1.7-0.7,3.3-1.1,4.6-1.4l1-0.2l-0.6-0.8c-0.7-1.1-1.4-2.2-2-3.3c-0.4-0.8-0.9-1.7-1.3-2.5v-0.1l-0.2-0.4
		l-1,0.1c-3.4,0.2-6.8,0.4-10.1,0.6c-0.5-0.5-1-1.1-1.6-1.6c-0.1-0.1-0.2-0.2-0.3-0.2c-0.1-0.3-0.3-0.6-0.6-0.7
		c-0.4-0.1-0.7,0.1-0.7,0.1c-0.1,0-0.2,0-0.3,0.1c-0.1,0-0.2,0.1-0.2,0.1l-2.7,1.3c-0.5,0.3-1.1,0.3-1.6,0.1
		c-0.5-0.2-0.9-0.6-1.1-1.2l-1-2.8c-0.1-0.6-0.6-1-1.2-1c-1.3-0.1-2.5-0.1-3.8,0c-0.6,0-1,0.4-1.2,0.9c-0.1,0.2-0.1,0.4-0.2,0.6
		l-0.3,0.8c-0.2,0.5-0.4,1-0.5,1.5c-0.2,0.5-0.5,0.9-1,1.1c-0.5,0.2-1,0.2-1.5-0.1c-0.9-0.4-1.8-0.8-2.7-1.3
		c-0.5-0.3-1.2-0.2-1.7,0.2c-1,0.8-1.8,1.7-2.6,2.7c-0.4,0.4-0.4,1-0.2,1.5l0.1,0.2c0.4,0.8,0.8,1.6,1.1,2.4C5.9,35.5,6,35.7,6,36
		c0.1,0.9-0.5,1.8-1.4,2l-2.7,1C1.4,39.1,1,39.6,1,40.1c-0.1,1.3-0.1,2.6,0,3.9c0.1,0.6,0.5,1,1,1.2l2.8,1c0.5,0.2,1,0.6,1.2,1.1
		c0.2,0.5,0.2,1.1-0.1,1.6l-1.4,2.6C4.3,52,4.4,52.6,4.7,53c0.8,1,1.7,1.9,2.8,2.7C7.6,55.9,7.8,56,8,56l0.3,0.1L8.6,56L9,55.9
		l2.7-1.2c0.4-0.2,0.9-0.3,1.3-0.2c0.7,0.1,1.3,0.7,1.4,1.4c0.3,0.8,0.6,1.7,0.9,2.6h6.3v-0.1c0.2-0.5,0.4-1,0.6-1.6l0.4-1.1
		c0.1-0.4,0.4-0.7,0.7-0.9h0.1c0.6-0.4,1.4-0.4,2,0l2.6,1.2c0.5,0.3,1.1,0.2,1.5-0.2l0.4-0.3c0.8-0.7,1.6-1.5,2.3-2.4
		c0.4-0.4,0.4-1.1,0.2-1.6c-0.3-0.6-0.6-1.3-0.9-1.9L31,48.8c-0.5-0.9-0.1-2,0.8-2.5c0.1,0,0.2-0.1,0.3-0.1l1.3-0.5l0.7-0.2l0,0
		c0.1,1.2,0.2,2.4,0.4,3.7c0.1,1.2,0.3,2.2,0.4,3.3v0.2l0.2,2.1l-12.7,3.7h-0.9v0l-6.3,0H7.8v1.3h15.1l0.9-0.3l15.3-4.4h0.6l5.7,0.6
		l3.4,4h11.6v-4.2L53,46.8z M32.2,32.8l0.1-0.2c0.1-0.1,0.2-0.4,0.2-0.6c0-0.1,0-0.1,0-0.2c3.1-0.2,6.2-0.4,9.3-0.6h0.2
		c0.4,0.8,0.8,1.5,1.2,2.3c0.4,0.8,1,1.7,1.5,2.5c-1.8,0.4-3.6,1-5.2,1.9c-1.2,0.6-2.4,1.4-3.5,2.3v-0.2c-0.1-0.5-0.5-0.8-1-0.9
		l-0.6-0.2l-2-0.7L32.1,38c-0.2-0.1-0.4-0.2-0.6-0.3c-0.3-0.2-0.5-0.5-0.6-0.7c-0.2-0.5-0.2-1.1,0-1.6l0-0.1
		C31.4,34.5,31.8,33.7,32.2,32.8z M33.9,43.3c-0.6,0.2-1.3,0.4-1.9,0.7c-1.2,0.5-2.2,1.5-2.7,2.8c-0.5,1.3-0.4,2.7,0.2,3.9
		c0.2,0.3,0.3,0.7,0.5,1.1c0.2,0.4,0.3,0.7,0.5,1.1L30,53.5l-0.8,0.7h-0.1c-0.2-0.1-0.3-0.2-0.5-0.3l-1.5-0.7
		c-2.5-1.2-5.5-0.3-6.7,2.2c-0.1,0.2-0.2,0.4-0.2,0.5L20,56.6c-0.2,0.6-0.4,1.1-0.6,1.7h-1.9L17.4,58c-0.2-0.7-0.5-1.3-0.7-2
		c-0.6-1.7-2-2.9-3.7-3.2c-1.1-0.2-2.2-0.1-3.2,0.4l-2.1,1l-1.3-1.3l0.2-0.5c0.3-0.6,0.6-1.3,0.9-2c0.8-1.8,0.4-3.9-0.9-5.3
		c-0.5-0.6-1.2-1.1-2-1.3c-0.7-0.2-1.4-0.5-2.1-0.7L2.2,43v-1.9l2.2-0.8l0.1-0.1c2-0.7,3.4-2.6,3.4-4.8c0-0.8-0.2-1.6-0.6-2.3
		c-0.2-0.5-0.5-1-0.7-1.5l-0.2-0.5l0.4-0.4l0.9-0.9c0.8,0.3,1.5,0.7,2.2,1c1.8,0.9,4,0.5,5.5-0.8c0.7-0.6,1.2-1.5,1.4-2.4
		c0.1-0.4,0.3-0.8,0.4-1.1s0.2-0.5,0.3-0.8h1.9l0.3,0.7c0.2,0.6,0.4,1.3,0.7,1.9c0.9,2.2,3.3,3.4,5.7,2.9c0.6-0.2,1.2-0.4,1.7-0.7
		c0.2-0.1,0.3-0.2,0.5-0.2l0.6-0.3c0.1,0.2,0.3,0.5,0.6,0.8c0.4,0.4,0.8,0.6,1.1,0.7c-0.4,0.7-0.7,1.4-0.8,1.8
		c-0.5,1.4-0.5,2.1-0.5,2.3c0,0.3,0,0.5,0.1,0.7c0,0,0.1,0.5,0.4,1.3c0,0.1,0.1,0.2,0.1,0.2c0,0,0,0.1,0.1,0.1
		c0.1,0.2,0.2,0.4,0.3,0.5c0.6,0.8,1.4,1.5,2.4,1.8l0.4,0.2l1.9,0.7c0,0.6,0,1.2,0,1.8L33.9,43.3z M35.6,44.6c0,0,0.1-0.1,0.1-0.1
		C35.7,44.5,35.7,44.6,35.6,44.6C35.7,44.6,35.6,44.6,35.6,44.6z"/>
</g>
</svg>
