<svg id="Layer_1" data-name="Layer 1" xmlns="http://www.w3.org/2000/svg" viewBox="0 0 65 66"><defs><style>.cls-1{fill:#785eff;}</style></defs><path class="cls-1" d="M18.3,33.8a8.9,8.9,0,1,0,8.9,8.9h0a8.79,8.79,0,0,0-8.9-8.9Zm-.1,16a7.3,7.3,0,1,1,.2,0Z"/><path class="cls-1" d="M40.9,5a6.38,6.38,0,0,0-6.4,6.4,6.4,6.4,0,1,0,12.8,0h0A6.44,6.44,0,0,0,40.9,5Zm0,11.5A5.1,5.1,0,1,1,46,11.4h0A5.12,5.12,0,0,1,40.9,16.5Z"/><path class="cls-1" d="M40.4,54.5H39V49.8a7.85,7.85,0,0,1,1.5-5.1A7.11,7.11,0,0,1,42,43.2l.2-.1,8.6-3.3.5,1.2-8.6,3.3a4.26,4.26,0,0,0-1.1,1.2,6.29,6.29,0,0,0-1.2,4.2Z"/><polygon class="cls-1" points="65 59.8 54.7 59.8 45.7 49.4 45.7 42.5 47 42.5 47 48.9 55.3 58.5 65 58.5 65 59.8"/><path class="cls-1" d="M36.2,41.4l-.2.1v-.1Z"/><path class="cls-1" d="M41.7,31.2a7.66,7.66,0,0,1,.7-3.7,7.23,7.23,0,0,1,3-3l.6,1.2A5.4,5.4,0,0,0,43,31Z"/><rect class="cls-1" x="23.7" y="19.2" width="6.6" height="1.3"/><rect class="cls-1" x="13.1" y="15.9" width="2" height="1.3"/><rect class="cls-1" x="13.1" y="21.2" width="3.3" height="1.3"/><rect class="cls-1" x="20.4" y="11.9" width="4.7" height="1.3"/><path class="cls-1" d="M53,46.8l-1.2-6a5.93,5.93,0,0,0,2.5-2.7c.8-1.6.4-2.7-1.5-8.5l-1.1-3.3A28.07,28.07,0,0,0,49,20.8c-.8-1.2-1.4-2-2.3-2.3-2-.7-3.9.8-4.7,1.5l-4.5,5.2H31.8a3.22,3.22,0,0,0-2.2.8,3.4,3.4,0,0,0-1.1,2.1c.1,0,.3-.1.5,0a1.39,1.39,0,0,1,.8.6v-.2a2,2,0,0,1,2-2H38L42.8,21a3.93,3.93,0,0,1,3.3-1.2c.5.2.9.6,1.6,1.7a25.28,25.28,0,0,1,2.6,5.2c.4,1.2.8,2.3,1.1,3.3,1.9,5.8,2.1,6.4,1.6,7.5a6.15,6.15,0,0,1-2.4,2.4l-.4.2.2,1.2,1.2,6L59,56v2.4H49.3l-3.3-4-5.7-.6-.6-.1H36.2c0-.8-.1-1.7-.1-2.5V50.1c0-1.3-.1-4.5,0-8.7a24.5,24.5,0,0,1,5-2.9,28.83,28.83,0,0,1,4.6-1.4l1-.2-.6-.8c-.7-1.1-1.4-2.2-2-3.3-.4-.8-.9-1.7-1.3-2.5v-.1l-.2-.4-1,.1-10.1.6c-.5-.5-1-1.1-1.6-1.6-.1-.1-.2-.2-.3-.2A1.06,1.06,0,0,0,29,28a.94.94,0,0,0-.7.1.37.37,0,0,0-.3.1.35.35,0,0,0-.2.1l-2.7,1.3a1.81,1.81,0,0,1-1.6.1,1.89,1.89,0,0,1-1.1-1.2l-1-2.8a1.19,1.19,0,0,0-1.2-1,24.1,24.1,0,0,0-3.8,0,1.29,1.29,0,0,0-1.2.9c-.1.2-.1.4-.2.6l-.3.8a8.8,8.8,0,0,0-.5,1.5,1.82,1.82,0,0,1-1,1.1,1.6,1.6,0,0,1-1.5-.1c-.9-.4-1.8-.8-2.7-1.3a1.53,1.53,0,0,0-1.7.2,16.61,16.61,0,0,0-2.6,2.7,1.37,1.37,0,0,0-.2,1.5l.1.2a25.57,25.57,0,0,1,1.1,2.4A1.33,1.33,0,0,1,6,36a1.86,1.86,0,0,1-1.4,2L1.9,39A1.17,1.17,0,0,0,1,40.1,25.39,25.39,0,0,0,1,44a1.55,1.55,0,0,0,1,1.2l2.8,1A2.16,2.16,0,0,1,6,47.3a1.81,1.81,0,0,1-.1,1.6L4.5,51.5A1.6,1.6,0,0,0,4.7,53a14.38,14.38,0,0,0,2.8,2.7A.55.55,0,0,0,8,56l.3.1.3-.1.4-.1,2.7-1.2a2,2,0,0,1,1.3-.2,1.7,1.7,0,0,1,1.4,1.4c.3.8.6,1.7.9,2.6h6.3v-.1c.2-.5.4-1,.6-1.6l.4-1.1a1.6,1.6,0,0,1,.7-.9h.1a1.82,1.82,0,0,1,2,0L28,56a1.21,1.21,0,0,0,1.5-.2l.4-.3a17.53,17.53,0,0,0,2.3-2.4,1.54,1.54,0,0,0,.2-1.6c-.3-.6-.6-1.3-.9-1.9l-.5-.8a1.85,1.85,0,0,1,.8-2.5c.1,0,.2-.1.3-.1l1.3-.5.7-.2h0c.1,1.2.2,2.4.4,3.7s.3,2.2.4,3.3v.2l.2,2.1L22.4,58.5H7.8v1.3H22.9l.9-.3,15.3-4.4h.6l5.7.6,3.4,4H60.4V55.5Zm-20.8-14,.1-.2a1.07,1.07,0,0,0,.2-.6v-.2l9.3-.6H42c.4.8.8,1.5,1.2,2.3s1,1.7,1.5,2.5A21.09,21.09,0,0,0,36,40.2V40a1.17,1.17,0,0,0-1-.9l-.6-.2-2-.7-.3-.2-.6-.3a1.87,1.87,0,0,1-.6-.7,2.21,2.21,0,0,1,0-1.6v-.1A19.65,19.65,0,0,0,32.2,32.8Zm1.7,10.5A14.58,14.58,0,0,0,32,44a5,5,0,0,0-2.7,2.8,4.81,4.81,0,0,0,.2,3.9,11.73,11.73,0,0,1,.5,1.1c.2.4.3.7.5,1.1l-.5.6-.8.7h-.1c-.2-.1-.3-.2-.5-.3l-1.5-.7a5,5,0,0,0-6.7,2.2,1.69,1.69,0,0,0-.2.5l-.2.7c-.2.6-.4,1.1-.6,1.7H17.5l-.1-.3c-.2-.7-.5-1.3-.7-2A4.82,4.82,0,0,0,13,52.8a5,5,0,0,0-3.2.4l-2.1,1L6.4,52.9l.2-.5c.3-.6.6-1.3.9-2a4.91,4.91,0,0,0-.9-5.3,3.9,3.9,0,0,0-2-1.3c-.7-.2-1.4-.5-2.1-.7L2.2,43V41.1l2.2-.8.1-.1a5.08,5.08,0,0,0,3.4-4.8,4.65,4.65,0,0,0-.6-2.3c-.2-.5-.5-1-.7-1.5l-.2-.5.4-.4.9-.9c.8.3,1.5.7,2.2,1a5.05,5.05,0,0,0,5.5-.8,4.52,4.52,0,0,0,1.4-2.4c.1-.4.3-.8.4-1.1s.2-.5.3-.8h1.9l.3.7a14.58,14.58,0,0,0,.7,1.9,5,5,0,0,0,5.7,2.9,8.65,8.65,0,0,0,1.7-.7c.2-.1.3-.2.5-.2l.6-.3a3.28,3.28,0,0,0,.6.8,2.82,2.82,0,0,0,1.1.7,8.33,8.33,0,0,0-.8,1.8,6.65,6.65,0,0,0-.5,2.3,1.48,1.48,0,0,0,.1.7,9.35,9.35,0,0,0,.4,1.3.35.35,0,0,0,.1.2.1.1,0,0,0,.1.1,2.19,2.19,0,0,0,.3.5,4.81,4.81,0,0,0,2.4,1.8l.4.2,1.9.7v1.8Zm1.7,1.3.1-.1a.1.1,0,0,1-.1.1Z"/></svg>