<svg id="Layer_1" data-name="Layer 1" xmlns="http://www.w3.org/2000/svg" viewBox="0 0 65 66"><defs><style>.cls-1{fill:#bd8100;}</style></defs><path class="cls-1" d="M16.72,28.21c-5.89-9-5.49-16.91,1.12-22.77a15.7,15.7,0,0,1,20.53-.22c6.76,5.75,7.24,13.69,1.38,23a29.26,29.26,0,0,1,11,9,2.43,2.43,0,0,0,1.55.59A13.51,13.51,0,0,1,64.55,50.28,13.38,13.38,0,0,1,44.72,62.81,6,6,0,0,0,42,62.09c-10.8-.05-21.59,0-32.39,0-5.85,0-9.45-3.59-9.15-9.45C1,42,6.07,34.18,15.27,29,15.74,28.7,16.23,28.46,16.72,28.21Zm31.53,9.9a26,26,0,0,0-9.54-7.65,2.1,2.1,0,0,0-2.22.14,15.21,15.21,0,0,1-16.55,0,2,2,0,0,0-2.22-.09Q4.46,37,2.88,51.68c-.56,5.17,2,8,7.15,8q14.48,0,28.95,0h1.88C38,55.57,37.11,51.4,38.63,46.91S43.5,39.56,48.25,38.11Zm-20-7.53A13.31,13.31,0,1,0,14.9,17.32,13.39,13.39,0,0,0,28.29,30.58ZM51.3,62A10.88,10.88,0,1,0,40.36,51.19,10.86,10.86,0,0,0,51.3,62Z"/><path class="cls-1" d="M50,53.2l5.9-6c.63-.64,1.34-1.36,2.19-.45s.14,1.57-.51,2.22c-2.08,2.07-4.18,4.12-6.21,6.23-1,1-1.78,1-2.73,0-1.26-1.35-2.6-2.62-3.91-3.93-.61-.6-1.21-1.27-.42-2.08s1.47-.32,2.1.33C47.55,50.66,48.69,51.82,50,53.2Z"/></svg>