<svg id="Layer_1" data-name="Layer 1" xmlns="http://www.w3.org/2000/svg" viewBox="0 0 65 66"><defs><style>.cls-1{fill:#785eff;}</style></defs><path class="cls-1" d="M64,48.26a3.62,3.62,0,0,0-3.28-3.13,4.22,4.22,0,0,0-1.69.23l-3.54,1.15c-3.4,1.09-6.92,2.22-10.34,3.5a3.71,3.71,0,0,0,.34-1.46,3,3,0,0,0-.82-2.16,3.31,3.31,0,0,0-2.37-1H34a6.28,6.28,0,0,1-4-1.3C28.43,43,27,42,25.49,40.9c-1.3-.93-2.6-1.86-3.89-2.81A6.84,6.84,0,0,0,17,36.63a13.22,13.22,0,0,1-1.78,0,2,2,0,0,0-1.19.23L14,36v-.11a3.24,3.24,0,0,0-3.12-3.23h-.12c-1.85,0-3.75,0-5.65,0A3.2,3.2,0,0,0,1.92,35.6a9,9,0,0,0,0,1.16v19H1.56v1.34a3.05,3.05,0,0,0,.11.49,3.17,3.17,0,0,0,.2.48V57a3.2,3.2,0,0,0,3.19,2.93h5.65A3.24,3.24,0,0,0,14,56.74a1.62,1.62,0,0,0,0-.22V54.71a1.63,1.63,0,0,0,1.06.18c2.06-.27,3.75.75,5.55,1.82l.61.37,4.39,2.56,3.77,2.19a5.37,5.37,0,0,0,4.77.4L37.4,61c4.52-1.72,12.08-4.58,16.23-5.92l1-.31,2.53-1,.84-.31L59.17,53c.86-.31,1.72-.62,2.56-1A3.59,3.59,0,0,0,64,48.26Zm-6.38,4.32-3.38,1.31-.91.29c-5.44,1.76-16.48,6-19.52,7.16a4.38,4.38,0,0,1-4-.34c-2.71-1.59-5.45-3.15-8.16-4.75-2.11-1.25-4.14-2.67-6.8-2.32-.69.09-.71-.44-.71-.93V38.56c0-.65.19-1,.91-.93a12.31,12.31,0,0,0,1.92,0,5.85,5.85,0,0,1,4,1.27c2.74,2,5.54,4,8.29,6a7.22,7.22,0,0,0,4.63,1.5h8.32a2.1,2.1,0,0,1,2.2,2v.12a1.9,1.9,0,0,1-1.75,2,2,2,0,0,1-.43,0c-3.62-.06-7.24,0-10.86,0a1.67,1.67,0,0,0-.77,0c-.25.13-.56.42-.57.64s.36.45.61.58a1.61,1.61,0,0,0,.69,0H40.3A13.06,13.06,0,0,0,45.14,51c4.66-1.75,9.43-3.2,14.16-4.75A3.29,3.29,0,0,1,60.58,46,2.61,2.61,0,0,1,63,48.42a2.57,2.57,0,0,1-1.68,2.78C60.1,51.69,58.85,52.12,57.62,52.58Zm-46.7,6.34H5.13a2.2,2.2,0,0,1-2.22-2.06,7.11,7.11,0,0,1,0-1.13V36.87a7.11,7.11,0,0,1,0-1.13,2.21,2.21,0,0,1,2.22-2.07h5.6A2.24,2.24,0,0,1,13,35.88V56.53A2.25,2.25,0,0,1,10.92,58.92Z"/><path class="cls-1" d="M32.12,62.88a5.81,5.81,0,0,1-2.9-.81l-3.77-2.19-1.28-.75-3.11-1.81-.66-.41c-1.74-1-3.39-2-5.34-1.75a2,2,0,0,1-.84,0v1.43a3.49,3.49,0,0,1-3.33,3.63H5.07A3.44,3.44,0,0,1,1.62,57a9.48,9.48,0,0,1-.05-1.19V36.72a9.48,9.48,0,0,1,.05-1.19,3.45,3.45,0,0,1,3.43-3.16h5.67a3.44,3.44,0,0,1,3.47,3.34h0v.75a2.54,2.54,0,0,1,1-.09,12.63,12.63,0,0,0,1.74,0,7.06,7.06,0,0,1,4.82,1.51q1.89,1.4,3.8,2.74l.14.11c1.45,1,2.91,2.09,4.35,3.16a6,6,0,0,0,3.87,1.25h8.35a3.55,3.55,0,0,1,2.55,1.07,3.23,3.23,0,0,1,.89,2.34,4.26,4.26,0,0,1-.16,1c3.32-1.22,6.77-2.33,9.83-3.31l1.78-.58c.59-.18,1.17-.37,1.76-.57a4.52,4.52,0,0,1,1.79-.24,3.86,3.86,0,0,1,3.51,3.34h0a3.84,3.84,0,0,1-2.43,4.14c-.87.35-1.77.68-2.57,1l-2,.72-2.53,1-.4.13-.57.19c-4,1.29-11.18,4-16.22,5.91L34.18,62.5A5.83,5.83,0,0,1,32.12,62.88ZM15.7,54.62c1.81,0,3.34.91,4.95,1.86l.67.41,3.1,1.81,1.29.74,3.77,2.19a5.19,5.19,0,0,0,4.57.39l3.26-1.22c5-1.93,12.23-4.63,16.24-5.93l.58-.18.38-.13L59,52.85c.8-.28,1.7-.6,2.56-1a3.36,3.36,0,0,0,2.11-3.6h0a3.35,3.35,0,0,0-3.05-2.92,3.91,3.91,0,0,0-1.59.22l-1.77.57-1.77.58c-3.22,1-6.86,2.2-10.33,3.49l-.58.22.26-.56a3.39,3.39,0,0,0,.32-1.36,2.71,2.71,0,0,0-.75-2,3.06,3.06,0,0,0-2.19-.91H33.88a6.56,6.56,0,0,1-4.18-1.35c-1.44-1.07-2.89-2.11-4.34-3.16l-.14-.1c-1.27-.91-2.55-1.82-3.81-2.75A6.6,6.6,0,0,0,17,36.88a13.82,13.82,0,0,1-1.82,0,1.66,1.66,0,0,0-1,.2l-.4.23V36.17L13.7,36a3,3,0,0,0-2.9-3.1h-.1c-1.77,0-3.67,0-5.63,0a3,3,0,0,0-2.95,2.72,8.55,8.55,0,0,0-.05,1.13v19a8.55,8.55,0,0,0,.05,1.13,3,3,0,0,0,3,2.71h5.63a3,3,0,0,0,3-3V54.3l.37.21a1.4,1.4,0,0,0,.9.15A5.17,5.17,0,0,1,15.7,54.62Zm16.42,7.27a4.79,4.79,0,0,1-2.39-.68c-1.22-.72-2.45-1.44-3.69-2.15l-4.47-2.6L21,56.11c-1.92-1.16-3.73-2.26-6.06-1.94a.84.84,0,0,1-.7-.17A1.3,1.3,0,0,1,14,53V38.55a1.23,1.23,0,0,1,.3-.95,1.12,1.12,0,0,1,.88-.23,11.8,11.8,0,0,0,1.88,0,6.09,6.09,0,0,1,4.16,1.32c1.34,1,2.71,2,4.07,2.94s2.82,2,4.22,3.06a7.07,7.07,0,0,0,4.47,1.45h8.33a2.52,2.52,0,0,1,1.83.76,2.21,2.21,0,0,1,.62,1.62,2.13,2.13,0,0,1-2,2.27,2.41,2.41,0,0,1-.38,0H31.17a1,1,0,0,0-.41,0c-.23.12-.44.35-.44.43a1.65,1.65,0,0,0,.48.35.86.86,0,0,0,.32,0H40.3a13,13,0,0,0,4.75-.74c3.48-1.31,7.08-2.47,10.57-3.59l3.6-1.17a3.41,3.41,0,0,1,1.38-.2,2.88,2.88,0,0,1,2.62,2.51,2.82,2.82,0,0,1-1.8,3h0c-.8.32-1.63.63-2.43.92l-1.27.46-.15.06h0L54.32,54.1l-.92.3c-4.26,1.38-12,4.29-16.56,6l-3,1.11A4.88,4.88,0,0,1,32.12,61.89ZM15.71,53.62a10.43,10.43,0,0,1,5.54,2.06l.58.35,4.46,2.6L30,60.77a4.08,4.08,0,0,0,3.72.32l3-1.12c4.6-1.74,12.3-4.67,16.57-6l.92-.29,3.7-1.44h0l1-.34c.8-.29,1.62-.59,2.42-.91a2.32,2.32,0,0,0,1.49-2.51,2.37,2.37,0,0,0-2.16-2.09,3,3,0,0,0-1.18.18l-3.61,1.17C52.29,48.83,48.7,50,45.23,51.29a13.34,13.34,0,0,1-4.93.78H31.17a1,1,0,0,1-.6-.06c-.23-.11-.75-.43-.75-.8s.44-.72.7-.86a1.44,1.44,0,0,1,.68-.08H42.39a1.63,1.63,0,0,0,1.85-1.37,1.88,1.88,0,0,0,0-.41,1.69,1.69,0,0,0-.48-1.26,2.07,2.07,0,0,0-1.47-.6H34a7.57,7.57,0,0,1-4.78-1.55c-1.4-1-2.8-2-4.21-3s-2.73-2-4.08-3A5.58,5.58,0,0,0,17,37.88a13.35,13.35,0,0,1-2,0,.68.68,0,0,0-.5.1.8.8,0,0,0-.14.58V53c0,.21,0,.53.12.64a.42.42,0,0,0,.31,0A5.66,5.66,0,0,1,15.71,53.62ZM7.88,59.16H5.07a2.45,2.45,0,0,1-2.46-2.28,8.34,8.34,0,0,1,0-1V36.71a8.34,8.34,0,0,1,0-1,2.45,2.45,0,0,1,2.46-2.29h5.62a2.47,2.47,0,0,1,2.51,2.43V37.2a1,1,0,0,0,0,.24V56.53a2.49,2.49,0,0,1-2.33,2.63h-3ZM7.73,33.84H5.09a2,2,0,0,0-2,1.85,7.37,7.37,0,0,0,0,.94V55.82a7.37,7.37,0,0,0,0,.94,1.94,1.94,0,0,0,2,1.84h5.58a2,2,0,0,0,2-2,.65.65,0,0,0,0-.14v-1h0V37.41a1.13,1.13,0,0,1,0-.26v-1.1a2,2,0,0,0-1.86-2.14h-.14C9.7,33.85,8.73,33.84,7.73,33.84Z"/><path class="cls-1" d="M41.73,9.53a2.6,2.6,0,0,0,1.73.27v.74a1.31,1.31,0,0,0,0,.28V11.9a2,2,0,0,0,.44,1.51c.46.46,1,.46,1.85.45h.9a1.63,1.63,0,0,0,1.73-1.4c.27-1.2,1-1.21,1.23-1.21.47,0,1,.13,1.29,1.22a1.66,1.66,0,0,0,1.72,1.44,2.76,2.76,0,0,0,.57-.06h.23a1.38,1.38,0,0,0,1.19-.4A1.5,1.5,0,0,0,55,12.36,2.16,2.16,0,0,0,55,12v-.11A10.91,10.91,0,0,0,52.21,5.3a10.85,10.85,0,0,0-7.63-3.71l-1.07-.08V6.14a2.09,2.09,0,0,0-1.74.23A1.81,1.81,0,0,0,41,7.75v.14A1.89,1.89,0,0,0,41.73,9.53Zm1.5-2.42c1,.35,1.23.22,1.24-.88s0-2.38,0-3.7a9.85,9.85,0,0,1,7,3.39,9.94,9.94,0,0,1,2.55,6c0,.37.18,1-.47.9s-1.37.51-1.62-.58a2.25,2.25,0,0,0-2.28-2,2.22,2.22,0,0,0-2.19,2c-.11.46-.28.63-.75.62-2.55,0-2.15.35-2.19-2V9.63c0-.94-.22-1-1.14-.77a1.62,1.62,0,0,1-1.1-.15,1,1,0,0,1-.3-.83.93.93,0,0,1,1-.82A.87.87,0,0,1,43.23,7.11Z"/><path class="cls-1" d="M52.62,14.16a1.89,1.89,0,0,1-2-1.63c-.21-.92-.62-1-1.06-1-.2,0-.75,0-1,1a1.87,1.87,0,0,1-2,1.6h-.9a2.53,2.53,0,0,1-2-.52,2.21,2.21,0,0,1-.51-1.69V10.84a1.31,1.31,0,0,1,0-.28v-.43h0a3,3,0,0,1-1.61-.34h0a2.18,2.18,0,0,1-.94-1.86V7.75a2.07,2.07,0,0,1,.92-1.59,2.28,2.28,0,0,1,1.63-.33V1.19l1.34.1a11.18,11.18,0,0,1,7.8,3.79,11.28,11.28,0,0,1,2.85,6.74v.11a3.09,3.09,0,0,1,0,.43,1.62,1.62,0,0,1-1.53,1.72,1.71,1.71,0,0,1-.32,0h-.18A3.86,3.86,0,0,1,52.62,14.16Zm-3-3.16c.57,0,1.26.21,1.53,1.41a1.5,1.5,0,0,0,1.7,1.27,1.67,1.67,0,0,0,.3-.08h.28a1.14,1.14,0,0,0,1.32-.93,1.31,1.31,0,0,0,0-.28,2.16,2.16,0,0,0,0-.36v-.14A10.61,10.61,0,0,0,52,5.42a10.62,10.62,0,0,0-7.46-3.63l-.8-.06V6.48l-.32-.1a1.83,1.83,0,0,0-1.53.2,1.51,1.51,0,0,0-.7,1.19v.12a1.65,1.65,0,0,0,.68,1.42,2.36,2.36,0,0,0,1.56.25l.26-.06v1a1,1,0,0,0,0,.25V11.9a1.68,1.68,0,0,0,.37,1.33c.37.38.8.39,1.67.38h.9a1.37,1.37,0,0,0,1.49-1.2A1.54,1.54,0,0,1,49.61,11Zm3,2.17c-.38,0-.79-.16-1-.87a2,2,0,0,0-2-1.8h0a2,2,0,0,0-2,1.79.88.88,0,0,1-.95.82h-1c-.72,0-1.07,0-1.3-.23s-.23-.56-.22-1.24V9.59q0-.55-.12-.63a1,1,0,0,0-.7.09,2,2,0,0,1-1.29-.17,1.32,1.32,0,0,1-.43-1.07,1.09,1.09,0,0,1,.5-.81,1.39,1.39,0,0,1,1.16-.12h0c.16.06.66.23.78.14s.13-.32.13-.78v-4h.27a10.09,10.09,0,0,1,7.12,3.47,10.28,10.28,0,0,1,2.61,6.15V12a1,1,0,0,1-.16.86.68.68,0,0,1-.59.18h-.42a2.42,2.42,0,0,1-.46.13Zm-3-3.17a2.49,2.49,0,0,1,2.5,2.18c.13.57.37.53.85.44a2.53,2.53,0,0,1,.55,0h.2a3.32,3.32,0,0,0,0-.46V12a9.58,9.58,0,0,0-2.49-5.85A9.61,9.61,0,0,0,44.72,2.8V6.19c0,.6-.06,1-.34,1.19s-.66.12-1.23-.07h0a.85.85,0,0,0-.73.06.56.56,0,0,0-.25.44.86.86,0,0,0,.18.6,1.4,1.4,0,0,0,.9.12c.54-.15.88-.2,1.14,0s.3.53.32,1v2.08a2.18,2.18,0,0,0,.07.88,2.29,2.29,0,0,0,.94.08h.94c.33,0,.41-.06.5-.43A2.46,2.46,0,0,1,49.6,10Z"/><path class="cls-1" d="M30.58,25.87a8.13,8.13,0,0,1,2.59,4.44,2,2,0,0,0,.43,1h-.32a2.92,2.92,0,0,0-1.61,1.34,2.68,2.68,0,0,0-.1,2.42,2.39,2.39,0,0,0,.79.85h1.31l.13.59A4.39,4.39,0,0,0,34.4,38a4.05,4.05,0,0,0,3.49,1.86h.31a3.9,3.9,0,0,0,3.72-3.45v-.46a2.1,2.1,0,0,0,1.65-.46h0a2.29,2.29,0,0,0,.42-1.7v-.25c0-1.57-.4-2.07-1.82-2.14v-.17l.18-.69a11.83,11.83,0,0,1,.4-1.32,8.57,8.57,0,0,1,2.08-3c.14-.13.26-.26.37-.38a16,16,0,0,0,3.43-6.29L49,18.24H45.37a2.3,2.3,0,0,0,.05-.45A2.64,2.64,0,0,0,45,16.13a1.48,1.48,0,0,0-1.27-.55,1.64,1.64,0,0,0-1.33.55,2.66,2.66,0,0,0-.47,1.5,1.77,1.77,0,0,0,0,.46H38.15V14.61l-.74-.21c-1.73-.48-1.89-1-1.89-1.41v-.16c0-.39,0-1,1.75-1.36l.72-.14.1-.85a3.73,3.73,0,0,1,.06-.82V6.21L37,6.38a14.21,14.21,0,0,0-3.21.85,10.51,10.51,0,0,0-3.88,2.44,11.1,11.1,0,0,0-1,1.16,12,12,0,0,0-2.22,6.65,9.39,9.39,0,0,0,.08,1.19A13.43,13.43,0,0,0,30.58,25.87Zm7.55,12.91a3.08,3.08,0,0,1-3.35-2.53h6.14A2.92,2.92,0,0,1,38.13,38.78Zm4.94-5.33c0,1.45,0,1.43-1.43,1.42H33.19a5,5,0,0,1-.56-.09,17.7,17.7,0,0,1,0-2.06c0-.18.41-.45.63-.46h8.55C43.06,32.26,43.06,32.25,43.07,33.45Zm-13.3-22a9.79,9.79,0,0,1,.88-1,9.61,9.61,0,0,1,3.51-2.2,14.11,14.11,0,0,1,3-.79V10a4.26,4.26,0,0,1-.06.5c-1.69.31-2.51,1-2.56,2.3s.67,2,2.63,2.57v2.78c0,.65.26,1,.94,1h4c.86,0,1-.35.8-1.17a1.62,1.62,0,0,1,.25-1.21,1,1,0,0,1,1,0A1.7,1.7,0,0,1,44.42,18c-.19.85,0,1.15.82,1.17s1.67,0,2.59,0A14.64,14.64,0,0,1,44.59,25a10.55,10.55,0,0,0-2.65,3.75c-.25.68-.4,1.39-.6,2.09H35a.76.76,0,0,1-.87-.73,9.07,9.07,0,0,0-2.89-5,12.31,12.31,0,0,1-3.45-6.59,10.67,10.67,0,0,1,2-7.11Z"/><path class="cls-1" d="M37.89,40a4.27,4.27,0,0,1-3.7-2,4.57,4.57,0,0,1-.63-1.55l-.09-.39H32.23a2.44,2.44,0,0,1-.88-1,2.92,2.92,0,0,1,.1-2.65A3.21,3.21,0,0,1,33.15,31a2.73,2.73,0,0,1-.23-.68A7.82,7.82,0,0,0,30.41,26h0l.17-.18L30.4,26a13.59,13.59,0,0,1-3.83-7.35,9.87,9.87,0,0,1-.08-1.22,12.38,12.38,0,0,1,2.27-6.8,11.33,11.33,0,0,1,1-1.18,10.65,10.65,0,0,1,4-2.5A14.42,14.42,0,0,1,37,6.13l1.44-.21V9.66l-.06.84-.12,1-.9.18c-1.51.28-1.53.78-1.55,1.11V13c0,.26,0,.7,1.71,1.17l.92.26v3.43h3.23v-.21A2.92,2.92,0,0,1,42.15,16a1.9,1.9,0,0,1,1.53-.65,1.73,1.73,0,0,1,1.48.66,3,3,0,0,1,.51,1.65.67.67,0,0,1,0,.2H49.5L49,19.45a16.32,16.32,0,0,1-3.49,6.39,4.68,4.68,0,0,1-.38.39,8.48,8.48,0,0,0-2,2.95,9.93,9.93,0,0,0-.32,1.06l-.22.8c1.31.14,1.74.76,1.75,2.37v.25a2.51,2.51,0,0,1-.49,1.87h0a2,2,0,0,1-1.6.54v.23a4.17,4.17,0,0,1-4,3.68h-.33Zm-5.45-4.42h1.43l.17.79a4.29,4.29,0,0,0,.57,1.38,3.81,3.81,0,0,0,3.28,1.75h.31a3.65,3.65,0,0,0,3.47-3.22v-.69H42c.74,0,1.15-.06,1.47-.38l.06-.06c.32-.34.34-.8.34-1.52v-.25c0-1.46-.32-1.83-1.58-1.89H42l.38-1.39a10.52,10.52,0,0,1,.3-1.1,8.68,8.68,0,0,1,2.13-3.12l.37-.38a15.68,15.68,0,0,0,3.37-6.19l.29-1H45.06l.07-.29a2.67,2.67,0,0,0,0-.4,2.45,2.45,0,0,0-.42-1.36,1.22,1.22,0,0,0-1.07-.45,1.41,1.41,0,0,0-1.13.45,2.42,2.42,0,0,0-.42,1.35,1.41,1.41,0,0,0,0,.41v.29h-4.2V14.8l-.56-.16c-1.72-.48-2.07-1-2.07-1.65v-.16c0-.66.29-1.29,2-1.61l.54-.1.08-.67.06-.81V6.5L37,6.63a13.89,13.89,0,0,0-3.16.83A10.31,10.31,0,0,0,30.1,9.85,9.43,9.43,0,0,0,29.16,11,11.69,11.69,0,0,0,27,17.48a8.92,8.92,0,0,0,.08,1.16,13,13,0,0,0,3.68,7.05l-.17.18.17-.18a8.35,8.35,0,0,1,2.67,4.57,1.83,1.83,0,0,0,.37.84l.36.41h-.83a2.7,2.7,0,0,0-1.43,1.21,2.4,2.4,0,0,0-.1,2.18,1.93,1.93,0,0,0,.64.72ZM37.89,39a3.35,3.35,0,0,1-3.35-2.74l-.07-.3h6.72v.27a3.17,3.17,0,0,1-3,2.76h-.3ZM35.1,36.5a2.84,2.84,0,0,0,3,2,2.74,2.74,0,0,0,2.52-2ZM42,35.12H33.19a1.4,1.4,0,0,1-.41-.06l-.4-.07v-.8a12.51,12.51,0,0,1,0-1.5c0-.34.57-.67.87-.68h8.56c1.36,0,1.47.11,1.48,1.44h0c0,.79,0,1.18-.25,1.43S42.55,35.12,42,35.12Zm-3.16-.5h2.82a2.64,2.64,0,0,0,1.08-.09,2.79,2.79,0,0,0,.1-1.08c0-.93,0-.94-.93-.94h-8.6a.73.73,0,0,0-.39.26v1.8h5.94ZM35,31.09a1,1,0,0,1-1.09-.9v0a8.76,8.76,0,0,0-2.81-4.85,12.42,12.42,0,0,1-3.53-6.74,10.93,10.93,0,0,1,2-7.3h0a10.3,10.3,0,0,1,.9-1.08,10,10,0,0,1,3.6-2.25,14.78,14.78,0,0,1,3-.81h.29V10a2.54,2.54,0,0,1,0,.39v.32h-.18c-1.56.28-2.31.94-2.35,2.06s.36,1.74,2.45,2.32l.18,0v2.93a.58.58,0,0,0,.4.7.71.71,0,0,0,.29,0h4c.31,0,.51,0,.58-.15a1.13,1.13,0,0,0,0-.71A1.87,1.87,0,0,1,43,16.57a1.14,1.14,0,0,1,1.38,0A1.94,1.94,0,0,1,44.63,18c-.05.25-.11.59,0,.72s.27.14.6.15h2.92l-.1.32a15.18,15.18,0,0,1-3.27,6l-.37.4a9.07,9.07,0,0,0-2.23,3.27c-.16.44-.28.91-.4,1.37-.06.23-.12.47-.19.7v.18H35.1ZM30,11.55a10.57,10.57,0,0,0-1.91,7A12.14,12.14,0,0,0,31.46,25a9.46,9.46,0,0,1,3,5.12c.08.42.19.54.62.53h6.13c0-.17.09-.34.13-.5a12.52,12.52,0,0,1,.43-1.43A9.53,9.53,0,0,1,44,25.21c.13-.14.26-.27.36-.39a14.35,14.35,0,0,0,3.06-5.48H45.16a1.24,1.24,0,0,1-1-.34,1.36,1.36,0,0,1-.08-1.13,1.53,1.53,0,0,0-.22-1,1.18,1.18,0,0,0-.59,0,1.45,1.45,0,0,0-.19,1,1.35,1.35,0,0,1,0,1.13,1.2,1.2,0,0,1-1,.35h-4a1,1,0,0,1-1.19-.88.92.92,0,0,1,0-.33V15.55c-1.9-.55-2.67-1.38-2.62-2.77s.9-2.15,2.59-2.5V7.66a15.17,15.17,0,0,0-2.66.73,9.36,9.36,0,0,0-3.42,2.15A7,7,0,0,0,30,11.55Z"/></svg>