<svg id="Layer_1" data-name="Layer 1" xmlns="http://www.w3.org/2000/svg" viewBox="0 0 65 66"><defs><style>.cls-1{fill:#bd8100;}</style></defs><path class="cls-1" d="M64,48.26a3.62,3.62,0,0,0-3.28-3.13,4.17,4.17,0,0,0-1.69.23l-3.54,1.15c-3.4,1.09-6.92,2.22-10.34,3.5a3.65,3.65,0,0,0,.34-1.46,3,3,0,0,0-.82-2.16,3.31,3.31,0,0,0-2.37-1h-.69c-2.51,0-5.1,0-7.66,0a6.27,6.27,0,0,1-4-1.3C28.43,43,27,42,25.49,40.9c-1.3-.93-2.6-1.86-3.89-2.81A6.84,6.84,0,0,0,17,36.63a13.21,13.21,0,0,1-1.78,0,2,2,0,0,0-1.19.23L14,36H14a3.23,3.23,0,0,0-3.24-3.34c-1.85-.05-3.75-.05-5.65,0a3.2,3.2,0,0,0-3.19,2.94,9.24,9.24,0,0,0-.05,1.16V55.79A9.32,9.32,0,0,0,1.87,57a3.2,3.2,0,0,0,3.19,2.93c.92,0,1.85,0,2.77,0s1.93,0,2.88,0A3.24,3.24,0,0,0,14,56.52c0-.33,0-.65,0-1v-.81a1.6,1.6,0,0,0,1.06.18c2.06-.27,3.75.75,5.55,1.82l.61.37,4.39,2.56,3.77,2.19a5.44,5.44,0,0,0,2.77.78,5.64,5.64,0,0,0,2-.38L37.4,61c4.52-1.72,12.08-4.58,16.23-5.92l1-.31,2.53-1,.84-.31,1.17-.42c.86-.31,1.72-.62,2.56-1A3.59,3.59,0,0,0,64,48.26ZM13,55.53c0,.32,0,.64,0,1a2.24,2.24,0,0,1-2.27,2.39c-1.87,0-3.73,0-5.6,0a2.2,2.2,0,0,1-2.22-2.06,8.48,8.48,0,0,1,0-1.13c0-3,0-6.09,0-9.13V46q0-4.58,0-9.13a8.48,8.48,0,0,1,0-1.13,2.21,2.21,0,0,1,2.22-2.07c1.87,0,3.73,0,5.6,0A2.24,2.24,0,0,1,13,36c0,.32,0,.65,0,1,0,.13,0,.27,0,.44V52.55C13,53.55,13,54.54,13,55.53ZM61.32,51.2c-1.22.49-2.47.92-3.7,1.38v0l-3.38,1.31-.91.29c-5.44,1.76-16.48,6-19.52,7.16A4.39,4.39,0,0,1,29.86,61c-2.71-1.59-5.45-3.15-8.16-4.75-2.11-1.25-4.14-2.67-6.8-2.32-.69.09-.71-.44-.71-.93,0-4.82,0-9.63,0-14.44,0-.65.19-1,.91-.93a13.66,13.66,0,0,0,1.92,0,5.84,5.84,0,0,1,4,1.27c2.74,2,5.54,4,8.29,6a7.22,7.22,0,0,0,4.63,1.5c2.77,0,5.55,0,8.32,0a2.1,2.1,0,0,1,2.2,2.12,1.89,1.89,0,0,1-2.18,2c-3.62-.06-7.24,0-10.86,0a1.78,1.78,0,0,0-.77,0c-.25.13-.56.42-.57.64s.36.45.61.58a1.74,1.74,0,0,0,.69,0H40.3a13.11,13.11,0,0,0,4.84-.76c4.66-1.75,9.43-3.2,14.16-4.75a3.32,3.32,0,0,1,1.28-.19A2.62,2.62,0,0,1,63,48.42,2.58,2.58,0,0,1,61.32,51.2Z"/><path class="cls-1" d="M32.12,62.88a5.71,5.71,0,0,1-2.9-.81l-3.77-2.19-1.28-.75-3.11-1.81-.66-.41c-1.74-1-3.39-2-5.34-1.75a2,2,0,0,1-.84,0v.43c0,.32,0,.64,0,1a3.48,3.48,0,0,1-3.48,3.63c-1.86,0-3.77,0-5.67,0A3.44,3.44,0,0,1,1.62,57a9.8,9.8,0,0,1-.05-1.19V36.72a9.72,9.72,0,0,1,.05-1.19,3.45,3.45,0,0,1,3.43-3.16c2,0,3.88,0,5.67,0a3.44,3.44,0,0,1,3.47,3.34h0l0,.26,0,.49a2.45,2.45,0,0,1,.95-.09,12.63,12.63,0,0,0,1.74,0,7.09,7.09,0,0,1,4.82,1.51q1.89,1.39,3.8,2.74l.14.11c1.45,1,2.91,2.09,4.35,3.16a6,6,0,0,0,3.87,1.25c2.55,0,5.13,0,7.62,0h.73a3.56,3.56,0,0,1,2.55,1.07,3.2,3.2,0,0,1,.89,2.34,4.18,4.18,0,0,1-.16,1c3.32-1.22,6.77-2.33,9.83-3.31l1.78-.58c.59-.18,1.17-.37,1.76-.57a4.5,4.5,0,0,1,1.79-.24,3.86,3.86,0,0,1,3.51,3.34h0a3.83,3.83,0,0,1-2.43,4.14c-.87.35-1.77.68-2.57,1l-2,.72-2.53,1-.4.13-.57.19c-4,1.29-11.18,4-16.22,5.91l-3.26,1.22A5.76,5.76,0,0,1,32.12,62.88ZM15.7,54.62c1.81,0,3.34.91,4.95,1.86l.67.41,3.1,1.81,1.29.74,3.77,2.19a5.2,5.2,0,0,0,4.57.39l3.26-1.22c5-1.93,12.23-4.63,16.24-5.93l.58-.18.38-.13L59,52.85c.8-.28,1.7-.6,2.56-1a3.36,3.36,0,0,0,2.11-3.6h0a3.36,3.36,0,0,0-3.05-2.92,3.88,3.88,0,0,0-1.59.22l-1.77.57-1.77.58c-3.22,1-6.86,2.2-10.33,3.49l-.58.22.26-.56a3.32,3.32,0,0,0,.32-1.36,2.7,2.7,0,0,0-.75-2,3.06,3.06,0,0,0-2.19-.91h-.69c-2.53,0-5.11,0-7.65,0a6.56,6.56,0,0,1-4.18-1.35c-1.44-1.07-2.89-2.11-4.34-3.16l-.14-.1c-1.27-.91-2.55-1.82-3.81-2.75A6.59,6.59,0,0,0,17,36.88a13.81,13.81,0,0,1-1.82,0,1.73,1.73,0,0,0-1,.2l-.4.23,0-1.14L13.7,36a3,3,0,0,0-3-3.1c-1.77-.05-3.67-.05-5.63,0a3,3,0,0,0-2.95,2.72,8.7,8.7,0,0,0-.05,1.13V55.79a8.85,8.85,0,0,0,.05,1.13,3,3,0,0,0,3,2.71c1.88,0,3.79,0,5.63,0a3,3,0,0,0,3-3.12c0-.34,0-.65,0-1V54.3l.37.21a1.38,1.38,0,0,0,.9.15A5.85,5.85,0,0,1,15.7,54.62Zm16.42,7.27a4.75,4.75,0,0,1-2.39-.68c-1.22-.72-2.45-1.44-3.69-2.15l-4.47-2.6L21,56.11c-1.92-1.16-3.73-2.26-6.06-1.94a.87.87,0,0,1-.7-.17,1.29,1.29,0,0,1-.29-1V48.17c0-3.21,0-6.41,0-9.62a1.25,1.25,0,0,1,.3-.95,1.13,1.13,0,0,1,.88-.23,13.06,13.06,0,0,0,1.88,0,6.07,6.07,0,0,1,4.16,1.32c1.34,1,2.71,2,4.07,2.94s2.82,2,4.22,3.06a7.12,7.12,0,0,0,4.47,1.45c2.48,0,5,0,7.44,0h.89a2.51,2.51,0,0,1,1.83.76,2.2,2.2,0,0,1,.62,1.62,2.13,2.13,0,0,1-2.36,2.26h-.07c-2.65,0-5.34,0-8,0H31.17a.89.89,0,0,0-.41,0c-.23.12-.44.35-.44.43a1.62,1.62,0,0,0,.48.35.84.84,0,0,0,.32,0H40.3a13.11,13.11,0,0,0,4.75-.74c3.48-1.31,7.08-2.47,10.57-3.59l3.6-1.17a3.51,3.51,0,0,1,1.38-.2,2.88,2.88,0,0,1,2.62,2.51,2.82,2.82,0,0,1-1.8,3h0c-.8.32-1.63.63-2.43.92l-1.27.46-.15.06,0,0L54.32,54.1l-.92.3c-4.26,1.38-12,4.29-16.56,6l-3,1.11A5,5,0,0,1,32.12,61.89ZM15.71,53.62c2.11,0,3.85,1,5.54,2.06l.58.35,4.46,2.6L30,60.77a4.08,4.08,0,0,0,3.72.32l3-1.12c4.6-1.74,12.3-4.67,16.57-6l.92-.29,3.7-1.44v0l1-.34c.8-.29,1.62-.59,2.42-.91a2.32,2.32,0,0,0,1.49-2.51,2.36,2.36,0,0,0-2.16-2.09,3.05,3.05,0,0,0-1.18.18l-3.61,1.17C52.29,48.83,48.7,50,45.23,51.29a13.37,13.37,0,0,1-4.93.78H31.17a1,1,0,0,1-.6-.06c-.23-.11-.75-.43-.75-.8s.44-.72.7-.86a1.35,1.35,0,0,1,.68-.08h3.12c2.61,0,5.3,0,8,0h.07a1.63,1.63,0,0,0,1.86-1.78,1.69,1.69,0,0,0-.48-1.26,2.07,2.07,0,0,0-1.47-.6h-.89c-2.44,0-5,0-7.43,0a7.56,7.56,0,0,1-4.78-1.55c-1.4-1-2.8-2-4.21-3.05s-2.73-1.95-4.08-2.95A5.61,5.61,0,0,0,17,37.88a14.19,14.19,0,0,1-2,0,.68.68,0,0,0-.5.1.83.83,0,0,0-.14.58c0,3.21,0,6.41,0,9.62V53c0,.21,0,.53.12.64a.41.41,0,0,0,.31,0A6.1,6.1,0,0,1,15.71,53.62ZM7.88,59.16c-.94,0-1.87,0-2.81,0a2.45,2.45,0,0,1-2.46-2.28,8.36,8.36,0,0,1,0-1v-.16c0-3,0-6.09,0-9.13V46q0-4.58,0-9.13v-.16a8.36,8.36,0,0,1,0-1,2.45,2.45,0,0,1,2.46-2.29c2,0,3.8,0,5.62,0A2.47,2.47,0,0,1,13.2,36c0,.33,0,.66,0,1v.2a1.77,1.77,0,0,0,0,.24V52.55c0,.4,0,.79,0,1.19,0,.6,0,1.19,0,1.79,0,.32,0,.64,0,1a2.48,2.48,0,0,1-2.51,2.63C9.75,59.15,8.82,59.16,7.88,59.16ZM7.73,33.84l-2.64,0a2,2,0,0,0-2,1.85,7.16,7.16,0,0,0,0,.94v.16q0,4.56,0,9.13v.61c0,3,0,6.09,0,9.13v.16a7.16,7.16,0,0,0,0,.94,1.94,1.94,0,0,0,2,1.84c1.85,0,3.73,0,5.58,0a2,2,0,0,0,2-2.14c0-.32,0-.64,0-1h0c0-.6,0-1.19,0-1.78,0-.4,0-.8,0-1.2V37.41a2.17,2.17,0,0,1,0-.26V37c0-.31,0-.64,0-.95a2,2,0,0,0-2-2.14C9.7,33.85,8.73,33.84,7.73,33.84Z"/><path class="cls-1" d="M41.73,9.53a2.61,2.61,0,0,0,1.73.27,1.28,1.28,0,0,1,0,.19c0,.09,0,.18,0,.27v.28a2.53,2.53,0,0,0,0,.28v.81c0,.09,0,.18,0,.27a1.93,1.93,0,0,0,.44,1.51c.46.46,1,.46,1.85.45h.9a1.63,1.63,0,0,0,1.73-1.4c.27-1.2,1-1.21,1.23-1.21.47,0,1,.13,1.29,1.22a1.66,1.66,0,0,0,1.72,1.44,2.91,2.91,0,0,0,.57-.06l.23,0a1.39,1.39,0,0,0,1.19-.4A1.47,1.47,0,0,0,55,12.36,2.37,2.37,0,0,0,55,12v-.11a10.94,10.94,0,0,0-2.79-6.59,10.85,10.85,0,0,0-7.63-3.71l-1.07-.08V6.14a2.08,2.08,0,0,0-1.74.23,1.79,1.79,0,0,0-.81,1.38v.14A1.91,1.91,0,0,0,41.73,9.53Zm1.5-2.42c1,.35,1.23.22,1.24-.88s0-2.38,0-3.7a9.84,9.84,0,0,1,7,3.39,9.92,9.92,0,0,1,2.55,6c0,.37.18,1-.47.9s-1.37.51-1.62-.58a2.25,2.25,0,0,0-2.28-2,2.22,2.22,0,0,0-2.19,2c-.11.46-.28.63-.75.62-2.55,0-2.15.35-2.19-2,0-.41,0-.82,0-1.23,0-.94-.22-1-1.14-.77a1.63,1.63,0,0,1-1.1-.15,1,1,0,0,1-.3-.83A.93.93,0,0,1,43.23,7.11Z"/><path class="cls-1" d="M52.62,14.16a1.89,1.89,0,0,1-2-1.63c-.21-.92-.62-1-1.06-1-.2,0-.75,0-1,1a1.87,1.87,0,0,1-2,1.6h-.9a2.53,2.53,0,0,1-2-.52,2.21,2.21,0,0,1-.51-1.69.76.76,0,0,1,0-.15v-.93a2.27,2.27,0,0,1,0-.28v-.28a.76.76,0,0,1,0-.15v0a3,3,0,0,1-1.61-.34h0a2.17,2.17,0,0,1-.94-1.86V7.75a2.07,2.07,0,0,1,.92-1.59,2.26,2.26,0,0,1,1.63-.33V1.19l1.34.1a11.15,11.15,0,0,1,7.8,3.79,11.28,11.28,0,0,1,2.85,6.74v.11a2.39,2.39,0,0,1,0,.43,1.63,1.63,0,0,1-1.85,1.71h-.08l-.1,0A3.05,3.05,0,0,1,52.62,14.16Zm-3-3.16c.57,0,1.26.21,1.53,1.41a1.5,1.5,0,0,0,2,1.19h.09l.19,0a1.14,1.14,0,0,0,1.33-1.21,1.79,1.79,0,0,0,0-.36v-.14A10.66,10.66,0,0,0,52,5.42a10.6,10.6,0,0,0-7.46-3.63l-.8-.06V6.48l-.32-.1a1.81,1.81,0,0,0-1.53.2,1.53,1.53,0,0,0-.7,1.19v.12a1.66,1.66,0,0,0,.68,1.42,2.38,2.38,0,0,0,1.56.25l.26-.06,0,.27a1.7,1.7,0,0,1,0,.22.76.76,0,0,1,0,.15v.4a2,2,0,0,0,0,.25v.84a.76.76,0,0,1,0,.15v.12a1.69,1.69,0,0,0,.37,1.33c.37.38.8.39,1.67.38h.9a1.38,1.38,0,0,0,1.49-1.2A1.53,1.53,0,0,1,49.61,11Zm3,2.17c-.38,0-.79-.16-1-.87a2,2,0,0,0-2-1.8h0a2,2,0,0,0-2,1.79.89.89,0,0,1-1,.82h-.91c-.72,0-1.07,0-1.3-.23s-.23-.56-.22-1.24c0-.23,0-.5,0-.83s0-.41,0-.61V9.59q0-.55-.12-.63c-.1-.08-.55,0-.7.09a1.94,1.94,0,0,1-1.29-.17,1.28,1.28,0,0,1-.43-1.07A1.09,1.09,0,0,1,42.15,7a1.37,1.37,0,0,1,1.16-.12h0c.16.06.66.23.78.14s.13-.32.13-.78c0-.79,0-1.57,0-2.39V2.26l.27,0a10.12,10.12,0,0,1,7.12,3.47,10.25,10.25,0,0,1,2.61,6.15V12a1,1,0,0,1-.16.86.69.69,0,0,1-.59.18,2.19,2.19,0,0,0-.42,0A2.23,2.23,0,0,1,52.59,13.17Zm-3-3.17a2.49,2.49,0,0,1,2.5,2.18c.13.57.37.53.85.44a2.05,2.05,0,0,1,.55,0c.12,0,.18,0,.2,0s0-.31,0-.46l0-.14a9.63,9.63,0,0,0-2.49-5.85A9.58,9.58,0,0,0,44.72,2.8v1c0,.82,0,1.61,0,2.39,0,.6-.06,1-.34,1.19s-.66.12-1.23-.07h0a.84.84,0,0,0-.73.06.54.54,0,0,0-.25.44.87.87,0,0,0,.18.6,1.42,1.42,0,0,0,.9.12c.54-.15.88-.2,1.14,0s.3.53.32,1v.63c0,.2,0,.4,0,.6s0,.61,0,.85a2.18,2.18,0,0,0,.07.88,2.38,2.38,0,0,0,.94.08h.94c.33,0,.41-.06.5-.43A2.46,2.46,0,0,1,49.6,10Z"/><path class="cls-1" d="M30.58,25.87a8.07,8.07,0,0,1,2.59,4.44,2,2,0,0,0,.43,1h-.32a2.94,2.94,0,0,0-1.61,1.34,2.69,2.69,0,0,0-.1,2.42,2.35,2.35,0,0,0,.79.85h1.31l.13.59a4.38,4.38,0,0,0,.6,1.47,4.06,4.06,0,0,0,3.49,1.86h.31a3.91,3.91,0,0,0,3.72-3.45l0-.46a2.1,2.1,0,0,0,1.65-.46l0,0a2.3,2.3,0,0,0,.42-1.7v-.25c0-1.57-.4-2.07-1.82-2.14l0-.17.18-.69a13.75,13.75,0,0,1,.4-1.32,8.5,8.5,0,0,1,2.08-3c.14-.13.26-.26.37-.38a16,16,0,0,0,3.43-6.29l.39-1.29H45.37a2.14,2.14,0,0,0,.05-.45A2.67,2.67,0,0,0,45,16.13a1.47,1.47,0,0,0-1.27-.55,1.62,1.62,0,0,0-1.33.55,2.66,2.66,0,0,0-.47,1.5,2.31,2.31,0,0,0,0,.46c-.63,0-1.25,0-1.88,0h-1.9c0-.38,0-.76,0-1.13V14.61l-.74-.21c-1.73-.48-1.89-1-1.89-1.41v-.16c0-.39,0-1,1.75-1.36l.72-.14.1-.85c0-.23,0-.6.06-.82V6.21L37,6.38a14.46,14.46,0,0,0-3.21.85,10.5,10.5,0,0,0-3.88,2.44,11.4,11.4,0,0,0-1,1.16,12,12,0,0,0-2.22,6.65,9.77,9.77,0,0,0,.08,1.19A13.44,13.44,0,0,0,30.58,25.87Zm7.55,12.91a3.09,3.09,0,0,1-3.35-2.53h6.14A2.93,2.93,0,0,1,38.13,38.78Zm4.94-5.33c0,1.45,0,1.43-1.43,1.42H33.19a3.62,3.62,0,0,1-.56-.09,19.84,19.84,0,0,1,0-2.06c0-.18.41-.45.63-.46,2.85,0,5.7,0,8.55,0C43.06,32.26,43.06,32.25,43.07,33.45Zm-13.3-22a9.36,9.36,0,0,1,.88-1.05,9.59,9.59,0,0,1,3.51-2.2,14.22,14.22,0,0,1,3-.79c0,1,0,1.84,0,2.62a4,4,0,0,1-.06.5c-1.69.31-2.51,1-2.56,2.3s.67,2,2.63,2.57c0,.92,0,1.85,0,2.78,0,.65.26,1,.94,1,1.34,0,2.68,0,4,0,.86,0,1-.35.8-1.17a1.66,1.66,0,0,1,.25-1.21,1,1,0,0,1,1,0,1.7,1.7,0,0,1,.26,1.22c-.19.85,0,1.15.82,1.17s1.67,0,2.59,0A14.68,14.68,0,0,1,44.59,25a10.62,10.62,0,0,0-2.65,3.75c-.25.68-.4,1.39-.6,2.09-2.13,0-4.22,0-6.32,0-.56,0-.77-.23-.87-.73a9.08,9.08,0,0,0-2.89-5,12.29,12.29,0,0,1-3.45-6.59A10.67,10.67,0,0,1,29.77,11.41Z"/><path class="cls-1" d="M37.89,40a4.28,4.28,0,0,1-3.7-2,4.56,4.56,0,0,1-.63-1.55l-.09-.39H32.29l-.06,0a2.43,2.43,0,0,1-.88-.95,2.92,2.92,0,0,1,.1-2.65A3.19,3.19,0,0,1,33.15,31a2.72,2.72,0,0,1-.23-.68,7.82,7.82,0,0,0-2.51-4.31h0l.17-.18-.18.18a13.66,13.66,0,0,1-3.83-7.35,11.29,11.29,0,0,1-.08-1.22,12.31,12.31,0,0,1,2.27-6.8,11.53,11.53,0,0,1,1-1.18,10.59,10.59,0,0,1,4-2.5A14.28,14.28,0,0,1,37,6.13l1.44-.21V9.66l-.06.84-.12,1-.9.18c-1.51.28-1.53.78-1.55,1.11V13c0,.26,0,.7,1.71,1.17l.92.26v3.43h1.64c.54,0,1.06,0,1.59,0a1.48,1.48,0,0,1,0-.21A2.91,2.91,0,0,1,42.15,16a1.88,1.88,0,0,1,1.53-.65,1.71,1.71,0,0,1,1.48.66,2.93,2.93,0,0,1,.51,1.65,1.27,1.27,0,0,1,0,.2h3.83L49,19.45a16.26,16.26,0,0,1-3.49,6.39,4.55,4.55,0,0,1-.38.39,8.43,8.43,0,0,0-2,2.95,10.15,10.15,0,0,0-.32,1.06l-.22.8c1.31.14,1.74.76,1.75,2.37v.25a2.52,2.52,0,0,1-.49,1.87l0,0a2.05,2.05,0,0,1-1.6.54v.23a4.16,4.16,0,0,1-4,3.68h-.33Zm-5.45-4.42h1.43l.17.79a4.37,4.37,0,0,0,.57,1.38,3.8,3.8,0,0,0,3.28,1.75h.31a3.66,3.66,0,0,0,3.47-3.22l0-.69H42c.74,0,1.15-.06,1.47-.38l.06-.06c.32-.34.34-.8.34-1.52v-.25c0-1.46-.32-1.83-1.58-1.89l-.32,0,.38-1.39A11.11,11.11,0,0,1,42.65,29a8.7,8.7,0,0,1,2.13-3.12l.37-.38a15.76,15.76,0,0,0,3.37-6.19l.29-1H45.06l.07-.29a1.87,1.87,0,0,0,0-.4,2.46,2.46,0,0,0-.42-1.36,1.24,1.24,0,0,0-1.07-.45,1.4,1.4,0,0,0-1.13.45,2.42,2.42,0,0,0-.42,1.35,1.53,1.53,0,0,0,0,.41l0,.29h-.3c-.63,0-1.25,0-1.88,0H37.89v-.26c0-.37,0-.75,0-1.12V14.8l-.56-.16c-1.72-.48-2.07-1-2.07-1.65v-.16c0-.66.29-1.29,1.95-1.61l.54-.1.08-.67.06-.81V6.5l-.86.13a13.89,13.89,0,0,0-3.16.83A10.31,10.31,0,0,0,30.1,9.85,9.58,9.58,0,0,0,29.16,11,11.76,11.76,0,0,0,27,17.48a10.29,10.29,0,0,0,.08,1.16,13,13,0,0,0,3.68,7.05l-.17.18.17-.18a8.33,8.33,0,0,1,2.67,4.57,1.8,1.8,0,0,0,.37.84l.36.41h-.83a2.7,2.7,0,0,0-1.43,1.21,2.41,2.41,0,0,0-.1,2.18A2,2,0,0,0,32.44,35.62ZM37.89,39a3.35,3.35,0,0,1-3.35-2.74l-.07-.3h6.72l0,.27a3.17,3.17,0,0,1-3,2.76h-.26ZM35.1,36.5a2.84,2.84,0,0,0,3,2,2.73,2.73,0,0,0,2.52-2ZM42,35.12H33.19a1.76,1.76,0,0,1-.41-.06l-.4-.07v-.21c0-.2,0-.39,0-.59a14.79,14.79,0,0,1,0-1.5c0-.34.57-.67.87-.68h8.56c1.36,0,1.47.11,1.48,1.44h0c0,.79,0,1.18-.25,1.43S42.55,35.12,42,35.12Zm-3.16-.5h2.82c.59,0,1,0,1.08-.09s.1-.49.1-1.08c0-.93,0-.94-.93-.94h-8.6a.75.75,0,0,0-.39.26c0,.44,0,.91,0,1.42,0,.12,0,.25,0,.38a1.4,1.4,0,0,0,.31,0h5.63ZM35,31.09a1,1,0,0,1-1.09-.93,8.75,8.75,0,0,0-2.81-4.85,12.45,12.45,0,0,1-3.53-6.74,10.92,10.92,0,0,1,2-7.3h0a10.2,10.2,0,0,1,.9-1.08,10,10,0,0,1,3.6-2.25,14.8,14.8,0,0,1,3-.81l.29,0v.29c0,1,0,1.84,0,2.62a2.58,2.58,0,0,1,0,.39l0,.32-.18,0c-1.56.28-2.31.94-2.35,2.06s.36,1.74,2.45,2.32l.18.05V16c0,.7,0,1.4,0,2.11a.57.57,0,0,0,.69.7h2q1,0,2,0c.31,0,.51-.05.58-.15s.07-.34,0-.71A1.87,1.87,0,0,1,43,16.57a1.13,1.13,0,0,1,1.38,0A1.94,1.94,0,0,1,44.63,18c-.05.25-.11.59,0,.72s.27.14.6.15c.54,0,1.09,0,1.66,0h1.26l-.1.32a15.1,15.1,0,0,1-3.27,6l-.37.4a9.08,9.08,0,0,0-2.23,3.27c-.16.44-.28.91-.4,1.37-.06.23-.12.47-.19.7l0,.18h-2c-1.5,0-3,0-4.49,0ZM30,11.55a10.56,10.56,0,0,0-1.91,7,12.11,12.11,0,0,0,3.37,6.43,9.44,9.44,0,0,1,3,5.12c.08.42.19.54.62.53,1.49,0,3,0,4.49,0h1.64c.05-.17.09-.34.13-.5.13-.47.25-1,.43-1.43A9.45,9.45,0,0,1,44,25.21c.13-.14.26-.27.36-.39a14.35,14.35,0,0,0,3.06-5.48h-.57c-.58,0-1.14,0-1.69,0a1.23,1.23,0,0,1-1-.34,1.33,1.33,0,0,1-.08-1.13,1.53,1.53,0,0,0-.22-1,1.19,1.19,0,0,0-.59,0,1.46,1.46,0,0,0-.19,1A1.34,1.34,0,0,1,43.09,19a1.2,1.2,0,0,1-1,.35q-1,0-2,0h-2a1.05,1.05,0,0,1-1.19-1.21c0-.7,0-1.4,0-2.1v-.49C35,15,34.23,14.17,34.28,12.78s.9-2.15,2.59-2.5a2.85,2.85,0,0,0,0-.29c0-.71,0-1.42,0-2.33a15.25,15.25,0,0,0-2.66.73,9.28,9.28,0,0,0-3.42,2.15A7.66,7.66,0,0,0,30,11.55Z"/></svg>