<svg id="Layer_1" data-name="Layer 1" xmlns="http://www.w3.org/2000/svg" viewBox="0 0 65 66"><defs><style>.cls-1{fill:#785eff;}</style></defs><path class="cls-1" d="M32.32,48.63l-3,1.57c-1.31.68-2.62,1.38-4,2a9.51,9.51,0,0,1-3.14.85,12.29,12.29,0,0,1-3.68-.32l-.46-.1a1.14,1.14,0,0,0-1,.14,5.62,5.62,0,0,1-.77.4c-.16.08-.16.15-.08.3.47.87.93,1.76,1.4,2.64.08.14.05.2-.09.27-3.07,1.6-6.12,3.21-9.18,4.82-.22.12-.25,0-.32-.14L.55,46.84c-.1-.18-.3-.38-.24-.54s.32-.21.5-.3l8.8-4.63c.16-.08.21-.06.29.09.5,1,1,1.93,1.52,2.91.07.14.13.14.26.07l1.12-.58a.69.69,0,0,0,.26-.25l6.18-10.42a2.89,2.89,0,0,1,2-1.5A2.47,2.47,0,0,1,23,32h.1V23.79A10,10,0,0,1,24,19.52,12.16,12.16,0,0,1,25.71,17l.67-.84a.36.36,0,0,0,.09-.24V14.6c0-.14,0-.17-.18-.17h-3c-.16,0-.22,0-.22-.21V3.87c0-.17,0-.22.21-.22H39.86c.16,0,.21,0,.21.21V14.23c0,.16,0,.2-.21.2H36.58c-.15,0-.22,0-.19.19a.61.61,0,0,1,0,.19,4.5,4.5,0,0,0,0,1.27,5.26,5.26,0,0,0,.64,1.1l5.9,9.58A2.72,2.72,0,0,1,42.71,30a2.22,2.22,0,0,1-3.13.28,2.46,2.46,0,0,1-.38-.41c-.33-.43-.64-.89-1-1.33L38,28.33v2.76a.31.31,0,0,0,.17.31l9.49,6a9.6,9.6,0,0,1,4.08,5.09c.18.54.38,1.07.57,1.61a.57.57,0,0,0,.23.3l1,.66c.12.08.18,0,.25-.07.53-.86,1.07-1.71,1.59-2.57.08-.13.14-.15.27-.07q4.39,2.76,8.8,5.49c.14.09.17.15.07.31l-8.73,14c-.12.18-.19.19-.37.08l-8.72-5.45c-.16-.09-.19-.16-.08-.32.58-.91,1.15-1.84,1.73-2.76.09-.13.07-.19-.07-.28-.36-.21-.71-.44-1.06-.66a.62.62,0,0,0-.35-.1L34.73,52.6a2.79,2.79,0,0,1-2.62-1.71,2.29,2.29,0,0,1,.25-2.22h0S32.34,48.62,32.32,48.63Zm5.2-2.71-1.27.64v.07a7.56,7.56,0,0,1,2.31,1.9h-.19l-2.27.15a16,16,0,0,0-2.07.16A1.14,1.14,0,0,0,32.94,50a1.3,1.3,0,0,0,.09.39,1.7,1.7,0,0,0,1.66,1.09l12.54.07a.63.63,0,0,1,.38.11c.44.28.88.54,1.31.82.12.08.18.07.26-.06,1.3-2.1,2.61-4.19,3.92-6.29.07-.11.07-.17,0-.24l-1.37-.85a.53.53,0,0,1-.22-.27c-.23-.66-.47-1.31-.69-2a8.44,8.44,0,0,0-3.53-4.48c-2.32-1.48-4.65-2.93-7-4.39l-2.08-1.31c-.05,0-.09-.08-.14-.06s0,.11,0,.17v.64c0,.22,0,.14.1.18a2.19,2.19,0,0,1,1.25,1.31,2.27,2.27,0,0,1-.33,2c-.08.12,0,.15.07.2a2,2,0,0,1,1,1A2.34,2.34,0,0,1,39.31,41c-.23.17-.49.27-.74.44.12.08.23.15.33.23a2,2,0,0,1,.75,1.92,2.39,2.39,0,0,1-1.19,1.79A8.78,8.78,0,0,1,37.52,45.92ZM23.37,39a3.28,3.28,0,0,1-.31-1.23,10.55,10.55,0,0,1-2.2.67l.51-1c.49-1,1-1.93,1.46-2.9a1.16,1.16,0,0,0,0-1.29,1.26,1.26,0,0,0-1.23-.51,1.7,1.7,0,0,0-1.32.89C18.12,37.2,16,40.79,13.86,44.38a.8.8,0,0,1-.35.33c-.45.22-.88.46-1.32.68-.13.06-.16.12-.09.26q1.72,3.27,3.43,6.54c.08.15.14.14.27.07l1.41-.75a.58.58,0,0,1,.32,0l2,.4A8.35,8.35,0,0,0,25,51.19c1.16-.56,2.3-1.17,3.45-1.76l6.83-3.56a13.18,13.18,0,0,0,1.17-.63,11.51,11.51,0,0,0,1.66-.89,1.3,1.3,0,0,0,.44-.64,1.07,1.07,0,0,0-.64-1.37l-.12,0a1.5,1.5,0,0,0-1.1.12l-3.13,1.64-4.12,2.17c-.14.07-.2.06-.27-.09a4.3,4.3,0,0,0-.32-.6c-.07-.12-.05-.19.08-.25l1.92-1L32,43.68h-.13a2.17,2.17,0,0,1-1.52-1.16c-.09-.15-.14-.14-.27,0a2.15,2.15,0,0,1-3-.44,2.73,2.73,0,0,1-.56-1.83c0-.27,0-.27-.22-.15a2.12,2.12,0,0,1-1.87,0A2.45,2.45,0,0,1,23.37,39ZM37,33V27.68a2.51,2.51,0,0,1,.08-.67q.16-.66.33-1.35c.1,0,.12.1.16.16l1.3,1.8c.38.54.76,1.08,1.15,1.61a1.16,1.16,0,0,0,2-.14,1.61,1.61,0,0,0,0-1.74Q38.72,22,35.4,16.6a.63.63,0,0,1-.09-.33V14.68c0-.14,0-.19-.18-.19h-7.4c-.15,0-.18.06-.17.19v1.61a.37.37,0,0,1-.09.28c-.45.56-.88,1.12-1.33,1.66A8.58,8.58,0,0,0,24.37,22a12.35,12.35,0,0,0-.17,2.65V37.72a1.53,1.53,0,0,0,.18.81,1.09,1.09,0,0,0,1,.67,1.11,1.11,0,0,0,1-.67,1.91,1.91,0,0,0,.18-.94v-8c0-.14,0-.19.17-.18h.72c.14,0,.17,0,.17.18V40.32a1.75,1.75,0,0,0,.19.84,1.15,1.15,0,0,0,1,.64,1.13,1.13,0,0,0,1-.61,1.6,1.6,0,0,0,.21-.83Q30,35,30,29.68v-.16c0-.12.05-.15.16-.15h.64c.27,0,.27,0,.27.26V41.09a1.72,1.72,0,0,0,.25.94,1.11,1.11,0,0,0,1.5.4,1.18,1.18,0,0,0,.4-.4,1.58,1.58,0,0,0,.27-.92V29.59c0-.19.06-.24.23-.22a2.81,2.81,0,0,0,.58,0c.21,0,.26,0,.26.25V39.68a2,2,0,0,0,.27,1.09,1.1,1.1,0,0,0,1.83.09,1.5,1.5,0,0,0,.32-1V34.62C37,34.11,37,33.55,37,33ZM56,43.73c-.08,0-.1.1-.14.15-.41.67-.83,1.34-1.25,2L48.22,56.1c-.12.18-.09.26.09.37l6.77,4.21c.35.21.35.21.56-.13l7.54-12.08c.09-.14.08-.21-.06-.3l-7-4.36ZM16.23,55.82l-.07-.15-1.09-2.05L9.45,42.89c-.07-.13-.12-.17-.27-.09L1.86,46.64c-.14.07-.15.14-.08.27q3.36,6.38,6.7,12.76c.09.17.15.21.34.11l4.7-2.48L16.1,56S16.23,55.92,16.23,55.82Zm15.35-51H24.37c-.18,0-.23,0-.23.22v8.2c0,.19,0,.23.22.23H38.77c.18,0,.23,0,.23-.22V5c0-.18,0-.22-.22-.22ZM38,40.54a2.75,2.75,0,0,0,1-.62,1.15,1.15,0,0,0,.26-1.27,1.07,1.07,0,0,0-1-.68c-.13,0-.17,0-.17.16C38,38.92,38.08,39.71,38,40.54Zm-2.13,7.12h0a2.46,2.46,0,0,1-.34-.22.57.57,0,0,0-.8,0c-.23.15-.49.26-.77.41Zm2.2-11.2a1.08,1.08,0,0,0,.11-1.54l-.11-.11Zm-3.22,5.73-.3-.19h-.12a3.17,3.17,0,0,0-.19.47Z"/><path class="cls-1" d="M55.72,62.43a.43.43,0,0,1-.24-.1l-8.73-5.44a.38.38,0,0,1-.19-.22.35.35,0,0,1,.07-.28l.93-1.47c.26-.43.53-.86.8-1.28v-.07H48.3c-.34-.2-.68-.41-1.07-.67a.54.54,0,0,0-.28-.08l-12.27-.06A2.91,2.91,0,0,1,32,50.93a2.37,2.37,0,0,1,.08-2l-2.74,1.42L28.15,51c-.91.47-1.84,1-2.77,1.41a9.51,9.51,0,0,1-3.18.86,11.86,11.86,0,0,1-3.71-.32h-.14L18,52.78a1,1,0,0,0-.88.13,7.37,7.37,0,0,1-.79.41h-.06v.08c.23.42.45.85.67,1.27L17.67,56a.36.36,0,0,1,0,.25c0,.1-.1.15-.19.19L8.4,61.34a.34.34,0,0,1-.28,0c-.1,0-.15-.13-.19-.2h0L.44,46.89l-.1-.14c-.1-.15-.22-.32-.15-.5A.4.4,0,0,1,.59,46l.16-.07L2.5,45l7.06-3.71a.39.39,0,0,1,.26,0,.3.3,0,0,1,.19.19c.25.49.51,1,.76,1.45l.76,1.46h.06l1.12-.58a.58.58,0,0,0,.21-.2l2.2-3.72c1.33-2.23,2.67-4.46,4-6.7a3,3,0,0,1,2.07-1.56,2.63,2.63,0,0,1,1.78.25v-8.1a10.09,10.09,0,0,1,1-4.32A11.64,11.64,0,0,1,25.62,17l.34-.43.33-.41a.23.23,0,0,0,.06-.16V14.68H23.29a.29.29,0,0,1-.34-.23.34.34,0,0,1,0-.1V3.92A.37.37,0,0,1,23,3.65a.33.33,0,0,1,.25-.08H39.83a.33.33,0,0,1,.25.08.35.35,0,0,1,.08.26V14.28a.33.33,0,0,1-.08.25.34.34,0,0,1-.24.07H36.5v.05a.38.38,0,0,1,0,.15h0v.4a2.37,2.37,0,0,0,0,.84,2.81,2.81,0,0,0,.41.74l.22.32,2.24,3.65L43,26.7a2.86,2.86,0,0,1-.24,3.4,2.33,2.33,0,0,1-3.3.28A2.6,2.6,0,0,1,39.1,30l-.66-.91-.24-.33v2.38a.2.2,0,0,0,.11.21l4.87,3.06,4.62,2.91a9.72,9.72,0,0,1,4.14,5.15c.09.27.19.54.28.8s.2.54.29.81a.38.38,0,0,0,.18.23l1,.66h0l.79-1.28.81-1.3a.27.27,0,0,1,.35-.16.24.24,0,0,1,.09.06l8.79,5.48a.3.3,0,0,1,.17.4.41.41,0,0,1,0,.09q-4.38,7-8.73,14a.45.45,0,0,1-.24.21ZM32.36,48.49h0v.06a.12.12,0,0,1,0,.16,2.18,2.18,0,0,0-.23,2.11,2.65,2.65,0,0,0,2.5,1.63L47,52.53a.79.79,0,0,1,.42.12l1.06.67a.35.35,0,0,1,.17.19.3.3,0,0,1-.06.26c-.28.43-.54.86-.81,1.29l-.93,1.47v.09l.08.06,8.73,5.44.11.06.08-.1,8.74-14V48h0l-.08,0-8.79-5.49h-.06l-.81,1.3L54,45.05a.28.28,0,0,1-.19.16.24.24,0,0,1-.23-.06l-1-.66a.65.65,0,0,1-.29-.36c-.09-.27-.19-.54-.28-.8s-.2-.54-.29-.81a9.47,9.47,0,0,0-4-5L43,34.59l-4.87-3.06a.45.45,0,0,1-.23-.42V28l.31.39a.44.44,0,0,0,.08.11l.31.44.65.9a2.16,2.16,0,0,0,1.63.87H41A2.16,2.16,0,0,0,42.61,30a2.62,2.62,0,0,0,.22-3.11L39.2,21,37,17.28a2.11,2.11,0,0,0-.21-.31,3,3,0,0,1-.44-.82,2.78,2.78,0,0,1,0-.91v-.45a.21.21,0,0,0,0-.11.3.3,0,0,1,.06-.24.31.31,0,0,1,.26-.09H40V3.83H23.3V14.27a.11.11,0,0,0,0,.08h3.1a.33.33,0,0,1,.23.07.34.34,0,0,1,.07.22V16a.47.47,0,0,1-.12.32c-.11.13-.22.27-.32.41l-.35.43a11.89,11.89,0,0,0-1.65,2.44,10.05,10.05,0,0,0-.92,4.22v8.3h-.09a.12.12,0,0,1-.14,0H23a2.34,2.34,0,0,0-1.66-.26,2.85,2.85,0,0,0-1.91,1.45c-1.32,2.23-2.64,4.47-4,6.7l-2.21,3.72a.67.67,0,0,1-.31.29l-1.11.58a.31.31,0,0,1-.25,0,.32.32,0,0,1-.18-.18L10.55,43l-.76-1.45v-.07H9.72L2.61,45.19l-1.75.92-.17.08a.35.35,0,0,0-.26.15.65.65,0,0,0,.12.27,1,1,0,0,1,.11.17L8.13,61h0v.07h.08l9.18-4.82h.07v-.06l-.73-1.37-.67-1.28a.28.28,0,0,1,0-.4.23.23,0,0,1,.12-.06,4.87,4.87,0,0,0,.8-.38,1.26,1.26,0,0,1,1.1-.16l.3.07h.15a11.39,11.39,0,0,0,3.63.32,9,9,0,0,0,3.1-.83c.93-.46,1.86-.94,2.76-1.41l1.2-.63,3-1.56.06.11-.06-.11.06.11v-.12Zm0,.19h0v0Zm0,0ZM55.39,61a.87.87,0,0,1-.37-.16l-.85-.53-5.93-3.69a.45.45,0,0,1-.21-.24.46.46,0,0,1,.08-.3q2.69-4.28,5.36-8.57L55,44.93l.7-1.12h0a.3.3,0,0,1,.2-.18H56l.08,0,1.65,1L63.08,48a.32.32,0,0,1,.18.2.42.42,0,0,1-.07.27L57,58.36l-1.37,2.21C55.6,60.85,55.52,61,55.39,61ZM56,43.88h0v0c-.23.37-.46.74-.7,1.11L53.68,47.6l-5.36,8.56a.24.24,0,0,0,0,.12l.11.08L54.3,60l.85.53a.7.7,0,0,0,.24.13l.15-.22,1.37-2.2,6.17-9.88v-.07H63L57.66,45,56,44ZM8.66,60H8.58a.4.4,0,0,1-.21-.23L1.67,47a.39.39,0,0,1,0-.26.32.32,0,0,1,.18-.18l7.32-3.84a.3.3,0,0,1,.26,0,.37.37,0,0,1,.18.19l5.62,10.73L16,55l.4.79a.23.23,0,0,1-.18.23l-2.6,1.36L12.5,58,8.88,59.89A.65.65,0,0,1,8.66,60Zm0-.25h.1l3.62-1.91,1.09-.57L16,55.84h.05l-.35-.67-.7-1.5Q12.14,48.32,9.34,43v-.07H9.28C6.8,44.2,4.36,45.47,1.92,46.75H1.86v.07q3.36,6.36,6.7,12.75a.09.09,0,0,0,.07.1Zm40.43-7a.32.32,0,0,1-.19-.07l-.68-.43-.62-.39a.62.62,0,0,0-.32-.09l-12.54-.06A1.85,1.85,0,0,1,33,50.49a1.34,1.34,0,0,1,.1-1.17,1.29,1.29,0,0,1,.95-.59c.51-.06,1-.09,1.52-.12h.56l1.36-.09.85-.06a6.91,6.91,0,0,0-2.11-1.69h-.07v-.22l1.32-.67.3-.16.63-.35a2.29,2.29,0,0,0,1.14-1.7,1.91,1.91,0,0,0-.71-1.81l-.21-.16-.26-.18.15-.1.36-.21c.13-.07.26-.14.38-.22a2.22,2.22,0,0,0,.81-2.74,1.91,1.91,0,0,0-1-.94.3.3,0,0,1-.18-.17.29.29,0,0,1,.06-.22A2.16,2.16,0,0,0,39.28,35a2,2,0,0,0-1.18-1.24.27.27,0,0,1-.17-.29v-.65a.23.23,0,0,1,.11-.27.23.23,0,0,1,.24.05l2.1,1.32,2.07,1.3q2.46,1.53,4.91,3.09a8.6,8.6,0,0,1,3.57,4.54c.12.33.23.66.35,1l.35,1a.34.34,0,0,0,.17.2l.63.4.73.46a.26.26,0,0,1,.16.32.47.47,0,0,1-.06.09l-3.93,6.29a.33.33,0,0,1-.19.16ZM36.47,46.59a8.25,8.25,0,0,1,2.18,1.85l.16.18h-.44l-.9.06a6.86,6.86,0,0,0-1.36.09h-.56a13,13,0,0,0-1.51.12,1.06,1.06,0,0,0-.77.47,1.13,1.13,0,0,0-.07,1,1.58,1.58,0,0,0,1.54,1l12.54.06a.79.79,0,0,1,.45.13l.62.39.69.43h.05q2-3.15,3.92-6.3h0l-.73-.46-.63-.39a.67.67,0,0,1-.28-.34c-.11-.33-.23-.66-.35-1s-.23-.66-.34-1a8.36,8.36,0,0,0-3.47-4.42c-1.64-1-3.28-2.06-4.92-3.09L40.23,34l-2-1.22v.69a2.28,2.28,0,0,1,1.34,1.39A2.39,2.39,0,0,1,39.18,37h0a2.2,2.2,0,0,1,1.08,1.07,2.5,2.5,0,0,1-.9,3,3.18,3.18,0,0,1-.4.23l-.18.1.18.14a2.15,2.15,0,0,1,.8,2,2.53,2.53,0,0,1-1.25,1.88l-.65.36-.3.16Zm-20.8,5.85H15.6a.39.39,0,0,1-.18-.18c-1.14-2.17-2.28-4.36-3.42-6.55a.28.28,0,0,1,0-.25.37.37,0,0,1,.18-.19l.68-.34c.21-.11.42-.23.64-.33a.7.7,0,0,0,.3-.29L17,38.93l3.2-5.39a1.81,1.81,0,0,1,1.41-.94,1.37,1.37,0,0,1,1.34.56,1.27,1.27,0,0,1,0,1.41l-1,1.94-.87,1.73.5-.12a4.9,4.9,0,0,0,1.4-.46l.17-.1v.2a3.42,3.42,0,0,0,.3,1.18,2.3,2.3,0,0,0,1,1,2,2,0,0,0,1.76,0c.14-.07.23-.12.33-.06s.08.16.08.33A2.62,2.62,0,0,0,27.19,42a2,2,0,0,0,2.8.42h0a.31.31,0,0,1,.26-.09.37.37,0,0,1,.19.18,2.09,2.09,0,0,0,1.44,1.1H32l.31.12-1.78.94L29,45.4h0c.14.24.24.43.33.61a.06.06,0,0,0,0,.06h.07c1.21-.65,2.43-1.29,3.65-1.93l.47-.24,3.12-1.64a1.7,1.7,0,0,1,1.19-.14,1.21,1.21,0,0,1,.78.6,1.25,1.25,0,0,1,.07,1,1.37,1.37,0,0,1-.48.7,10.35,10.35,0,0,1-1.64.88h0a8.44,8.44,0,0,1-.83.47l-.33.16-6.9,3.61-.91.47c-.83.44-1.68.88-2.53,1.3a8.54,8.54,0,0,1-5.54.67l-1.28-.25-.74-.14a.31.31,0,0,0-.23,0l-.64.34-.77.41A.5.5,0,0,1,15.67,52.44Zm-3.49-6.9v.05q1.73,3.27,3.43,6.55h.06l.77-.41.65-.34a.54.54,0,0,1,.39-.06l.74.15,1.28.25a8.3,8.3,0,0,0,5.5-.65c.85-.41,1.7-.86,2.52-1.29l.92-.48q3.42-1.77,6.83-3.55l.33-.17a5.16,5.16,0,0,0,.83-.46h.07a9.41,9.41,0,0,0,1.5-.89,1.09,1.09,0,0,0,.39-.57.87.87,0,0,0-.63-1.25,1.34,1.34,0,0,0-1,.12l-3.12,1.63-.46.24L29.5,46.34a.28.28,0,0,1-.39-.05.31.31,0,0,1-.05-.1c-.08-.17-.18-.36-.31-.59a.3.3,0,0,1-.05-.24.3.3,0,0,1,.17-.18l1.52-.8,1.28-.67a2.29,2.29,0,0,1-1.44-1.18v-.05h-.06A2.23,2.23,0,0,1,27,42.09l0,0a2.84,2.84,0,0,1-.59-1.91v-.06h-.05a2.2,2.2,0,0,1-2,0A2.71,2.71,0,0,1,23.23,39h0A3.28,3.28,0,0,1,23,38a5.46,5.46,0,0,1-1.3.41,6.49,6.49,0,0,0-.76.19l-.28.09,1.14-2.25,1-1.94a1.06,1.06,0,0,0,0-1.16,1.14,1.14,0,0,0-1.12-.45,1.54,1.54,0,0,0-1.22.82L17.27,39.1,14,44.44a1,1,0,0,1-.4.38l-.64.33-.67.35Zm21.2,2.39.52-.27.26-.13a4.67,4.67,0,0,0,.49-.27.7.7,0,0,1,1,0h0l.21.14a.41.41,0,0,1,.11.07l.08.05-.06.21Zm1.74-.6a.61.61,0,0,0-.32.13,1.28,1.28,0,0,1-.25.15l1-.06-.09-.07A.49.49,0,0,0,35.12,47.33ZM34,42.77l.18-.42c0-.14.1-.25.14-.36a.2.2,0,0,1,.12-.13.21.21,0,0,1,.19,0l.18.12.29.18Zm.53-.64v.11l.11-.06Zm-2.24.59h0a1.27,1.27,0,0,1-1-.62,1.85,1.85,0,0,1-.26-1V29.63a.29.29,0,0,0,0-.13H30.2a.33.33,0,0,1,0,.14V40.32a1.73,1.73,0,0,1-.22.89,1.23,1.23,0,0,1-1.09.67h0a1.23,1.23,0,0,1-1.11-.7,1.79,1.79,0,0,1-.22-.9V29.49h-.73v8.05a2,2,0,0,1-.19,1,1.27,1.27,0,0,1-1.12.74h0a1.26,1.26,0,0,1-1.12-.74,1.55,1.55,0,0,1-.2-.87V24.37a12.42,12.42,0,0,1,.18-2.44A8.63,8.63,0,0,1,26,18.15l.76-.95.56-.7a.31.31,0,0,0,.07-.21v-1.6a.37.37,0,0,1,.07-.25.32.32,0,0,1,.23-.07h7.4a.3.3,0,0,1,.24.07.34.34,0,0,1,.07.24v1.57a.5.5,0,0,0,.08.26L42.1,27.26a1.8,1.8,0,0,1,0,1.87,1.3,1.3,0,0,1-2.25.15c-.27-.36-.53-.73-.8-1.1l-.36-.5-.18-.25c-.36-.52-.73-1-1.1-1.54l0,.19c-.07.32-.15.63-.23.94a2.74,2.74,0,0,0-.08.64V39.91a1.65,1.65,0,0,1-.34,1A1.23,1.23,0,0,1,35,41.1a1,1,0,0,1-.27-.3,2,2,0,0,1-.29-1.15V29.47h-.11a3,3,0,0,1-.6,0h-.1V41.12a1.68,1.68,0,0,1-.29,1,1.25,1.25,0,0,1-1,.6ZM30.8,29.25c.34,0,.4.05.4.38V41.09a1.6,1.6,0,0,0,.22.88,1,1,0,0,0,.84.5h0A1,1,0,0,0,33.1,42a1.5,1.5,0,0,0,.24-.85V29.61a.31.31,0,0,1,.06-.28.4.4,0,0,1,.3-.09,2.62,2.62,0,0,0,.56,0,.4.4,0,0,1,.3.07.39.39,0,0,1,.1.31V39.68a1.84,1.84,0,0,0,.25,1,1,1,0,0,0,1.63.09,1.33,1.33,0,0,0,.29-.88V27.66A2.47,2.47,0,0,1,37,27c.08-.31.15-.62.23-.93l.13-.54h.13a.32.32,0,0,1,.2.18h0l1.12,1.56.18.25.36.51c.26.36.52.73.79,1.09a1.12,1.12,0,0,0,.89.48h.06A1.07,1.07,0,0,0,42,29a1.49,1.49,0,0,0,0-1.61L35.29,16.64a.77.77,0,0,1-.11-.39V14.62h-7.5v1.67a.53.53,0,0,1-.13.36c-.18.24-.37.47-.56.71s-.5.64-.76.95A8.5,8.5,0,0,0,24.49,22a12,12,0,0,0-.17,2.39v13.3a1.49,1.49,0,0,0,.16.75,1,1,0,0,0,.91.61h0a1,1,0,0,0,.91-.61,1.77,1.77,0,0,0,.16-.88v-8a.31.31,0,0,1,.08-.24.28.28,0,0,1,.23-.07h.71a.34.34,0,0,1,.22.07.31.31,0,0,1,.08.24V40.28a1.59,1.59,0,0,0,.18.77,1,1,0,0,0,.91.58h0a1,1,0,0,0,.87-.55,1.43,1.43,0,0,0,.19-.76V29.53a.26.26,0,0,1,.06-.21.29.29,0,0,1,.23-.08h.58Zm7,11.5v-.23a15.35,15.35,0,0,0,.06-1.66v-.74A.3.3,0,0,1,38,37.9a.29.29,0,0,1,.22-.06,1.2,1.2,0,0,1,1.12.76,1.26,1.26,0,0,1-.29,1.4,2.43,2.43,0,0,1-.89.59Zm.33-2.66h0v2.2a2.13,2.13,0,0,0,.73-.49,1,1,0,0,0,.25-1.15,1,1,0,0,0-.91-.6Zm-.23-1.35V34.57l.19.14a1,1,0,0,1,.43.79,1.34,1.34,0,0,1-.41,1Zm.25-1.62v1a1.13,1.13,0,0,0,.12-.57.92.92,0,0,0-.08-.43ZM24.35,13.54a.3.3,0,0,1-.34-.25.17.17,0,0,1,0-.1V5a.38.38,0,0,1,.08-.27.38.38,0,0,1,.27-.08H38.78a.38.38,0,0,1,.27.08.38.38,0,0,1,.08.27V13.2a.35.35,0,0,1-.08.26.36.36,0,0,1-.27.08Zm-.08-.25h14.6a.11.11,0,0,0,0-.08V5a.14.14,0,0,0,0-.09H24.27a.14.14,0,0,0,0,.09v8.2a.17.17,0,0,0,0,.1Z"/><path class="cls-1" d="M17.78,14.64l-2.64-.13c-.47,0-.47,0-.45-.49,0-.19-.07-.46.07-.57s.37,0,.56,0l4.65.24c.12,0,.17,0,.14.17-.3,1.66-.59,3.32-.88,5,0,.11-.07.13-.17.11l-.75-.14c-.12,0-.16,0-.13-.19.19-1,.36-2,.54-3v-.26a1.5,1.5,0,0,0-.4.25A24.7,24.7,0,0,0,8.58,29.17a24.42,24.42,0,0,0-1,5.55,25.76,25.76,0,0,0,.08,3.83c0,.14,0,.2-.17.21a3.77,3.77,0,0,0-.71.06c-.23.06-.17,0-.18-.14A26.31,26.31,0,0,1,7.83,28,26,26,0,0,1,17.6,14.81.42.42,0,0,0,17.78,14.64Z"/><path class="cls-1" d="M6.77,39H6.62a.37.37,0,0,1-.1-.22,27.79,27.79,0,0,1-.06-4.28A26.08,26.08,0,0,1,7.71,28a25.7,25.7,0,0,1,4.22-8,26.38,26.38,0,0,1,5.54-5.27h-.41l-1.92-.1c-.28,0-.41,0-.51-.12s-.08-.24-.06-.49v-.17s0-.38.12-.49a.6.6,0,0,1,.49,0h.16l1.94.1L20,13.6a.31.31,0,0,1,.22.09.31.31,0,0,1,0,.23c-.3,1.66-.59,3.32-.88,5a.32.32,0,0,1-.1.18.26.26,0,0,1-.21,0L18.27,19a.26.26,0,0,1-.2-.1.31.31,0,0,1,0-.23c.14-.78.28-1.56.41-2.34l.13-.7h0l-.09.06-.08.06A24.73,24.73,0,0,0,8.7,29.21a23.54,23.54,0,0,0-.94,5.52,25.52,25.52,0,0,0,.07,3.81.36.36,0,0,1,0,.25.28.28,0,0,1-.23.09,5.69,5.69,0,0,0-.71.07Zm8.16-25.42h-.1v.48a.81.81,0,0,0,0,.31.92.92,0,0,0,.33,0l1.92.1H18l-.09.17a.44.44,0,0,1-.19.19h0a25.89,25.89,0,0,0-5.54,5.27A25.5,25.5,0,0,0,8,28a26,26,0,0,0-1.24,6.43,27.29,27.29,0,0,0,.06,4.24h0c.24,0,.49-.06.73-.07h0v-.06a25.92,25.92,0,0,1-.07-3.84,24,24,0,0,1,1-5.58,24.87,24.87,0,0,1,9.83-13.66l.07-.06a1.58,1.58,0,0,1,.36-.2l.19-.07v.27a.61.61,0,0,1,0,.19l-.12.7c-.14.79-.27,1.57-.42,2.35h0l.75.13h0c.29-1.66.59-3.32.89-5h0l-2.71-.14-1.94-.1H15.2Z"/><path class="cls-1" d="M20.51,59.29c.19.5.36,1,.52,1.4s.23.65.36,1c0,.11,0,.16-.09.2l-.71.26c-.11,0-.16,0-.2-.08L18.86,57.9c0-.12,0-.15.1-.19l4-1.18c.12,0,.16,0,.19.11s.13.47.21.69,0,.19-.13.23c-.72.2-1.44.42-2.15.63l-.16.05c0,.1.09.1.14.13a25,25,0,0,0,23.59-.25c.17-.09.24-.07.31.1a5.3,5.3,0,0,0,.33.57c.08.13,0,.17-.08.24a26,26,0,0,1-24.47.36Z"/><path class="cls-1" d="M32.68,62.38H31.59a27,27,0,0,1-6.12-1,25.26,25.26,0,0,1-4.73-1.86L21.26,61c.08.22.16.44.25.66a.25.25,0,0,1-.18.36l-.71.26a.22.22,0,0,1-.22,0,.26.26,0,0,1-.14-.17c-.51-1.38-1-2.75-1.53-4.13a.28.28,0,0,1,0-.22.34.34,0,0,1,.18-.13l4-1.18a.31.31,0,0,1,.23,0,.34.34,0,0,1,.13.2,5.31,5.31,0,0,0,.2.68.33.33,0,0,1,0,.24.34.34,0,0,1-.22.15l-1.62.47-.46.14A24.83,24.83,0,0,0,44.6,58,.3.3,0,0,1,45,58a.24.24,0,0,1,.07.13,4.4,4.4,0,0,0,.31.56.32.32,0,0,1,.06.23c0,.1-.11.15-.18.19a26.28,26.28,0,0,1-12.6,3.24ZM20.29,59l.38.18.12.06a26,26,0,0,0,24.37-.36h.05c-.12-.19-.23-.39-.33-.59v-.08h-.09a25.21,25.21,0,0,1-23.7.25.28.28,0,0,1-.22-.22v-.11l.79-.24,1.62-.47h.07c-.07-.21-.14-.44-.21-.7h0l-4,1.18h0L20.51,62h0l.72-.27h0L21,61Z"/><path class="cls-1" d="M58.58,39.14l.85-.77,1.45-1.32c.09-.08.15-.09.23,0l.51.56c.17.18.08.14,0,.22L58.44,40.7l-.61.55c-.09.09-.14.11-.22,0l-2.89-4.14c-.08-.1-.07-.15,0-.22l.59-.41c.12-.09.17-.07.25.05L57.32,39c0,.06.09.12.15.22a10.89,10.89,0,0,0,.14-1.28A25.08,25.08,0,0,0,45.17,14.5a16.73,16.73,0,0,0-1.51-.8c-.15-.08-.17-.14-.09-.28s.21-.4.3-.61.12-.14.24-.08A26.2,26.2,0,0,1,57,26.86,25.92,25.92,0,0,1,58.56,39,.5.5,0,0,0,58.58,39.14Z"/><path class="cls-1" d="M57.71,41.46h0a.3.3,0,0,1-.19-.14l-2.9-4.14a.25.25,0,0,1,0-.35.18.18,0,0,1,.07,0c.22-.14.41-.27.58-.4a.3.3,0,0,1,.24-.08c.09,0,.15.09.2.15l1.36,1.95.34.48c0-.32.06-.63.09-.94a26.21,26.21,0,0,0-.08-4.43,24.24,24.24,0,0,0-1.81-7,24.91,24.91,0,0,0-10.5-12,14.78,14.78,0,0,0-1.49-.8.34.34,0,0,1-.2-.19.34.34,0,0,1,0-.26c.11-.21.21-.41.29-.6a.26.26,0,0,1,.16-.18.3.3,0,0,1,.26,0,26.29,26.29,0,0,1,13,14.22,25.48,25.48,0,0,1,1.57,6.44,26.12,26.12,0,0,1,0,5.59l.92-.82L60.8,37a.41.41,0,0,1,.21-.1.32.32,0,0,1,.2.12c.14.17.29.34.5.56a.22.22,0,0,1,.09.2.27.27,0,0,1-.11.19L59.3,40.09l-1,.88-.42.38A.28.28,0,0,1,57.71,41.46ZM54.79,37h0l2.89,4.14h0c.14-.13.28-.26.43-.38l1-.89,2.4-2.16h0c-.21-.22-.37-.4-.52-.57h0L59.8,38.2l-1.35,1.22V39a26.14,26.14,0,0,0,0-5.73A25.46,25.46,0,0,0,56.9,26.9,26.1,26.1,0,0,0,44.06,12.81H44a3.64,3.64,0,0,1-.3.63.09.09,0,0,0,0,.07h.06a15.26,15.26,0,0,1,1.52.81A25.16,25.16,0,0,1,55.88,26.4a24.6,24.6,0,0,1,1.83,7.05,26.34,26.34,0,0,1,.08,4.44,11.23,11.23,0,0,1-.14,1.3l0,.29-.18-.24L57.27,39l-.37-.52-1.41-1.9v-.05h0c-.18.13-.38.27-.61.41Z"/></svg>