<svg id="Layer_1" data-name="Layer 1" xmlns="http://www.w3.org/2000/svg" viewBox="0 0 65 66"><defs><style>.cls-1{fill:#bd8100;}</style></defs><path class="cls-1" d="M32.32,48.63l-3,1.57c-1.31.68-2.62,1.38-4,2a9.51,9.51,0,0,1-3.14.85,12.29,12.29,0,0,1-3.68-.32l-.46-.1a1.12,1.12,0,0,0-1,.14,5.62,5.62,0,0,1-.77.4c-.16.08-.16.15-.08.3.47.87.93,1.76,1.4,2.64.08.14.05.2-.09.27-3.07,1.6-6.12,3.21-9.18,4.82-.22.12-.25,0-.32-.14L.55,46.84c-.1-.18-.3-.38-.24-.54s.32-.21.5-.3l8.8-4.63c.16-.08.21-.06.29.09.5,1,1,1.93,1.52,2.91.07.14.13.14.26.07l1.12-.58a.69.69,0,0,0,.26-.25l6.18-10.42a2.9,2.9,0,0,1,2-1.5A2.48,2.48,0,0,1,23,32l.1,0h0v-.33q0-3.94,0-7.88a10,10,0,0,1,.93-4.27A12.14,12.14,0,0,1,25.71,17l.67-.84a.34.34,0,0,0,.09-.24c0-.44,0-.88,0-1.32,0-.14-.05-.17-.18-.17h-3c-.16,0-.22,0-.22-.21q0-5.17,0-10.35c0-.17,0-.22.21-.22H39.86c.16,0,.21,0,.21.21q0,5.18,0,10.37c0,.16,0,.2-.21.2H36.58c-.15,0-.22,0-.19.19a1.2,1.2,0,0,1,0,.19,4.87,4.87,0,0,0,0,1.27,5.15,5.15,0,0,0,.64,1.1Q40,22,42.93,26.76A2.73,2.73,0,0,1,42.71,30a2.22,2.22,0,0,1-3.51-.13c-.33-.43-.64-.89-1-1.33l-.16-.21v.22c0,.85,0,1.69,0,2.54a.31.31,0,0,0,.17.31l9.49,6a9.6,9.6,0,0,1,4.08,5.09c.18.54.38,1.07.57,1.61a.53.53,0,0,0,.23.3l1,.66c.12.08.18.05.25-.07.53-.86,1.07-1.71,1.59-2.57.08-.13.14-.15.27-.07q4.4,2.76,8.8,5.49c.14.09.17.15.07.31l-8.73,14c-.12.18-.19.19-.37.08l-8.72-5.45c-.16-.09-.19-.16-.08-.32.58-.91,1.15-1.84,1.73-2.76.09-.13.07-.19-.07-.28-.36-.21-.71-.44-1.06-.66a.62.62,0,0,0-.35-.1L34.73,52.6a2.78,2.78,0,0,1-2.62-1.71,2.29,2.29,0,0,1,.25-2.22s0,0,0,0S32.34,48.62,32.32,48.63Zm5.2-2.71-1.27.64v.07a7.54,7.54,0,0,1,2.31,1.9l-.19,0-2.27.15c-.69,0-1.38.07-2.07.16a1.14,1.14,0,0,0-1,1.58,1.69,1.69,0,0,0,1.66,1.09l12.54.07a.65.65,0,0,1,.38.11c.44.28.88.54,1.31.82.12.08.18.07.26-.06,1.3-2.1,2.61-4.19,3.92-6.29.07-.11.07-.17,0-.24l-1.37-.85a.49.49,0,0,1-.22-.27c-.23-.66-.47-1.31-.69-2a8.4,8.4,0,0,0-3.53-4.48c-2.32-1.48-4.65-2.93-7-4.39l-2.08-1.31c-.05,0-.09-.08-.14-.06s0,.11,0,.17,0,.42,0,.64,0,.14.1.18a2.19,2.19,0,0,1,1.25,1.31,2.26,2.26,0,0,1-.33,2c-.08.12,0,.15.07.2a2,2,0,0,1,1,1A2.34,2.34,0,0,1,39.31,41c-.23.17-.49.27-.74.44.12.08.23.15.33.23a2,2,0,0,1,.75,1.92,2.4,2.4,0,0,1-1.19,1.79C38.16,45.59,37.84,45.75,37.52,45.92ZM23.37,39a3.38,3.38,0,0,1-.31-1.23,10.37,10.37,0,0,1-2.2.67l.51-1c.49-1,1-1.93,1.46-2.9a1.16,1.16,0,0,0,0-1.29,1.25,1.25,0,0,0-1.23-.51,1.7,1.7,0,0,0-1.32.89C18.12,37.2,16,40.79,13.86,44.38a.85.85,0,0,1-.35.33c-.45.22-.88.46-1.32.68-.13.06-.16.12-.09.26q1.72,3.27,3.43,6.54c.08.15.14.14.27.07l1.41-.75a.52.52,0,0,1,.32,0l2,.4A8.34,8.34,0,0,0,25,51.19c1.16-.56,2.3-1.17,3.45-1.76l6.83-3.56a11,11,0,0,0,1.17-.63,11,11,0,0,0,1.66-.89,1.3,1.3,0,0,0,.44-.64,1.07,1.07,0,0,0-.76-1.41,1.49,1.49,0,0,0-1.1.12l-3.13,1.64-4.12,2.17c-.14.07-.2.06-.27-.09a4.3,4.3,0,0,0-.32-.6c-.07-.12-.05-.19.08-.25l1.92-1L32,43.68l-.13,0a2.19,2.19,0,0,1-1.52-1.16c-.09-.15-.14-.14-.27,0a2.15,2.15,0,0,1-3-.44,2.71,2.71,0,0,1-.56-1.83c0-.27,0-.27-.22-.15a2.09,2.09,0,0,1-1.87,0A2.45,2.45,0,0,1,23.37,39ZM37,33v-.24c0-1.69,0-3.38,0-5.08a2.56,2.56,0,0,1,.08-.67q.16-.66.33-1.35c.1,0,.12.1.16.16l1.3,1.8c.38.54.76,1.08,1.15,1.61a1.17,1.17,0,0,0,2-.14,1.61,1.61,0,0,0,0-1.74q-3.3-5.38-6.62-10.75a.57.57,0,0,1-.09-.33V14.68c0-.14,0-.19-.18-.19h-7.4c-.15,0-.18.06-.17.19,0,.54,0,1.08,0,1.61a.39.39,0,0,1-.09.28c-.45.56-.88,1.12-1.33,1.66A8.65,8.65,0,0,0,24.37,22a12.39,12.39,0,0,0-.17,2.65q0,5.37,0,10.76c0,.77,0,1.54,0,2.31a1.53,1.53,0,0,0,.18.81,1.09,1.09,0,0,0,1,.67,1.12,1.12,0,0,0,1-.67,1.89,1.89,0,0,0,.18-.94v-8c0-.14,0-.19.17-.18h.72c.14,0,.17,0,.17.18,0,2.79,0,5.59,0,8.38,0,.79,0,1.57,0,2.35a1.73,1.73,0,0,0,.19.84,1.15,1.15,0,0,0,1,.64,1.13,1.13,0,0,0,1-.61,1.6,1.6,0,0,0,.21-.83Q30,35,30,29.68a.86.86,0,0,0,0-.16c0-.12.05-.15.16-.15h.64c.27,0,.27,0,.27.26V41.09a1.7,1.7,0,0,0,.25.94,1.1,1.1,0,0,0,1.9,0,1.6,1.6,0,0,0,.27-.92c0-.51,0-1,0-1.54V29.69a.34.34,0,0,0,0-.1c0-.19.06-.24.23-.22a3.74,3.74,0,0,0,.58,0c.21,0,.26,0,.26.25,0,3.36,0,6.71,0,10.06a2,2,0,0,0,.27,1.09,1.1,1.1,0,0,0,1.83.09,1.49,1.49,0,0,0,.32-1c0-1.75,0-3.49,0-5.24C37,34.11,37,33.55,37,33ZM56,43.73c-.08,0-.1.1-.14.15-.41.67-.83,1.34-1.25,2Q51.41,51,48.22,56.1c-.12.18-.09.26.09.37l6.77,4.21c.35.21.35.21.56-.13l7.54-12.08c.09-.14.08-.21-.06-.3l-7-4.36ZM16.23,55.82l-.07-.15-1.09-2.05L9.45,42.89c-.07-.13-.12-.17-.27-.09L1.86,46.64c-.14.07-.15.14-.08.27q3.36,6.38,6.7,12.76c.09.17.15.21.34.11l4.7-2.48L16.1,56S16.23,55.92,16.23,55.82Zm15.35-51H24.37c-.18,0-.23,0-.23.22v8.2c0,.19,0,.23.22.23H38.77c.18,0,.23,0,.23-.22V5c0-.18,0-.22-.22-.22ZM38,40.54a2.78,2.78,0,0,0,1-.62,1.16,1.16,0,0,0,.26-1.27,1.06,1.06,0,0,0-1-.68c-.13,0-.17,0-.17.16C38,38.92,38.08,39.71,38,40.54Zm-2.13,7.12v0a2,2,0,0,1-.34-.22.57.57,0,0,0-.8,0c-.23.15-.49.26-.77.41Zm2.2-11.2a1.09,1.09,0,0,0,0-1.65Zm-3.22,5.73L34.55,42c-.06,0-.1,0-.12,0s-.12.28-.19.47Z"/><path class="cls-1" d="M55.72,62.43a.46.46,0,0,1-.24-.1l-8.73-5.44a.38.38,0,0,1-.19-.22.35.35,0,0,1,.07-.28l.93-1.47c.26-.43.53-.86.8-1.28,0,0,0-.06,0-.07h0l-.06,0c-.34-.2-.68-.41-1.07-.67a.51.51,0,0,0-.28-.08l-12.27-.06A2.9,2.9,0,0,1,32,50.93a2.39,2.39,0,0,1,.08-2l-2.74,1.42-1.19.62c-.91.47-1.84,1-2.77,1.41a9.39,9.39,0,0,1-3.18.86,12,12,0,0,1-3.71-.32l-.14,0L18,52.78a1,1,0,0,0-.88.13,6.59,6.59,0,0,1-.79.41l-.06,0h0l0,.08c.23.42.45.85.67,1.27l.73,1.37a.35.35,0,0,1,0,.25c0,.1-.1.15-.19.19L8.4,61.34a.38.38,0,0,1-.28,0c-.1,0-.15-.13-.19-.2l0,0L.44,46.89l-.1-.14c-.1-.15-.22-.32-.15-.5S.42,46,.59,46l.16-.07L2.5,45l7.06-3.71a.34.34,0,0,1,.26,0,.32.32,0,0,1,.19.19c.25.49.51,1,.76,1.45l.76,1.46,0,0,.06,0,1.12-.58a.57.57,0,0,0,.21-.2l2.2-3.72q2-3.34,4-6.7a3,3,0,0,1,2.07-1.56,2.62,2.62,0,0,1,1.78.25V29.69c0-2,0-3.94,0-5.91a10.18,10.18,0,0,1,1-4.32A11.75,11.75,0,0,1,25.62,17l.34-.43.33-.41a.25.25,0,0,0,.06-.16c0-.44,0-.88,0-1.32,0,0,0,0,0,0H23.29a.29.29,0,0,1-.34-.33V3.92A.36.36,0,0,1,23,3.65a.3.3,0,0,1,.25-.08q8.29,0,16.58,0a.33.33,0,0,1,.25.08.35.35,0,0,1,.08.26V14.28a.34.34,0,0,1-.08.25.36.36,0,0,1-.24.07H36.5s0,0,0,.05a.38.38,0,0,1,0,.15v0c0,.13,0,.27,0,.4a2.58,2.58,0,0,0,0,.84,2.74,2.74,0,0,0,.41.74l.22.32,2.24,3.65L43,26.7a2.85,2.85,0,0,1-.24,3.4A2.34,2.34,0,0,1,39.1,30l-.66-.91-.24-.33v.52c0,.62,0,1.24,0,1.86a.2.2,0,0,0,.11.21l4.87,3.06,4.62,2.91a9.77,9.77,0,0,1,4.14,5.15c.09.27.19.54.28.8s.2.54.29.81a.39.39,0,0,0,.18.23l1,.66,0,0,0,0,.79-1.28.81-1.3a.27.27,0,0,1,.44-.1l8.79,5.48a.31.31,0,0,1,.12.49q-4.38,7-8.73,14a.45.45,0,0,1-.24.21ZM32.36,48.49h0l.05,0,0,.06a.13.13,0,0,1,0,.16,2.19,2.19,0,0,0-.23,2.11,2.65,2.65,0,0,0,2.5,1.63L47,52.53a.76.76,0,0,1,.42.12l1.06.67a.32.32,0,0,1,.17.19.33.33,0,0,1-.06.26c-.28.43-.54.86-.81,1.29l-.93,1.47c0,.06,0,.08,0,.09l.08.06,8.73,5.44a.56.56,0,0,0,.11.06s0,0,.08-.1q4.37-7,8.74-14c0-.06,0-.08,0-.08h0l-.08-.05-8.79-5.49-.06,0,0,0-.81,1.3L54,45.05a.28.28,0,0,1-.19.16.25.25,0,0,1-.23-.06l-1-.66a.62.62,0,0,1-.29-.36c-.09-.27-.19-.54-.28-.8s-.2-.54-.29-.81a9.49,9.49,0,0,0-4-5L43,34.59l-4.87-3.06a.45.45,0,0,1-.23-.42c0-.62,0-1.24,0-1.86V28l.31.39a.52.52,0,0,0,.08.11l.31.44.65.9a2.16,2.16,0,0,0,1.63.87H41a2.15,2.15,0,0,0,1.61-.75,2.61,2.61,0,0,0,.22-3.11l-3.63-5.9L37,17.28a2.82,2.82,0,0,0-.21-.31,3,3,0,0,1-.44-.82,2.78,2.78,0,0,1,0-.91c0-.13,0-.26,0-.39v-.06a.21.21,0,0,0,0-.11.3.3,0,0,1,.06-.24.31.31,0,0,1,.26-.09h3.36V3.91c0-.06,0-.08,0-.08h-.07q-8.3,0-16.58,0c-.06,0-.08,0-.08,0h0V14.27a.2.2,0,0,0,0,.08h3.1a.33.33,0,0,1,.23.07.34.34,0,0,1,.07.22c0,.44,0,.88,0,1.32a.49.49,0,0,1-.12.32c-.11.13-.22.27-.32.41l-.35.43a11.74,11.74,0,0,0-1.65,2.44,10.07,10.07,0,0,0-.92,4.22c0,2,0,3.94,0,5.91v2.39l-.09,0a.14.14,0,0,1-.14,0l-.09,0a2.35,2.35,0,0,0-1.66-.26,2.82,2.82,0,0,0-1.91,1.45c-1.32,2.23-2.64,4.47-4,6.7l-2.21,3.72a.72.72,0,0,1-.31.29l-1.11.58a.31.31,0,0,1-.25.05.32.32,0,0,1-.18-.18L10.55,43l-.76-1.45c0-.05,0-.07,0-.07l-.07,0L2.61,45.19l-1.75.92-.17.08c-.1,0-.25.1-.26.15s.06.17.12.27a1,1,0,0,1,.11.17L8.13,61l0,0,0,.07a.18.18,0,0,0,.08,0l9.18-4.82.07,0s0,0,0-.06l-.73-1.37-.67-1.28a.28.28,0,0,1,.14-.46A5.34,5.34,0,0,0,17,52.7a1.24,1.24,0,0,1,1.1-.16l.3.07.15,0a11.5,11.5,0,0,0,3.63.32,8.93,8.93,0,0,0,3.1-.83c.93-.46,1.86-.94,2.76-1.41l1.2-.63,3-1.56.06.11-.06-.11.06.11,0-.12Zm0,.19,0,0h0l0-.06Zm0,0,0,0h0ZM55.39,61a.87.87,0,0,1-.37-.16l-.85-.53-5.93-3.69a.45.45,0,0,1-.21-.24.42.42,0,0,1,.08-.3q2.69-4.28,5.36-8.57L55,44.93l.7-1.12v0a.3.3,0,0,1,.2-.18h0l.09,0,.08.05,1.65,1,5.36,3.34a.33.33,0,0,1,.18.2.42.42,0,0,1-.07.27l-6.17,9.87-1.37,2.21C55.6,60.85,55.52,61,55.39,61ZM56,43.88l0,0s0,0,0,.05c-.23.37-.46.74-.7,1.11L53.68,47.6l-5.36,8.56a.32.32,0,0,0,0,.12s0,0,.11.08L54.3,60l.85.53a.83.83,0,0,0,.24.13,2.31,2.31,0,0,0,.15-.22l1.37-2.2,6.17-9.88a.17.17,0,0,0,0-.07h0a.16.16,0,0,0-.06,0l-5.36-3.34-1.65-1ZM8.66,60H8.58a.39.39,0,0,1-.21-.23Q5,53.35,1.67,47a.34.34,0,0,1,0-.26.32.32,0,0,1,.18-.18l7.32-3.84a.33.33,0,0,1,.26,0,.34.34,0,0,1,.18.19l5.62,10.73L16,55l.4.79a.24.24,0,0,1-.18.23l-2.6,1.36L12.5,58,8.88,59.89A.63.63,0,0,1,8.66,60Zm0-.25.1,0,3.62-1.91,1.09-.57L16,55.84l.05,0h0l-.35-.67L15,53.67Q12.14,48.32,9.34,43c0-.05,0-.06,0-.07l-.06,0C6.8,44.2,4.36,45.47,1.92,46.75l-.06,0h0l0,.07q3.36,6.36,6.7,12.75c0,.08.06.1.07.1Zm40.43-7a.32.32,0,0,1-.19-.07l-.68-.43-.62-.39a.59.59,0,0,0-.32-.09l-12.54-.06A1.84,1.84,0,0,1,33,50.49a1.36,1.36,0,0,1,.1-1.17,1.26,1.26,0,0,1,.95-.59c.51-.06,1-.09,1.52-.12l.56,0,1.36-.09.85-.06a6.94,6.94,0,0,0-2.11-1.69l-.07,0,0-.22,1.32-.67.3-.16.63-.35a2.3,2.3,0,0,0,1.14-1.7,1.93,1.93,0,0,0-.71-1.81l-.21-.16-.26-.18.15-.1.36-.21a3.44,3.44,0,0,0,.38-.22,2.23,2.23,0,0,0,.81-2.74,1.91,1.91,0,0,0-1-.94.3.3,0,0,1-.18-.17.29.29,0,0,1,.06-.22A2.17,2.17,0,0,0,39.28,35a2,2,0,0,0-1.18-1.24.27.27,0,0,1-.17-.29v-.65a.23.23,0,0,1,.11-.27.22.22,0,0,1,.24.05l2.1,1.32,2.07,1.3q2.46,1.53,4.91,3.09a8.58,8.58,0,0,1,3.57,4.54c.12.33.23.66.35,1l.35,1a.33.33,0,0,0,.17.2l.63.4.73.46a.25.25,0,0,1,.1.41l-3.93,6.29a.34.34,0,0,1-.19.16ZM36.47,46.59a8.35,8.35,0,0,1,2.18,1.85l.16.18-.31,0-.13,0-.9.06c-.46,0-.91,0-1.36.09l-.56,0c-.5,0-1,.06-1.51.12a1.05,1.05,0,0,0-.77.47,1.12,1.12,0,0,0-.07.95,1.58,1.58,0,0,0,1.54,1l12.54.06a.79.79,0,0,1,.45.13l.62.39.69.43.05,0,0,0q2-3.15,3.92-6.3l0,0,0,0-.73-.46-.63-.39a.62.62,0,0,1-.28-.34c-.11-.33-.23-.66-.35-1s-.23-.66-.34-1a8.35,8.35,0,0,0-3.47-4.42c-1.64-1-3.28-2.06-4.92-3.09l-2.06-1.3L38.18,32.8v.69a2.28,2.28,0,0,1,1.34,1.39A2.41,2.41,0,0,1,39.18,37h0a2.2,2.2,0,0,1,1.08,1.07,2.49,2.49,0,0,1-.9,3.05,3.18,3.18,0,0,1-.4.23l-.18.1.18.14a2.15,2.15,0,0,1,.8,2,2.55,2.55,0,0,1-1.25,1.88l-.65.36-.3.16Zm-20.8,5.85H15.6a.35.35,0,0,1-.18-.18Q13.71,49,12,45.71a.31.31,0,0,1,0-.25.34.34,0,0,1,.18-.19l.68-.34c.21-.11.42-.23.64-.33a.7.7,0,0,0,.3-.29l3.19-5.38,3.2-5.39a1.83,1.83,0,0,1,1.41-.94,1.38,1.38,0,0,1,1.34.56,1.26,1.26,0,0,1,.05,1.41l-1,1.94-.87,1.73.5-.12a4.9,4.9,0,0,0,1.4-.46l.17-.1v.2a3.31,3.31,0,0,0,.3,1.18,2.38,2.38,0,0,0,1,1,2,2,0,0,0,1.76,0c.14-.07.23-.12.33-.06s.08.16.08.33a2.61,2.61,0,0,0,.53,1.75,2,2,0,0,0,2.81.41.32.32,0,0,1,.26-.09.34.34,0,0,1,.19.18,2.07,2.07,0,0,0,1.44,1.1l.09,0,.31.12-1.78.94L29,45.4l0,0,0,0c.14.24.24.43.33.61a.1.1,0,0,0,0,.06l.07,0c1.21-.65,2.43-1.29,3.65-1.93l.47-.24,3.12-1.64a1.68,1.68,0,0,1,1.19-.14,1.22,1.22,0,0,1,.78.6,1.24,1.24,0,0,1,.07,1,1.41,1.41,0,0,1-.48.7,10,10,0,0,1-1.64.88l0,0a7.42,7.42,0,0,1-.83.47l-.33.16L28.5,49.54l-.91.47c-.83.44-1.68.88-2.53,1.3a8.52,8.52,0,0,1-5.54.67l-1.28-.25-.74-.14a.31.31,0,0,0-.23,0l-.64.34-.77.41A.49.49,0,0,1,15.67,52.44Zm-3.49-6.9s0,0,0,.05q1.72,3.27,3.43,6.55l0,0,.06,0,.77-.41.65-.34a.53.53,0,0,1,.39-.06l.74.15,1.28.25A8.31,8.31,0,0,0,25,51.08c.85-.41,1.7-.86,2.52-1.29l.92-.48q3.42-1.77,6.83-3.55l.33-.17a5.63,5.63,0,0,0,.83-.46l.07,0A9.77,9.77,0,0,0,38,44.24a1.12,1.12,0,0,0,.39-.57,1,1,0,0,0,0-.78,1,1,0,0,0-.63-.47,1.37,1.37,0,0,0-1,.12l-3.12,1.63-.46.24L29.5,46.34a.28.28,0,0,1-.44-.15c-.08-.17-.18-.36-.31-.59a.28.28,0,0,1-.05-.24.28.28,0,0,1,.17-.18l1.52-.8,1.28-.67a2.31,2.31,0,0,1-1.44-1.18s0,0,0-.05l-.06,0A2.24,2.24,0,0,1,27,42.06a2.82,2.82,0,0,1-.59-1.91v-.06l-.05,0a2.2,2.2,0,0,1-2,0,2.73,2.73,0,0,1-1.13-1.07h0A3.45,3.45,0,0,1,23,38a5.76,5.76,0,0,1-1.3.41,7.67,7.67,0,0,0-.76.19l-.28.09,1.14-2.25,1-1.94a1.05,1.05,0,0,0,0-1.16,1.13,1.13,0,0,0-1.12-.45,1.56,1.56,0,0,0-1.22.82l-3.19,5.39L14,44.44a1,1,0,0,1-.4.38l-.64.33-.67.35Zm21.2,2.39.52-.27.26-.13a3.17,3.17,0,0,0,.49-.27.7.7,0,0,1,1,0,1.91,1.91,0,0,0,.21.14.41.41,0,0,1,.11.07l.08.05-.06.21Zm1.74-.6a.6.6,0,0,0-.32.13,2.07,2.07,0,0,1-.25.15l1-.06-.09-.07A.47.47,0,0,0,35.12,47.33ZM34,42.77l.18-.42c0-.14.1-.25.14-.36a.22.22,0,0,1,.12-.13.21.21,0,0,1,.19,0l.18.12.29.18Zm.53-.64s0,.07,0,.11l.11-.06Zm-2.24.59h0a1.27,1.27,0,0,1-1-.62,1.9,1.9,0,0,1-.26-1V29.63a.49.49,0,0,0,0-.13h-.83a.34.34,0,0,1,0,.14V40.32a1.68,1.68,0,0,1-.22.89,1.24,1.24,0,0,1-1.09.67h0a1.23,1.23,0,0,1-1.11-.7,1.77,1.77,0,0,1-.22-.9c0-.27,0-.55,0-.83,0-.49,0-1,0-1.51,0-1.76,0-3.54,0-5.27V29.49h0c-.24,0-.49,0-.73,0h0v.05q0,.42,0,.84v7.16a2,2,0,0,1-.19,1,1.27,1.27,0,0,1-1.12.74h0a1.24,1.24,0,0,1-1.12-.74,1.58,1.58,0,0,1-.2-.87c0-.37,0-.73,0-1.09s0-.81,0-1.22V31.05c0-2.15,0-4.3,0-6.45v-.23a11.85,11.85,0,0,1,.18-2.44A8.65,8.65,0,0,1,26,18.15l.76-.95.56-.7a.31.31,0,0,0,.07-.21v-1.6a.37.37,0,0,1,.07-.25.3.3,0,0,1,.23-.07h7.4a.31.31,0,0,1,.24.07.36.36,0,0,1,.07.24c0,.28,0,.56,0,.84v.73a.44.44,0,0,0,.08.26l6.62,10.75a1.78,1.78,0,0,1,0,1.87,1.3,1.3,0,0,1-2.25.15c-.27-.36-.53-.73-.8-1.1l-.36-.5-.18-.25c-.36-.52-.73-1-1.1-1.54l-.05.19c-.07.32-.15.63-.23.94a2.61,2.61,0,0,0-.08.64c0,1.21,0,2.42,0,3.63v5.48c0,1,0,2.09,0,3.14a1.68,1.68,0,0,1-.34,1,1.23,1.23,0,0,1-2-.11,2.08,2.08,0,0,1-.29-1.15q0-5,0-10.06c0-.1,0-.12,0-.12h0s0,0-.11,0a3,3,0,0,1-.6,0h-.1v.07a.38.38,0,0,1,0,.1v9.94c0,.3,0,.6,0,.91v.63a1.67,1.67,0,0,1-.29,1A1.25,1.25,0,0,1,32.28,42.72ZM30.8,29.25c.34,0,.4.05.4.38V41.09a1.62,1.62,0,0,0,.22.88,1,1,0,0,0,.84.5h0a1,1,0,0,0,.84-.47,1.51,1.51,0,0,0,.24-.85v-.63c0-.3,0-.61,0-.91v-10a.32.32,0,0,1,.06-.28.38.38,0,0,1,.3-.09,2.61,2.61,0,0,0,.56,0,.38.38,0,0,1,.3.07.39.39,0,0,1,.1.31q0,5,0,10.06a1.84,1.84,0,0,0,.25,1,1,1,0,0,0,.8.48,1,1,0,0,0,.83-.39,1.35,1.35,0,0,0,.29-.88c0-1,0-2.1,0-3.15l0-3.87V27.66A2.63,2.63,0,0,1,37,27c.08-.31.15-.62.23-.93l.13-.54.13,0a.33.33,0,0,1,.2.18l0,0,1.12,1.56.18.25.36.51c.26.36.52.73.79,1.09a1.11,1.11,0,0,0,.89.48h.06A1.06,1.06,0,0,0,42,29a1.49,1.49,0,0,0-.05-1.61Q38.61,22,35.29,16.64a.79.79,0,0,1-.11-.39v-.73c0-.28,0-.56,0-.84,0,0,0,0,0-.06H27.73s0,0-.05,0v1.67a.52.52,0,0,1-.13.36c-.18.24-.37.47-.56.71s-.5.64-.76.95A8.43,8.43,0,0,0,24.49,22a12,12,0,0,0-.17,2.39v.23c0,2.15,0,4.3,0,6.45v4.31c0,.41,0,.81,0,1.22s0,.73,0,1.09a1.48,1.48,0,0,0,.16.75,1,1,0,0,0,.91.61h0a1,1,0,0,0,.91-.61,1.77,1.77,0,0,0,.16-.88V30.37c0-.27,0-.55,0-.82a.32.32,0,0,1,.08-.24.29.29,0,0,1,.23-.07c.23,0,.47,0,.71,0a.35.35,0,0,1,.22.07.32.32,0,0,1,.08.24v3.12c0,1.73,0,3.51,0,5.26,0,.51,0,1,0,1.53,0,.27,0,.55,0,.82a1.57,1.57,0,0,0,.18.77,1,1,0,0,0,.91.58h0a1,1,0,0,0,.87-.55,1.41,1.41,0,0,0,.19-.76V29.53a.24.24,0,0,1,.06-.21.3.3,0,0,1,.23-.08h.63Zm7,11.5,0-.23a15.54,15.54,0,0,0,.06-1.66c0-.25,0-.49,0-.74A.28.28,0,0,1,38,37.9a.31.31,0,0,1,.22-.06,1.21,1.21,0,0,1,1.12.76,1.27,1.27,0,0,1-.29,1.4,2.48,2.48,0,0,1-.89.59Zm.33-2.66v0c0,.24,0,.48,0,.73,0,.47,0,1,0,1.47a2.09,2.09,0,0,0,.73-.49,1,1,0,0,0,.25-1.15,1,1,0,0,0-.91-.6Zm-.23-1.35V34.57l.19.14a1,1,0,0,1,.43.79,1.32,1.32,0,0,1-.41,1Zm.25-1.62v1a1.11,1.11,0,0,0,.12-.57A1,1,0,0,0,38.19,35.12ZM24.35,13.54a.3.3,0,0,1-.34-.35c0-2.73,0-5.47,0-8.2a.39.39,0,0,1,.08-.27.39.39,0,0,1,.27-.08H38.78a.39.39,0,0,1,.27.08.38.38,0,0,1,.08.27c0,2.74,0,5.47,0,8.21a.37.37,0,0,1-.08.26.35.35,0,0,1-.27.08H24.35Zm-.08-.25h14.6a.2.2,0,0,0,0-.08c0-2.74,0-5.47,0-8.21a.24.24,0,0,0,0-.09h0a.13.13,0,0,0-.09,0H24.27a.24.24,0,0,0,0,.09c0,2.73,0,5.47,0,8.2a.28.28,0,0,0,0,.1Z"/><path class="cls-1" d="M17.78,14.64l-2.64-.13c-.47,0-.47,0-.45-.49,0-.19-.07-.46.07-.57s.37,0,.56,0l4.65.24c.12,0,.17,0,.14.17-.3,1.66-.59,3.32-.88,5,0,.11-.07.13-.17.11l-.75-.14c-.12,0-.16-.05-.13-.19.19-1,.36-2,.54-3,0-.08,0-.16,0-.26a1.44,1.44,0,0,0-.4.25A24.66,24.66,0,0,0,8.58,29.17a24.34,24.34,0,0,0-1,5.55,25.76,25.76,0,0,0,.08,3.83c0,.14,0,.2-.17.21s-.48,0-.71.06-.17,0-.18-.14A26.17,26.17,0,0,1,7.83,28,26,26,0,0,1,17.6,14.81.41.41,0,0,0,17.78,14.64Z"/><path class="cls-1" d="M6.77,39a.26.26,0,0,1-.15,0,.34.34,0,0,1-.1-.22,27.77,27.77,0,0,1-.06-4.28,26.08,26.08,0,0,1,1.25-6.48A25.7,25.7,0,0,1,11.93,20a26.16,26.16,0,0,1,5.54-5.27l-.41,0-1.92-.1c-.28,0-.41,0-.51-.12s-.08-.24-.06-.49c0-.06,0-.12,0-.17s0-.38.12-.49a.63.63,0,0,1,.49,0h.16l1.94.1,2.71.14a.33.33,0,0,1,.22.09.27.27,0,0,1,0,.23c-.3,1.66-.59,3.32-.88,5a.28.28,0,0,1-.1.18.27.27,0,0,1-.21,0l-.75-.14a.28.28,0,0,1-.2-.1.27.27,0,0,1,0-.23c.14-.78.28-1.56.41-2.34l.13-.7h0l-.09.06-.08.06A24.68,24.68,0,0,0,8.7,29.21a23.6,23.6,0,0,0-.94,5.52,25.34,25.34,0,0,0,.07,3.81.32.32,0,0,1,0,.25.28.28,0,0,1-.23.09,5.88,5.88,0,0,0-.71.07Zm8.16-25.42-.1,0s0,.17,0,.28,0,.14,0,.2a1,1,0,0,0,0,.31.76.76,0,0,0,.33,0l1.92.1.91,0-.09.17a.38.38,0,0,1-.19.19l0,0a25.92,25.92,0,0,0-5.54,5.27A25.47,25.47,0,0,0,8,28a26.22,26.22,0,0,0-1.24,6.43,27.25,27.25,0,0,0,.06,4.24v0h0c.24,0,.49-.06.73-.07h0a.28.28,0,0,0,0-.06,25.74,25.74,0,0,1-.07-3.84,24.12,24.12,0,0,1,1-5.58,24.9,24.9,0,0,1,9.83-13.66l.07-.06a1.36,1.36,0,0,1,.36-.2l.19-.07,0,.27a1.08,1.08,0,0,1,0,.19l-.12.7c-.14.79-.27,1.57-.42,2.35v0h0l.75.13h0v0c.29-1.66.59-3.32.89-5h0l-2.71-.14-1.94-.1-.18,0Zm4.19,5.31Z"/><path class="cls-1" d="M20.51,59.29c.19.5.36,1,.52,1.4s.23.65.36,1c0,.11,0,.16-.09.2l-.71.26c-.11,0-.16,0-.2-.08L18.86,57.9c0-.12,0-.15.1-.19l4-1.18c.12,0,.16,0,.19.11s.13.47.21.69,0,.19-.13.23c-.72.2-1.44.42-2.15.63l-.16.05c0,.1.09.1.14.13a25,25,0,0,0,23.59-.25c.17-.09.24-.07.31.1a6.48,6.48,0,0,0,.33.57c.08.13,0,.17-.08.24A26.3,26.3,0,0,1,25.5,61.27a26.33,26.33,0,0,1-4.76-1.88Z"/><path class="cls-1" d="M32.68,62.38l-1.09,0a26.81,26.81,0,0,1-6.12-1,25.59,25.59,0,0,1-4.73-1.86L21.26,61c.08.22.16.44.25.66a.33.33,0,0,1,0,.22.27.27,0,0,1-.18.14l-.71.26a.24.24,0,0,1-.22,0,.26.26,0,0,1-.14-.17c-.51-1.38-1-2.75-1.53-4.13a.28.28,0,0,1,0-.22.34.34,0,0,1,.18-.13l4-1.18a.3.3,0,0,1,.23,0,.32.32,0,0,1,.13.2,5.49,5.49,0,0,0,.2.68.33.33,0,0,1,0,.24.32.32,0,0,1-.22.15l-1.62.47-.46.14a25.14,25.14,0,0,0,8,2.54A25,25,0,0,0,44.6,58a.3.3,0,0,1,.49.15,4,4,0,0,0,.31.56.3.3,0,0,1,.06.23c0,.1-.11.15-.18.19a26.24,26.24,0,0,1-12.6,3.24ZM20.29,59l.38.18.12.06a26,26,0,0,0,24.37-.36l.05,0,0,0a6.29,6.29,0,0,1-.33-.59c0-.07,0-.08,0-.08l-.09,0a25.22,25.22,0,0,1-23.7.25.28.28,0,0,1-.22-.22v-.11l.79-.24,1.62-.47.07,0s0,0,0,0c-.07-.21-.14-.44-.21-.7,0,0,0,0,0,0h0l-4,1.18h0L20.51,62v0h0l.72-.27h0v0L21,61Z"/><path class="cls-1" d="M58.58,39.14l.85-.77,1.45-1.32c.09-.08.15-.09.23,0s.34.38.51.56.08.14,0,.22l-3.18,2.87-.61.55c-.09.09-.14.11-.22,0l-2.89-4.14c-.08-.1-.07-.15,0-.22l.59-.41c.12-.09.17-.07.25.05L57.32,39c0,.06.09.12.15.22a10.19,10.19,0,0,0,.14-1.28,24.94,24.94,0,0,0-1.89-11.44,25,25,0,0,0-10.55-12,16.73,16.73,0,0,0-1.51-.8c-.15-.08-.17-.14-.09-.28s.21-.4.3-.61.12-.14.24-.08A26.19,26.19,0,0,1,57,26.86a25.24,25.24,0,0,1,1.56,6.41,25.71,25.71,0,0,1,0,5.75A.47.47,0,0,0,58.58,39.14Z"/><path class="cls-1" d="M57.71,41.46h0a.28.28,0,0,1-.19-.14l-2.9-4.14a.25.25,0,0,1,.08-.4c.22-.14.41-.27.58-.4a.31.31,0,0,1,.24-.08c.09,0,.15.09.2.15l1.36,1.95.34.48c0-.32.06-.63.09-.94a26.13,26.13,0,0,0-.08-4.43,24.35,24.35,0,0,0-1.81-7,24.92,24.92,0,0,0-10.5-12c-.54-.32-1-.58-1.49-.8a.34.34,0,0,1-.2-.19.34.34,0,0,1,.05-.26c.11-.21.21-.41.29-.6a.28.28,0,0,1,.16-.18.3.3,0,0,1,.26,0,26.3,26.3,0,0,1,13,14.22,25.69,25.69,0,0,1,1.57,6.44,26.14,26.14,0,0,1,0,5.59l.92-.82L60.8,37a.41.41,0,0,1,.21-.1.31.31,0,0,1,.2.12c.14.17.29.34.5.56a.23.23,0,0,1,.09.2.27.27,0,0,1-.11.19L59.3,40.09l-1,.88-.42.38A.3.3,0,0,1,57.71,41.46ZM54.79,37s0,0,0,0l2.89,4.14h0l0,0c.14-.13.28-.26.43-.38l1-.89,2.4-2.16h0v0c-.21-.22-.37-.4-.52-.57v0l0,0L59.8,38.2l-1.35,1.22V39a26.13,26.13,0,0,0,0-5.73A25.64,25.64,0,0,0,56.9,26.9,26.08,26.08,0,0,0,44.06,12.81l-.06,0,0,0a4.5,4.5,0,0,1-.3.63.11.11,0,0,0,0,.07h0l.06,0c.47.22,1,.49,1.52.81a25.2,25.2,0,0,1,10.6,12.08,24.58,24.58,0,0,1,1.83,7.05,26.31,26.31,0,0,1,.08,4.44,12,12,0,0,1-.14,1.3l-.05.29-.18-.24-.15-.22-.37-.52L55.49,36.6s0-.05,0-.05l0,0c-.18.13-.38.27-.61.41Z"/></svg>