<svg id="Layer_1" data-name="Layer 1" xmlns="http://www.w3.org/2000/svg" viewBox="0 0 50 50"><defs><style>.cls-1{fill:#bd8100;}</style></defs><g id="Layer_3" data-name="Layer 3"><path d="M8.4,26.93h.09l7.65-1.2a.6.6,0,0,0,.48-.7.57.57,0,0,0-.15-.3l-.93-.94,4.08-4.07a7.13,7.13,0,0,1,5.06-2.12,7.26,7.26,0,0,1,6.8,4.75.6.6,0,0,0,.77.36h0a.62.62,0,0,0,.36-.78,8.52,8.52,0,0,0-3-4,8.37,8.37,0,0,0-10.8.91l-4.08,4.08-1.44-1.44a.62.62,0,0,0-.86,0,.61.61,0,0,0,0,.85l1.93,1.93h0l.46.46-5.66.89L10,19.94l.53.53a.6.6,0,0,0,.83,0l0,0h0L15.87,16a12.27,12.27,0,0,1,8.58-3.66h.17A12.74,12.74,0,0,1,36.71,21a.6.6,0,0,0,.57.41.67.67,0,0,0,.2,0,.62.62,0,0,0,.38-.77,14,14,0,0,0-13.24-9.47h-.19a13.56,13.56,0,0,0-5.1,1.09A13.81,13.81,0,0,0,15,15.13l-4,4.06-1-.94a.61.61,0,0,0-.86.06.62.62,0,0,0-.14.28L7.8,26.24a.6.6,0,0,0,.17.52A.63.63,0,0,0,8.4,26.93Z"/><path d="M33.38,24.68a.58.58,0,0,0,.15.61l.93.94L30.38,30.3a7.13,7.13,0,0,1-5.06,2.12,7.26,7.26,0,0,1-6.8-4.75.6.6,0,0,0-.77-.36h0a.62.62,0,0,0-.36.78,8.52,8.52,0,0,0,3,4,8.37,8.37,0,0,0,10.8-.91l4.08-4.08,1.44,1.44a.62.62,0,0,0,.86,0,.61.61,0,0,0,0-.85l-1.93-1.93h0l-.46-.46,5.66-.89L40,30.06l-.53-.53a.6.6,0,0,0-.83,0l0,0h0L34.13,34a12.27,12.27,0,0,1-8.58,3.66h-.17A12.74,12.74,0,0,1,13.29,29a.6.6,0,0,0-.57-.41.67.67,0,0,0-.2,0,.62.62,0,0,0-.38.77,14,14,0,0,0,13.24,9.47h.19a13.56,13.56,0,0,0,5.1-1.09A13.81,13.81,0,0,0,35,34.87l4-4.06.94.94a.61.61,0,0,0,.86-.06.62.62,0,0,0,.14-.28l1.19-7.65a.6.6,0,0,0-.17-.52.63.63,0,0,0-.43-.17h-.09l-7.65,1.2A.57.57,0,0,0,33.38,24.68Z"/><path d="M22.51,26.68l-.72,1.05a6.16,6.16,0,0,0,1.27.73,5.69,5.69,0,0,0,1.21.32V30h1.29V28.82a3.65,3.65,0,0,0,.92-.23,2.44,2.44,0,0,0,.75-.47,2.08,2.08,0,0,0,.49-.68,2,2,0,0,0,.16-.86,1.9,1.9,0,0,0-.61-1.47,4.21,4.21,0,0,0-1.78-.82V22.12a3.87,3.87,0,0,1,1.45.68l.62-1.08a4.24,4.24,0,0,0-1-.55,3.36,3.36,0,0,0-1.08-.27v-.73H24.19v.72a3.77,3.77,0,0,0-.75.2,2.44,2.44,0,0,0-.75.47,1.91,1.91,0,0,0-.48.68,2,2,0,0,0-.15.84,2.25,2.25,0,0,0,.16.85,1.64,1.64,0,0,0,.46.64,2.87,2.87,0,0,0,.76.48,6,6,0,0,0,.82.27v2.25a4.36,4.36,0,0,1-.77-.26A5.85,5.85,0,0,1,22.51,26.68Zm3.43-.88a1.69,1.69,0,0,1,.36.23.75.75,0,0,1,.18.28,1,1,0,0,1,.06.35.88.88,0,0,1-.28.68,1.36,1.36,0,0,1-.72.3v-2A2.78,2.78,0,0,1,25.94,25.8Zm-2.35-2.21a.91.91,0,0,1,0-1.25,1,1,0,0,1,.54-.28v1.87A1.46,1.46,0,0,1,23.59,23.59Z"/><path class="cls-1" d="M45.52,33.67a22.31,22.31,0,1,0-4.77,7.08A22.31,22.31,0,0,0,45.52,33.67Zm-35.63,5-1-1.29A20.29,20.29,0,0,1,37.36,8.9l1.29,1L37.5,11,11,37.5ZM25,45.31A20.39,20.39,0,0,1,12.64,41.1l-1.29-1L12.5,39,39,12.5l1.14-1.15,1,1.29A20.29,20.29,0,0,1,25,45.31Z"/></g></svg>