<svg id="Layer_1" data-name="Layer 1" xmlns="http://www.w3.org/2000/svg" viewBox="0 0 50 50"><defs><style>.cls-1{fill:#bd8100;stroke:#231f20;stroke-miterlimit:10;stroke-width:0.25px;}</style></defs><path class="cls-1" d="M36.82,39.33c1.4.55,2.21,1.2,2.21,1.9,0,2-6.49,3.58-14.5,3.58S10,43.21,10,41.23c0-.58.56-1.12,1.54-1.61-.21-.08-4.45,1.6-4.45,2.74,0,2.6,7.79,4.71,17.41,4.71S41.94,45,41.94,42.36C41.94,41.05,36.86,39.28,36.82,39.33Z"/><path class="cls-1" d="M42.69,30.15a3.92,3.92,0,0,0-3.44-2.09v-2H9.81V30A12.75,12.75,0,0,0,22.56,42.75H26.5A12.73,12.73,0,0,0,37.15,37c.19-.06.37-.13.56-.21C41.35,35.33,43.58,32.36,42.69,30.15ZM37.75,36a12.69,12.69,0,0,0,1.5-6v-.51a2.75,2.75,0,0,1,2,1.51C41.94,32.64,40.37,34.83,37.75,36Z"/><path class="cls-1" d="M23.85,23.93s-8.3-4.09-4.2-8.29S26.37,11.44,25,2.93C27,6,28.88,9.55,27,13.17a10.82,10.82,0,0,1-2.66,3.21,11.09,11.09,0,0,0-2.19,2.08C20.77,20.48,22.44,22.48,23.85,23.93Z"/><path class="cls-1" d="M27.71,24.89s-6-2.95-3-6,4.85-3,3.87-9.17C30,12,31.34,14.52,30,17.13a7.63,7.63,0,0,1-1.92,2.31,8.33,8.33,0,0,0-1.58,1.5C25.49,22.4,26.7,23.85,27.71,24.89Z"/></svg>