<?xml version="1.0" encoding="utf-8"?>
<!-- Generator: Adobe Illustrator 25.2.1, SVG Export Plug-In . SVG Version: 6.00 Build 0)  -->
<svg version="1.1" id="Layer_1" xmlns="http://www.w3.org/2000/svg" xmlns:xlink="http://www.w3.org/1999/xlink" x="0px" y="0px"
	 viewBox="0 0 50 50" style="enable-background:new 0 0 50 50;" xml:space="preserve">
<style type="text/css">
	.st0{fill:#756096;}
	.st1{fill:#9B7AC7;}
	.st2{fill:none;stroke:#868686;stroke-width:0.75;stroke-miterlimit:10;}
	.st3{fill:#E94D75;}
	.st4{fill:#1D1D1B;}
	.st5{fill:none;stroke:#E8477A;stroke-width:0.5;stroke-miterlimit:10;}
	.st6{fill:none;stroke:#DD255E;stroke-width:0.5;stroke-miterlimit:10;}
	.st7{fill:#9C9B9B;}
	.st8{fill:none;stroke:#868686;stroke-width:0.5;stroke-miterlimit:10;}
	.st9{fill:#868686;}
	.st10{fill:#E8477A;}
	.st11{fill:#DD255E;}
	.st12{fill:#7B5FA4;}
	.st13{fill:#7B60A5;}
	.st14{fill:#AFB5BF;}
	.st15{fill:#DEDEE0;}
	.st16{fill:#ABA5B5;}
	.st17{fill:#D6D6D6;}
	.st18{fill:none;stroke:#868686;stroke-width:2;stroke-miterlimit:10;}
	.st19{fill:none;stroke:#DD255E;stroke-width:2;stroke-miterlimit:10;}
	.st20{fill:none;stroke:#7B5FA4;stroke-width:8;stroke-miterlimit:10;}
	.st21{fill:none;stroke:#B0B5C0;stroke-width:8;stroke-miterlimit:10;}
	.st22{fill:none;stroke:#DEDEE0;stroke-width:8;stroke-miterlimit:10;}
	.st23{fill:none;stroke:#868686;stroke-miterlimit:10;}
	.st24{fill:#8F8A9B;}
	.st25{fill:#FFFFFF;}
	.st26{fill:#AAB6C2;}
	.st27{fill:#216835;}
	.st28{fill:#1C3F75;}
	.st29{fill:#298346;}
	.st30{fill:#25723B;}
	.st31{fill:#DFEDED;}
	.st32{fill:#5C7D9E;}
	.st33{fill:none;stroke:#63547F;stroke-width:0.75;stroke-miterlimit:10;}
	.st34{fill:#554A6D;}
	.st35{fill:none;stroke:#216835;stroke-width:0.25;stroke-miterlimit:10;}
	.st36{fill:none;stroke:#AAAAAA;stroke-width:0.25;stroke-miterlimit:10;}
	.st37{fill:#A9A9A9;}
	.st38{fill:#F9F9F9;}
	.st39{fill:#AAAAAA;}
	.st40{fill:#63547F;}
	.st41{fill:none;stroke:#756096;stroke-width:0.75;stroke-miterlimit:10;}
</style>
<g>
	<path class="st16" d="M39.93,21.66c-0.39-0.4-0.89-0.66-1.45-0.74c-0.05-0.02-0.1-0.02-0.16-0.03v-0.01
		c-0.45-2.07-1.89-3.62-3.67-4c-0.17-0.05-0.36-0.08-0.54-0.09V5.17c0-2.06-1.66-3.73-3.72-3.73h-8.81c-2.05,0-3.73,1.67-3.73,3.73
		v11.6h-0.51c-2.16,0-4.03,1.72-4.54,4.12c-1.34,0.14-2.38,1.27-2.38,2.65h-0.01v19.93c0,3.01,2.45,5.46,5.47,5.46h19.37
		c3,0,5.45-2.45,5.45-5.46v-3.55h0.01V23.54C40.71,22.84,40.43,22.17,39.93,21.66z M28.14,43.26c0,1.1-0.78,1.99-1.72,1.99V41.3
		C27.36,41.3,28.14,42.19,28.14,43.26z M25.54,41.3v3.95c-0.97,0-1.75-0.89-1.75-1.99C23.79,42.19,24.57,41.3,25.54,41.3z"/>
	<path class="st24" d="M25.97,39.59c-2.04,0-3.69,1.65-3.69,3.68c0,2.04,1.65,3.69,3.69,3.69c2.03,0,3.68-1.65,3.68-3.69
		C29.65,41.24,28,39.59,25.97,39.59z M25.54,45.25c-0.97,0-1.75-0.89-1.75-1.99c0-1.07,0.78-1.96,1.75-1.96V45.25z M26.42,45.25
		V41.3c0.94,0,1.72,0.89,1.72,1.96C28.14,44.36,27.36,45.25,26.42,45.25z"/>
	<path class="st24" d="M35.41,48.93H16.04c-3.01,0-5.47-2.45-5.47-5.46V23.54h0.83v19.93c0,2.55,2.08,4.62,4.63,4.62h19.37
		c2.55,0,4.62-2.07,4.62-4.62V23.54h0.83v19.93C40.86,46.48,38.41,48.93,35.41,48.93z"/>
	<path class="st24" d="M37.71,21.36c-0.34-2.18-1.93-3.75-3.79-3.75H17.5c-1.85,0-3.44,1.58-3.79,3.75l-0.82-0.13
		c0.4-2.58,2.34-4.46,4.61-4.46h16.43c2.27,0,4.2,1.88,4.61,4.46L37.71,21.36z"/>
	<path class="st24" d="M40.87,23.54v16.38h-0.83V23.54c0-0.48-0.2-0.94-0.54-1.3c-0.33-0.34-0.79-0.53-1.29-0.53
		c-1.01,0-1.83,0.82-1.83,1.83v15.33c-0.27,0-0.55,0-0.82,0V23.54c0-1.27,0.89-2.33,2.08-2.6c0.19-0.04,0.38-0.07,0.58-0.07
		c0.09,0,0.18,0,0.27,0.01c0.62,0.07,1.19,0.33,1.62,0.78C40.59,22.18,40.87,22.84,40.87,23.54z"/>
	<path class="st24" d="M15.89,23.54v15.33h-0.83V23.54c0-0.48-0.2-0.94-0.54-1.3c-0.33-0.34-0.79-0.53-1.29-0.53
		c-1.01,0-1.83,0.82-1.83,1.83v16.88h-0.82V23.54c0-1.38,1.04-2.51,2.39-2.65c0.09-0.01,0.18-0.01,0.27-0.01
		c0.2,0,0.39,0.02,0.58,0.07c0.5,0.1,0.95,0.36,1.31,0.72C15.62,22.18,15.89,22.84,15.89,23.54z"/>
	<path class="st24" d="M35.55,37.99v0.85c-0.26-0.12-0.5-0.25-0.76-0.35c-0.63-0.29-1.28-0.53-1.92-0.75
		c-1.27-0.42-2.59-0.74-3.92-0.92l-6.11-0.07c-1.17,0.15-2.39,0.41-3.55,0.77c-0.89,0.27-1.77,0.59-2.62,0.99l-0.77,0.36v-0.85
		c0.25-0.12,0.5-0.25,0.77-0.36c0.78-0.34,1.58-0.63,2.4-0.88c1.22-0.37,2.47-0.63,3.74-0.8l6.21,0.07c1.42,0.2,2.78,0.52,4.11,0.96
		c0.56,0.18,1.13,0.4,1.68,0.63C35.05,37.75,35.3,37.87,35.55,37.99z"/>
	<path class="st24" d="M33.91,17.55l-0.01-0.46c0-0.15-0.01-0.44-0.02-0.52l0.02,0V5.17c0-1.85-1.5-3.35-3.35-3.35h-8.8
		c-1.85,0-3.35,1.5-3.35,3.35l0.02,11.37c-0.01,0.08-0.02,0.4-0.02,0.54l-0.38,0.45l-0.37-0.39V5.17c0-2.26,1.84-4.1,4.1-4.1h8.8
		c2.26,0,4.1,1.84,4.1,4.1v12.35L33.91,17.55z"/>
</g>
</svg>
