<svg id="Layer_1" data-name="Layer 1" xmlns="http://www.w3.org/2000/svg" viewBox="0 0 50 50"><defs><style>.cls-1{fill:#bd8100;stroke:#231f20;stroke-miterlimit:10;stroke-width:0.75px;}</style></defs><path class="cls-1" d="M23.63,4H22.9V15.52a3.68,3.68,0,0,1-3,3.62V4H16.17V19.14a3.68,3.68,0,0,1-3.05-3.62V4h-.74A2.94,2.94,0,0,0,9.44,6.91v8.61a7.34,7.34,0,0,0,6.73,7.32V46.2h3.68V22.84a7.34,7.34,0,0,0,6.73-7.32V6.91A2.94,2.94,0,0,0,23.63,4Z"/><path class="cls-1" d="M40.52,19.7V5.93A2.12,2.12,0,0,0,37,4.3a12.08,12.08,0,0,0-4.36,9.29V25.08a5.91,5.91,0,0,0,4.2,5.66V46.2h3.68V19.7Z"/></svg>