<svg xmlns="http://www.w3.org/2000/svg" viewBox="0 0 50 50"><defs><style>.cls-1{opacity:0.25;}.cls-2{fill:#bfbfbe;stroke-width:0.25px;}.cls-2,.cls-3{stroke:#2a5aff;stroke-miterlimit:10;}.cls-3{fill:none;stroke-width:1.96px;}.cls-4{fill:#2a5aff;}</style></defs><g id="Layer_2" data-name="Layer 2" class="cls-1"><path class="cls-2" d="M10,5.07H40a4.4,4.4,0,0,1,4.4,4.42v31a4.41,4.41,0,0,1-4.4,4.4H10a4.42,4.42,0,0,1-4.4-4.44h0V9.52A4.4,4.4,0,0,1,10,5.07Z"/><path class="cls-3" d="M5.6,18V42a2.88,2.88,0,0,0,2.88,2.88H41A2.88,2.88,0,0,0,43.88,42h0V17.17"/><path class="cls-4" d="M38.35,44l-27.23.09,1.05-4.23H37.42Z"/></g></svg>