<svg id="Layer_1" data-name="Layer 1" xmlns="http://www.w3.org/2000/svg" viewBox="0 0 50 50"><defs><style>.cls-1{fill:#bd8100;}.cls-2{fill:#231f20;}.cls-3{fill:#b2b2b2;}.cls-4{fill:#1a323d;}</style></defs><path class="cls-1" d="M39,34.64l-2.6,4.9a1.27,1.27,0,0,1-1.11.67h-7a.79.79,0,0,0-.79.79v1.07c0,.43.35,1.51.79,1.51h6.47a.73.73,0,0,1,.72.72v.42a.72.72,0,0,1-.72.72H18.41a.72.72,0,0,1-.72-.72V44.3a.73.73,0,0,1,.72-.72h5.8c.44,0,.79-1.08.79-1.51V41a.79.79,0,0,0-.79-.79H17.52L11,14.68a2.36,2.36,0,0,1,0-.75l.39-7.2a2.33,2.33,0,0,1,2.3-2.17A2,2,0,0,1,15.7,6.73l-.4,7.33,5,11.69H17.13a.91.91,0,0,0-.91.91v1.78a.91.91,0,0,0,.91.91h1.15l0,0a.91.91,0,0,1,.26-.64.89.89,0,0,1,.64-.27h2.22l2.51,5.89a.47.47,0,0,0,.55.27c7.25-1.8,9.19-1.46,12.08-1.46C39.85,33.11,39,34.64,39,34.64Z"/><path class="cls-2" d="M34.79,45.81H18.41a1.09,1.09,0,0,1-1.09-1.09V44.3a1.09,1.09,0,0,1,1.09-1.09h5.78a2,2,0,0,0,.44-1.14V41a.42.42,0,0,0-.42-.42h-7l-.07-.28L10.59,14.78v0a2.54,2.54,0,0,1,0-.87L11,6.71a2.7,2.7,0,0,1,2.67-2.52,2.41,2.41,0,0,1,2.43,2.56L15.68,14l5.17,12.12H17.13a.54.54,0,0,0-.54.54v1.78a.54.54,0,0,0,.54.54H18a1.23,1.23,0,0,1,.33-.56,1.27,1.27,0,0,1,.9-.38h2.46l2.61,6.11a.1.1,0,0,0,.12.06c6.29-1.56,8.59-1.52,11-1.48h1.16c1.49,0,2.38.3,2.73.91a1.2,1.2,0,0,1,0,1.17l-2.59,4.9a1.63,1.63,0,0,1-1.44.86h-7a.42.42,0,0,0-.42.42v1.07a2,2,0,0,0,.44,1.14h6.45a1.09,1.09,0,0,1,1.09,1.09v.42A1.09,1.09,0,0,1,34.79,45.81ZM18.41,44a.35.35,0,0,0-.35.35v.42a.35.35,0,0,0,.35.35H34.79a.35.35,0,0,0,.35-.35V44.3a.35.35,0,0,0-.35-.35H28.32c-.8,0-1.16-1.44-1.16-1.88V41a1.16,1.16,0,0,1,1.16-1.16h7a.87.87,0,0,0,.78-.47l2.6-4.91a.44.44,0,0,0,0-.44c-.1-.16-.49-.54-2.09-.54H35.4c-2.38,0-4.62-.08-10.82,1.46a.84.84,0,0,1-1-.48l-2.42-5.67h-2a.52.52,0,0,0-.37.16.49.49,0,0,0-.16.38.4.4,0,0,1-.4.4H17.13a1.28,1.28,0,0,1-1.28-1.28V26.66a1.28,1.28,0,0,1,1.28-1.28h2.6l-4.8-11.25V14l.4-7.33a1.68,1.68,0,0,0-1.69-1.78,2,2,0,0,0-1.93,1.82L11.32,14v0a2.15,2.15,0,0,0,0,.62c.15.57,4.81,18.7,6.49,25.23h6.41A1.16,1.16,0,0,1,25.37,41v1.07c0,.44-.36,1.88-1.16,1.88Z"/><path class="cls-3" d="M35.77,26.66v1.78a.91.91,0,0,1-.9.91l-3.24-.94H19.21a.89.89,0,0,0-.64.27.91.91,0,0,0-.26.64l0,0H17.13a.91.91,0,0,1-.91-.91V26.66a.91.91,0,0,1,.91-.91H34.87A.91.91,0,0,1,35.77,26.66Z"/><path class="cls-4" d="M34.87,29.72h-.06l-3.23-.94H19.21a.52.52,0,0,0-.37.16.49.49,0,0,0-.16.38.4.4,0,0,1-.4.4H17.13a1.28,1.28,0,0,1-1.28-1.28V26.66a1.28,1.28,0,0,1,1.28-1.28H34.87a1.27,1.27,0,0,1,1.27,1.28v1.78A1.27,1.27,0,0,1,34.87,29.72Zm-17.74-3.6a.54.54,0,0,0-.54.54v1.78a.54.54,0,0,0,.54.54H18a1.23,1.23,0,0,1,.33-.56,1.27,1.27,0,0,1,.9-.38H31.68l3.23.93a.53.53,0,0,0,.49-.53V26.66a.54.54,0,0,0-.53-.54Z"/></svg>