<svg xmlns="http://www.w3.org/2000/svg" viewBox="0 0 1920 450"><defs><style>.cls-1{isolation:isolate;}.cls-2{fill:#f7f9f9;}.cls-3{font-size:176.33px;fill:#ff9f00;font-family:Roboto-Black, Roboto Black;}.cls-3,.cls-33,.cls-34{font-weight:800;}.cls-4{fill:#cb202c;}.cls-23,.cls-5,.cls-7{fill:#ededee;}.cls-5{opacity:0.7;}.cls-23,.cls-5{mix-blend-mode:screen;}.cls-6{fill:#850a12;}.cls-8{fill:#494e53;}.cls-14,.cls-24,.cls-9{opacity:0.5;}.cls-14,.cls-16,.cls-9{mix-blend-mode:multiply;}.cls-10{fill:#a4a4a8;}.cls-11{fill:#2a4360;}.cls-12{fill:#436387;}.cls-13{fill:#700004;}.cls-14{fill:#95111a;}.cls-15{fill:#a9b2b2;}.cls-16,.cls-19{fill:#cbd5d4;}.cls-17{fill:#e6dfd6;}.cls-18{fill:#94918d;}.cls-20{fill:#d8d9da;}.cls-21{fill:#babcbd;}.cls-22,.cls-24,.cls-26{fill:#fff;}.cls-22{opacity:0.6;}.cls-25{fill:#e0efff;}.cls-27{fill:#c6daf1;}.cls-28{fill:#007cff;}.cls-29{fill:#ececec;}.cls-30{fill:#f5f5f5;}.cls-31{fill:#f0f0f0;}.cls-32{fill:#e7e7e7;}.cls-33,.cls-34{font-size:60px;font-family:Montserrat-ExtraBold, Montserrat;}.cls-33,.cls-35{fill:#10213a;}.cls-34{fill:#ff7300;}.cls-35{font-size:28.45px;font-family:Montserrat-Regular, Montserrat;}</style></defs><g class="cls-1"><g id="Layer_4" data-name="Layer 4"><rect class="cls-2" width="1920" height="450"/><text class="cls-3" transform="translate(778.19 219.7)">204</text><path class="cls-4" d="M1035.16,201.41l-2.52-4.28,0,0c-.82-.74-1.44-1.59-2.69-1.6a13.58,13.58,0,0,0-2.61.53c-6.85,1.83-12.36,3.28-16.74,4.42-1.05.27-15.88-2.42-16.8-2.18-7.64,2,2,6.68,1.58,6.88-1.48.65,16.93,13.24,20.17,17l18.65-18.08A6.64,6.64,0,0,0,1035.16,201.41Z"/><path class="cls-4" d="M1032.75,198.09l0,0,2.28,3.87a3.82,3.82,0,0,0,.11-.57l-2.52-4.28,0,0-.32-.3A2.18,2.18,0,0,0,1032.75,198.09Z"/><path class="cls-5" d="M993.92,199.25c.92-.24,15.75,2.45,16.79,2.18,4.38-1.14,9.9-2.58,16.74-4.41a7.54,7.54,0,0,0,2-1.47c-.74.09-1.45.36-2.16.49-6.85,1.83-12.36,3.28-16.74,4.42-1.05.27-15.88-2.42-16.8-2.18-2.77.72-3.26,1.79-2.78,2.89C991.16,200.43,992,199.75,993.92,199.25Z"/><path class="cls-6" d="M1035.16,201.41l-2.52-4.28,0,0a5,5,0,0,0-2.21-1.55,6.18,6.18,0,0,1,.62.63c1.25,1.51,3.65,4.33,1.81,6.24-3.25,3.36-7.16,6.24-10.72,9.28-3.09,2.64-6.11,5.39-9.19,8a25,25,0,0,1,2.6,2.41l18.65-18.08A6.64,6.64,0,0,0,1035.16,201.41Z"/><path class="cls-7" d="M888.94,135c23.4-1.77,26.19,1.61,38,11s44.74,37,57.1,47,24.93,20.91,26.06,22a108.92,108.92,0,0,1,8.11,10.08,33,33,0,0,1,2.63,3.92c.63,1.3-2.09,3.71-4.65,3.73-.59,0-6.89-.59-6.89-.59s-3.38,0-9.64-2.18c-5.38-1.86-58.22-28.15-105.39-66-13.45-10.8-18.35-24.75-15.86-28S888.94,135,888.94,135Z"/><path class="cls-8" d="M910.71,149a25,25,0,0,0,4.29-2.54,1.7,1.7,0,0,0,.58-2q-1.64-1.41-3.66-3.08l-1.11-.91L900,143.42a58.59,58.59,0,0,0,5.23,4.56C907.12,149.37,908.41,150,910.71,149Z"/><path class="cls-8" d="M891.11,135s8.69-.91,10.84-.37c.52.12,2.29.64,8.23,5.22l-10.59,3C897.2,140.72,893.74,137.66,891.11,135Z"/><g class="cls-9"><path class="cls-8" d="M913,147.77c.69-.42,1.36-.87,2-1.34a1.7,1.7,0,0,0,.58-2q-1.64-1.41-3.66-3.08l-1.11-.91-4.63,1.26C908.52,143.67,910.76,145.7,913,147.77Z"/><path class="cls-8" d="M897.31,135.83a24,24,0,0,1,6.16,3.74c.7.53,1.38,1.07,2.06,1.62l4.65-1.33c-5.94-4.58-7.71-5.1-8.23-5.22-1.55-.39-6.5,0-9.14.21A21.37,21.37,0,0,1,897.31,135.83Z"/></g><path class="cls-10" d="M919.75,169.14a4.6,4.6,0,0,1-.38-.33l-4-3.2c-1.33-2.05.56-4.19.58-4.21.21-.26,5.24-6.6,6.74-8a2.15,2.15,0,0,1,3-.14,2.7,2.7,0,0,1,.22.19l2.32,1.94,2.38,1.95,0,0a1.15,1.15,0,0,1,.45.81c.12,1.19-1.29,2.85-1.35,2.92a97.61,97.61,0,0,1-6.68,7.93A2.46,2.46,0,0,1,919.75,169.14Zm-4.1-3.71,3.92,3.17a2.23,2.23,0,0,0,.35.31,2.15,2.15,0,0,0,3-.12,103,103,0,0,0,6.65-7.9s1.4-1.64,1.28-2.71a.83.83,0,0,0-.33-.61l0,0-2.38-1.95-2.33-2s-.08-.08-.2-.17a1.86,1.86,0,0,0-2.59.13c-1.49,1.4-6.67,7.93-6.72,8S914.46,163.57,915.65,165.43Z"/><path class="cls-10" d="M935,168.6l-.1-.08-1.07-.81,0,0a1.09,1.09,0,0,1,.13-1.29c0-.07,1.33-1.8,1.72-2.19a.71.71,0,0,1,1-.07l.06.05,1.27,1h0a.44.44,0,0,1,.18.31,1.45,1.45,0,0,1-.36.88,23.68,23.68,0,0,1-1.71,2.18A.78.78,0,0,1,935,168.6Z"/><path class="cls-11" d="M935.09,168.34a.31.31,0,0,1-.08-.07l-1-.7v0a1,1,0,0,1,.11-1.13s1.17-1.57,1.52-1.92a.63.63,0,0,1,.86-.06.12.12,0,0,0,0,0l1.12.87h0a.35.35,0,0,1,.16.27,1.33,1.33,0,0,1-.31.77,22.13,22.13,0,0,1-1.51,1.91A.69.69,0,0,1,935.09,168.34Z"/><path class="cls-12" d="M935.32,165.48l1.49,1.13.2-.26a1.81,1.81,0,0,0,.36-.73.28.28,0,0,0-.09-.22h0l-.78-.62,0,0c-.16-.12-.42-.13-.7.17-.1.11-.27.32-.45.56Z"/><path class="cls-10" d="M938.73,171.43a.61.61,0,0,1-.09-.09l-1.08-.8v0a1.1,1.1,0,0,1,.12-1.29c.05-.07,1.34-1.8,1.73-2.2a.71.71,0,0,1,1-.06l0,0,1.27,1h0a.46.46,0,0,1,.18.31,1.45,1.45,0,0,1-.36.88c0,.06-1.24,1.72-1.72,2.18A.78.78,0,0,1,938.73,171.43Z"/><path class="cls-11" d="M938.83,171.17l-.09-.07-.94-.71v0a1,1,0,0,1,.11-1.13c0-.06,1.17-1.58,1.51-1.93a.63.63,0,0,1,.86-.05l.05,0,1.11.86h0a.43.43,0,0,1,.16.27,1.3,1.3,0,0,1-.32.78,23.2,23.2,0,0,1-1.5,1.91A.69.69,0,0,1,938.83,171.17Z"/><path class="cls-12" d="M939.06,168.31l1.49,1.13.19-.26a1.68,1.68,0,0,0,.37-.73.25.25,0,0,0-.1-.22h0l-.79-.62,0,0c-.16-.12-.43-.14-.71.17-.09.1-.26.31-.45.55Z"/><path class="cls-10" d="M942.47,174.25a.39.39,0,0,1-.09-.08l-1.08-.81v0a1.09,1.09,0,0,1,.12-1.29c.05-.06,1.33-1.79,1.73-2.19a.71.71,0,0,1,1-.06l0,0,1.27,1h0a.45.45,0,0,1,.19.31,1.55,1.55,0,0,1-.36.88c0,.06-1.24,1.71-1.72,2.18A.79.79,0,0,1,942.47,174.25Z"/><path class="cls-11" d="M942.57,174l-.09-.07-.94-.71v0a.93.93,0,0,1,.11-1.13c0-.06,1.17-1.58,1.51-1.93a.62.62,0,0,1,.86,0l0,0,1.11.87h0a.4.4,0,0,1,.17.27,1.33,1.33,0,0,1-.32.78,23.29,23.29,0,0,1-1.51,1.91A.67.67,0,0,1,942.57,174Z"/><path class="cls-12" d="M942.79,171.14l1.5,1.13.19-.27a1.63,1.63,0,0,0,.36-.73.24.24,0,0,0-.09-.22h0l-.79-.61a.07.07,0,0,0,0,0c-.16-.12-.43-.14-.71.16l-.45.56Z"/><path class="cls-10" d="M946.21,177.08l-.1-.08-1.07-.81,0,0a1.1,1.1,0,0,1,.13-1.29c.05-.07,1.33-1.8,1.73-2.19a.7.7,0,0,1,1-.07l.06,0,1.27,1h0a.44.44,0,0,1,.18.31,1.39,1.39,0,0,1-.36.88,23.68,23.68,0,0,1-1.71,2.18A.78.78,0,0,1,946.21,177.08Z"/><path class="cls-11" d="M946.3,176.83l-.08-.08-.94-.7,0,0a1,1,0,0,1,.11-1.14s1.17-1.57,1.52-1.92a.62.62,0,0,1,.86-.06l0,0,1.12.87h0a.35.35,0,0,1,.16.27,1.33,1.33,0,0,1-.31.77,22.13,22.13,0,0,1-1.51,1.91A.7.7,0,0,1,946.3,176.83Z"/><path class="cls-12" d="M946.53,174l1.5,1.13.19-.26a1.69,1.69,0,0,0,.36-.73.25.25,0,0,0-.09-.22h0l-.79-.62,0,0c-.16-.12-.43-.14-.71.16-.1.11-.26.32-.45.55C946.51,174,946.52,174,946.53,174Z"/><path class="cls-10" d="M949.94,179.91l-.09-.08-1.07-.81,0,0a1.07,1.07,0,0,1,.13-1.28c.05-.07,1.33-1.8,1.72-2.2a.71.71,0,0,1,1-.06l.06.05,1.27,1h0a.42.42,0,0,1,.18.31,1.39,1.39,0,0,1-.36.88,23.68,23.68,0,0,1-1.71,2.18A.79.79,0,0,1,949.94,179.91Z"/><path class="cls-11" d="M950,179.65l-.08-.07-1-.71v0a1,1,0,0,1,.11-1.13c0-.06,1.17-1.58,1.52-1.93a.63.63,0,0,1,.86,0,.12.12,0,0,1,0,0l1.12.86h0a.39.39,0,0,1,.16.28,1.36,1.36,0,0,1-.31.77A22.13,22.13,0,0,1,951,179.6.69.69,0,0,1,950,179.65Z"/><path class="cls-12" d="M950.27,176.79l1.49,1.13.2-.26a1.81,1.81,0,0,0,.36-.73.25.25,0,0,0-.1-.22h0l-.78-.62,0,0c-.16-.12-.42-.14-.7.17a6.12,6.12,0,0,0-.45.55Z"/><path class="cls-10" d="M953.68,182.73a.39.39,0,0,1-.09-.08l-1.08-.81v0a1.09,1.09,0,0,1,.12-1.29c0-.06,1.34-1.79,1.73-2.19a.71.71,0,0,1,1-.06l0,0,1.27,1h0a.42.42,0,0,1,.19.31,1.55,1.55,0,0,1-.36.88,27.39,27.39,0,0,1-1.72,2.18A.79.79,0,0,1,953.68,182.73Z"/><path class="cls-11" d="M953.78,182.48l-.09-.07-.94-.71v0a1,1,0,0,1,.11-1.13c0-.06,1.17-1.58,1.51-1.93a.62.62,0,0,1,.86-.05l0,0,1.11.87h0a.45.45,0,0,1,.16.27,1.33,1.33,0,0,1-.32.78s-1.08,1.5-1.5,1.91A.69.69,0,0,1,953.78,182.48Z"/><path class="cls-12" d="M954,179.62l1.49,1.13.19-.27a1.62,1.62,0,0,0,.37-.73.27.27,0,0,0-.1-.22h0l-.79-.61,0,0c-.16-.12-.43-.14-.71.16l-.45.56Z"/><path class="cls-10" d="M957.42,185.56l-.1-.08-1.07-.81v0a1.09,1.09,0,0,1,.12-1.29c0-.07,1.33-1.8,1.73-2.19a.71.71,0,0,1,1-.07l0,.05,1.27,1h0a.49.49,0,0,1,.19.31,1.59,1.59,0,0,1-.36.89c-.05.06-1.24,1.71-1.72,2.17A.78.78,0,0,1,957.42,185.56Z"/><path class="cls-11" d="M957.51,185.31l-.08-.08-.94-.7v0a.94.94,0,0,1,.11-1.14c0-.05,1.17-1.57,1.51-1.92a.61.61,0,0,1,.86,0l0,0,1.11.87h0a.4.4,0,0,1,.17.27,1.26,1.26,0,0,1-.32.77,22.13,22.13,0,0,1-1.51,1.91A.7.7,0,0,1,957.51,185.31Z"/><path class="cls-12" d="M957.75,182.44l1.49,1.13.19-.26a1.63,1.63,0,0,0,.36-.73.23.23,0,0,0-.09-.22h0l-.79-.62,0,0c-.16-.12-.43-.14-.71.16l-.45.56Z"/><path class="cls-10" d="M961.16,188.39l-.1-.08L960,187.5l0,0a1.09,1.09,0,0,1,.13-1.29c0-.07,1.33-1.8,1.72-2.2a.71.71,0,0,1,1-.06l.05,0,1.28,1h0a.42.42,0,0,1,.18.31,1.39,1.39,0,0,1-.36.88,25.13,25.13,0,0,1-1.71,2.18A.78.78,0,0,1,961.16,188.39Z"/><path class="cls-11" d="M961.25,188.13l-.08-.07-.95-.71v0a1,1,0,0,1,.11-1.13c0-.06,1.17-1.58,1.52-1.93a.63.63,0,0,1,.86-.05l0,0,1.12.86h0a.39.39,0,0,1,.16.27,1.37,1.37,0,0,1-.31.78,22.13,22.13,0,0,1-1.51,1.91A.69.69,0,0,1,961.25,188.13Z"/><path class="cls-12" d="M961.48,185.27l1.5,1.13.19-.26a1.81,1.81,0,0,0,.36-.73.24.24,0,0,0-.09-.22h0l-.79-.62,0,0c-.16-.12-.43-.14-.71.17a6.12,6.12,0,0,0-.45.55S961.47,185.26,961.48,185.27Z"/><path class="cls-10" d="M964.89,191.21a.39.39,0,0,1-.09-.08l-1.07-.81,0,0a1.09,1.09,0,0,1,.13-1.29c0-.06,1.33-1.79,1.72-2.19a.71.71,0,0,1,1-.06.11.11,0,0,1,.05,0l1.28,1h0a.42.42,0,0,1,.18.31,1.48,1.48,0,0,1-.36.88,23.76,23.76,0,0,1-1.72,2.18A.79.79,0,0,1,964.89,191.21Z"/><path class="cls-11" d="M965,191l-.08-.07-.95-.71v0a1,1,0,0,1,.11-1.13c0-.06,1.17-1.58,1.51-1.93a.62.62,0,0,1,.86,0,.11.11,0,0,1,.05,0l1.12.86h0a.39.39,0,0,1,.16.27,1.33,1.33,0,0,1-.32.78,21.18,21.18,0,0,1-1.5,1.91A.69.69,0,0,1,965,191Z"/><path class="cls-12" d="M965.22,188.1l1.49,1.13.2-.27a1.74,1.74,0,0,0,.36-.73.27.27,0,0,0-.1-.22h0l-.78-.61,0,0c-.16-.12-.43-.14-.7.17-.1.1-.27.31-.46.55Z"/><path class="cls-10" d="M968.63,194a.39.39,0,0,1-.09-.08l-1.08-.81v0a1.09,1.09,0,0,1,.12-1.29c0-.06,1.34-1.8,1.73-2.19a.7.7,0,0,1,1-.06l.05,0,1.27,1h0a.45.45,0,0,1,.19.31,1.59,1.59,0,0,1-.36.89c0,.06-1.24,1.71-1.72,2.17A.78.78,0,0,1,968.63,194Z"/><path class="cls-11" d="M968.73,193.79a.39.39,0,0,1-.09-.08l-.94-.7v0a1,1,0,0,1,.11-1.14s1.17-1.57,1.51-1.92a.62.62,0,0,1,.86-.06l.05,0,1.11.87h0a.42.42,0,0,1,.16.27,1.26,1.26,0,0,1-.32.77,21.61,21.61,0,0,1-1.5,1.91A.7.7,0,0,1,968.73,193.79Z"/><path class="cls-12" d="M969,190.92l1.49,1.13.19-.26a1.73,1.73,0,0,0,.37-.73.26.26,0,0,0-.1-.22h0l-.79-.62,0,0c-.16-.12-.43-.14-.71.16l-.45.56Z"/><path class="cls-10" d="M972.37,196.87l-.1-.08L971.2,196l0,0a1.1,1.1,0,0,1,.13-1.29c.05-.07,1.33-1.8,1.73-2.2a.71.71,0,0,1,1-.06l.05.05,1.27,1h0a.49.49,0,0,1,.19.31,1.45,1.45,0,0,1-.37.88,23.68,23.68,0,0,1-1.71,2.18A.78.78,0,0,1,972.37,196.87Z"/><path class="cls-11" d="M972.46,196.61l-.08-.07-.94-.71,0,0a1,1,0,0,1,.11-1.13c.05-.06,1.17-1.58,1.52-1.93a.63.63,0,0,1,.86-.05l.05,0,1.11.86h0a.4.4,0,0,1,.17.27,1.26,1.26,0,0,1-.32.77,22.13,22.13,0,0,1-1.51,1.91A.69.69,0,0,1,972.46,196.61Z"/><path class="cls-12" d="M972.69,193.75l1.5,1.13.19-.26a1.69,1.69,0,0,0,.36-.73.22.22,0,0,0-.09-.22h0l-.79-.62,0,0c-.16-.12-.43-.14-.71.17-.1.1-.26.31-.45.55Z"/><path class="cls-10" d="M976.11,199.69l-.1-.08-1.07-.81,0,0a1.07,1.07,0,0,1,.13-1.28c.05-.07,1.33-1.8,1.72-2.2a.71.71,0,0,1,1-.06l.06,0,1.27,1h0a.4.4,0,0,1,.18.31,1.48,1.48,0,0,1-.36.88,25.13,25.13,0,0,1-1.71,2.18A.79.79,0,0,1,976.11,199.69Z"/><path class="cls-11" d="M976.2,199.44l-.08-.07-1-.71v0a1,1,0,0,1,.11-1.13c0-.06,1.17-1.58,1.52-1.93a.62.62,0,0,1,.86-.05l0,0,1.12.86h0a.39.39,0,0,1,.16.27,1.4,1.4,0,0,1-.31.78c0,.05-1.09,1.5-1.51,1.91A.69.69,0,0,1,976.2,199.44Z"/><path class="cls-12" d="M976.43,196.58l1.49,1.13.2-.26a1.86,1.86,0,0,0,.36-.74.26.26,0,0,0-.09-.22h0l-.78-.61,0,0c-.15-.12-.42-.14-.7.17a6.12,6.12,0,0,0-.45.55Z"/><path class="cls-10" d="M979.84,202.52a.39.39,0,0,1-.09-.08l-1.07-.81,0,0a1.1,1.1,0,0,1,.12-1.29c.05-.06,1.34-1.8,1.73-2.19a.7.7,0,0,1,1-.06l0,0,1.27,1h0a.44.44,0,0,1,.18.31,1.52,1.52,0,0,1-.36.89,25.87,25.87,0,0,1-1.72,2.17A.78.78,0,0,1,979.84,202.52Z"/><path class="cls-11" d="M979.94,202.27l-.08-.07-1-.71v0a1,1,0,0,1,.11-1.14c0-.05,1.17-1.57,1.51-1.92a.62.62,0,0,1,.86,0l0,0,1.12.87h0a.35.35,0,0,1,.16.27,1.33,1.33,0,0,1-.31.77,24.32,24.32,0,0,1-1.51,1.91A.7.7,0,0,1,979.94,202.27Z"/><path class="cls-12" d="M980.17,199.41l1.49,1.12c.11-.14.18-.25.19-.26a1.62,1.62,0,0,0,.37-.73.26.26,0,0,0-.1-.22h0l-.79-.62,0,0c-.16-.12-.42-.14-.7.16-.1.11-.27.32-.46.56Z"/><path class="cls-10" d="M983.58,205.35l-.09-.08-1.08-.81v0a1.1,1.1,0,0,1,.12-1.29c.05-.07,1.34-1.8,1.73-2.2a.71.71,0,0,1,1-.06l0,.05,1.27,1h0a.49.49,0,0,1,.19.31,1.52,1.52,0,0,1-.36.88c0,.06-1.24,1.72-1.72,2.18A.78.78,0,0,1,983.58,205.35Z"/><path class="cls-11" d="M983.68,205.09l-.09-.07-.94-.71v0a.94.94,0,0,1,.11-1.13s1.17-1.58,1.51-1.92a.62.62,0,0,1,.86-.06l0,0,1.11.86h0a.4.4,0,0,1,.17.27,1.26,1.26,0,0,1-.32.77,20.29,20.29,0,0,1-1.51,1.91A.67.67,0,0,1,983.68,205.09Z"/><path class="cls-12" d="M983.91,202.23l1.49,1.13.19-.26a1.69,1.69,0,0,0,.36-.73.22.22,0,0,0-.09-.22h0l-.79-.62,0,0c-.16-.12-.43-.14-.71.17-.09.1-.26.31-.45.55Z"/><path class="cls-10" d="M987.32,208.17l-.1-.08-1.07-.81,0,0a1.09,1.09,0,0,1,.13-1.28c0-.07,1.33-1.8,1.72-2.2a.72.72,0,0,1,1-.06l0,0,1.27,1h0a.42.42,0,0,1,.18.31,1.49,1.49,0,0,1-.35.88c0,.06-1.24,1.72-1.72,2.18A.78.78,0,0,1,987.32,208.17Z"/><path class="cls-11" d="M987.41,207.92l-.08-.07-.94-.71,0,0a1,1,0,0,1,.11-1.13c0-.06,1.17-1.58,1.52-1.93a.62.62,0,0,1,.86-.05l0,0,1.11.86h0a.45.45,0,0,1,.17.27,1.33,1.33,0,0,1-.32.78s-1.09,1.5-1.51,1.91A.69.69,0,0,1,987.41,207.92Z"/><path class="cls-12" d="M987.64,205.06l1.5,1.13.19-.26a1.74,1.74,0,0,0,.36-.74.21.21,0,0,0-.09-.21h0l-.79-.61,0,0c-.16-.12-.43-.14-.71.17-.1.1-.26.31-.45.55Z"/><path class="cls-10" d="M991.05,211l-.09-.08-1.07-.81,0,0a1.09,1.09,0,0,1,.13-1.29c0-.06,1.33-1.8,1.72-2.19a.7.7,0,0,1,1-.06.11.11,0,0,1,0,0l1.28,1h0a.44.44,0,0,1,.18.31,1.52,1.52,0,0,1-.36.89,23.92,23.92,0,0,1-1.72,2.17A.78.78,0,0,1,991.05,211Z"/><path class="cls-11" d="M991.15,210.75l-.08-.07-1-.71v0a1,1,0,0,1,.11-1.14c0-.05,1.17-1.57,1.52-1.92a.62.62,0,0,1,.86,0l0,0,1.12.87h0a.35.35,0,0,1,.16.27,1.33,1.33,0,0,1-.31.77,23.58,23.58,0,0,1-1.51,1.92A.71.71,0,0,1,991.15,210.75Z"/><path class="cls-12" d="M991.38,207.89l1.49,1.12.2-.26a1.74,1.74,0,0,0,.36-.73.28.28,0,0,0-.09-.22h0l-.78-.62,0,0c-.15-.12-.42-.14-.7.16-.1.11-.27.32-.46.56Z"/><path class="cls-4" d="M891.06,147.75c-7-6.93-9.95-10.85-11.21-13a3.7,3.7,0,0,0-1.48,1.08c-2.49,3.28,2.41,17.23,15.86,28,47.17,37.85,100,64.14,105.39,66,6.26,2.16,9.64,2.18,9.64,2.18s6.3.6,6.89.59a5.92,5.92,0,0,0,4.23-2.11C974.2,218.52,904.15,160.77,891.06,147.75Z"/><path class="cls-13" d="M1014.19,230.42c-4.34-.89-8.61-2.09-12.85-3.36-8.73-2.63-16.8-6.65-24.85-10.87s-16.45-8.31-24.6-12.61c-1.58-.83-3.16-1.68-4.73-2.52,27.34,17,49.11,27.64,52.46,28.8,6.26,2.16,9.64,2.18,9.64,2.18s6.3.6,6.89.59a5.84,5.84,0,0,0,3.77-1.62A23.44,23.44,0,0,1,1014.19,230.42Z"/><path class="cls-14" d="M954,204.19a61.08,61.08,0,0,1-1.17-8.12c-10.19-6.85-19.92-13.95-28.59-20.58a50.32,50.32,0,0,0-4.85,7.22c12.18,8.56,24.12,16.2,34.92,22.72C954.2,205,954.1,204.61,954,204.19Z"/><path class="cls-14" d="M990.1,218.37a30.15,30.15,0,0,0,3.22,7.31c.35.63.71,1.24,1.09,1.85,2.63,1.26,4.43,2.06,5.21,2.33,6.26,2.16,9.64,2.18,9.64,2.18s6.3.6,6.89.59a5.92,5.92,0,0,0,4.23-2.11C1011,228.09,1000.72,223.79,990.1,218.37Z"/><path class="cls-13" d="M1011.37,227.37l-12.55-7.48a4.5,4.5,0,0,0-2.87-.38c-.93.26-2.11,1.3-1.59,2.51.94,2.18,13.7,17.14,13.7,17.14s2.76,2.9,5.62,3.76c0,0,7.22,3.8,5.88,1s-5.49-13.61-5.49-13.61A7.5,7.5,0,0,0,1011.37,227.37Z"/><path class="cls-4" d="M1011.37,227.37l-12.55-7.48s-4.27-1.76-3,1.25c.93,2.17,12.58,17.24,12.58,17.24a11.47,11.47,0,0,0,3.21,2.66s9.26,5.68,7.92,2.92-5.49-13.61-5.49-13.61A7.5,7.5,0,0,0,1011.37,227.37Z"/><path class="cls-15" d="M941.42,193s-7.68-7.78-13.06-11.48l-9.6,13.32,0,0L917.37,196a82.6,82.6,0,0,0,15.11,8.77c.72.55,3.48-1.23,5.94-4.5S942.14,193.54,941.42,193Z"/><path class="cls-16" d="M925.26,191.3c1.87,1.5,3.81,2.91,5.59,4.53,2.15,1.95,4.33,3.88,6.35,6a18.88,18.88,0,0,0,1.22-1.48c2.47-3.26,3.72-6.77,3-7.32,0,0-7.68-7.78-13.06-11.48l-5.55,7.7C923.64,189.87,924.41,190.61,925.26,191.3Z"/><path class="cls-16" d="M926.06,200.16l-4.75-2.81c-1.06-.63-2-1.42-3-2.13l-.93.82a82.6,82.6,0,0,0,15.11,8.77c.26.2.78.09,1.45-.28C931.32,203.05,928.63,201.68,926.06,200.16Z"/><path class="cls-17" d="M924.34,189.89c-3,4-6.17,6.76-7,6.14s1-4.38,4-8.39,6.16-6.77,7-6.15S927.37,185.88,924.34,189.89Z"/><path class="cls-18" d="M926.58,184c.07-.27.07-.45,0-.53-.44-.32-2.49,1.66-4.59,4.43s-3.44,5.29-3,5.62c.11.09.34,0,.64-.19a19.72,19.72,0,0,1,3-5.09A21.45,21.45,0,0,1,926.58,184Z"/><path class="cls-18" d="M926.58,184a21.45,21.45,0,0,0-3.94,4.24,19.72,19.72,0,0,0-3,5.09,21.12,21.12,0,0,0,3.95-4.24A19.43,19.43,0,0,0,926.58,184Z"/><path class="cls-19" d="M948.57,190.23l-18.06-13.65s-5-3.16-4.45.78,13.44,31.49,13.44,31.49a15.52,15.52,0,0,0,4.11,5s12.67,11.06,11.6,6.1-3.47-24.25-3.47-24.25S950.85,191.81,948.57,190.23Z"/><path class="cls-20" d="M948.57,190.23l-18.06-13.65s-5-3.16-4.45.78,13.44,31.49,13.44,31.49a15.52,15.52,0,0,0,4.11,5s12.67,11.06,11.6,6.1-3.47-24.25-3.47-24.25S950.85,191.81,948.57,190.23Z"/><path class="cls-21" d="M955.21,220c-1.08-5-3.47-24.25-3.47-24.25s-.89-3.93-3.17-5.51l-2.13-1.61a24.55,24.55,0,0,1,3.09,8.73c.94,4.62,1.72,9.29,2.71,13.9a51.36,51.36,0,0,1,1,5.64c.11,1.07.29,2.24-.47,3.1a1.55,1.55,0,0,1-.54.41C954.21,221.49,955.59,221.77,955.21,220Z"/><path class="cls-22" d="M932.88,179.19s-5.35-4.32-4.75-1.11,10.75,27,10.75,27,1.89,5.75,5.38,7.93c0,0-3-4.23-3.8-7.47s-8.6-23.57-8.6-23.57S930.14,178.22,932.88,179.19Z"/><path class="cls-5" d="M1007.16,225.33l-7.37-4.27s-2.75-1.46-2.91-.06l11.55,16.3-8.93-14.39s-.79-1.15.64-.76S1007.16,225.33,1007.16,225.33Z"/><path class="cls-23" d="M905.57,135.6a30.8,30.8,0,0,1,13.12,4.87c6.61,4.36,54.29,44.19,54.29,44.19l-54.64-42.52s-2.35-2.24-5.16-1.06Z"/><path class="cls-24" d="M884.15,147.25a12.19,12.19,0,0,0,2.78-2.21c2.17-3,3.9-6.75,1.8-9.24,0,0-6.18-2.38-9.85.16,0,0-2.45,2,2.56,12.07A6.32,6.32,0,0,0,884.15,147.25Z"/><path class="cls-23" d="M929.84,167.07s49.52,35.57,66.23,46.32C996.07,213.39,957.7,193.11,929.84,167.07Z"/><path class="cls-25" d="M1048,49.25c-7.34,0-9.75-5.5-11.47-7.86h0a9.09,9.09,0,0,0-11-3.41,9.4,9.4,0,0,0-7.8-4.86,1.62,1.62,0,0,1-.22,0A18.52,18.52,0,0,0,990.06,33a22.16,22.16,0,0,0-38.34,4.07A12.88,12.88,0,0,0,945.2,35a13.06,13.06,0,1,0,8.09,22.77,22.16,22.16,0,0,0,33.51,4.74,9,9,0,0,0,2.1.34,9.37,9.37,0,0,0,5.3-1.34,18.51,18.51,0,0,0,27.06-10.06,9.09,9.09,0,0,0,12.16,2.9h0c3.92-1.71,6.15-3.13,11.64-3.48,1-.07,1.89-.09,2.76-.07C1051.61,50.79,1050.05,49.24,1048,49.25Z"/><path class="cls-26" d="M1023.65,40.48s8.73-4.35,13.85,2.45h0c-.38-.58-.71-1.11-1-1.54h0a9.09,9.09,0,0,0-11-3.41,9.4,9.4,0,0,0-7.8-4.86,1.62,1.62,0,0,1-.22,0A18.52,18.52,0,0,0,990.06,33a22.16,22.16,0,0,0-38.34,4.07A12.88,12.88,0,0,0,945.2,35a13.07,13.07,0,0,0-13.07,9.13s6.69-9.84,18.41-5.17c0,0-3,2.18-3.11,3.84a18.49,18.49,0,0,1,12.24-1.06,5.9,5.9,0,0,0-5.77-3.37C955.35,35,958,30.12,967,27.57c9.27-2.28,19,2,20,8,0,0-5.47.61-7.9,4.7,0,0,10.63-5.31,20.65,0a10.68,10.68,0,0,0-7.59-5.16s2.67-6.77,13.55-5.82a12.27,12.27,0,0,1,9.22,7S1021.67,33.49,1023.65,40.48Z"/><path class="cls-27" d="M1033.21,51c-8,3.14-11-1-11.91-3.14l.37-.13a22.06,22.06,0,0,0,5.18-3.8c-7,2.93-12,.4-12,.4a6.67,6.67,0,0,0,5.68,3.66c-4,10-20.68,15.49-26.45,8.48a8.67,8.67,0,0,1-4.42,1.12c-3.73-.62-4.13-3-4.13-3L990.92,51a4.59,4.59,0,0,0,4,.5,22,22,0,0,0,5.18-3.81c-7,2.94-12,.41-12,.41a6.88,6.88,0,0,0,2.67,2.8c-9.26,3.62-16.1-.37-16.1-.37,1.72,1.82,7.69,4.15,7.69,4.15-.8,4.3-5.9,5.49-6,5.52-7.68,1.28-16.75-.85-19.89-7.8a21.91,21.91,0,0,0,5.17-3.8c-7,2.94-12,.41-12,.41a7.12,7.12,0,0,0,4,3.42c-5.89,4.09-13.59,4.76-19.3,1.88a12.17,12.17,0,0,0,9.8,5.8h.56a12.13,12.13,0,0,0,8.09-3.1l.8-.71.57.91a21.31,21.31,0,0,0,17,9.91c.33,0,.67,0,1,0a21.19,21.19,0,0,0,14.12-5.39l.37-.33.48.13a8.58,8.58,0,0,0,1.9.32h.4a8.5,8.5,0,0,0,4.39-1.22l.47-.28.47.28a17.67,17.67,0,0,0,8.2,2.47h.83a17.56,17.56,0,0,0,16.69-12l.6-1.79,1,1.58a8.24,8.24,0,0,0,6.48,3.7h.37a8.2,8.2,0,0,0,4.09-1.1l.13-.06,1.77-.79a26.68,26.68,0,0,1,7.08-2.41C1038.45,50.15,1035,50.27,1033.21,51Z"/><path class="cls-25" d="M827.88,173.26c-5.7-.4-9.43,3.85-14.31,3.86-3.77,0-8.71-1.23-10.64-6.52-1.07-2.79-4.11-4.93-7.91-5.19a10.36,10.36,0,0,0-6.95,2,8.88,8.88,0,0,0-5.06-2,9.84,9.84,0,0,0-2.5.15,9.49,9.49,0,0,0,.3-1.59c.68-6.44-5.16-12.11-13-12.66-6.71-.47-12.73,2.94-14.78,7.94a16.2,16.2,0,0,0-9.66-3.88A17.13,17.13,0,0,0,733,157.89c-.94-3.91-4.93-7-10-7.36a13.46,13.46,0,0,0-5.46.74c-2-7.7-9.91-13.78-20-14.48-12.31-.87-23.14,6.6-24.19,16.67a15,15,0,0,0,.91,7,6.53,6.53,0,0,0-3.73,5,5.5,5.5,0,0,0,.8,3.46,12.93,12.93,0,0,0-2.51,3.68,13.21,13.21,0,0,0-5.16-1.43c-6.29-.44-11.84,3.38-12.38,8.53s4.13,9.69,10.43,10.13a12.58,12.58,0,0,0,10.07-3.65A18,18,0,0,0,683,190.88a20.27,20.27,0,0,0,4.56-.2c1.87,4,6.38,6.95,11.92,7.34,7.68.53,14.44-4.09,15.18-10.36a10.56,10.56,0,0,0,2.56.49c4.7.33,8.87-2.24,9.91-5.9a24,24,0,0,0,15.57,6.83,25.38,25.38,0,0,0,17.57-5.17,21.83,21.83,0,0,0,12.34,4.7c8.2.58,15.65-3,19.27-8.6.42.09,3.87,5.18,13.42,5.16,11.8,0,16.89-7,23.06-7.13l1.12,0a10.88,10.88,0,0,1,5,1.55C837.12,181.19,835.65,173.81,827.88,173.26Z"/><path class="cls-27" d="M814,181.55c-13.64,4.81-19.14-6.75-19.14-6.75s-3.3,6.56-12.35,6-10.71-4.76-10.71-4.76a9.52,9.52,0,0,0,6.09-5c-17.4,8-28-2.43-28-2.43.3,5.49,7,7.88,7,7.88-6.37,4.18-15.63,4.77-21.85-3.63-5.3,6.87-11.31,1.11-11.31,1.11-6.75,11.55-22.9,6.34-23.7.67,8.44-2.06,12.08-9.89,12.08-9.89-14.65,12.37-32.15,2.88-32.15,2.88,3.69,5.41,11.45,7.21,11.45,7.21-8.37,15-23.8,4.65-23.8,4.65-.87,6.29-8.21,7.71-13.42,6.29a11.42,11.42,0,0,0,7.49,3.34h.14a11.75,11.75,0,0,0,9.24-3.41l.59-.63.63.6A17.09,17.09,0,0,0,683,190.24l.22,0a19.66,19.66,0,0,0,4.13-.2l.65-.1.23.49c1.84,3.92,6.15,6.57,11.26,6.93h.18c7.12.42,13.47-4,14.15-9.79l.1-.83,1,.3a9.85,9.85,0,0,0,2.35.44h.11c4.24.25,8-2,9-5.41l.36-1.29,1,1a23,23,0,0,0,15,6.6h.3a24.51,24.51,0,0,0,16.65-5l.55-.44.55.44A21.18,21.18,0,0,0,772.66,188l.26,0c7.55.44,14.71-2.81,18.25-8.29l.29-.45.6.14c.31.06.47.22.82.57,1,1,4.23,4.13,10.89,4.52.49,0,1,0,1.5,0,6.66,0,11.06-2.3,14.94-4.32,2.85-1.48,5.32-2.77,8.11-2.81l.91,0C826.18,176.9,823.16,178.31,814,181.55Z"/><path class="cls-26" d="M669.44,174.46s1.67-3.75,3.63-5.13c0,0-4.15-3.23.62-8.59a6.39,6.39,0,0,0-3.19,4.7,5.5,5.5,0,0,0,.8,3.46,12.93,12.93,0,0,0-2.51,3.68,13.21,13.21,0,0,0-5.16-1.43c-6.29-.44-11.84,3.38-12.38,8.53C653.91,173.12,663.08,170.67,669.44,174.46Z"/><path class="cls-26" d="M772.74,152.43a16.87,16.87,0,0,0-5-1.11c-6.71-.47-12.73,2.94-14.78,7.94a16.2,16.2,0,0,0-9.66-3.88A17.13,17.13,0,0,0,733,157.89c-.94-3.91-4.93-7-10-7.36a13.46,13.46,0,0,0-5.46.74c-2-7.7-9.91-13.78-20-14.48-12.31-.87-23.14,6.6-24.19,16.67a15,15,0,0,0,.91,7,16.6,16.6,0,0,1,.85,2.2s-1.64,1.18-1.81,4.44c0,0,2.24-5.34,10.69-6.55a10.78,10.78,0,0,0-6,.46s-2.63-10.56,9.39-15.83a9.94,9.94,0,0,1,5-.85s-4.32,2.67-4.52,5.85c0,0,4.49-6.56,17.72-1.8a8.26,8.26,0,0,0-5-3.92s8.47-.35,13.82,8.93a8.38,8.38,0,0,0-4,4.24s13.33-7.25,21.83,1.78c0,0,12.38-5.6,19.51,1.86a12,12,0,0,0-4.21,2.1s6.64-2.38,12.2-1.34a16.5,16.5,0,0,0-5-1.79S759.28,150.33,772.74,152.43Z"/><path class="cls-26" d="M800.45,167.38a10.05,10.05,0,0,0-5.43-2,10.36,10.36,0,0,0-6.95,2,8.88,8.88,0,0,0-5.06-2,9.84,9.84,0,0,0-2.5.15s5.84.47,7.22,3.59C787.73,169.16,794.89,163.84,800.45,167.38Z"/><path class="cls-25" d="M1175.14,208.87c-7.34,0-9.75-5.49-11.47-7.86h0a9.08,9.08,0,0,0-11-3.42,9.4,9.4,0,0,0-7.8-4.86h-.22a18.51,18.51,0,0,0-27.35-.13,22.15,22.15,0,0,0-38.33,4.07,12.92,12.92,0,0,0-6.53-2.12,13.06,13.06,0,1,0,8.1,22.77,22.15,22.15,0,0,0,33.5,4.74,9.69,9.69,0,0,0,2.11.35,9.44,9.44,0,0,0,5.29-1.35A18.51,18.51,0,0,0,1148.45,211a9.09,9.09,0,0,0,12.16,2.9h0c3.92-1.71,6.15-3.13,11.64-3.48,1-.07,1.89-.08,2.76-.07C1178.81,210.41,1177.24,208.86,1175.14,208.87Z"/><path class="cls-26" d="M1150.84,200.1s8.73-4.35,13.86,2.45h0c-.38-.58-.72-1.11-1-1.54h0a9.08,9.08,0,0,0-11-3.42,9.4,9.4,0,0,0-7.8-4.86h-.22a18.51,18.51,0,0,0-27.35-.13,22.15,22.15,0,0,0-38.33,4.07,12.92,12.92,0,0,0-6.53-2.12,13.06,13.06,0,0,0-13.06,9.13s6.69-9.84,18.41-5.17c0,0-3,2.19-3.12,3.84a18.51,18.51,0,0,1,12.24-1.06,5.9,5.9,0,0,0-5.77-3.37c1.45-3.3,4.13-8.2,13.12-10.75,9.26-2.28,19,2,20,8.05,0,0-5.47.61-7.9,4.71,0,0,10.63-5.32,20.65,0a10.68,10.68,0,0,0-7.59-5.17S1122.08,188,1133,189a12.28,12.28,0,0,1,9.23,7S1148.87,193.11,1150.84,200.1Z"/><path class="cls-27" d="M1160.41,210.57c-8,3.14-11-1-11.91-3.14l.37-.13a22.06,22.06,0,0,0,5.18-3.8c-7,2.93-12,.4-12,.4a6.68,6.68,0,0,0,5.68,3.66c-4,10-20.67,15.49-26.45,8.48a8.65,8.65,0,0,1-4.42,1.12c-3.72-.62-4.13-3-4.13-3l5.44-3.48a4.56,4.56,0,0,0,4,.5,22.13,22.13,0,0,0,5.19-3.81c-7,2.94-12,.41-12,.41a6.94,6.94,0,0,0,2.67,2.8c-9.26,3.62-16.1-.37-16.1-.37,1.72,1.82,7.7,4.15,7.7,4.15-.8,4.3-5.91,5.49-6,5.52-7.67,1.28-16.75-.84-19.89-7.8a22.14,22.14,0,0,0,5.18-3.79c-7,2.93-12,.4-12,.4a7.15,7.15,0,0,0,4,3.42c-5.89,4.09-13.58,4.76-19.3,1.88a12.17,12.17,0,0,0,9.8,5.8h.57a12.13,12.13,0,0,0,8.08-3.09l.8-.72.58.91a21.29,21.29,0,0,0,17,9.91c.34,0,.67,0,1,0a21.17,21.17,0,0,0,14.12-5.39l.37-.33.49.13a8.39,8.39,0,0,0,1.9.32h.4a8.46,8.46,0,0,0,4.38-1.22l.47-.28.47.28a17.71,17.71,0,0,0,8.2,2.47l.83,0a17.59,17.59,0,0,0,16.7-12.06l.59-1.79,1,1.58a8.24,8.24,0,0,0,6.48,3.7h.38a8.22,8.22,0,0,0,4.09-1.1l.12-.06c.63-.27,1.21-.54,1.77-.79a26.8,26.8,0,0,1,7.08-2.41C1165.64,209.77,1162.17,209.89,1160.41,210.57Z"/><path class="cls-28" d="M704.39,252.55a1.65,1.65,0,1,0-1.65,1.64A1.65,1.65,0,0,0,704.39,252.55Z"/><circle class="cls-28" cx="591.47" cy="190.33" r="1.17"/><circle class="cls-28" cx="783.89" cy="20.75" r="1.67"/><circle class="cls-28" cx="823.99" cy="88.1" r="1.17"/><path class="cls-28" d="M901.34,296.66a1.17,1.17,0,1,0-1.17,1.17A1.16,1.16,0,0,0,901.34,296.66Z"/><path class="cls-28" d="M679.51,320.18a1.17,1.17,0,1,0-1.17,1.17A1.17,1.17,0,0,0,679.51,320.18Z"/><circle class="cls-28" cx="772.1" cy="260.2" r="1.17"/><path class="cls-28" d="M993.73,85.83a1.65,1.65,0,1,1-3.29,0,1.65,1.65,0,0,1,3.29,0Z"/><circle class="cls-28" cx="880.81" cy="148.05" r="1.17"/><circle class="cls-28" cx="1073.23" cy="317.63" r="1.67"/><circle class="cls-28" cx="1113.32" cy="250.28" r="1.17"/><path class="cls-28" d="M1190.68,41.72a1.17,1.17,0,1,1-1.17-1.17A1.17,1.17,0,0,1,1190.68,41.72Z"/><path class="cls-28" d="M968.85,18.2A1.17,1.17,0,1,1,967.68,17,1.17,1.17,0,0,1,968.85,18.2Z"/><circle class="cls-28" cx="1061.44" cy="78.18" r="1.17"/><polygon class="cls-29" points="689.51 81.69 690.94 84.58 694.13 85.05 691.82 87.3 692.37 90.47 689.51 88.97 686.66 90.47 687.2 87.3 684.9 85.05 688.09 84.58 689.51 81.69"/><polygon class="cls-30" points="975.08 217.78 976.5 220.67 979.69 221.13 977.38 223.38 977.93 226.56 975.08 225.06 972.22 226.56 972.77 223.38 970.46 221.13 973.65 220.67 975.08 217.78"/><polygon class="cls-30" points="918.51 301.67 919.94 304.56 923.13 305.02 920.82 307.27 921.37 310.45 918.51 308.95 915.66 310.45 916.21 307.27 913.9 305.02 917.09 304.56 918.51 301.67"/><path class="cls-29" d="M789.12,30.44l.53,1.07,1.18.17a.36.36,0,0,1,.2.62l-.86.83.21,1.18a.36.36,0,0,1-.53.38l-1.06-.56-1,.56a.36.36,0,0,1-.53-.38l.21-1.18-.86-.83a.36.36,0,0,1,.2-.62l1.18-.17.53-1.07A.36.36,0,0,1,789.12,30.44Z"/><path class="cls-30" d="M643.39,287.94l.53,1.08,1.18.17a.35.35,0,0,1,.2.61l-.86.84.21,1.18a.37.37,0,0,1-.53.38l-1.06-.56-1,.56a.37.37,0,0,1-.53-.38l.21-1.18-.86-.84a.35.35,0,0,1,.2-.61l1.18-.17.53-1.08A.37.37,0,0,1,643.39,287.94Z"/><path class="cls-29" d="M667.19,19.1l.53,1.07,1.18.17a.36.36,0,0,1,.2.62l-.85.83.2,1.18a.36.36,0,0,1-.52.38l-1.06-.56-1.06.56a.36.36,0,0,1-.52-.38l.2-1.18-.86-.83a.37.37,0,0,1,.2-.62l1.19-.17.52-1.07A.36.36,0,0,1,667.19,19.1Z"/><path class="cls-29" d="M665.76,231.75a1.17,1.17,0,1,1-1.17-1.17A1.17,1.17,0,0,1,665.76,231.75Z"/><path class="cls-29" d="M833,84.91a1.17,1.17,0,1,1-1.17-1.17A1.17,1.17,0,0,1,833,84.91Z"/><path class="cls-30" d="M772.14,20.07A1.17,1.17,0,1,1,771,18.89,1.17,1.17,0,0,1,772.14,20.07Z"/><circle class="cls-31" cx="772.53" cy="299.74" r="6.48" transform="translate(-48.2 185.51) rotate(-13.28)"/><path class="cls-32" d="M770.28,296a6.24,6.24,0,0,0-3.69,1.2,6.34,6.34,0,0,0-.54,2.58,6.47,6.47,0,0,0,9.8,5.56s0,0,0,0a6.32,6.32,0,0,0-5.57-9.33Z"/><polygon class="cls-29" points="938.04 70.01 939.47 72.9 942.65 73.37 940.35 75.62 940.89 78.79 938.04 77.29 935.18 78.79 935.73 75.62 933.42 73.37 936.61 72.9 938.04 70.01"/><polygon class="cls-30" points="1223.6 206.1 1225.03 208.99 1228.22 209.45 1225.91 211.7 1226.45 214.88 1223.6 213.38 1220.75 214.88 1221.29 211.7 1218.98 209.45 1222.17 208.99 1223.6 206.1"/><polygon class="cls-30" points="1167.04 289.99 1168.47 292.88 1171.66 293.34 1169.35 295.59 1169.89 298.77 1167.04 297.27 1164.19 298.77 1164.73 295.59 1162.42 293.34 1165.61 292.88 1167.04 289.99"/><path class="cls-29" d="M1037.64,18.76l.53,1.07,1.19.17a.37.37,0,0,1,.2.62l-.86.83.2,1.18a.36.36,0,0,1-.52.38l-1.06-.56-1.06.56a.36.36,0,0,1-.52-.38l.2-1.18-.86-.83a.37.37,0,0,1,.2-.62l1.19-.17.53-1.07A.35.35,0,0,1,1037.64,18.76Z"/><path class="cls-30" d="M891.91,276.26l.53,1.08,1.19.17a.36.36,0,0,1,.2.61L893,279l.2,1.18a.36.36,0,0,1-.52.38l-1.06-.56-1.06.56a.36.36,0,0,1-.52-.38l.2-1.18-.86-.84a.36.36,0,0,1,.2-.61l1.19-.17.53-1.08A.35.35,0,0,1,891.91,276.26Z"/><path class="cls-29" d="M915.72,7.42l.53,1.07,1.18.17a.36.36,0,0,1,.2.62l-.86.83.21,1.18a.37.37,0,0,1-.53.38l-1.06-.56-1.06.56a.36.36,0,0,1-.52-.38l.2-1.18-.85-.83a.36.36,0,0,1,.2-.62l1.18-.17.53-1.07A.36.36,0,0,1,915.72,7.42Z"/><path class="cls-29" d="M914.28,220.07a1.17,1.17,0,1,1-1.17-1.17A1.17,1.17,0,0,1,914.28,220.07Z"/><path class="cls-29" d="M1081.52,73.23a1.17,1.17,0,1,1-1.17-1.17A1.17,1.17,0,0,1,1081.52,73.23Z"/><path class="cls-30" d="M1020.67,8.39a1.17,1.17,0,1,1-1.17-1.18A1.17,1.17,0,0,1,1020.67,8.39Z"/><circle class="cls-31" cx="1021.05" cy="288.06" r="6.48" transform="translate(-38.87 242.29) rotate(-13.28)"/><path class="cls-32" d="M1018.81,284.28a6.25,6.25,0,0,0-3.7,1.2,6.48,6.48,0,0,0,9.27,8.14s0,0,0,0a6.34,6.34,0,0,0-5.57-9.33Z"/><text class="cls-33" transform="translate(837.02 269.86)">oops..!</text><text class="cls-34" transform="translate(636.48 359.11)">RESULT NOT FOUND</text><text class="cls-35" transform="translate(734.55 401.27)">Your search produced no result.</text></g></g></svg>