<svg id="Layer_1" data-name="Layer 1" xmlns="http://www.w3.org/2000/svg" xmlns:xlink="http://www.w3.org/1999/xlink" viewBox="0 0 374 74"><defs><style>.cls-1,.cls-10{fill:#546474;}.cls-2{fill:#bc8103;}.cls-3{fill:url(#linear-gradient);}.cls-4{fill:none;}.cls-5{fill:#fcae15;}.cls-6{fill:url(#linear-gradient-2);}.cls-7{fill:url(#linear-gradient-3);}.cls-8{fill:url(#linear-gradient-4);}.cls-9{fill:#ba8002;}.cls-10{font-size:14.24px;font-family:CopperplateGothic-Light, Copperplate Gothic Light;font-weight:300;}.cls-11{letter-spacing:-0.03em;}.cls-12{letter-spacing:-0.07em;}.cls-13{fill:#1d1d1b;}</style><linearGradient id="linear-gradient" x1="142.38" y1="14.5" x2="268" y2="14.5" gradientUnits="userSpaceOnUse"><stop offset="0" stop-color="#fee68e"/><stop offset="0.51" stop-color="#ffdb28"/><stop offset="1" stop-color="#fcbd1d"/></linearGradient><linearGradient id="linear-gradient-2" x1="73.29" y1="34.44" x2="179.19" y2="34.44" xlink:href="#linear-gradient"/><linearGradient id="linear-gradient-3" x1="282.91" y1="25.91" x2="264.08" y2="80.9" gradientUnits="userSpaceOnUse"><stop offset="0" stop-color="#b47b06"/><stop offset="0.03" stop-color="#c38b0e"/><stop offset="0.08" stop-color="#d8a118"/><stop offset="0.14" stop-color="#e8b220"/><stop offset="0.22" stop-color="#f4bd26"/><stop offset="0.33" stop-color="#fac429"/><stop offset="0.63" stop-color="#fcc62a"/><stop offset="0.81" stop-color="#fac429"/><stop offset="0.88" stop-color="#f4bd25"/><stop offset="0.93" stop-color="#e9b21f"/><stop offset="0.96" stop-color="#daa116"/><stop offset="1" stop-color="#c68b0b"/><stop offset="1" stop-color="#c4890a"/></linearGradient><linearGradient id="linear-gradient-4" x1="251.72" y1="64.73" x2="254.71" y2="64.73" xlink:href="#linear-gradient"/></defs><path class="cls-1" d="M202.08,39.83l-1.46.17,0,.61,1.51-.12C202.09,40.27,202.08,40.05,202.08,39.83Zm-3.61.49-.7,0v.71a.7.7,0,0,1-.21.45.69.69,0,0,1-.31.17l-1.13,0a1,1,0,0,1-.4-.27,1,1,0,0,1-.26-.67l-2.11,1.35a4.24,4.24,0,0,1,1.79-.13,4.32,4.32,0,0,1,1.24.39,12.41,12.41,0,0,1,1.19-.73,9.49,9.49,0,0,1,.93-.44Zm11.7-.34-1.37-.09v.75l1.43,0Zm2.76,1.07c0-.24,0-.48,0-.72l-.47,0-.09.88.7.15C213,41.23,213,41.14,212.93,41.05Zm2.3-.12a.79.79,0,0,1-.19.66.76.76,0,0,1-.72.2l1.46.51a2.29,2.29,0,0,0,.8.07,2.39,2.39,0,0,0,1-.31Zm-.93.86-.16-.06A.52.52,0,0,0,214.3,41.79Zm1.88,1.6a4,4,0,0,1-1.52-.34,10.07,10.07,0,0,1-6.57,1.59l-1.55.41a16.86,16.86,0,0,0,5.05.13A17.06,17.06,0,0,0,218,43,3.89,3.89,0,0,1,216.18,43.39Zm-13.62,1.68c0-.12.4-.23,1.18-.34a23.91,23.91,0,0,1-8.54-1.8,3.43,3.43,0,0,1-.6.27,3.5,3.5,0,0,1-.89.16,17.19,17.19,0,0,0,9.61,2C202.81,45.26,202.56,45.17,202.56,45.07Z"/><path class="cls-2" d="M268,27a124.2,124.2,0,0,1-19.26-6.35c-2.34-1-9.83-4.31-16.25-6.86-1.49-.59-3.09-1.21-4.85-1.87-3.66-1.37-5.48-2.06-7-2.49a63.38,63.38,0,0,0-21.84-2,70.87,70.87,0,0,0-16.41,3.4A74,74,0,0,0,166,18.65c-2.13,1.36-4.33,2.91-6.56,4.67l-17,0,15.52-3c5.67-3.66,16.23-9.79,28.43-12.75a79.88,79.88,0,0,1,9.94-1.73A71.19,71.19,0,0,1,212.54,6c7.83,1,14.26,3.74,25.22,8.88,1.62.76,3.35,1.57,5.19,2.45,2.68,1.27,5,2.44,8.12,3.77.19.08,2,.84,3.93,1.61A128.78,128.78,0,0,0,268,27Z"/><path class="cls-3" d="M268,27a128.78,128.78,0,0,1-13-4.3c-2-.77-3.74-1.53-3.93-1.61-3.08-1.33-5.44-2.5-8.12-3.77-1.84-.88-3.57-1.69-5.19-2.45-7-3.28-15.54-7.34-25.22-8.88a56.59,56.59,0,0,0-16.27-.19,83.55,83.55,0,0,0-9.94,1.73A84.7,84.7,0,0,0,157.9,20.28l-15.52,3c2.4-1.36,6-3.37,10.53-5.65,7.83-4,17.56-8.88,30.48-12.46A79.54,79.54,0,0,1,198.2,2.3a52.64,52.64,0,0,1,10.71,0,54,54,0,0,1,14,3.47,96,96,0,0,1,9.06,4.1c2.94,1.43,5.84,2.95,10.43,5.35l3.87,2C249.84,19.13,256.15,22.14,268,27Z"/><path class="cls-2" d="M178.72,29.4h-.13c-2.63-.14-14.48-.77-30.09-.73-8.2,0-13.11.26-19,.55-4.95.24-6.88.41-8.41.57a82.27,82.27,0,0,0-15.61,2.86c-4.08,1.21-8.71,2.61-13.53,6.07A23.92,23.92,0,0,0,87.6,42.6l0,0a22.73,22.73,0,0,0-4.45,7.87,22,22,0,0,0-1,6.39h0a23.27,23.27,0,0,0,.44,4.85A48,48,0,0,1,81,54.17a49.75,49.75,0,0,1-.13-10.57,33.22,33.22,0,0,1,11.7-8.72,99.77,99.77,0,0,1,12.46-4,104.68,104.68,0,0,1,13.18-2.33,195.83,195.83,0,0,1,21.4-1.32c7.39-.1,12.9.18,17.9.43C163.6,28,170.73,28.52,178.72,29.4Z"/><path class="cls-4" d="M178.72,29.4h-.13"/><path class="cls-5" d="M82.52,61.73l-9.23-20.4,7.58,2.27A49.75,49.75,0,0,0,81,54.17,48,48,0,0,0,82.52,61.73Z"/><path class="cls-6" d="M179.19,29.33l-.47.07c-8-.88-15.12-1.39-21.21-1.7-5-.25-10.51-.53-17.9-.43a195.83,195.83,0,0,0-21.4,1.32A104.68,104.68,0,0,0,105,30.92a99.77,99.77,0,0,0-12.46,4,33.22,33.22,0,0,0-11.7,8.72l-7.58-2.27A79.89,79.89,0,0,1,87,33.54c4.59-2,10.89-4.3,21.76-6.15,3.87-.66,20.46-3.33,45.06-1.43A232.75,232.75,0,0,1,179.19,29.33Z"/><path class="cls-7" d="M300.71,40.61l0,.72c-3,0-5.77.07-8.26.19-1.54.07-3.82.18-6.62.46a67.37,67.37,0,0,0-12.7,2,58.75,58.75,0,0,0-7.38,2.55c-.87.38-1.59.71-2.1,1-.28.09-.58.2-.89.32a13,13,0,0,0-1.29.61h0a18.36,18.36,0,0,0-2.28,1.32c-2,1.31-6.05,4.13-7.18,8.86a9.35,9.35,0,0,0-.28,2.62c0,.12,0,.24,0,.36a10.36,10.36,0,0,0,3,6.23l.07.07a.93.93,0,0,1,.1.1c3,2.84,7.19,3.28,10.77,3h0a28.45,28.45,0,0,0,14.73-5.59l0,.88a29.19,29.19,0,0,1-15,5.6c-.92.07-1.69.1-2.25.1h0a17.93,17.93,0,0,1-5.56-.78c-1.34-.43-6.48-2-8.38-6.58a9.93,9.93,0,0,1-.66-4.56c.29-4.28,3.11-7.44,4.15-8.61.07-.09.26-.29.52-.55a19.88,19.88,0,0,1,6.63-4.54c7-3.14,13.64-4,20.93-4.68C286.15,41.22,292.89,40.77,300.71,40.61Z"/><path class="cls-8" d="M251.72,61.62a10.64,10.64,0,0,0,3,6.23A10.36,10.36,0,0,1,251.72,61.62Z"/><path class="cls-9" d="M265.6,70.88a14.41,14.41,0,0,1-4.78-.15A11.32,11.32,0,0,1,254.88,68a.93.93,0,0,0-.1-.1l-.07-.07a10.36,10.36,0,0,1-3-6.23c0-.12,0-.24,0-.36a9.35,9.35,0,0,1,.28-2.62c1.13-4.73,5.23-7.55,7.18-8.86a18.36,18.36,0,0,1,2.28-1.32h0c.36-.19.74-.37,1.17-.55s.69-.27,1-.38a20.93,20.93,0,0,0-7.93,6.79,11.67,11.67,0,0,0-2,4.4,9.62,9.62,0,0,0,1,6.65,10.28,10.28,0,0,0,4.8,4.1A13.53,13.53,0,0,0,265.6,70.88Z"/><text class="cls-10" transform="translate(163.41 58.69) scale(0.84 1)"><tspan class="cls-11">C</tspan><tspan x="11.66" y="0">ORPOR</tspan><tspan class="cls-12" x="69.76" y="0">A</tspan><tspan x="79.21" y="0">TE</tspan></text><path class="cls-1" d="M217.69,27.18a1.19,1.19,0,0,1-.22-.73,6.14,6.14,0,0,0-.12-1,5.57,5.57,0,0,0-2.08-3.36,4.3,4.3,0,0,0-2.27-.9,5,5,0,0,0-1.16,0,9,9,0,0,1,.38,1.28,9.67,9.67,0,0,1,.17,1.36,1.2,1.2,0,0,0,.2.73,1.81,1.81,0,0,1,.29,1.41,1.7,1.7,0,0,1-.75,1.18.77.77,0,0,0-.31.44,7.81,7.81,0,0,1-1.8,2.76,4.6,4.6,0,0,1-.7.56c.13.13.25.26.39.38a8.22,8.22,0,0,0,1.06.8l-.17.07a3.24,3.24,0,0,0-.59.29.41.41,0,0,1,.05.09,6.06,6.06,0,0,1,.85,2.14,8.91,8.91,0,0,1,.15,2.6,3.49,3.49,0,0,1-.36,1.3,1.84,1.84,0,0,1-.27.38c0,.53,0,1.07,0,1.6,0,.12,0,.23,0,.34a.41.41,0,0,0,.4.42h.73a.46.46,0,0,0,.27-.1A.57.57,0,0,0,212,41a1.17,1.17,0,0,0,0-.39c0-1,.07-1.94.1-2.92l1.24,0v2.95a1,1,0,0,0,0,.34.49.49,0,0,0,.2.34.34.34,0,0,0,.17,0,5.75,5.75,0,0,0,.83,0,.39.39,0,0,0,.34-.36,1.28,1.28,0,0,0,0-.34c0-.26,0-.52,0-.78,0-1.5,0-3-.05-4.52,0-.31,0-.61-.05-.92s0-.49,0-.73a.15.15,0,0,1,.25-.11.55.55,0,0,1,.19.21,2.34,2.34,0,0,1,.08.52c0,.89,0,1.78,0,2.67a2.48,2.48,0,0,0,0,.39.2.2,0,0,0,.19.19.63.63,0,0,0,.77-.35,2.24,2.24,0,0,0,.23-.84,6.68,6.68,0,0,0-.1-1.84,4.42,4.42,0,0,0-.59-1.48,1.94,1.94,0,0,0-.86-.77,1.83,1.83,0,0,0-.66-.16l.36-.26a8.49,8.49,0,0,0,1.17-.86,5.62,5.62,0,0,0,1.27-1.95.92.92,0,0,1,.36-.49.84.84,0,0,0,.4-.64A1,1,0,0,0,217.69,27.18Zm-5.08,8.66-.6-1.11.15-.78.06-1.47h.94l0,1.46c.06.25.11.49.17.74Z"/><path class="cls-1" d="M201.2,31.05l.1-.1-.08-.07a9.55,9.55,0,0,1-1.93-2.4,4.22,4.22,0,0,1-.3-.65,1.52,1.52,0,0,0-.51-.73,1.78,1.78,0,0,1-.36-2.37,1.91,1.91,0,0,0,.22-.91,9.18,9.18,0,0,1,.54-2.52l-.48-.07a4.46,4.46,0,0,0-3.52,1.24,5.78,5.78,0,0,0-1.8,3.92,1.76,1.76,0,0,1-.21.83,1,1,0,0,0,.18,1.32,1.45,1.45,0,0,1,.5.7,4.28,4.28,0,0,0,.2.44,7.1,7.1,0,0,0,1.36,1.69,8.22,8.22,0,0,0,1.06.8l-.17.07A2.4,2.4,0,0,0,194.42,34a7.11,7.11,0,0,0,0,2.94,1.1,1.1,0,0,0,.11.32.59.59,0,0,0,.69.34.19.19,0,0,0,.19-.18,1,1,0,0,0,0-.24c0-.65.05-1.3.07-1.95,0-.31,0-.61,0-.92a1.08,1.08,0,0,1,.14-.56.26.26,0,0,1,.29-.13c.11.06.09.16.08.26,0,.37-.08.74-.08,1.11,0,1.88,0,3.76-.07,5.64a1.93,1.93,0,0,0,0,.34.42.42,0,0,0,.4.42H197a.47.47,0,0,0,.28-.1.56.56,0,0,0,.14-.3,1,1,0,0,0,0-.39c0-1,.07-1.94.1-2.92l1.24,0c0,1,0,2,0,2.95a1,1,0,0,0,0,.34.51.51,0,0,0,.21.34.28.28,0,0,0,.16,0,5.75,5.75,0,0,0,.83,0,.38.38,0,0,0,.34-.36,1.88,1.88,0,0,0,0-.34c0-.26,0-.52,0-.78l0-1.26a2.12,2.12,0,0,1-.17-.54,9.49,9.49,0,0,1,.07-4.09,2.62,2.62,0,0,1,0-.28.14.14,0,0,1,.13-.14,3.83,3.83,0,0,1,.5-1,1.58,1.58,0,0,0-.44-.28,1.83,1.83,0,0,0-.66-.16l.37-.26A8.81,8.81,0,0,0,201.2,31.05ZM198,35.84l-.59-1.11.15-.78c0-.49,0-1,.05-1.47h.95l0,1.46c.06.25.12.49.17.74Z"/><path class="cls-1" d="M212.23,24.92a1.64,1.64,0,0,1-.3-1,8,8,0,0,0-.15-1.29A7.49,7.49,0,0,0,209,18.14a5.82,5.82,0,0,0-3.06-1.21,6,6,0,0,0-4.72,1.66,7.76,7.76,0,0,0-2.42,5.27A2.22,2.22,0,0,1,198.5,25a1.36,1.36,0,0,0,.26,1.78,2,2,0,0,1,.66.93,4.47,4.47,0,0,0,.27.59,9.57,9.57,0,0,0,1.83,2.28A10.52,10.52,0,0,0,203,31.62l-.24.09a3.21,3.21,0,0,0-2.11,2.38,9.08,9.08,0,0,0-.07,3.95,1.28,1.28,0,0,0,.14.43.81.81,0,0,0,.92.46.32.32,0,0,0,.27-.25,1.83,1.83,0,0,0,0-.33c0-.87.07-1.74.09-2.61,0-.41,0-.82,0-1.24a1.42,1.42,0,0,1,.19-.75.32.32,0,0,1,.38-.17c.15.07.13.21.12.34,0,.5-.11,1-.12,1.5q-.06,3.78-.1,7.57a3.53,3.53,0,0,0,0,.46A.56.56,0,0,0,203,44a8,8,0,0,0,1,0,.63.63,0,0,0,.37-.13.75.75,0,0,0,.19-.4,1.62,1.62,0,0,0,0-.52c0-1.31.09-2.61.13-3.92l1.66,0c0,1.32,0,2.64,0,4a1.2,1.2,0,0,0,0,.46.72.72,0,0,0,.27.46.56.56,0,0,0,.23.07A8.22,8.22,0,0,0,208,44a.51.51,0,0,0,.46-.48,3.39,3.39,0,0,0,0-.45c0-.35,0-.7,0-1.05,0-2,0-4-.07-6.07,0-.41-.05-.83-.07-1.24s0-.65,0-1a.21.21,0,0,1,.34-.15.69.69,0,0,1,.25.29,2.69,2.69,0,0,1,.11.7c0,1.19,0,2.39,0,3.59a4.52,4.52,0,0,0,0,.52.28.28,0,0,0,.25.26.84.84,0,0,0,1-.48,2.78,2.78,0,0,0,.32-1.13,8.83,8.83,0,0,0-.14-2.46,6,6,0,0,0-.79-2,2.63,2.63,0,0,0-1.15-1,2.47,2.47,0,0,0-.89-.22l.49-.34a11.17,11.17,0,0,0,1.57-1.16,7.56,7.56,0,0,0,1.7-2.61,1.23,1.23,0,0,1,.49-.66,1.19,1.19,0,0,0,.54-.86A1.36,1.36,0,0,0,212.23,24.92Zm-6.82,11.62-.8-1.49.2-1c0-.65.05-1.31.08-2h1.27l0,2c.08.33.15.66.23,1Z"/><path class="cls-13" d="M112.91,39.57h-1.37l-1.7.06c-2.33.06-4.65.3-7,.59a21.21,21.21,0,0,0-2.76.47,12.28,12.28,0,0,0-3.36,1.41,7.31,7.31,0,0,0-3.34,4.27A5.25,5.25,0,0,0,94.93,52a7.32,7.32,0,0,0,3.55,1.84,16.51,16.51,0,0,0,5.65.21,34,34,0,0,0,10.72-3.41,83.08,83.08,0,0,0,12.38-7.62,125.79,125.79,0,0,0,10.47-8.44l4.38.06V46.92h-3.3l0-2.78h-5.11L137,41.68l2-.09,0-3.67c-2.1,1.66-5,3.87-8.62,6.32a95.29,95.29,0,0,1-10.06,6.18,55.34,55.34,0,0,1-10.49,4.3,34,34,0,0,1-5.17,1.09,19.19,19.19,0,0,1-5.86-.09,11.71,11.71,0,0,1-3.44-1.19,7.65,7.65,0,0,1-4-5.4,8.22,8.22,0,0,1,.08-3.82,7.57,7.57,0,0,1,2-3.47,8.15,8.15,0,0,1,4.23-2.31,26.82,26.82,0,0,1,4.08-.54,49.86,49.86,0,0,1,5.68,0C108.89,39.1,110.75,39.25,112.91,39.57Z"/><path class="cls-13" d="M137.29,60.86l-2.09,0q1.17-3.44,2.37-6.9.92-2.69,1.85-5.34h2.73c.45,1.34.89,2.68,1.34,4,.92,2.76,1.84,5.5,2.77,8.24h-2.37l-1-3-4.79,0ZM140.56,51l-1.73,5.07,3.43,0Z"/><path class="cls-13" d="M157.41,60.89h-2.62l-2.54-4.63-3,4.64h-2.06l3.89-6.47-3.47-5.81,2.79,0,2.18,4.07,2.41-4,2,0-3.29,5.65Z"/><path class="cls-13" d="M125.35,48.6h2.4l2.75,9,3-9h1.79l-3.87,12.25h-2.26Z"/><path class="cls-13" d="M117.88,36.54l-3.27,0V34.68h8.93l0,1.85-3.2,0L120.25,47l-2.34,0Z"/><rect class="cls-13" x="159.59" y="48.58" width="2.16" height="12.35"/><path class="cls-13" d="M155.52,46.94H152.9l-2.54-4.63-3,4.64h-2.05l3.88-6.47-3.46-5.8,2.79-.06,2.18,4.07,2.4-4,2,0-3.29,5.65Z"/><rect class="cls-13" x="159.59" y="34.61" width="2.16" height="12.35"/></svg>