<svg id="Layer_1" data-name="Layer 1" xmlns="http://www.w3.org/2000/svg" viewBox="0 0 22 22"><path d="M13.89,3.53l-2.33,1.9-.2.17L11,5.89l-.36-.29-.2-.17.2-.17L11,5l.36-.29L13.44,3a.31.31,0,0,1,.22-.09.36.36,0,0,1,.23.64Z"/><path d="M11.56,5.43l-.2.17L11,5.89l-.36-.29-.2-.17L8.11,3.53a.36.36,0,0,1,.23-.64A.31.31,0,0,1,8.56,3l2.08,1.7L11,5l.36.29Z"/><path d="M13.89,18.51,11.56,16.6l-.2-.17L11,16.14l-.36.29-.2.17.2.17.36.29.36.29,2.08,1.71a.35.35,0,0,0,.22.08.34.34,0,0,0,.28-.13A.35.35,0,0,0,13.89,18.51Z"/><path d="M11.56,16.6l-.2-.17L11,16.14l-.36.29-.2.17L8.11,18.51a.35.35,0,0,0,0,.5.34.34,0,0,0,.28.13.35.35,0,0,0,.22-.08l2.08-1.71.36-.29.36-.29Z"/><path d="M19,12.65l-2.89.84-.26.07-.44.13,0,.46,0,.26.26-.07.44-.13.44-.13,2.59-.74a.3.3,0,0,0,.19-.14.35.35,0,0,0,.05-.3A.36.36,0,0,0,19,12.65Z"/><path d="M16.09,13.49l-.26.07-.44.13,0,.46,0,.26.25,3a.36.36,0,0,0,.38.33.37.37,0,0,0,.27-.16.41.41,0,0,0,.06-.23l-.22-2.68,0-.46,0-.46Z"/><path d="M2.91,12.67l2.89.84.26.07.44.12,0,.46,0,.27-.26-.07-.44-.13L5.3,14.1l-2.59-.74a.38.38,0,0,1-.19-.14.35.35,0,0,1,0-.3A.37.37,0,0,1,2.91,12.67Z"/><path d="M5.8,13.51l.26.07.44.12,0,.46,0,.27-.24,3a.36.36,0,0,1-.39.32.31.31,0,0,1-.26-.15.3.3,0,0,1-.06-.23l.22-2.68,0-.46,0-.46Z"/><path d="M3.21,9.69,6,8.61l.25-.09.43-.17L6.62,7.9l0-.27-.25.1-.43.17-.43.16L3,9a.34.34,0,0,0-.18.15.37.37,0,0,0,0,.31A.36.36,0,0,0,3.21,9.69Z"/><path d="M6,8.61l.25-.09.43-.17L6.62,7.9l0-.27-.5-3a.35.35,0,0,0-.41-.29.39.39,0,0,0-.26.17.38.38,0,0,0,0,.24l.45,2.65.07.46L6,8.35Z"/><path d="M18.87,9.68,16.07,8.6l-.25-.09-.43-.16.08-.46,0-.26.25.09.43.17.43.16,2.51,1a.38.38,0,0,1,.18.15.37.37,0,0,1,0,.31A.34.34,0,0,1,18.87,9.68Z"/><path d="M16.07,8.6l-.25-.09-.43-.16.08-.46,0-.26.5-3a.37.37,0,0,1,.41-.29.38.38,0,0,1,.26.18.37.37,0,0,1,0,.23l-.45,2.66-.08.45-.08.45Z"/><path d="M11.36,1.46V20.54a.37.37,0,1,1-.72,0V1.46a.37.37,0,1,1,.72,0Z"/><path d="M2.68,6.32,19,16.29a.4.4,0,0,0,.55-.08.4.4,0,0,0-.18-.53L3.05,5.71a.4.4,0,0,0-.55.08A.4.4,0,0,0,2.68,6.32Z"/><path d="M19.32,6.32l-16.27,10a.4.4,0,0,1-.55-.08.4.4,0,0,1,.18-.53L19,5.71a.4.4,0,0,1,.55.08A.4.4,0,0,1,19.32,6.32Z"/></svg>