<?xml version="1.0" encoding="utf-8"?>
<!-- Generator: Adobe Illustrator 25.4.1, SVG Export Plug-In . SVG Version: 6.00 Build 0)  -->
<svg version="1.1" id="Layer_1" xmlns="http://www.w3.org/2000/svg" xmlns:xlink="http://www.w3.org/1999/xlink" x="0px" y="0px"
	 viewBox="0 0 24 24" style="enable-background:new 0 0 24 24;" xml:space="preserve">
<style type="text/css">
	.st0{fill:none;stroke:#BF2B00;stroke-width:6;stroke-miterlimit:10;}
	.st1{fill:#FF2C2C;}
	.st2{fill:#F5F5F3;}
	.st3{fill:#FFFF00;}
	.st4{fill:#F3DB50;}
	.st5{fill:#808080;}
</style>
<g>
	<path class="st5" d="M11.72,10.5c1.33,0,2.42-1.08,2.42-2.42c0-1.33-1.08-2.42-2.42-2.42S9.31,6.75,9.31,8.08
		C9.31,9.42,10.39,10.5,11.72,10.5z M11.72,6.87c0.67,0,1.21,0.54,1.21,1.21c0,0.67-0.54,1.21-1.21,1.21s-1.21-0.54-1.21-1.21
		C10.52,7.41,11.06,6.87,11.72,6.87z"/>
	<path class="st5" d="M7.44,12.65c0.9,1.09,1.99,2.06,3.23,2.88l0.3,0.2h0.36h0.77h0.35l0.3-0.19c0.46-0.29,0.9-0.62,1.33-0.96
		c0.9-0.74,2.25-1.85,3.09-3.74c0.24-0.54,0.68-1.55,0.65-2.93c-0.02-0.71-0.18-2.11-1.1-3.42c-1.14-1.62-3.04-2.62-4.97-2.62
		c-0.17,0-0.35,0.01-0.52,0.02c-3.47,0.31-4.92,3.45-5.07,3.8c-0.11,0.25-1.04,2.55,0,5.01C6.5,11.51,6.94,12.04,7.44,12.65z
		 M7.27,6.16c0.08-0.19,1.27-2.83,4.07-3.08c0.14-0.01,0.28-0.02,0.41-0.02c1.72,0,3.18,0.96,3.98,2.11
		c0.75,1.06,0.87,2.18,0.88,2.75C16.64,9,16.3,9.8,16.07,10.34c-0.72,1.63-1.89,2.59-2.75,3.3c-0.48,0.4-0.91,0.69-1.21,0.88
		c-0.26,0-0.51,0-0.77,0c-1.44-0.95-2.39-1.94-2.97-2.64c-0.5-0.6-0.83-1.01-1.1-1.65C6.43,8.2,7.23,6.25,7.27,6.16z"/>
	<path class="st5" d="M22.44,11.1c-0.1-0.18-0.26-0.28-0.33-0.32c-0.84-0.52-1.68-1.03-2.53-1.54c-0.01-0.01-0.38-0.13-0.66,0.11
		c-0.23,0.2-0.29,0.57-0.11,0.88c0.78,0.49,1.55,0.98,2.32,1.47c0.06,0.04,0.1,0.11,0.1,0.19V19c0,0.16-0.17,0.27-0.32,0.21
		c-1.15-0.52-2.29-1.09-3.44-1.61c-0.09-0.04-0.17-0.07-0.26-0.08c-0.07-0.01-0.14-0.02-0.21-0.02c-0.19-0.02-0.38,0.02-0.56,0.1
		c-1.31,0.6-2.62,1.25-3.93,1.85c-0.32,0.15-0.7,0.15-1.02,0c-1.31-0.6-2.61-1.25-3.92-1.85c-0.33-0.15-0.71-0.14-1.04,0.01
		c-1.11,0.52-2.22,1.08-3.33,1.59c-0.15,0.07-0.33-0.04-0.33-0.2c-0.03-2.45-0.07-4.89-0.1-7.33c0-0.08,0.03-0.15,0.1-0.2
		c0.59-0.41,1.18-0.83,1.77-1.24c0.24-0.25,0.24-0.64,0-0.88C4.39,9.11,4,9.11,3.76,9.35C3.1,9.82,2.44,10.3,1.78,10.78
		c-0.07,0.07-0.16,0.18-0.22,0.32c-0.13,0.28-0.12,0.53-0.11,0.66v8.25c0,0.05,0.01,0.63,0.44,0.88C2.1,21.01,2.32,21,2.44,21
		c0.32-0.02,0.55-0.15,0.66-0.22c1.72-0.95,3.01-1.61,3.4-1.76c0.22-0.09,0.4-0.11,0.55-0.11c0.23,0,0.42,0.06,0.55,0.11l3.52,1.76
		c0.2,0.06,0.55,0.15,0.99,0.11c0.34-0.04,0.6-0.14,0.77-0.22c1.21-0.59,2.42-1.17,3.63-1.76c0.05-0.04,0.17-0.1,0.33-0.11
		c0.06-0.01,0.11,0,0.16,0.01c0.04,0,0.07,0.01,0.1,0.02c0.09,0.02,0.15,0.06,0.18,0.08c1.2,0.62,2.41,1.25,3.62,1.87
		c0.4,0.23,0.87,0.23,1.21,0c0.33-0.22,0.42-0.57,0.44-0.66c-0.01-4.68-0.02-8.03,0-8.47C22.56,11.58,22.58,11.34,22.44,11.1z"/>
</g>
</svg>
