<svg id="Layer_1" data-name="Layer 1" xmlns="http://www.w3.org/2000/svg" viewBox="0 0 50 50"><defs><style>.cls-1{fill:#785eff;}</style></defs><path class="cls-1" d="M40.92,14.6H39.35v-5a3.23,3.23,0,0,0-3.23-3.23H13.17A3.23,3.23,0,0,0,9.94,9.64v5H8.37a2.64,2.64,0,0,0-2.64,2.64v2.89H7.48V17.24a.89.89,0,0,1,.89-.89H9.94V37.78A2.29,2.29,0,0,0,11.52,40V41.3a2.28,2.28,0,0,0,2.28,2.29h3.77a2.29,2.29,0,0,0,2.29-2.29V40.07h9.56V41.3a2.29,2.29,0,0,0,2.29,2.29h3.77a2.29,2.29,0,0,0,2.29-2.29V40a2.3,2.3,0,0,0,1.58-2.17V16.35h1.57a.89.89,0,0,1,.89.89v2.89h1.75V17.24A2.64,2.64,0,0,0,40.92,14.6Zm-29.23-.87H23.77V26.9H11.69ZM18.11,41.3a.54.54,0,0,1-.54.54H13.8a.54.54,0,0,1-.53-.54V40.07h4.84ZM36,41.3a.54.54,0,0,1-.54.54H31.71a.54.54,0,0,1-.54-.54V40.07H36Zm1.58-3.52a.54.54,0,0,1-.54.54H12.22a.54.54,0,0,1-.53-.54V28.65H37.6Zm0-10.88H25.52V13.73H37.6ZM37.6,12H11.69V9.64a1.48,1.48,0,0,1,1.48-1.48H36.12A1.48,1.48,0,0,1,37.6,9.64Z"/><path class="cls-1" d="M16.6,36.24a3.07,3.07,0,1,0-3.06-3.06A3.07,3.07,0,0,0,16.6,36.24Zm0-4.38a1.32,1.32,0,1,1-1.31,1.32A1.32,1.32,0,0,1,16.6,31.86Z"/><path class="cls-1" d="M32.68,36.24a3.07,3.07,0,1,0-3.06-3.06A3.06,3.06,0,0,0,32.68,36.24Zm0-4.38a1.32,1.32,0,1,1-1.31,1.32A1.31,1.31,0,0,1,32.68,31.86Z"/></svg>