<svg id="Layer_1" data-name="Layer 1" xmlns="http://www.w3.org/2000/svg" viewBox="0 0 50 50"><path d="M45.78,26.27a4,4,0,0,0-.71-3.14,16.28,16.28,0,0,0-1.38-1.24h0l-2.5-1.95h1a2.64,2.64,0,0,0,2.33-2,2.77,2.77,0,0,0-1.05-2.5,2.94,2.94,0,0,0-1.67-.63H38.47A14.86,14.86,0,0,0,36.18,9a4.74,4.74,0,0,0-1.25-1,3.93,3.93,0,0,0-1.46-.42c-7.14-.21-12.68-.14-15.66,0A6.07,6.07,0,0,0,13.64,9,6.45,6.45,0,0,0,12.39,11a13.69,13.69,0,0,0-1.05,3.76c-.49,0-1.21,0-2.09,0-2,.06-2.41.23-2.71.42a2.67,2.67,0,0,0-1.25,1.67,2.62,2.62,0,0,0,.45,2,2.72,2.72,0,0,0,2,1h1L5.63,22.55a4.7,4.7,0,0,0-.55.59,4.29,4.29,0,0,0-.48.77,4.94,4.94,0,0,0-.35,1.73c0,1.11-.06,4.11-.06,8.15a2.57,2.57,0,0,0,.68,1.87,2.5,2.5,0,0,0,1.36.73v3.88a2.38,2.38,0,0,0,2.38,2.38h4.63a2.38,2.38,0,0,0,2.38-2.38V37.64H13.53v3.24H8.32V36.39H41.71v4.49H36.49V37.64H34.4v2.63a2.38,2.38,0,0,0,2.39,2.38h4.62a2.38,2.38,0,0,0,2.39-2.38v-4a2.37,2.37,0,0,0,1.35-.85,2.72,2.72,0,0,0,.53-1.62C45.74,32.5,45.8,29.81,45.78,26.27Zm-3.92-9.5a1.13,1.13,0,0,1,1,.63,1.17,1.17,0,0,1-.83,1.46H40.19L40,18h0l-.65-1.23Zm-27.8-5.11a3.27,3.27,0,0,1,1.46-1.88A3.22,3.22,0,0,1,17,9.36H32.84a2.39,2.39,0,0,1,1.25.21A2.47,2.47,0,0,1,35.34,11q1.57,4,3.13,7.93H11.55C12.39,16.53,13.22,14.09,14.06,11.66Zm-7,5.74a1.13,1.13,0,0,1,1-.63h2.5L10,18h0s-.08.3-.22.86H7.9A1.19,1.19,0,0,1,7.06,17.4ZM43.9,34.62H5.81L6,24.6l4.37-3.76H39.53L43.9,24.6Z"/><path d="M15.42,25.85H10.18a1.67,1.67,0,0,0-1.66,1.66v2.74a1.66,1.66,0,0,0,1.66,1.65h5.24a1.65,1.65,0,0,0,1.66-1.65V27.51A1.66,1.66,0,0,0,15.42,25.85Zm.62,4.4a.62.62,0,0,1-.62.61H10.18a.61.61,0,0,1-.61-.61V27.51a.61.61,0,0,1,.61-.61h5.24a.61.61,0,0,1,.62.61Z"/><path d="M32.74,27.51v2.74a1.65,1.65,0,0,0,1.65,1.65h5.24a1.65,1.65,0,0,0,1.66-1.65V27.51a1.66,1.66,0,0,0-1.66-1.66H34.39A1.66,1.66,0,0,0,32.74,27.51Zm7.51,0v2.74a.62.62,0,0,1-.62.61H34.39a.61.61,0,0,1-.61-.61V27.51a.61.61,0,0,1,.61-.61h5.24A.61.61,0,0,1,40.25,27.51Z"/><path d="M30.29,30.16h-9.7a.33.33,0,0,0-.37.29v1.08a.33.33,0,0,0,.37.3h9.7a.34.34,0,0,0,.37-.3V30.45A.34.34,0,0,0,30.29,30.16Z"/><path d="M30.29,26.61h-9.7a.33.33,0,0,0-.37.29V28a.33.33,0,0,0,.37.29h9.7a.34.34,0,0,0,.37-.29V26.9A.34.34,0,0,0,30.29,26.61Z"/></svg>