<?xml version="1.0" encoding="utf-8"?>
<!-- Generator: Adobe Illustrator 25.4.1, SVG Export Plug-In . SVG Version: 6.00 Build 0)  -->
<svg version="1.1" id="Layer_1" xmlns="http://www.w3.org/2000/svg" xmlns:xlink="http://www.w3.org/1999/xlink" x="0px" y="0px"
	 viewBox="0 0 30 30" style="enable-background:new 0 0 30 30;" xml:space="preserve">
<g>
	<path d="M18.55,6.24c0.91,0,1.76,0,2.6,0c1.51,0,2.16,0.66,2.16,2.17c0,5.59,0,11.18,0,16.78c0,0.61-0.04,1.23-0.57,1.6
		c-0.36,0.25-0.83,0.47-1.26,0.48c-4.33,0.03-8.65,0.03-12.98,0.02c-1.01,0-1.68-0.64-1.79-1.64c-0.02-0.14-0.02-0.29-0.02-0.43
		c0-5.59,0-11.18,0-16.78c0-0.32-0.02-1.13,0.52-1.68C7.7,6.28,8.42,6.23,8.88,6.24c0.83-0.03,1.75-0.06,2.58-0.09
		c0.03-0.95-0.03-1.9,0-2.86c0-0.28,0.05-0.98,0.55-1.47c0.1-0.09,0.35-0.52,1.43-0.52c1.04-0.01,2.08-0.01,3.12,0
		c1.25,0.01,1.99,0.75,2,2.02C18.56,4.27,18.55,5.21,18.55,6.24z M17.66,6.22c0-1.12,0.03-2.16-0.01-3.2
		c-0.02-0.51-0.45-0.83-1-0.84c-1.09-0.01-2.18-0.01-3.27,0c-0.2,0-0.51,0.05-0.77,0.28C12.37,2.69,12.43,3,12.41,3.18
		c0,1.01,0,2.02,0,3.04C14.16,6.25,15.91,6.19,17.66,6.22z M15.42,23.95c0-5.03,0-10.03,0-15.03c-0.26,0-0.49,0-0.74,0
		c0,5.03,0,10.02,0,15.03C14.93,23.95,15.15,23.95,15.42,23.95z M18.07,23.94c0-5.04,0-10.03,0-15.03c-0.26,0-0.49,0-0.72,0
		c0,5.03,0,10.01,0,15.03C17.6,23.94,17.82,23.94,18.07,23.94z M20.76,23.94c0-5.02,0-10.01,0-15.03c-0.26,0-0.48,0-0.74,0
		c0,5.02,0,10.01,0,15.03C20.28,23.94,20.51,23.94,20.76,23.94z M12.74,23.95c0-5.02,0-10.02,0-15.03c-0.26,0-0.49,0-0.73,0
		c0,5.03,0,10.02,0,15.03C12.25,23.95,12.46,23.95,12.74,23.95z M10.08,23.95c0-5.04,0-10.03,0-15.03c-0.26,0-0.49,0-0.73,0
		c0,5.03,0,10.02,0,15.03C9.6,23.95,9.82,23.95,10.08,23.95z"/>
	<path d="M20.73,27.79c0.07,0.65-0.13,0.89-0.73,0.9c-0.19,0.01-0.38,0-0.57,0c-0.61-0.01-0.81-0.24-0.75-0.9
		C19.34,27.79,20.02,27.79,20.73,27.79z"/>
	<path d="M9.39,27.79c0.67,0,1.35,0,2.02,0c0.09,0.63-0.11,0.88-0.67,0.91c-0.21,0.01-0.41,0.01-0.62,0
		C9.51,28.68,9.3,28.43,9.39,27.79z"/>
</g>
</svg>
