<svg id="Layer_1" data-name="Layer 1" xmlns="http://www.w3.org/2000/svg" viewBox="0 0 24 24"><defs><style>.cls-1{fill:none;stroke:#000;stroke-miterlimit:10;stroke-width:0.25px;}</style></defs><path class="cls-1" d="M19.34,19a.37.37,0,0,1,.33.19,18.48,18.48,0,0,1,0,2c.56.06,1.56-.24,1.68.32-.09.38-.53.28-.83.28h-1a18.17,18.17,0,0,1-1.85,0,.36.36,0,0,1-.2-.25c.11-.4.48-.31.81-.31h.78C19.1,20.64,18.88,19.21,19.34,19Z"/><path class="cls-1" d="M4.57,19c.41-.05.34.52.34.75v.86a4.86,4.86,0,0,0,0,.54c.37,0,1.61-.15,1.61.31s-.54.29-.78.29H3.43c-.23,0-.78.08-.79-.29s1.31-.29,1.66-.3C4.33,20.67,4.09,19.15,4.57,19Z"/><path class="cls-1" d="M5,7.38A1.74,1.74,0,1,1,3.78,8,1.74,1.74,0,0,1,5,7.38Z"/><path class="cls-1" d="M18.74,7.39a1.74,1.74,0,0,1,.48,3.45A1.74,1.74,0,0,1,18.74,7.39Z"/><path class="cls-1" d="M8.2,2.24c.58,0,1.16,0,1.74,0h5c.39,0,.82-.12,1.06.2,0,.24,0,.48,0,.71V6.3a4.8,4.8,0,0,1,0,1c-.06.11-.27.15-.38.18q0,.45,0,.9c-.2.35-.42.11-.65-.07s-.66-.58-1-.85a6.4,6.4,0,0,0-.88,0h-2a7.2,7.2,0,0,0-.93,0C9.75,7.63,9,8.52,8.71,8.55s-.32-.81-.33-1.06c-.11,0-.33-.06-.38-.17S8,4.49,8,4.11V2.94C8,2.65,7.88,2.39,8.2,2.24ZM9.34,3.65c-.32,0-.48.32-.22.52s.68,0,.85,0h1.35c1.13,0,2.27,0,3.39,0h.15A.42.42,0,0,0,15,3.83a.79.79,0,0,0-.14-.17,2.91,2.91,0,0,0-.66,0H9.34Zm0,1.87c-.27,0-.49.33-.18.51a1.25,1.25,0,0,0,.61,0h1.12c1.29,0,2.58,0,3.87,0,.32,0,.36-.36.14-.54a4.08,4.08,0,0,0-.7,0H10.38C10,5.53,9.66,5.51,9.31,5.52Z"/><path class="cls-1" d="M5.72,11.46a2.43,2.43,0,0,1,1.38.23A1.88,1.88,0,0,1,8,13.63v1a3.12,3.12,0,0,0,0,.75,13.08,13.08,0,0,0,2,0h5a5.35,5.35,0,0,0,1,0c.18-1.14-.33-2.5.59-3.41.56-.55,1.06-.48,1.79-.48h1.07c1.45,0,1.88.87,1.87,2.19v.87c0,1,0,2,0,3,.76-.41.61-1.25.61-2a17.06,17.06,0,0,1,0-2.28.53.53,0,0,1,.7-.23.7.7,0,0,1-.13,1.29h0a18.49,18.49,0,0,1,0,2.59,1.83,1.83,0,0,1-1.24,1.3,30.79,30.79,0,0,1-3.85,0,6.76,6.76,0,0,0-1.19,0c-.33.43.31.51.6.52a21.9,21.9,0,0,1-1,2.45A.76.76,0,0,1,14.39,21,14.92,14.92,0,0,1,15,18.76c.1-.36.18-.74.3-1.1.32-.87,1.42-.6,2.22-.65,0-.24,0-.47,0-.71V14.14a2.79,2.79,0,0,0,0-.58.64.64,0,0,0-.27-.11l-.16.12c-.16.54.07,1.48-.07,2-.23.83-1.08.74-1.72.74H13.66c-.24,0-.49,0-.74,0v.83c0,.86,0,1.73,0,2.59v.89c0,.25.1.81-.31.77a.35.35,0,0,1-.24-.15,14,14,0,0,1,0-1.59V17.22c0-.31,0-.61,0-.92-.24,0-.49,0-.73,0,0,1.59,0,3.27,0,4.86-.1.16-.34.3-.49.13s-.09-.66-.09-.86V19.39c0-1,0-2.05,0-3.08-.31,0-.63,0-.95,0H8.68c-.51,0-.95.08-1.37-.29A1.41,1.41,0,0,1,7,14.81V14c0-.34.08-.41-.27-.54a.69.69,0,0,0-.22.16A31.18,31.18,0,0,0,6.5,17c.49.13,1.21,0,1.63.12s.59.82.72,1.28c.17.62.34,1.25.57,1.85a5.17,5.17,0,0,1,.18.51.75.75,0,0,1-1.32.63,21.52,21.52,0,0,1-1-2.52c.17,0,.87-.17.59-.5-.12-.13-.45-.07-.6-.07l-.73,0a29.53,29.53,0,0,1-3.52,0C1.72,18.15,1.49,17.05,1.49,16v-.92c0-.1,0-.65,0-.7-1.39-.85.42-2.06.63-1a15.1,15.1,0,0,1,0,1.63v1c0,.67,0,1.14.63,1.53v-.12c0-.95,0-1.9,0-2.85v-.88A2.05,2.05,0,0,1,3.16,12C3.83,11.3,4.84,11.49,5.72,11.46Z"/></svg>