<svg id="Layer_1" data-name="Layer 1" xmlns="http://www.w3.org/2000/svg" viewBox="0 0 14 12"><defs><style>.cls-1{fill:#bd8100;fill-rule:evenodd;}</style></defs><path class="cls-1" d="M.19,8.05c.73.22.57.24,1.59-.7s.35-.69,1.56-.59,2.7-.06,3.54,0c0,.64-1.23,3.38-1.4,4.34h.66c.39,0,.31,0,.6-.35.59-.86,2.47-3.57,2.9-4a14.68,14.68,0,0,0,3.68-.29c.29-.16.74-.49.47-.81-.67-.78-2.53-.51-3.8-.47-.51,0-.39,0-.72-.43S6.51,1,6.27.89a2.62,2.62,0,0,0-.93,0A8.5,8.5,0,0,0,5.71,2l.8,2.15c.15.35.27.71.39,1.08H5.1c-3,0-2.19.59-3.42-.47C1,4.16.8,3.73.12,4.17A3.41,3.41,0,0,1,.19,8Z"/></svg>