<?xml version="1.0" encoding="utf-8"?>
<!-- Generator: Adobe Illustrator 25.4.1, SVG Export Plug-In . SVG Version: 6.00 Build 0)  -->
<svg version="1.1" id="Layer_1" xmlns="http://www.w3.org/2000/svg" xmlns:xlink="http://www.w3.org/1999/xlink" x="0px" y="0px"
	 viewBox="0 0 50 50" style="enable-background:new 0 0 50 50;" xml:space="preserve">
<path d="M46.73,15.34L46.73,15.34c-0.1-0.44-0.28-0.85-0.53-1.19c-0.87-1.23-2.4-1.5-3.41-1.68c-1.37-0.24-2.46-0.18-3.67,0
	c-2.01,0.29-4,0.84-5.92,1.62c-0.25,0.1-0.5,0.21-0.75,0.32c-10.53,5.03-15.12,7.23-15.35,7.36c0,0-0.01,0.01-0.02,0.01
	c-0.05,0.03-0.21,0.13-0.4,0.11c-0.08-0.01-0.16-0.02-0.24-0.04c-0.14-0.03-0.28-0.07-0.41-0.13l-0.01,0
	c-0.79-0.23-2.73-0.78-3.73-1.03l-0.03-0.01c-0.12-0.03-0.26-0.07-0.45-0.1c-0.35-0.07-0.7-0.1-1.57-0.18
	c-0.92-0.08-2.45-0.22-5.2-0.52c-0.36-0.04-0.62,0.03-0.77,0.21c-0.3,0.36,0.01,0.99,0.15,1.3l0,0.01c0.39,0.8,0.93,1.96,1.62,3.43
	l0.35,0.75c0,0-0.01,0.01-0.01,0.01l-0.01,0.01c-0.03,0.03-0.06,0.06-0.07,0.06c-0.31,0.16-0.63,0.32-0.95,0.48l-0.1,0.05
	C5,26.32,4.75,26.44,4.5,26.57c-1.13,0.56-1.55,1.56-1.09,2.6c0.2,0.44,0.52,0.76,0.95,0.92c0.49,0.19,1.08,0.15,1.67-0.09
	c0.03-0.01,0.06-0.03,0.1-0.04c0.51-0.23,1.03-0.47,1.49-0.69l0.2-0.1c0.12-0.06,0.24-0.11,0.35-0.17c1.75,1.76,3.8,2.66,6.25,2.78
	L13.8,32.6c-0.58,0.76-1.19,1.56-1.78,2.32c-0.55,0.71-0.57,1.38-0.08,2.04c0.2,0.27,0.58,0.61,1.29,0.71l0.01,0
	c0.06,0.01,0.13,0.02,0.22,0.02c0.19,0,0.46-0.03,0.87-0.14c0.75-0.2,1.29-0.49,1.75-0.74c0.57-0.32,1.11-0.63,1.91-1.22
	c1.02-0.76,1.99-1.64,2.88-2.63l3.01-3.56c4.31-5.1,7.16-8.46,7.4-8.75c0,0,0.3-0.37,0.67-0.67c0.08-0.07,0.17-0.13,0.17-0.13
	c0.03-0.02,0.06-0.04,0.1-0.07c0.3-0.2,0.61-0.35,0.89-0.49c0.5-0.24,0.9-0.43,0.99-0.82c0.04-0.18,0.03-0.34-0.05-0.48
	c-0.13-0.23-0.38-0.3-0.47-0.33c-0.48-0.14-0.92,0.07-1.14,0.22L20.5,23.72c-3.02,1.56-4.82,2.43-5.48,2.64L15,26.37
	c-0.18,0.06-0.73,0.23-0.83,0.67c-0.05,0.2,0.01,0.43,0.15,0.57c0.28,0.3,0.81,0.2,1.29,0.05c0.92-0.28,2.05-0.82,2.9-1.27
	c-1.1,1.57-1.9,2.65-2.18,3c-0.19,0.23-0.37,0.41-0.58,0.58c0,0-0.22,0.17-0.44,0.3c-0.56,0.32-2.25,0.24-3.98-0.72
	c-0.61-0.34-1.17-0.76-1.68-1.25l0.85-0.44l2.84-1.36c0.2-0.09,0.37-0.22,0.52-0.37c0.28-0.28,0.46-0.64,0.52-1.03
	c0.03-0.16,0.04-0.28,0.02-0.39c-0.01-0.1-0.04-0.19-0.08-0.28l20.12-9.2c0.05,0.11,0.12,0.27,0.21,0.45
	c0.2,0.45,0.34,0.71,0.43,0.91c0.1,0.19,0.16,0.32,0.23,0.5c0.19,0.48,0.42,0.75,0.71,0.86c0.31,0.12,0.69,0.05,1.22-0.22
	c1.5-0.78,3.06-1.51,4.57-2.23c0.48-0.23,1.08-0.51,1.65-0.78c0.72-0.34,1.49-0.13,1.8,0.5c0.15,0.31,0.09,0.64,0.07,0.73
	c-0.13,0.57-0.67,0.89-0.85,1c-0.91,0.55-6.85,3.31-14.45,6.69c-0.22,0.07-0.39,0.24-0.48,0.45c-0.09,0.2-0.09,0.43,0,0.62
	c0.08,0.18,0.24,0.32,0.44,0.39c0.21,0.07,0.43,0.06,0.62-0.03c7.78-3.4,13.18-5.95,14.5-6.71c0.51-0.29,1.21-0.77,1.52-1.61
	C46.77,16.3,46.81,15.83,46.73,15.34z M41.52,13.96l-4.91,2.45l-0.82-1.68c1.16-0.4,2.37-0.65,3.59-0.75
	C40.09,13.93,40.8,13.92,41.52,13.96z M13.09,35.95c0.01-0.1,0.06-0.2,0.15-0.27l0.01,0l8.26-10.65c0.11-0.12,0.24-0.24,0.37-0.34
	c0.13-0.1,0.27-0.18,0.41-0.25c0.02-0.01,0.04-0.02,0.06-0.03c0.41-0.2,2.94-1.37,6.35-2.95l-8.64,10.27l0,0
	c-0.07,0.1-0.15,0.2-0.23,0.29c-0.09,0.11-0.18,0.19-0.24,0.25l-0.02,0.01c-1.68,1.68-3.74,2.99-6.1,3.9
	c-0.12,0.04-0.25,0.02-0.32-0.05C13.1,36.1,13.08,36.03,13.09,35.95z M11.99,24.56l0.02-0.01c0.05-0.03,0.17-0.1,0.32-0.1
	c0.02,0,0.05,0,0.07,0.01c0.15,0.02,0.25,0.1,0.3,0.14c0.1,0.14,0.15,0.26,0.13,0.37c-0.04,0.24-0.37,0.39-0.51,0.45
	c-0.83,0.39-1.66,0.79-2.47,1.18l-0.1,0.05C9,27,8.22,27.38,7.45,27.74c-0.25,0.12-0.5,0.23-0.75,0.34l-0.03,0.01
	c-0.39,0.18-0.8,0.36-1.2,0.56c-0.11,0.05-0.36,0.18-0.56,0.09c-0.01,0-0.15-0.07-0.2-0.21c-0.06-0.17,0.05-0.45,0.37-0.63
	L11.99,24.56z M11.7,23.1L9.82,24l-0.06,0.03C9.08,24.35,8.39,24.67,7.71,25l-1.77-3.66c2.55,0.16,5.56,0.47,8.76,1.47l-1.08,0.46
	C13.05,22.87,12.32,22.8,11.7,23.1z"/>
</svg>
