<?xml version="1.0" encoding="utf-8"?>
<!-- Generator: Adobe Illustrator 25.4.1, SVG Export Plug-In . SVG Version: 6.00 Build 0)  -->
<svg version="1.1" id="Layer_1" xmlns="http://www.w3.org/2000/svg" xmlns:xlink="http://www.w3.org/1999/xlink" x="0px" y="0px"
	 viewBox="0 0 50 50" style="enable-background:new 0 0 50 50;" xml:space="preserve">
<style type="text/css">
	.st0{fill:#6C59F9;}
</style>
<path class="st0" d="M46.7,15.3L46.7,15.3c-0.1-0.4-0.3-0.9-0.5-1.2c-0.9-1.2-2.4-1.5-3.4-1.7c-1.4-0.2-2.5-0.2-3.7,0
	c-2,0.3-4,0.8-5.9,1.6c-0.2,0.1-0.5,0.2-0.8,0.3c-10.5,5-15.1,7.2-15.4,7.4c0,0,0,0,0,0c0,0-0.2,0.1-0.4,0.1c-0.1,0-0.2,0-0.2,0
	c-0.1,0-0.3-0.1-0.4-0.1h0c-0.8-0.2-2.7-0.8-3.7-1l0,0c-0.1,0-0.3-0.1-0.4-0.1c-0.4-0.1-0.7-0.1-1.6-0.2c-0.9-0.1-2.4-0.2-5.2-0.5
	c-0.4,0-0.6,0-0.8,0.2c-0.3,0.4,0,1,0.2,1.3v0c0.4,0.8,0.9,2,1.6,3.4l0.3,0.8l0,0l0,0c0,0-0.1,0.1-0.1,0.1C6,25.8,5.7,26,5.4,26.1
	l-0.1,0c-0.3,0.1-0.5,0.3-0.8,0.4c-1.1,0.6-1.5,1.6-1.1,2.6c0.2,0.4,0.5,0.8,0.9,0.9C4.8,30.3,5.4,30.2,6,30c0,0,0.1,0,0.1,0
	c0.5-0.2,1-0.5,1.5-0.7l0.2-0.1c0.1-0.1,0.2-0.1,0.4-0.2c1.8,1.8,3.8,2.7,6.2,2.8l-0.6,0.8c-0.6,0.8-1.2,1.6-1.8,2.3
	c-0.6,0.7-0.6,1.4-0.1,2c0.2,0.3,0.6,0.6,1.3,0.7h0c0.1,0,0.1,0,0.2,0c0.2,0,0.5,0,0.9-0.1c0.8-0.2,1.3-0.5,1.8-0.7
	c0.6-0.3,1.1-0.6,1.9-1.2c1-0.8,2-1.6,2.9-2.6l3-3.6c4.3-5.1,7.2-8.5,7.4-8.8c0,0,0.3-0.4,0.7-0.7c0.1-0.1,0.2-0.1,0.2-0.1
	c0,0,0.1,0,0.1-0.1c0.3-0.2,0.6-0.4,0.9-0.5c0.5-0.2,0.9-0.4,1-0.8c0-0.2,0-0.3,0-0.5c-0.1-0.2-0.4-0.3-0.5-0.3
	c-0.5-0.1-0.9,0.1-1.1,0.2l-11.9,5.8c-3,1.6-4.8,2.4-5.5,2.6l0,0c-0.2,0.1-0.7,0.2-0.8,0.7c-0.1,0.2,0,0.4,0.1,0.6
	c0.3,0.3,0.8,0.2,1.3,0c0.9-0.3,2.1-0.8,2.9-1.3c-1.1,1.6-1.9,2.6-2.2,3c-0.2,0.2-0.4,0.4-0.6,0.6c0,0-0.2,0.2-0.4,0.3
	c-0.6,0.3-2.2,0.2-4-0.7c-0.6-0.3-1.2-0.8-1.7-1.2l0.9-0.4l2.8-1.4c0.2-0.1,0.4-0.2,0.5-0.4c0.3-0.3,0.5-0.6,0.5-1
	c0-0.2,0-0.3,0-0.4c0-0.1,0-0.2-0.1-0.3l20.1-9.2c0,0.1,0.1,0.3,0.2,0.4c0.2,0.5,0.3,0.7,0.4,0.9c0.1,0.2,0.2,0.3,0.2,0.5
	c0.2,0.5,0.4,0.8,0.7,0.9c0.3,0.1,0.7,0,1.2-0.2c1.5-0.8,3.1-1.5,4.6-2.2c0.5-0.2,1.1-0.5,1.7-0.8c0.7-0.3,1.5-0.1,1.8,0.5
	c0.2,0.3,0.1,0.6,0.1,0.7c-0.1,0.6-0.7,0.9-0.8,1c-0.9,0.5-6.8,3.3-14.5,6.7c-0.2,0.1-0.4,0.2-0.5,0.5c-0.1,0.2-0.1,0.4,0,0.6
	c0.1,0.2,0.2,0.3,0.4,0.4c0.2,0.1,0.4,0.1,0.6,0c7.8-3.4,13.2-6,14.5-6.7c0.5-0.3,1.2-0.8,1.5-1.6C46.8,16.3,46.8,15.8,46.7,15.3z
	 M41.5,14l-4.9,2.4l-0.8-1.7c1.2-0.4,2.4-0.6,3.6-0.8C40.1,13.9,40.8,13.9,41.5,14z M13.1,36c0-0.1,0.1-0.2,0.1-0.3h0L21.5,25
	c0.1-0.1,0.2-0.2,0.4-0.3c0.1-0.1,0.3-0.2,0.4-0.2c0,0,0,0,0.1,0c0.4-0.2,2.9-1.4,6.4-3l-8.6,10.3l0,0c-0.1,0.1-0.1,0.2-0.2,0.3
	c-0.1,0.1-0.2,0.2-0.2,0.2l0,0c-1.7,1.7-3.7,3-6.1,3.9c-0.1,0-0.2,0-0.3,0C13.1,36.1,13.1,36,13.1,36z M12,24.6L12,24.6
	c0.1,0,0.2-0.1,0.3-0.1c0,0,0.1,0,0.1,0c0.1,0,0.2,0.1,0.3,0.1c0.1,0.1,0.1,0.3,0.1,0.4c0,0.2-0.4,0.4-0.5,0.5
	c-0.8,0.4-1.7,0.8-2.5,1.2l-0.1,0C9,27,8.2,27.4,7.4,27.7c-0.2,0.1-0.5,0.2-0.8,0.3l0,0c-0.4,0.2-0.8,0.4-1.2,0.6
	c-0.1,0-0.4,0.2-0.6,0.1c0,0-0.2-0.1-0.2-0.2c-0.1-0.2,0.1-0.5,0.4-0.6L12,24.6z M11.7,23.1L9.8,24l-0.1,0c-0.7,0.3-1.4,0.6-2,1
	l-1.8-3.7c2.5,0.2,5.6,0.5,8.8,1.5l-1.1,0.5C13.1,22.9,12.3,22.8,11.7,23.1z"/>
</svg>
