<svg id="Layer_1" data-name="Layer 1" xmlns="http://www.w3.org/2000/svg" viewBox="0 0 150 14.29"><defs><style>.cls-1,.cls-2{fill:none;stroke:#bd8100;stroke-miterlimit:10;stroke-width:0.75px;}.cls-2{stroke-dasharray:4.02 1.01;}.cls-3{fill:#bd8100;fill-rule:evenodd;}</style></defs><line class="cls-1" x1="0.92" y1="7.15" x2="2.92" y2="7.15"/><line class="cls-2" x1="3.92" y1="7.15" x2="129.07" y2="7.15"/><line class="cls-1" x1="129.57" y1="7.15" x2="131.57" y2="7.15"/><path class="cls-3" d="M132.12,9.63c.9.27.7.3,1.94-.84,1.09-1,.42-.84,1.89-.72,1.29.1,3.28-.08,4.3,0,0,.77-1.49,4.1-1.69,5.27h.8c.47,0,.37.05.72-.42.72-1,3-4.34,3.53-4.89,1,0,3.72,0,4.47-.35.35-.2.89-.6.57-1-.82-.94-3.08-.62-4.62-.57-.62,0-.47,0-.87-.52S139.8,1.06,139.51.94c-.13,0-1,0-1.12,0a9,9,0,0,0,.44,1.33l1,2.61a12.17,12.17,0,0,1,.47,1.32c-.72,0-1.44,0-2.18,0-3.68,0-2.66.72-4.15-.57-.82-.72-1.07-1.25-1.89-.7a4.11,4.11,0,0,1,.07,4.69Z"/></svg>