<svg id="Layer_1" data-name="Layer 1" xmlns="http://www.w3.org/2000/svg" viewBox="0 0 100 10.44"><defs><style>.cls-1,.cls-2{fill:none;stroke:#bd8100;stroke-miterlimit:10;stroke-width:0.75px;}.cls-2{stroke-dasharray:1.98 0.99;}.cls-3{fill:#bd8100;fill-rule:evenodd;}</style></defs><line class="cls-1" x1="1.61" y1="5.22" x2="2.61" y2="5.22"/><line class="cls-2" x1="3.6" y1="5.22" x2="86.22" y2="5.22"/><line class="cls-1" x1="86.71" y1="5.22" x2="87.71" y2="5.22"/><path class="cls-3" d="M87.76,6.93c.62.19.48.2,1.34-.58s.28-.58,1.29-.49,2.26-.05,3,0c0,.53-1,2.82-1.16,3.62h.55c.32,0,.25,0,.49-.29.5-.71,2.07-3,2.43-3.36a12.47,12.47,0,0,0,3.07-.24c.24-.14.61-.41.39-.68C98.56,4.27,97,4.49,96,4.53c-.43,0-.33,0-.6-.36S93,1,92.84,1s-.67,0-.77,0a6.92,6.92,0,0,0,.3.91L93,3.67a8.7,8.7,0,0,1,.32.9c-.49,0-1,0-1.5,0-2.53,0-1.83.5-2.85-.39-.56-.5-.73-.86-1.3-.48a2.8,2.8,0,0,1,.05,3.22Z"/></svg>