<svg id="Layer_1" data-name="Layer 1" xmlns="http://www.w3.org/2000/svg" viewBox="0 0 15 15"><defs><style>.cls-1{fill:#8f79ff;}</style></defs><path class="cls-1" d="M7.5,14.75A7.24,7.24,0,0,1,.25,7.52v0A7.24,7.24,0,0,1,7.48.25h0a7.24,7.24,0,0,1,7.25,7.23v0a7.24,7.24,0,0,1-7.23,7.25Zm0-13.14A5.89,5.89,0,1,0,13.39,7.5,5.89,5.89,0,0,0,7.5,1.61Z"/><path class="cls-1" d="M8.92,10.53V11H6.08v-.45h.19A.58.58,0,0,0,6.84,10V7.45a.58.58,0,0,0-.57-.58H6.08V6.42H8.16V10a.58.58,0,0,0,.57.58Z"/><circle class="cls-1" cx="7.42" cy="4.86" r="0.85"/></svg>