<svg id="Layer_1" data-name="Layer 1" xmlns="http://www.w3.org/2000/svg" viewBox="0 0 24 24"><defs><style>.cls-1{fill:#414042;}</style></defs><path class="cls-1" d="M15.3,18.25a.15.15,0,0,1-.15-.15V8s0,0,0,0H8.89a0,0,0,0,0,0,0V18.1a.14.14,0,0,1-.28,0V8a.32.32,0,0,1,.32-.32h6.23a.32.32,0,0,1,.32.32V18.1A.15.15,0,0,1,15.3,18.25Z"/><path class="cls-1" d="M16.83,18.25H7.17a.33.33,0,0,1-.33-.33V6.07a.32.32,0,0,1,.33-.32h9.67a.32.32,0,0,1,.33.32V17.92A.34.34,0,0,1,16.83,18.25ZM7.17,6a0,0,0,0,0,0,0V17.92a0,0,0,0,0,0,0h9.67a0,0,0,0,0,0,0V6.07s0,0,0,0Z"/><path class="cls-1" d="M12,18.25a.15.15,0,0,1-.15-.15V7.79A.15.15,0,0,1,12,7.65a.15.15,0,0,1,.14.14V18.11A.14.14,0,0,1,12,18.25Z"/><path class="cls-1" d="M14.33,6.88H9.67a.37.37,0,0,1-.37-.36V5.9a.15.15,0,1,1,.29,0v.62a.07.07,0,0,0,.08.08h4.66a.08.08,0,0,0,.08-.08V5.9a.14.14,0,1,1,.28,0v.62A.35.35,0,0,1,14.33,6.88Z"/><path class="cls-1" d="M11.18,13.63H9.69a.13.13,0,0,1-.12-.08.16.16,0,0,1,0-.15l.77-1.08a.15.15,0,0,1,.11-.06h0a.16.16,0,0,1,.12.06l.72,1.08a.14.14,0,0,1,0,.14A.16.16,0,0,1,11.18,13.63ZM10,13.34h.95l-.47-.69Z"/><path class="cls-1" d="M13.58,13.63a.17.17,0,0,1-.12-.07l-.77-1.08a.14.14,0,0,1,0-.14.13.13,0,0,1,.13-.08H14.3a.12.12,0,0,1,.12.08.12.12,0,0,1,0,.14l-.73,1.08a.12.12,0,0,1-.11.07Zm-.49-1.08.48.69.47-.69Z"/><path class="cls-1" d="M12,23a10.94,10.94,0,0,1-4.3-.87A11.1,11.1,0,0,1,4.19,19.8a10.92,10.92,0,0,1-2.36-3.5A11.09,11.09,0,0,1,1,12a10.91,10.91,0,0,1,.87-4.3A11,11,0,0,1,12,1a10.91,10.91,0,0,1,4.3.87A11.1,11.1,0,0,1,19.81,4.2,11.05,11.05,0,0,1,23,12a11.05,11.05,0,0,1-3.23,7.81A11,11,0,0,1,12,23ZM12,1.25A10.75,10.75,0,1,0,22.76,12,10.76,10.76,0,0,0,12,1.25Z"/></svg>