<svg id="Layer_1" data-name="Layer 1" xmlns="http://www.w3.org/2000/svg" viewBox="0 0 22 22"><path d="M11.12,6.17A4.83,4.83,0,1,0,16,11,4.82,4.82,0,0,0,11.12,6.17Zm0,9.21A4.38,4.38,0,1,1,15.5,11,4.38,4.38,0,0,1,11.12,15.38Z"/><path d="M6,5.39,7,6.57a.25.25,0,0,0,.35,0h0a.25.25,0,0,0,0-.35l-2-2.36a.26.26,0,0,0-.35,0H5a.25.25,0,0,0,0,.35L6,5.39Z"/><path d="M5.32,10.09a.24.24,0,0,0-.2-.29L1.85,9.22a.25.25,0,0,0-.29.21v0a.24.24,0,0,0,.2.24L5,10.29a.25.25,0,0,0,.29-.2Z"/><path d="M17.21,10.29l3-.53a.26.26,0,0,0,.2-.29h0a.24.24,0,0,0-.29-.2l-3,.53a.25.25,0,0,0-.2.29h0A.26.26,0,0,0,17.21,10.29Z"/><path d="M14.75,6.79a.24.24,0,0,0,.35,0l2.13-2.55a.24.24,0,0,0,0-.35h0a.26.26,0,0,0-.35,0L14.72,6.44a.24.24,0,0,0,0,.35Z"/><path d="M11.12,5.47a.25.25,0,0,0,.25-.25V1.65a.25.25,0,0,0-.25-.25.25.25,0,0,0-.25.25V5.22A.25.25,0,0,0,11.12,5.47Z"/><path d="M8.87,5.66a.27.27,0,0,0,.24.17l.08,0a.26.26,0,0,0,.17-.23.29.29,0,0,0,0-.09L8.59,3.43a.26.26,0,0,0-.32-.15.27.27,0,0,0-.15.32Z"/><path d="M4,7.29,5.9,8.38l.12,0a.25.25,0,0,0,.22-.12.27.27,0,0,0,0-.12A.25.25,0,0,0,6.15,8l-1-.55-1-.55a.26.26,0,0,0-.34.1.17.17,0,0,0,0,.12A.26.26,0,0,0,4,7.29Z"/><path d="M16,8.17a.28.28,0,0,0,0,.12.24.24,0,0,0,.21.12.28.28,0,0,0,.13,0l1.68-1a.25.25,0,0,0,.09-.34h0A.25.25,0,0,0,17.78,7L16.1,8A.26.26,0,0,0,16,8.17Z"/><path d="M13.05,5.81l.09,0a.26.26,0,0,0,.23-.17l.75-2.06a.31.31,0,0,0,0-.08.25.25,0,0,0-.49-.09L12.9,5.49a.28.28,0,0,0,0,.09A.25.25,0,0,0,13.05,5.81Z"/><path d="M6,16.61l1-1.18a.25.25,0,0,1,.35,0h0a.25.25,0,0,1,0,.35l-2,2.36a.26.26,0,0,1-.35,0H5a.25.25,0,0,1,0-.35l1-1.18Z"/><path d="M5.32,11.91a.24.24,0,0,1-.2.29l-3.27.58a.25.25,0,0,1-.29-.21v0a.24.24,0,0,1,.2-.24L5,11.71a.25.25,0,0,1,.29.2Z"/><path d="M17.21,11.71l3,.53a.26.26,0,0,1,.2.29h0a.24.24,0,0,1-.29.2l-3-.53a.25.25,0,0,1-.2-.29h0A.26.26,0,0,1,17.21,11.71Z"/><path d="M14.75,15.21a.24.24,0,0,1,.35,0l2.13,2.55a.24.24,0,0,1,0,.35h0a.26.26,0,0,1-.35,0l-2.13-2.55a.24.24,0,0,1,0-.35Z"/><path d="M11.12,16.53a.25.25,0,0,1,.25.25v3.57a.25.25,0,0,1-.25.25.25.25,0,0,1-.25-.25V16.78A.25.25,0,0,1,11.12,16.53Z"/><path d="M8.87,16.34a.27.27,0,0,1,.24-.17l.08,0a.26.26,0,0,1,.17.23.29.29,0,0,1,0,.09l-.75,2.06a.26.26,0,0,1-.32.15.27.27,0,0,1-.15-.32Z"/><path d="M4,14.71l1.9-1.09.12,0a.25.25,0,0,1,.22.12.27.27,0,0,1,0,.12.25.25,0,0,1-.12.22l-1,.55-1,.55a.26.26,0,0,1-.34-.1.17.17,0,0,1,0-.12A.26.26,0,0,1,4,14.71Z"/><path d="M16,13.83a.28.28,0,0,1,0-.12.24.24,0,0,1,.21-.12.28.28,0,0,1,.13,0l1.68,1a.25.25,0,0,1,.09.34h0a.25.25,0,0,1-.34.09l-1.68-1A.26.26,0,0,1,16,13.83Z"/><path d="M13.05,16.19l.09,0a.26.26,0,0,1,.23.17l.75,2.06a.31.31,0,0,1,0,.08.25.25,0,0,1-.49.09l-.75-2.06a.28.28,0,0,1,0-.09A.25.25,0,0,1,13.05,16.19Z"/></svg>