<svg id="Layer_1" data-name="Layer 1" xmlns="http://www.w3.org/2000/svg" viewBox="0 0 24 24"><defs><style>.cls-1{fill:none;stroke:#414042;stroke-miterlimit:10;stroke-width:0.4px;}</style></defs><path class="cls-1" d="M22.21,16.29a8.73,8.73,0,0,0-4.08-1.37A8,8,0,0,0,17,14a9.06,9.06,0,0,0-5.14-1.52h-4a2.45,2.45,0,0,0-1.43.45L4.45,14.24H1.65a.36.36,0,0,0-.35.36v3.93a1.61,1.61,0,0,0,1.61,1.61h.93a2.05,2.05,0,0,0,3.81,0h8.44a2.06,2.06,0,0,0,3.82,0h2.44a.36.36,0,0,0,.35-.36v-2.5a1.25,1.25,0,0,0-.49-1ZM7.05,19.7a1.34,1.34,0,0,1-2.61,0,1.12,1.12,0,0,1,0-.32,1.35,1.35,0,1,1,2.69,0,1.24,1.24,0,0,1,0,.33Zm12.26,0a1.35,1.35,0,0,1-2.62,0,1.65,1.65,0,0,1,0-.32,1.35,1.35,0,0,1,2.7,0,1.24,1.24,0,0,1,0,.33ZM22,19.43H20.06v-.06a2.06,2.06,0,1,0-4.12,0v.06H7.8v-.06a2.06,2.06,0,1,0-4.12,0v.06H2.91a.9.9,0,0,1-.9-.9V15H4.56a.39.39,0,0,0,.21-.06l2-1.42a1.76,1.76,0,0,1,1-.32h4a8.36,8.36,0,0,1,4.74,1.4,7.36,7.36,0,0,1,1.16,1,.35.35,0,0,0,.24.1,8.45,8.45,0,0,1,3.83,1.24.54.54,0,0,1,.21.42v2.14Z"/><path class="cls-1" d="M16.53,15.31H11.2V14a.36.36,0,1,0-.71,0v1.33H7.58l-.94-.66a.36.36,0,1,0-.41.59l1,.72a.36.36,0,0,0,.2.06h9.06a.36.36,0,1,0,0-.71Z"/><path class="cls-1" d="M9,2.57A1,1,0,0,0,7.91,3.62V10A1.06,1.06,0,0,0,9,11.09H15A1.06,1.06,0,0,0,16.09,10V3.62A1,1,0,0,0,15,2.57Zm6.42,1.05V10a.34.34,0,0,1-.34.34H9A.34.34,0,0,1,8.62,10V3.62A.34.34,0,0,1,9,3.28H15a.34.34,0,0,1,.34.34Z"/><path class="cls-1" d="M12.89,4.3h-2a.36.36,0,0,0-.35.36V9a.36.36,0,1,0,.71,0V7.36h1.68a1.22,1.22,0,0,0,1.22-1.22V5.53A1.23,1.23,0,0,0,12.89,4.3Zm.51,1.84a.51.51,0,0,1-.51.51H11.21V5h1.68a.51.51,0,0,1,.51.51v.61Z"/></svg>