<svg id="Layer_1" data-name="Layer 1" xmlns="http://www.w3.org/2000/svg" viewBox="0 0 22 22"><path d="M7.52,19.94H6.18V18.47h1Zm-.95-.39H7l-.15-.69H6.57Z"/><path d="M16.4,19.94H15.06l.3-1.47h1Zm-.86-.39H16v-.69h-.33Z"/><path d="M18.74,12.32a1.79,1.79,0,0,0-.89-.19V6.32c0-.12,0-.24,0-.35a3.4,3.4,0,0,0-2.71-3.06,8.33,8.33,0,0,0-1.41-.07H7.51A3.42,3.42,0,0,0,4.12,6.23v5.89H4a1.71,1.71,0,0,0-1.66,2c.16,1.07.34,2.14.51,3.21A1.73,1.73,0,0,0,4.62,18.8H17.41A1.71,1.71,0,0,0,18.92,18a2.18,2.18,0,0,0,.26-.83c.16-1,.33-2,.49-3.07A1.71,1.71,0,0,0,18.74,12.32ZM4.83,6.21A2.7,2.7,0,0,1,7.38,3.56h7.24a2.46,2.46,0,0,1,.93.24,2.62,2.62,0,0,1,1.58,2.51c0,2,0,3.93,0,5.89a.22.22,0,0,1-.12.21,1.79,1.79,0,0,0-.8,1.33c0,.26-.07.51-.12.77a1,1,0,0,1-.91.83H7.28a2.69,2.69,0,0,1-.57,0,1,1,0,0,1-.83-.9,9.78,9.78,0,0,0-.2-1.08,1.57,1.57,0,0,0-.75-1,.18.18,0,0,1-.1-.17ZM19,14c-.13.86-.28,1.71-.42,2.57a5.89,5.89,0,0,1-.15.82,1,1,0,0,1-.9.71H4.66a1,1,0,0,1-1-.59,3.22,3.22,0,0,1-.15-.63C3.34,15.91,3.19,15,3,14a1,1,0,0,1,.87-1.16A1,1,0,0,1,5,13.7c.06.33.1.67.17,1A1.73,1.73,0,0,0,7,16.06h8a1.74,1.74,0,0,0,1.81-1.56c.05-.27.09-.55.14-.82A1,1,0,0,1,19,14Z"/></svg>