<svg id="Layer_1" data-name="Layer 1" xmlns="http://www.w3.org/2000/svg" xmlns:xlink="http://www.w3.org/1999/xlink" viewBox="0 0 178 134"><defs><style>.cls-1{fill:none;}.cls-2{fill:#f0eeff;}.cls-3{fill:#d1c9fc;}.cls-4{fill:#bcb0fb;}.cls-5{clip-path:url(#clip-path);}.cls-6{fill:#8f79ff;}.cls-7{fill:#644fd2;}.cls-8{fill:#a593ff;}.cls-9{fill:#1e1e4c;}.cls-10{fill:#322f77;opacity:0.36;}.cls-11{fill:#f7f7f9;}.cls-12,.cls-30{fill:#fff;}.cls-13{fill:#dc0225;}.cls-14{fill:#ffc55f;}.cls-15{fill:#c8c5ff;}.cls-16{clip-path:url(#clip-path-2);}.cls-17{fill:#1a1a1a;}.cls-18{fill:#6b6b6b;}.cls-19{fill:#c2c2c2;}.cls-20{fill:#f2f2f2;}.cls-21{fill:#636363;}.cls-22{fill:#333;}.cls-23{clip-path:url(#clip-path-4);}.cls-24{clip-path:url(#clip-path-5);}.cls-25{clip-path:url(#clip-path-7);}.cls-26{clip-path:url(#clip-path-9);}.cls-27{clip-path:url(#clip-path-10);}.cls-28{fill:#8d9bb7;}.cls-29{fill:#6b757a;}.cls-30{opacity:0.2;}.cls-31{fill:#99aac4;}</style><clipPath id="clip-path"><rect class="cls-1" x="12.49" y="57" width="154.28" height="58"/></clipPath><clipPath id="clip-path-2"><rect class="cls-1" x="128.81" y="89.33" width="25.75" height="25.62"/></clipPath><clipPath id="clip-path-4"><rect class="cls-1" x="142.24" y="113.09" width="1.54" height="1.86"/></clipPath><clipPath id="clip-path-5"><rect class="cls-1" x="139.6" y="113.09" width="1.54" height="1.86"/></clipPath><clipPath id="clip-path-7"><rect class="cls-1" x="30.86" y="89.33" width="25.75" height="25.62"/></clipPath><clipPath id="clip-path-9"><rect class="cls-1" x="43.62" y="113.31" width="1.54" height="1.64"/></clipPath><clipPath id="clip-path-10"><rect class="cls-1" x="40.98" y="113.09" width="1.76" height="1.86"/></clipPath></defs><path class="cls-2" d="M15.44.13H162.56a15.31,15.31,0,0,1,15.31,15.31V118.56a15.31,15.31,0,0,1-15.31,15.31H15.44A15.32,15.32,0,0,1,.13,118.56V15.44A15.32,15.32,0,0,1,15.44.13Z"/><path class="cls-3" d="M162.56.25a15.2,15.2,0,0,1,15.19,15.19V118.56a15.2,15.2,0,0,1-15.19,15.19H15.44A15.2,15.2,0,0,1,.25,118.56V15.44A15.2,15.2,0,0,1,15.44.25H162.56m0-.25H15.44A15.44,15.44,0,0,0,0,15.44V118.56A15.44,15.44,0,0,0,15.44,134H162.56A15.44,15.44,0,0,0,178,118.56V15.44A15.44,15.44,0,0,0,162.56,0Z"/><path class="cls-4" d="M178,115v3.56A15.44,15.44,0,0,1,162.56,134H15.44A15.44,15.44,0,0,1,0,118.56V115Z"/><g class="cls-5"><polyline points="126.19 87 156.96 87 156.96 102.19 126.19 102.19 126.19 87"/><polyline points="28.99 87 59.76 87 59.76 102.19 28.99 102.19 28.99 87"/><path class="cls-6" d="M17.06,97.17a1.34,1.34,0,0,0,1.35-1.34v-.92a1.34,1.34,0,0,0-1.35-1.34H12.59c0-1,.06-1.86.06-2.55,0-2.75.91-3.53,2.22-5.1s1.38-14.2,2-15.9,9.89-1.63,13.36-1.83c7.94-3,12.52-4.39,22.34-7.27a99.7,99.7,0,0,1,27.63-3.66c7,.29,19.39,1.39,28.46,5.75s13.55,9.35,22.06,9.89c4.13.26,14.67,1.64,22.2,4.32s12.43,6,13.48,13.08c.11.71.19,1.38.24,2h-2.59A1.7,1.7,0,0,0,162.31,94V97a1.71,1.71,0,0,0,1.77,1.64h2.4a8.18,8.18,0,0,1-1.1,3.27c-.52.59-.8,2-7.52,2.29l-2.24.05V101.7a14,14,0,0,0-27.95,0v2.67c-18.17,0-38.5-.12-43.14-.22-3.94-.08-15.34,0-26.61,0v-1.56a14,14,0,0,0-27.95,0v1.07c-4.29-.6-12.55-1.69-13.66-2.15A5.7,5.7,0,0,1,13,97.43c.22-.12,4.08-.26,4.08-.26"/><path class="cls-7" d="M127.67,102.3v2.07c-18.17,0-38.5-.12-43.14-.22-3.94-.08-15.34,0-26.61,0v-1.56c0-.09,0-.18,0-.27h69.76"/><path class="cls-8" d="M35.14,76c15.08.06,54.05,3,68.15,5s25.89,3.31,31.78,5c-7.13-3.27-22.85-6.38-34.7-8-11.5-1.55-60.92-4.76-68.32-4.91,2.38,1,3.11,1.65,3.09,2.84"/><path class="cls-9" d="M124.68,77.74a39.66,39.66,0,0,0-12.59-10.93A53.36,53.36,0,0,0,91.76,60.4c-8.82-1-14.22-1.41-21.17-.7a67.51,67.51,0,0,0-19.38,5.37c-3.1,1.39-7.64,3.57-6.55,8.09,8.88.35,73.84,4,80,4.58"/><path class="cls-10" d="M121.88,101.26a3.85,3.85,0,0,0,3.77-3.06c1.65-8,1.17-14.63-1-20.46l-.6,0c2.11,5.74,2.69,12.51,1.06,20.41a3.32,3.32,0,0,1-3.26,2.63c-11.21-.06-55.9-.38-58.73-.45l0,.26v-.26a3.11,3.11,0,0,1-3-2.39,17.41,17.41,0,0,0-8.8-11.54,5.91,5.91,0,0,1-2.6-2.61l0-.09a46.43,46.43,0,0,1-3.49-10.47l-.53,0a47.38,47.38,0,0,0,3.55,10.71l0,.1a6.32,6.32,0,0,0,2.83,2.84A16.87,16.87,0,0,1,59.62,98a3.66,3.66,0,0,0,3.48,2.81h0c2.83.07,47.53.38,58.72.45h0"/><path class="cls-10" d="M85.31,100.79c1.22-6.75,1.27-19-.54-25.46l-.53,0c1.76,6.27,1.74,18.84.55,25.39l.52.1"/><path class="cls-10" d="M84.77,75.33l-.53,0c-.31-2.93-1.68-11.94-2.45-15.83l.54,0c.78,4,2.15,13,2.44,15.82"/><path class="cls-10" d="M34.21,84.61h4.6a1.71,1.71,0,0,0,1.71-1.7V79.18a1.71,1.71,0,0,0-1.71-1.7h-4.6a1.71,1.71,0,0,0-1.71,1.7v3.73a1.71,1.71,0,0,0,1.71,1.7M38.81,78A1.18,1.18,0,0,1,40,79.18v3.73a1.18,1.18,0,0,1-1.19,1.18h-4.6A1.18,1.18,0,0,1,33,82.91V79.18A1.18,1.18,0,0,1,34.21,78Z"/><path class="cls-7" d="M162.31,97V94a1.7,1.7,0,0,1,1.77-1.64h2.12a29.17,29.17,0,0,1-.17,6.35h-1.95A1.71,1.71,0,0,1,162.31,97"/><path class="cls-8" d="M163.22,95.54c0,1.24.46,2.24,1,2.24s1-1,1-2.24-.45-2.25-1-2.25-1,1-1,2.25"/><path class="cls-8" d="M163.16,85c.92,1.69,1,3.8-1.39,3.75s-4.59.18-8.47-3.4-5.19-3.92-4.8-5.67,3.14-.65,5.06-.22,7.77,2.18,9.6,5.54"/><path class="cls-11" d="M161.84,88c.53,0,.88-.13,1-.4a2.59,2.59,0,0,0-.36-2.25c-1.52-2.8-6.45-4.57-9.11-5.17l-1-.26a10.53,10.53,0,0,0-2.41-.46c-.65,0-.7.21-.74.37-.18.8.06,1,2,2.67.7.59,1.56,1.32,2.61,2.29,3.43,3.16,5.42,3.18,7.52,3.2h.52"/><path class="cls-8" d="M16.22,76.84a3.55,3.55,0,0,1,1.92-.6c1.79-.09,3-.17,4.37-.18,1.83,0,7.64-.13,8.2,0s2.27.43.66,1.68-10.3,4.56-12.13,5.17a26.29,26.29,0,0,1-3.76,1.16c.34-1.82.55-4.6.74-7.23"/><path class="cls-12" d="M16.56,81.68a.91.91,0,0,0,1.21.95L19,82.21c2.21-.74,10.49-4,11.92-5.06l.24-.21a4.87,4.87,0,0,0-.52-.13l-.09,0a17.61,17.61,0,0,0-2-.05c-1.35,0-3,0-4.43,0l-1.61,0c-1.09,0-2.06.06-3.29.13l-1.05,0a1.4,1.4,0,0,0-1.32,1.31c-.09,1.15-.19,2.32-.3,3.39"/><path class="cls-13" d="M17.06,93.57a1.34,1.34,0,0,1,1.35,1.34v.92a1.34,1.34,0,0,1-1.35,1.34h-3.6a22.12,22.12,0,0,1-.26-3.6h3.86"/><path class="cls-7" d="M13,97.43h4.08a1.61,1.61,0,0,0,1.61-1.6v-.92a1.61,1.61,0,0,0-1.61-1.6H12.59v.53h4.47a1.07,1.07,0,0,1,1.08,1.07v.92a1.08,1.08,0,0,1-1.08,1.08H12.92l.06.52"/><path class="cls-7" d="M125.91,104.36v-3.7a16,16,0,0,1,32,0v3.58l-2.24.05V101.7a14,14,0,0,0-27.95,0v2.67h-1.76"/><path class="cls-7" d="M28.45,103.43V102c0-8.81,6.85-16,15.32-16s15.32,7.15,15.32,16v2.11H57.92v-1.56a14,14,0,0,0-27.95,0v1.07l-1.52-.21"/><path class="cls-14" d="M149.22,79.83c0-.16.09-.37.74-.37a10.53,10.53,0,0,1,2.41.46l.16,0a7.34,7.34,0,0,0,.82,4.42c-.85-.77-1.57-1.37-2.16-1.88-1.91-1.62-2.15-1.87-2-2.67"/><path class="cls-15" d="M157.15,86.47l.08,0a2.89,2.89,0,0,0,.85-2.3,4.36,4.36,0,0,0-.22-1.33,1.85,1.85,0,0,0-.76-1c-.39-.21-.81-.1-1.16.39a3.62,3.62,0,0,0-.49,2.21,3.09,3.09,0,0,0,.71,1.93.79.79,0,0,0,1,.19m0-4.17a1.18,1.18,0,0,1,.47.64,3.51,3.51,0,0,1,.22,1.2,2.28,2.28,0,0,1-.63,1.84c-.2.12-.43,0-.63-.2a2.56,2.56,0,0,1-.46-1.49,3,3,0,0,1,.32-1.67c.2-.32.44-.44.67-.35Z"/><path class="cls-13" d="M19.61,78.42a1.59,1.59,0,0,1,1.53-1.58l1.38,0,1.61,0c1.38,0,3.08,0,4.43,0a17.61,17.61,0,0,1,2,.05l.09,0a4.87,4.87,0,0,1,.52.13l-.24.21c-1.1.84-6.22,2.93-9.55,4.19a1.29,1.29,0,0,1-1.76-1.22v-1.7"/></g><g class="cls-16"><path class="cls-17" d="M135.19,91.15a12.77,12.77,0,1,1-4.6,17.46,12.79,12.79,0,0,1,4.6-17.46m12.1,20.72a11.23,11.23,0,1,0-15.36-4A11.21,11.21,0,0,0,147.29,111.87Z"/></g><g class="cls-5"><path class="cls-18" d="M148.55,105.26a7.92,7.92,0,0,0,.61-2.29l0-.28h-.29a16.94,16.94,0,0,1-3.32-.12l-.18,0a1.26,1.26,0,0,1-.65-.3,1.24,1.24,0,0,1-.31-1.43,1.26,1.26,0,0,1,.21-.32,1.37,1.37,0,0,1,.22-.2A18.58,18.58,0,0,1,148,98.68l.27-.1-.14-.24a7.54,7.54,0,0,0-3.48-3.1l-.26-.11-.07.27a16.16,16.16,0,0,1-.89,2.55c-.08.19-.17.39-.27.58l-.07.15a1.32,1.32,0,0,1-.49.53,1.29,1.29,0,0,1-.94.13,1.27,1.27,0,0,1-.76-.58,1.31,1.31,0,0,1-.12-.27,17.52,17.52,0,0,1-.56-3.5V94.7l-.28.06a7.47,7.47,0,0,0-2.2.86,7.66,7.66,0,0,0-1.82,1.49l-.19.21.24.15a17,17,0,0,1,2.62,2.07l.12.12a1.27,1.27,0,0,1,.35.63,1.25,1.25,0,0,1-.08.76,1.23,1.23,0,0,1-.87.71l-.29,0a17.19,17.19,0,0,1-3.51-.55l-.27-.07,0,.28a7.52,7.52,0,0,0,1,4.55l.14.24.22-.18a17,17,0,0,1,2.78-1.85l.15-.08A1.33,1.33,0,0,1,139,104a1.27,1.27,0,0,1,.83.45,1.26,1.26,0,0,1,.28.91.89.89,0,0,1-.07.28v0l-.3.73a17.59,17.59,0,0,1-1.29,2.4l-.16.23.26.12a7.63,7.63,0,0,0,4.64.47l.28-.06-.11-.26a17,17,0,0,1-.9-3.21l0-.17a1.19,1.19,0,0,1,.08-.72,1.25,1.25,0,0,1,1.64-.63,1.28,1.28,0,0,1,.25.15,16.62,16.62,0,0,1,2.52,2.51l.17.22.19-.21a7.52,7.52,0,0,0,1.27-2"/><path class="cls-18" d="M138.08,96.1a7,7,0,1,1-2.53,9.62,7.05,7.05,0,0,1,2.53-9.62m6.84,11.72a6.53,6.53,0,1,0-8.94-2.35A6.52,6.52,0,0,0,144.92,107.82Z"/><path class="cls-19" d="M137.93,95.85a7.33,7.33,0,1,1-2.64,10,7.35,7.35,0,0,1,2.64-10m7.13,12.21a6.81,6.81,0,1,0-9.31-2.46A6.81,6.81,0,0,0,145.06,108.06Z"/><path class="cls-19" d="M139,103.75a1.5,1.5,0,0,0-.84.17,16.8,16.8,0,0,0-3,2,7.32,7.32,0,0,1-.95-4.41,16.85,16.85,0,0,0,3.51.56,1.81,1.81,0,0,0,.4,0,1.46,1.46,0,0,0,1.13-1.75,1.43,1.43,0,0,0-.42-.76,17,17,0,0,0-2.78-2.21,7.12,7.12,0,0,1,1.77-1.44A7.25,7.25,0,0,1,140,95a17.33,17.33,0,0,0,.56,3.52,2.75,2.75,0,0,0,.15.36,1.47,1.47,0,0,0,2.61-.1,16.41,16.41,0,0,0,1.25-3.32,7.39,7.39,0,0,1,3.37,3,17.38,17.38,0,0,0-3.18,1.62,1.49,1.49,0,0,0-.18,2.35,1.51,1.51,0,0,0,.78.36,17.37,17.37,0,0,0,3.55.15,7.38,7.38,0,0,1-1.82,4.14,16.65,16.65,0,0,0-2.52-2.52,1.3,1.3,0,0,0-.34-.21,1.48,1.48,0,0,0-2.05,1.61,17.11,17.11,0,0,0,.95,3.43,7.42,7.42,0,0,1-4.49-.46,17.08,17.08,0,0,0,1.61-3.17,1.59,1.59,0,0,0,.1-.39,1.49,1.49,0,0,0-1.33-1.62"/><path class="cls-20" d="M136.6,96.78a7.21,7.21,0,0,1,1.28-1,7.33,7.33,0,0,1,1.47-.65,23.06,23.06,0,0,0,2.06,6.07l-.54.32a23.34,23.34,0,0,0-4.27-4.79"/><path class="cls-20" d="M145.19,95.77a7.21,7.21,0,0,1,1.31.92,7.08,7.08,0,0,1,1.07,1.2,23,23,0,0,0-5.14,3.84l-.47-.42a22.88,22.88,0,0,0,3.23-5.54"/><path class="cls-20" d="M148.82,103.62a7.14,7.14,0,0,1-.48,1.53,7,7,0,0,1-.8,1.39,22.91,22.91,0,0,0-5.25-3.7l.26-.58a22.77,22.77,0,0,0,6.27,1.36"/><path class="cls-20" d="M142.46,109.5a7.13,7.13,0,0,1-1.6,0,7.3,7.3,0,0,1-1.57-.33,23.07,23.07,0,0,0,1.9-6.13l.63.06a23.14,23.14,0,0,0,.64,6.39"/><path class="cls-20" d="M134.91,105.27a7.56,7.56,0,0,1-.52-1.52,7.87,7.87,0,0,1-.16-1.59,23.16,23.16,0,0,0,6.42-.09l.13.62a22.85,22.85,0,0,0-5.87,2.58"/><path class="cls-21" d="M140.32,102.93a1.47,1.47,0,1,0,.53-2,1.48,1.48,0,0,0-.53,2"/><path class="cls-20" d="M141.6,101a1.2,1.2,0,0,1,1.12.83,1.18,1.18,0,0,1-2.08-.34,1.2,1.2,0,0,1,1-.49"/><path class="cls-21" d="M139.6,101.7a.36.36,0,0,0,.48-.18.35.35,0,0,0-.19-.47.36.36,0,1,0-.29.65"/><path class="cls-20" d="M139.92,101.21l0,.05,0,0a.25.25,0,0,1-.34,0l0,0,0,0a.25.25,0,0,1,.34,0"/><path class="cls-21" d="M141.44,100.15a.36.36,0,0,0,.32.39.36.36,0,1,0,.07-.71.36.36,0,0,0-.39.32"/><path class="cls-20" d="M142,100.09v0l0,0a.24.24,0,0,1-.32-.12V100l0,0a.25.25,0,0,1,.32.13"/><path class="cls-21" d="M143.49,101.41a.36.36,0,0,0,.15.7.36.36,0,0,0,.28-.43.37.37,0,0,0-.43-.27"/><path class="cls-20" d="M143.78,101.68l0,.06-.05,0a.24.24,0,0,1-.31-.13l0,0,.05,0a.23.23,0,0,1,.31.12"/><path class="cls-21" d="M142.92,103.75a.36.36,0,1,0-.13.49.36.36,0,0,0,.13-.49"/><path class="cls-20" d="M142.82,103.81l0,0,0,0a.24.24,0,0,1-.33-.08l0,0,0,0a.24.24,0,0,1,.33.09"/><path class="cls-21" d="M140.52,103.93a.36.36,0,0,0,0-.51.35.35,0,0,0-.5,0,.36.36,0,1,0,.53.48"/><path class="cls-20" d="M140.47,103.6v.05l0,0a.25.25,0,0,1-.32-.13v0l0,0a.23.23,0,0,1,.31.13"/><path class="cls-22" d="M136,92.48a11.23,11.23,0,1,1-4,15.35,11.24,11.24,0,0,1,4-15.35m9.35,16a7.33,7.33,0,1,0-10-2.64A7.34,7.34,0,0,0,145.32,108.51Z"/><path class="cls-17" d="M134.68,91.47l.77,1.33c.17-.11.34-.22.52-.32l.53-.29-.78-1.33-.53.29-.51.32"/><path class="cls-17" d="M137.06,90.26l.48,1.46.57-.2c.19-.07.39-.13.58-.18l-.48-1.46-.58.17-.57.21"/><path class="cls-17" d="M139.64,89.57l.16,1.53.61-.08.6,0-.17-1.53-.6,0-.6.08"/><path class="cls-17" d="M142.3,89.43,142.15,91c.2,0,.4,0,.6,0s.41,0,.61.08l.15-1.54-.6-.07-.61,0"/><path class="cls-17" d="M144.94,89.85l-.47,1.47.58.17a5.66,5.66,0,0,1,.58.2l.47-1.47-.58-.2-.58-.17"/><path class="cls-17" d="M147.43,90.81l-.76,1.34c.18.09.36.18.53.28s.35.21.52.32l.77-1.34c-.17-.11-.35-.22-.52-.31s-.36-.2-.54-.29"/><path class="cls-17" d="M149.67,92.26l-1,1.15.47.39.44.42,1-1.15-.45-.42-.46-.39"/><path class="cls-17" d="M151.56,94.15l-1.24.91.37.48c.12.16.23.33.34.5l1.25-.91c-.11-.17-.23-.34-.35-.5l-.37-.48"/><path class="cls-17" d="M153,96.39l-1.4.63c.09.18.18.36.26.55s.16.37.23.56l1.41-.64c-.07-.19-.15-.37-.23-.56s-.17-.36-.27-.54"/><path class="cls-17" d="M154,98.88l-1.51.33c.06.19.1.39.15.59s.08.39.11.59l1.5-.33c0-.2-.06-.39-.11-.59s-.09-.39-.14-.59"/><path class="cls-17" d="M154.38,101.52h-1.54c0,.2,0,.41,0,.61s0,.4,0,.6h1.54c0-.2,0-.41,0-.61s0-.4,0-.6"/><path class="cls-17" d="M154.24,104.18l-1.51-.31c0,.2-.06.4-.1.59s-.09.4-.14.59l1.51.32c.05-.2.09-.4.14-.59s.07-.4.1-.6"/><path class="cls-17" d="M153.55,106.76l-1.41-.62c-.07.19-.15.37-.23.56s-.17.37-.26.55l1.41.62c.09-.18.18-.37.26-.55s.16-.37.23-.56"/><path class="cls-17" d="M152.34,109.13l-1.25-.9-.34.51-.37.48,1.25.9.37-.48c.11-.17.23-.33.34-.51"/><path class="cls-17" d="M150.65,111.21l-1-1.14-.44.42-.46.39,1,1.14.46-.39.43-.42"/><path class="cls-17" d="M148.58,112.88l-.78-1.33c-.17.12-.34.22-.51.32a5.61,5.61,0,0,1-.54.29l.78,1.34c.18-.1.36-.19.53-.3a5.58,5.58,0,0,0,.52-.32"/><path class="cls-17" d="M146.2,114.09l-.48-1.46-.57.21-.59.17.49,1.46.58-.17q.28-.09.57-.21"/></g><g class="cls-23"><path class="cls-17" d="M143.62,114.78l-.17-1.53c-.2,0-.4.06-.6.09s-.4,0-.6,0l.16,1.54.61,0,.6-.09"/></g><g class="cls-24"><path class="cls-17" d="M141,114.92l.16-1.53-.61,0-.6-.08-.15,1.53.6.08.6,0"/></g><g class="cls-5"><path d="M138.32,114.5l.47-1.46-.59-.17-.57-.2-.47,1.46c.19.08.38.14.57.2s.39.12.59.17"/><path d="M135.82,113.55l.77-1.34-.54-.29c-.17-.1-.35-.2-.51-.31l-.77,1.33a5.58,5.58,0,0,0,.52.32l.53.29"/><path d="M133.59,112.09l1-1.15a5.58,5.58,0,0,1-.46-.39l-.44-.41-1,1.14a5.77,5.77,0,0,0,.44.42,5.71,5.71,0,0,0,.47.39"/><path d="M131.7,110.2l1.24-.91c-.13-.15-.25-.31-.37-.48s-.24-.32-.35-.49l-1.24.91c.11.17.23.33.35.5s.24.32.37.47"/><path d="M130.24,108l1.41-.64c-.09-.18-.18-.36-.26-.54s-.17-.37-.24-.56l-1.4.63c.07.19.15.38.23.56s.17.37.26.55"/><path d="M129.29,105.47l1.51-.32c-.06-.2-.11-.39-.15-.59s-.08-.4-.11-.6l-1.51.33c0,.2.07.4.11.6s.09.39.15.58"/><path d="M128.87,102.84h1.54c0-.2,0-.4,0-.6s0-.41,0-.61h-1.54c0,.2,0,.4,0,.6s0,.41,0,.61"/><path d="M129,100.17l1.51.32c0-.2.07-.4.11-.6s.09-.39.14-.59L129.26,99c0,.19-.1.39-.14.59s-.08.39-.11.59"/><path d="M129.71,97.6l1.41.62a11.7,11.7,0,0,1,.49-1.11l-1.42-.62c-.09.18-.17.36-.25.55a5.48,5.48,0,0,0-.23.56"/><path d="M130.92,95.22l1.25.9c.11-.17.22-.34.34-.5s.24-.33.37-.48l-1.25-.9c-.13.15-.25.32-.37.48s-.23.33-.34.5"/><path d="M132.6,93.15l1,1.14a5.77,5.77,0,0,1,.44-.42,6,6,0,0,1,.46-.4l-1-1.14-.46.4a5.77,5.77,0,0,0-.44.42"/><path d="M137.7,94.2a5.93,5.93,0,0,0-.56.29,8.88,8.88,0,0,0-4.36,8.63l-1.1.19a10,10,0,0,1,4.9-9.78,10.4,10.4,0,0,1,1.55-.73l-.43,1.4"/><path d="M148.91,107.29a8.89,8.89,0,0,0,1-8.34l1.44.86a10,10,0,0,1-1.29,7.75l-1.16-.27"/><path d="M133.83,108.48a.59.59,0,0,0,.85,0,.6.6,0,1,0-.81-.89.59.59,0,0,0,0,.85"/><path d="M139.41,111.93a10.13,10.13,0,0,1-2.59-1l.58-.95a8.86,8.86,0,0,0,2.2.82l-.19,1.1"/><path d="M140.58,111a9,9,0,0,0,2.26,0l.21,1.1a9.87,9.87,0,0,1-2.66,0l.19-1.11"/><path d="M142.65,93a.61.61,0,1,0,.38-.76.6.6,0,0,0-.38.76"/><path d="M147.81,95.78l.72-.84a11.48,11.48,0,0,1,.89,1l-.9.66a10.44,10.44,0,0,0-.71-.77"/><path d="M145.61,93a10.32,10.32,0,0,1,2.17,1.28l-.73.85A9.41,9.41,0,0,0,145.22,94l.39-1"/><path d="M137.71,95.46a7.78,7.78,0,1,1-2.81,10.64,7.78,7.78,0,0,1,2.81-10.64m7.61,13.05a7.33,7.33,0,1,0-10-2.64A7.34,7.34,0,0,0,145.32,108.51Z"/></g><g class="cls-25"><path class="cls-17" d="M48.4,90.28a12.77,12.77,0,1,1-16.54,7.26A12.76,12.76,0,0,1,48.4,90.28m-8.71,22.36A11.23,11.23,0,1,0,33.3,98.1,11.24,11.24,0,0,0,39.69,112.64Z"/></g><g class="cls-5"><path class="cls-18" d="M45.66,109.51a7.51,7.51,0,0,0,2.17-1l.24-.15-.19-.21a17.48,17.48,0,0,1-2-2.68l-.09-.16a1.3,1.3,0,0,1-.17-.7,1.24,1.24,0,0,1,.93-1.12,1,1,0,0,1,.38,0,.93.93,0,0,1,.29,0A16.92,16.92,0,0,1,50.49,105l.24.14.11-.26a7.62,7.62,0,0,0,.26-4.65L51,100l-.26.11a15.59,15.59,0,0,1-2.55.89c-.21,0-.41.11-.62.15l-.17,0a1.27,1.27,0,0,1-.72-.06,1.24,1.24,0,0,1-.68-.65,1.25,1.25,0,0,1,0-.95.82.82,0,0,1,.14-.26,17,17,0,0,1,2.39-2.63l.22-.18-.22-.18a7.54,7.54,0,0,0-4.34-1.69l-.29,0,0,.29a16.08,16.08,0,0,1,0,3.33v.17a1.26,1.26,0,0,1-.28.67,1.29,1.29,0,0,1-.64.41,1.24,1.24,0,0,1-1.1-.24,1,1,0,0,1-.21-.21A17.21,17.21,0,0,1,40,95.89l-.11-.26-.24.15a7.49,7.49,0,0,0-3,3.6l-.11.26.28.06a17,17,0,0,1,3.18,1l.15.07a1.2,1.2,0,0,1,.55.47,1.24,1.24,0,0,1-.37,1.71,1.26,1.26,0,0,1-.26.13h0l-.76.22a17.82,17.82,0,0,1-2.68.48l-.28,0,.07.28A7.5,7.5,0,0,0,38.91,108l.22.18.14-.25a16.29,16.29,0,0,1,1.95-2.7l.11-.13a1.34,1.34,0,0,1,.61-.38,1.25,1.25,0,0,1,1.52.89,1.35,1.35,0,0,1,0,.29,16.59,16.59,0,0,1-.4,3.53l-.06.27.28,0a7.7,7.7,0,0,0,2.34-.24"/><path class="cls-18" d="M46.32,95.62a7,7,0,1,1-9.11,4,7,7,0,0,1,9.11-4M41.4,108.26a6.53,6.53,0,1,0-3.72-8.45A6.52,6.52,0,0,0,41.4,108.26Z"/><path class="cls-19" d="M46.43,95.35a7.33,7.33,0,1,1-9.5,4.17,7.33,7.33,0,0,1,9.5-4.17m-5.14,13.17a6.81,6.81,0,1,0-3.87-8.81A6.82,6.82,0,0,0,41.29,108.52Z"/><path class="cls-19" d="M40.92,101.13a1.48,1.48,0,0,0-.66-.56,17,17,0,0,0-3.38-1.1A7.33,7.33,0,0,1,39.74,96a17.16,17.16,0,0,0,1.75,3.1,2.44,2.44,0,0,0,.27.29,1.5,1.5,0,0,0,2.09-.21,1.46,1.46,0,0,0,.32-.8,16.86,16.86,0,0,0,0-3.55,7,7,0,0,1,2.23.49,7.25,7.25,0,0,1,2,1.14A17.12,17.12,0,0,0,46,99.07a1.51,1.51,0,0,0-.2.35,1.48,1.48,0,0,0,.85,1.91,1.42,1.42,0,0,0,.86.07,17.08,17.08,0,0,0,3.37-1.09,7.26,7.26,0,0,1-.25,4.5,17.32,17.32,0,0,0-3.24-1.48,1.78,1.78,0,0,0-.39-.07,1.48,1.48,0,0,0-1.57,1.39,1.52,1.52,0,0,0,.21.84,17.1,17.1,0,0,0,2.08,2.87,7.42,7.42,0,0,1-4.37,1.15,16.86,16.86,0,0,0,.41-3.54,1.31,1.31,0,0,0-.05-.39,1.49,1.49,0,0,0-1.81-1.06,1.53,1.53,0,0,0-.73.45,17,17,0,0,0-2.09,2.88,7.4,7.4,0,0,1-2.44-3.8,17.73,17.73,0,0,0,3.49-.71,1.69,1.69,0,0,0,.36-.17,1.48,1.48,0,0,0,.45-2"/><path class="cls-20" d="M44.86,94.88a7.28,7.28,0,0,1,1.55.42,6.82,6.82,0,0,1,1.42.74,23,23,0,0,0-3.47,5.4l-.59-.23a22.88,22.88,0,0,0,1.09-6.33"/><path class="cls-20" d="M51,101a7.07,7.07,0,0,1,.08,1.6,6.87,6.87,0,0,1-.27,1.58,23.06,23.06,0,0,0-6.2-1.64l0-.63A22.92,22.92,0,0,0,51,101"/><path class="cls-20" d="M47.11,108.7a7.52,7.52,0,0,1-1.5.58,7.27,7.27,0,0,1-1.59.23,23.2,23.2,0,0,0-.36-6.4l.61-.16a22.85,22.85,0,0,0,2.84,5.75"/><path class="cls-20" d="M38.55,107.38a6.76,6.76,0,0,1-1-1.24,6.88,6.88,0,0,1-.71-1.44,23,23,0,0,0,6-2.32l.34.53a23.08,23.08,0,0,0-4.6,4.47"/><path class="cls-20" d="M37.16,98.84A7.68,7.68,0,0,1,38,97.5a7.14,7.14,0,0,1,1.15-1.12,23.16,23.16,0,0,0,4.06,5l-.4.48a23.61,23.61,0,0,0-5.68-3"/><path class="cls-21" d="M42.37,101.63a1.47,1.47,0,1,0,1.9-.84,1.47,1.47,0,0,0-1.9.84"/><path class="cls-20" d="M44.67,101.42a1.2,1.2,0,0,1,0,1.4,1.21,1.21,0,0,1-1-.45,1.19,1.19,0,0,1,0-1.39,1.2,1.2,0,0,1,1,.44"/><path class="cls-21" d="M42.88,100.3a.36.36,0,1,0,.25-.44.36.36,0,0,0-.25.44"/><path class="cls-20" d="M43.46,100.24l0,.05h0a.23.23,0,0,1-.21-.26v0h.06a.25.25,0,0,1,.21.27"/><path class="cls-21" d="M45.24,100.77a.35.35,0,0,0-.11.49.36.36,0,0,0,.5.11.37.37,0,0,0,.11-.49.36.36,0,0,0-.5-.11"/><path class="cls-20" d="M45.65,101.18l0,0h0a.24.24,0,0,1-.1-.33l0,0,.06,0a.24.24,0,0,1,.1.32"/><path class="cls-21" d="M45.52,103.16a.34.34,0,0,0-.5,0,.35.35,0,0,0,0,.5.36.36,0,0,0,.51,0,.35.35,0,0,0-.06-.5"/><path class="cls-20" d="M45.5,103.56l0,0-.05,0a.24.24,0,0,1-.1-.32l0,0h0a.25.25,0,0,1,.1.33"/><path class="cls-21" d="M43.34,104.17a.36.36,0,1,0-.67-.26.36.36,0,0,0,.2.46.37.37,0,0,0,.47-.2"/><path class="cls-20" d="M43.23,104.12l0,0h-.05a.24.24,0,0,1-.14-.31l0,0h.05a.24.24,0,0,1,.14.31"/><path class="cls-21" d="M41.7,102.4a.36.36,0,1,0,0-.71.36.36,0,0,0,0,.71"/><path class="cls-20" d="M41.94,102.16l0,0,0,0a.24.24,0,0,1-.1-.32l0,0h.05a.25.25,0,0,1,.1.33"/><path class="cls-22" d="M47.84,91.72A11.23,11.23,0,1,1,33.3,98.1a11.22,11.22,0,0,1,14.54-6.38M41.1,109a7.33,7.33,0,1,0-4.17-9.49A7.34,7.34,0,0,0,41.1,109Z"/><path class="cls-17" d="M47.83,90.08l-.56,1.43c.19.07.38.13.57.21l.56.23L49,90.52c-.18-.09-.37-.16-.56-.24l-.57-.2"/><path class="cls-17" d="M50.26,91.19l-.85,1.28.52.32.5.35.84-1.29-.49-.34a5.58,5.58,0,0,0-.52-.32"/><path class="cls-17" d="M52.4,92.78l-1.09,1.08c.15.13.3.28.44.42s.28.29.41.44l1.1-1.08q-.19-.23-.42-.45a5.76,5.76,0,0,0-.44-.41"/><path class="cls-17" d="M54.17,94.78l-1.3.83c.12.16.24.33.35.5s.21.34.31.52l1.3-.83c-.1-.18-.21-.35-.32-.52s-.22-.34-.34-.5"/><path class="cls-17" d="M55.48,97.1,54,97.65a5.48,5.48,0,0,1,.23.56c.07.18.14.38.2.57l1.44-.55c-.06-.19-.12-.38-.2-.57a5.48,5.48,0,0,0-.23-.56"/><path class="cls-17" d="M56.28,99.65l-1.52.23c0,.2.08.4.11.6a5.79,5.79,0,0,1,.07.6l1.53-.24c0-.2,0-.4-.08-.6a5.59,5.59,0,0,0-.11-.59"/><path class="cls-17" d="M56.54,102.3,55,102.21c0,.21,0,.41,0,.61s0,.4,0,.6l1.54.09c0-.2,0-.4.05-.6s0-.41,0-.61"/><path class="cls-17" d="M56.23,105l-1.48-.4c0,.19-.09.39-.15.59s-.11.38-.17.58l1.48.4a5.58,5.58,0,0,0,.18-.58c0-.19.1-.39.14-.59"/><path class="cls-17" d="M55.38,107.48l-1.37-.7c-.08.18-.17.36-.26.54s-.19.36-.29.53l1.37.71c.1-.17.2-.35.29-.53s.18-.36.26-.55"/><path class="cls-17" d="M54,109.78l-1.2-1c-.12.17-.24.33-.37.48s-.26.31-.4.46l1.2,1a5.58,5.58,0,0,0,.39-.46l.38-.48"/><path class="cls-17" d="M52.22,111.74l-1-1.2c-.15.14-.31.27-.47.4l-.48.36,1,1.2c.17-.11.33-.24.49-.36l.46-.4"/><path class="cls-17" d="M50,113.29l-.69-1.37c-.17.1-.35.19-.53.28l-.55.26.69,1.38.55-.26.53-.29"/><path class="cls-17" d="M47.59,114.35l-.39-1.49a5.54,5.54,0,0,1-.58.17l-.59.14.39,1.49.59-.14a5.54,5.54,0,0,0,.58-.17"/></g><g class="cls-26"><path class="cls-17" d="M45,114.88l-.08-1.54c-.2,0-.4,0-.6,0h-.61l.08,1.54h.6l.61-.05"/></g><g class="cls-27"><path class="cls-17" d="M42.31,114.86l.25-1.52a6,6,0,0,1-.61-.09c-.19,0-.39-.06-.59-.11l-.25,1.52.6.12.6.08"/></g><g class="cls-5"><path d="M39.7,114.28l.56-1.44-.57-.2c-.19-.08-.38-.15-.56-.24l-.56,1.44.56.23.57.21"/><path d="M37.27,113.17l.85-1.29c-.18-.1-.35-.21-.52-.32s-.33-.22-.5-.35l-.84,1.29.5.35.51.32"/><path d="M35.13,111.58l1.09-1.09c-.15-.13-.29-.27-.44-.42a5.76,5.76,0,0,1-.41-.44l-1.1,1.09.42.44.44.42"/><path d="M33.36,109.58l1.3-.84a5.5,5.5,0,0,1-.34-.5c-.11-.17-.22-.34-.32-.51l-1.3.83.32.52c.11.17.22.34.34.5"/><path d="M32.05,107.25l1.44-.54c-.08-.19-.16-.37-.23-.56s-.14-.38-.2-.57l-1.44.54c.06.19.13.38.2.57a5.48,5.48,0,0,0,.23.56"/><path d="M31.25,104.71l1.52-.23c0-.2-.08-.4-.11-.6s-.06-.4-.07-.6l-1.53.23c0,.2.05.4.08.6s.06.4.11.6"/><path d="M31,102.05l1.54.09c0-.2,0-.4,0-.61s0-.4.05-.6l-1.54-.09c0,.2,0,.41,0,.61s0,.4,0,.6"/><path d="M31.3,99.4l1.49.41c0-.2.09-.4.14-.59a5.58,5.58,0,0,1,.18-.58l-1.49-.41c-.07.19-.12.39-.18.58s-.1.39-.14.59"/><path d="M32.15,96.87l1.37.71c.08-.19.17-.37.26-.55s.19-.35.3-.53l-1.38-.7c-.1.17-.2.35-.29.53s-.18.36-.26.54"/><path d="M33.51,94.58l1.19,1,.37-.48c.13-.16.26-.31.4-.46l-1.2-1-.39.46a4.37,4.37,0,0,0-.37.48"/><path d="M35.31,92.61l1,1.2.46-.39.48-.37-1-1.2c-.17.12-.33.24-.48.37a5.71,5.71,0,0,0-.47.39"/><path d="M37.49,91.06l.69,1.38.53-.29.55-.26-.69-1.37a5.52,5.52,0,0,0-.55.26c-.18.09-.36.18-.53.28"/><path d="M39.94,90l.39,1.49.58-.17.59-.14-.39-1.49-.59.14-.58.17"/><path d="M42.55,89.47,42.63,91c.2,0,.4,0,.6,0l.61,0-.07-1.54-.61,0-.61,0"/><path d="M45.22,89.5,45,91l.6.08.59.11.25-1.52-.59-.11-.61-.08"/><path d="M47.58,94.14,47,93.88a8.92,8.92,0,0,0-9.48,2l-.83-.74A10,10,0,0,1,47.4,92.85a10.49,10.49,0,0,1,1.54.76l-1.36.53"/><path d="M44.29,111.06a8.92,8.92,0,0,0,7.16-4.4l.22,1.66a10,10,0,0,1-6.87,3.81l-.51-1.07"/><path d="M34,100a.6.6,0,0,0,.5.69.61.61,0,0,0,.7-.5.6.6,0,0,0-.5-.69.62.62,0,0,0-.7.5"/><path d="M34.74,106.51a10,10,0,0,1-.84-2.63l1.1-.14a9.16,9.16,0,0,0,.72,2.24l-1,.53"/><path d="M36.2,106.85a8.85,8.85,0,0,0,1.42,1.75l-.73.85a9.79,9.79,0,0,1-1.67-2.07l1-.53"/><path d="M51.59,97.27a.61.61,0,1,0,.84-.18.61.61,0,0,0-.84.18"/><path d="M52.62,103l1.11,0a11.47,11.47,0,0,1-.19,1.29l-1.08-.3a7.12,7.12,0,0,0,.16-1"/><path d="M53.44,99.58a10.46,10.46,0,0,1,.34,2.5l-1.12,0a8.87,8.87,0,0,0-.29-2.11l1.07-.34"/><path d="M46.59,94.93a7.78,7.78,0,1,1-10.08,4.42,7.77,7.77,0,0,1,10.08-4.42M41.1,109a7.33,7.33,0,1,0-4.17-9.49A7.34,7.34,0,0,0,41.1,109Z"/><path class="cls-10" d="M124.68,77.74c6.47.11,15.95-.07,24.59.91-5-1.6-16.18-2.61-19.77-2.9A7,7,0,0,1,131,77.14a30.87,30.87,0,0,0-6.36.6"/><path class="cls-3" d="M79.31,73.58C66.73,72.87,54.17,72.14,48,71.83a1.42,1.42,0,0,1-1-2.36,14.28,14.28,0,0,1,4.86-3,67.18,67.18,0,0,1,18.93-5.26,67,67,0,0,1,6.71-.34h1.14A1.41,1.41,0,0,1,80,62.14l.83,9.9a1.41,1.41,0,0,1-1.5,1.54"/><path class="cls-3" d="M85.5,62.53a.94.94,0,0,1,1-1.2c1.57.15,3.25.34,5.1.55a51.81,51.81,0,0,1,19.78,6.22,41,41,0,0,1,8.31,6.16.94.94,0,0,1-.71,1.61c-6.61-.42-17.7-1.07-29.36-1.75a.92.92,0,0,1-.85-.66L85.5,62.53"/><path class="cls-28" d="M89.17,68.27a1.78,1.78,0,0,1,3.54.45l-.6,4.69a1.75,1.75,0,0,1-.35.84l-2.15-.13a.92.92,0,0,1-.85-.66l-.17-.59.58-4.6m24.52,3.35a.54.54,0,0,1,.25.71l-1.53,3.13-1.14-.06L113,71.86a.52.52,0,0,1,.7-.24"/><path class="cls-29" d="M86.69,61.35l-.2,0h0l.2,0M62.57,72.63l-1.82-.1,1.82.1m5.19.29-2.38-.13,2.38.13m29,1.62-1.17-.07,1.17.07m14.52.86-4.91-.3,4.91.3"/><path class="cls-30" d="M62.57,72.63l-6-8.11c-.81.29-1.56.57-2.22.83l5.22,7.11,1.13.07,1.82.1m13.14.75L67.14,61.69a62.51,62.51,0,0,0-8.36,2.1l6.6,9,2.38.13,7.95.46"/><path class="cls-30" d="M98.29,74.63,88.71,61.56l-2-.21-.2,0H86.4a.91.91,0,0,0-.56.18l4.07,5.54a1.76,1.76,0,0,1,1-.33h.22a1.79,1.79,0,0,1,1.55,2l-.24,1.83,2.87,3.91h.24l1.17.07,1.54.09m13,.77.07-.15-7.82-10.67a54,54,0,0,0-11.88-2.69l9.47,12.9,5.25.31,4.91.3"/><path class="cls-31" d="M92.47,70.55l.24-1.83a1.79,1.79,0,0,0-1.55-2h-.22a1.76,1.76,0,0,0-1,.33l2.56,3.5m19,4.86-.12-.16-.07.15h.19"/><polyline class="cls-10" points="166.01 98.7 165.19 99.39 158.59 99.38 159.09 98.7 166.01 98.7"/></g></svg>