<?xml version="1.0" encoding="utf-8"?>
<!-- Generator: Adobe Illustrator 25.4.1, SVG Export Plug-In . SVG Version: 6.00 Build 0)  -->
<svg version="1.1" id="Layer_1" xmlns="http://www.w3.org/2000/svg" xmlns:xlink="http://www.w3.org/1999/xlink" x="0px" y="0px"
	 viewBox="0 0 22 22" style="enable-background:new 0 0 22 22;" xml:space="preserve">
<path d="M19.1,17.3h-16c-0.8,0-1.5-0.7-1.5-1.5v-7c0-0.8,0.7-1.5,1.5-1.5h16c0.8,0,1.5,0.7,1.5,1.5v7C20.6,16.6,20,17.3,19.1,17.3z
	 M3.1,8C2.7,8,2.3,8.3,2.3,8.8v7c0,0.4,0.3,0.8,0.8,0.8h16c0.4,0,0.8-0.3,0.8-0.8v-7c0-0.4-0.3-0.8-0.8-0.8H3.1z"/>
<path d="M5.1,15.2H4.5c-0.3,0-0.5-0.2-0.5-0.5V9.9c0-0.3,0.2-0.5,0.5-0.5h0.7c0.3,0,0.5,0.2,0.5,0.5v4.8C5.6,14.9,5.4,15.2,5.1,15.2
	z M4.5,9.8C4.4,9.8,4.4,9.8,4.5,9.8l0,4.8l0.7,0l0-4.8L4.5,9.8z"/>
</svg>
