<svg id="Layer_1" data-name="Layer 1" xmlns="http://www.w3.org/2000/svg" viewBox="0 0 22 22"><path d="M10.17,7.46l.72-.85,0,0v3.55a.25.25,0,0,0,.25.24.25.25,0,0,0,.25-.24V6.64l0,0,.72.86a.22.22,0,0,0,.32,0,.21.21,0,0,0,0-.28l0,0L11.4,6l-.07-.08a.26.26,0,0,0-.41,0L10.85,6l-1,1.17,0,0a.21.21,0,0,0,.35.24Z"/><path d="M6,10.35l1,1.17a.25.25,0,0,0,.35,0,.24.24,0,0,0,0-.35l-2-2.34a.24.24,0,0,0-.35,0,.25.25,0,0,0,0,.35Z"/><path d="M5.36,15a.25.25,0,0,0-.2-.28l-3.25-.58a.26.26,0,0,0-.29.2v.05a.25.25,0,0,0,.2.24l3.25.57A.24.24,0,0,0,5.36,15Z"/><path d="M20.09,14.2l-3,.54a.24.24,0,1,0,.09.48l3-.53a.25.25,0,0,0,.2-.28A.26.26,0,0,0,20.09,14.2Z"/><path d="M14.88,11.8a.25.25,0,0,0,.19-.09l2.12-2.52a.24.24,0,0,0,0-.35.23.23,0,0,0-.34,0L14.69,11.4a.21.21,0,0,0,0,.15.24.24,0,0,0,.08.19A.27.27,0,0,0,14.88,11.8Z"/><path d="M8.89,10.62a.25.25,0,0,0,.23.17l.08,0a.26.26,0,0,0,.17-.23.29.29,0,0,0,0-.09l-.74-2a.25.25,0,0,0-.48.08.28.28,0,0,0,0,.09Z"/><path d="M5.93,13.33l.12,0a.27.27,0,0,0,.22-.12.31.31,0,0,0,0-.13.24.24,0,0,0-.12-.21l-.95-.55-.94-.54A.25.25,0,0,0,4,11.9a.27.27,0,0,0,0,.12.27.27,0,0,0,.12.22Z"/><path d="M15.94,13.11a.31.31,0,0,0,0,.13.27.27,0,0,0,.22.12l.12,0,1.67-1a.26.26,0,0,0,.1-.34.25.25,0,0,0-.34-.09l-1.67,1A.24.24,0,0,0,15.94,13.11Z"/><path d="M13,10.77l.08,0a.25.25,0,0,0,.23-.17l.75-2a.28.28,0,0,0,0-.09A.25.25,0,0,0,14,8.26a.23.23,0,0,0-.31.15l-.75,2a.28.28,0,0,0,0,.09A.25.25,0,0,0,13,10.77Z"/><path d="M18.31,15.84a.25.25,0,0,0-.23-.16H16v-.21c0-.06,0-.12,0-.19a5.45,5.45,0,0,0-.18-.8l-.09-.26L15.58,14h0l-.07-.16c-.08-.16-.16-.31-.25-.46a2.13,2.13,0,0,0-.16-.25,3.94,3.94,0,0,0-.36-.45,2.09,2.09,0,0,0-.2-.22,4.77,4.77,0,0,0-1.76-1.12,3.88,3.88,0,0,0-.45-.14,5.55,5.55,0,0,0-.71-.13h-1a5.71,5.71,0,0,0-.72.13,3.22,3.22,0,0,0-.44.14A4.9,4.9,0,0,0,7.7,12.5a2.09,2.09,0,0,0-.2.22,3.94,3.94,0,0,0-.36.45c0,.08-.11.16-.16.25a4,4,0,0,0-.24.46,1.11,1.11,0,0,0-.07.16h0a1.34,1.34,0,0,1-.07.18,2,2,0,0,0-.08.26,3.7,3.7,0,0,0-.18.8,1.37,1.37,0,0,0,0,.19l0,.21H4.16a.22.22,0,0,0-.22.16l0,0V16l0,0a.23.23,0,0,0,.22.17H18.08a.26.26,0,0,0,.23-.17s0,0,0,0v-.09S18.31,15.85,18.31,15.84ZM6.79,15.68a1.09,1.09,0,0,1,0-.18.17.17,0,0,1,0-.07c0-.1,0-.2,0-.3s0-.16.05-.25l0-.11,0-.11L7,14.5a.85.85,0,0,1,.06-.17.77.77,0,0,1,.07-.16s0,0,0,0,0-.11.08-.15a.61.61,0,0,1,.07-.14c0-.05.05-.1.08-.14a2.8,2.8,0,0,1,.27-.4l.12-.15c.09-.1.17-.2.27-.3l.32-.29.32-.24.18-.11a4.14,4.14,0,0,1,1-.43l.2-.06h0l.38-.08.24,0h.44a5.34,5.34,0,0,1,.69.05l.37.08h0a1.39,1.39,0,0,1,.19.06,4,4,0,0,1,1.29.65l.17.13.32.29a3.65,3.65,0,0,1,.27.3l.12.15a2.8,2.8,0,0,1,.27.4.64.64,0,0,1,.08.14s.05.09.08.14l.07.15,0,0,.06.16a.87.87,0,0,1,.07.17c0,.05,0,.11,0,.16l0,.11,0,.11c0,.09,0,.17.05.25s0,.2,0,.3a.17.17,0,0,0,0,.07c0,.06,0,.12,0,.18Z"/></svg>