<svg id="Layer_1" data-name="Layer 1" xmlns="http://www.w3.org/2000/svg" viewBox="0 0 22 22"><path d="M9.86,8.94l1,1.17.07.09a.28.28,0,0,0,.41,0l.07-.09,1-1.17,0,0a.2.2,0,0,0,0-.27.21.21,0,0,0-.32,0l-.72.85,0,0V5.93a.25.25,0,0,0-.25-.25.25.25,0,0,0-.25.25V9.48l0,0-.72-.85a.2.2,0,0,0-.31,0,.19.19,0,0,0,0,.27Z"/><path d="M5.72,11l1,1.17a.25.25,0,1,0,.38-.32l-2-2.34a.26.26,0,0,0-.35,0,.25.25,0,0,0,0,.35Z"/><path d="M5.36,15.16a.25.25,0,0,0-.2-.28L1.91,14.3a.26.26,0,0,0-.29.2v.05a.24.24,0,0,0,.2.24l3.25.57A.24.24,0,0,0,5.36,15.16Z"/><path d="M20.09,14.35l-3,.53a.24.24,0,1,0,.09.48l3-.53a.25.25,0,0,0,.2-.28A.24.24,0,0,0,20.09,14.35Z"/><path d="M14.64,12a.27.27,0,0,0,.08.19.27.27,0,0,0,.16.06.25.25,0,0,0,.19-.09l2.12-2.53a.24.24,0,0,0,0-.35.24.24,0,0,0-.34,0L14.69,11.8A.25.25,0,0,0,14.64,12Z"/><path d="M8.36,10.77a.25.25,0,0,0,.23.16l.09,0a.24.24,0,0,0,.16-.23.19.19,0,0,0,0-.08l-.74-2a.26.26,0,0,0-.32-.15.25.25,0,0,0-.16.23.29.29,0,0,0,0,.09Z"/><path d="M5.64,13.76l.12,0A.25.25,0,0,0,6,13.67a.27.27,0,0,0,0-.12.25.25,0,0,0-.12-.22l-.95-.54L4,12.24a.25.25,0,0,0-.34.09.28.28,0,0,0,0,.13.25.25,0,0,0,.12.21Z"/><path d="M15.94,13.55a.27.27,0,0,0,0,.12.25.25,0,0,0,.22.12l.12,0,1.67-1a.24.24,0,1,0-.24-.42l-1.67,1A.26.26,0,0,0,15.94,13.55Z"/><path d="M13.66,10.91l.08,0a.24.24,0,0,0,.23-.16l.75-2a.28.28,0,0,0,0-.09.25.25,0,0,0-.16-.23.24.24,0,0,0-.31.15l-.75,2a.19.19,0,0,0,0,.08A.24.24,0,0,0,13.66,10.91Z"/><path d="M18.31,16a.25.25,0,0,0-.23-.16H16v-.21c0-.06,0-.12,0-.18a5.3,5.3,0,0,0-.18-.81l-.09-.26c0-.06-.05-.12-.07-.17h0s-.05-.1-.07-.16-.16-.31-.25-.46-.1-.17-.16-.25a3.94,3.94,0,0,0-.36-.45l-.2-.22a4.77,4.77,0,0,0-1.76-1.12l-.45-.14a5.55,5.55,0,0,0-.71-.13h-1a5.71,5.71,0,0,0-.72.13l-.44.14A4.9,4.9,0,0,0,7.7,12.64l-.2.22a3.94,3.94,0,0,0-.36.45L7,13.56a4,4,0,0,0-.24.46l-.07.16h0c0,.05,0,.11-.07.17a2,2,0,0,0-.08.26,3.66,3.66,0,0,0-.18.81,1.1,1.1,0,0,0,0,.18l0,.21H4.16a.22.22,0,0,0-.22.16s0,0,0,0v.09s0,0,0,.05a.24.24,0,0,0,.22.16H18.08a.26.26,0,0,0,.23-.16.43.43,0,0,0,0-.05V16ZM6.79,15.82a.91.91,0,0,1,0-.17.19.19,0,0,1,0-.08c0-.1,0-.2,0-.3A2,2,0,0,1,6.9,15l0-.12,0-.11L7,14.64a1.15,1.15,0,0,1,.06-.17,1.11,1.11,0,0,1,.07-.16v0l.08-.15L7.31,14l.08-.14a3.51,3.51,0,0,1,.27-.4l.12-.15A3.71,3.71,0,0,1,8.05,13a2.89,2.89,0,0,1,.32-.29,2.43,2.43,0,0,1,.32-.24l.18-.12a4.14,4.14,0,0,1,1-.43l.2-.06h0l.38-.07.24,0,.16,0h.28a4,4,0,0,1,.69.06l.37.07h0l.19.06a4.23,4.23,0,0,1,1.29.65l.17.14a2.89,2.89,0,0,1,.32.29,2.44,2.44,0,0,1,.27.29l.12.15a3.51,3.51,0,0,1,.27.4,1,1,0,0,1,.08.14l.08.14.07.15s0,0,0,0l.06.16a1.22,1.22,0,0,1,.07.17s0,.11,0,.16l0,.11,0,.12a2,2,0,0,1,.05.24c0,.1,0,.2,0,.3a.25.25,0,0,0,0,.08s0,.11,0,.17Z"/></svg>