<svg id="Layer_1" data-name="Layer 1" xmlns="http://www.w3.org/2000/svg" viewBox="0 0 178 134"><defs><style>.cls-1{fill:#f0eeff;}.cls-2{fill:#d1c9fc;}.cls-3{fill:#bcb0fb;}.cls-4{fill:#8f79ff;}.cls-5{fill:#8075f2;}.cls-6{fill:#644fd2;}.cls-7{fill:#2b2b2b;}.cls-8{fill:#ffc55f;}.cls-9{fill:#fff;}.cls-10{fill:#a593ff;}.cls-11{fill:#dc0225;}.cls-12{fill:#ebe6e6;stroke:#c2c2c2;stroke-width:0.49px;}.cls-13{fill:#970000;}.cls-14{fill:#1e1e4c;}.cls-15{fill:#dfdcff;}.cls-16{fill:#716edb;}.cls-17{fill:none;stroke:#1c2b6d;stroke-width:0.66px;}.cls-18{fill:#322f77;}.cls-19{fill:#9a9590;}.cls-20{fill:#ebebeb;}</style></defs><path class="cls-1" d="M15.44.13H162.56a15.31,15.31,0,0,1,15.31,15.31V118.56a15.32,15.32,0,0,1-15.32,15.32H15.44A15.32,15.32,0,0,1,.13,118.56V15.44A15.32,15.32,0,0,1,15.44.13Z"/><path class="cls-2" d="M162.56.25a15.2,15.2,0,0,1,15.19,15.19V118.56a15.2,15.2,0,0,1-15.19,15.19H15.44A15.2,15.2,0,0,1,.25,118.56V15.44A15.2,15.2,0,0,1,15.44.25H162.56m0-.25H15.44A15.44,15.44,0,0,0,0,15.44V118.56A15.44,15.44,0,0,0,15.44,134H162.56A15.44,15.44,0,0,0,178,118.56V15.44A15.44,15.44,0,0,0,162.56,0Z"/><path class="cls-3" d="M178,115v3.56A15.44,15.44,0,0,1,162.56,134H15.44A15.44,15.44,0,0,1,0,118.56V115Z"/><path class="cls-4" d="M162.22,77.91a15.45,15.45,0,0,0-6-2.29c-3.73-.63-23-1.6-25.1-2.35a11,11,0,0,1-3.61-2.18,48.33,48.33,0,0,0,5.5.63c3,.18,19.65,1.26,25.21,2.24s6.88,2.35,7.33,2.81a3.29,3.29,0,0,1,.69,1.2Z"/><path class="cls-5" d="M168.47,85.93s-.26,0-.68,0l-.4,0-.57-.06c-.22,0-.46-.06-.7-.1a10.45,10.45,0,0,1-1.77-.45,13.27,13.27,0,0,1-2.59-1.55c-.93-.65-2.23-1.38-3.39-2l-.19-.1-.62-.34c-.21-.11-.42-.22-.61-.34a1.19,1.19,0,0,1-.15-.09l-.37-.2-.28-.17a2.2,2.2,0,0,1-.25-.17,4.85,4.85,0,0,1-1.26-1.92.08.08,0,0,1,0,0,.49.49,0,0,0,0-.11s0,0,0,0l-.05-.17,0-.06h7.73l0,0c-.22-.22-1.92-1.68-5.58-2.21l-.28,0-.12,0-2.76-.32-.76-.07c-.13,0-.26,0-.4,0l-1-.09c-3.95-.37-8.74-.7-12.6-1-5.9-.51-7.85-.8-9.46-1.77-.28-.17-.85-.59-1.63-1.19-3.76-2.87-12.44-9.85-17-12.79-5.5-3.55-10.94-4.59-28.18-5.27s-49.9-.29-53.51,0a19.39,19.39,0,0,0-2.67.34l-.08,0a5.44,5.44,0,0,0-2.91,1.45l-.31.31q-.23.24-.45.51A13.85,13.85,0,0,0,21,58.16l-.18.36c-.36.73-.72,1.54-1.08,2.37a2.33,2.33,0,0,0-.14.33c-.91,2.11-1.78,4.34-2.41,5.86A13.73,13.73,0,0,1,13.89,72l0,0,0,0a4.48,4.48,0,0,1,.52,0,2.64,2.64,0,0,1,.45,0L15,72a.83.83,0,0,1,.69.89c0,.32,0,.83.06,1.49,0,0,19.14,0,31.4.45l3,.11.68,0c7.73.26,21.77.68,35.55,1.12l.66,0c15.5.49,30.54,1,35.77,1.32l.67.05h0c8.46.6,22.28,1.49,28.76,3.15l.12,0c.33.08.63.16.91.25a16.15,16.15,0,0,1,2.16.85l.09,0a20.12,20.12,0,0,1,3.07,1.84l.77.58a28.56,28.56,0,0,1,4.28,4.1l.06.09h7.11ZM40.25,55.85c4.07-.22,15-.4,15-.4L52.47,69.72l-.13.69-.36,0c-2.33-.07-15.19-.51-16.6-.61s-2.63-.41-3.49-1.72-.35-4.53.74-8.2S36.18,56.08,40.25,55.85Z"/><path class="cls-6" d="M163.71,88.45a52.64,52.64,0,0,1,.63,6.25c.06,2.8-.34,6.7-.34,6.7s4-1.55,5.38-3.21S171,93.49,171,91.6a26,26,0,0,0-.17-3.15Z"/><path class="cls-4" d="M164,101.4l-5.16,1.26a21,21,0,0,0-1.2-8.94A12.48,12.48,0,0,0,149,85.87c-3.61-.91-10.66-1.2-13.52-.57s-5.67,2.58-7.22,7.51a49.85,49.85,0,0,0-1.66,11.74h-1.43a5.46,5.46,0,0,0-2.7-2.92c-1.89-.75-27.95-1-40.16-.8S62,101.4,62,101.4a29.28,29.28,0,0,0-1.54-7c-1.32-3.67-3.27-6.59-7.11-8.31s-8.93-1.72-12.43-1.6-7.56.57-10.14,6.36A36.77,36.77,0,0,0,28,103.18s-10.37-1.78-13.58-2.52a20.38,20.38,0,0,1-4.06-1.21l1.31-3.61a7.75,7.75,0,0,1-1.94-5.1c-.12-3.32,1.26-4.35,1.66-6.07a16.14,16.14,0,0,0,.4-3.26h5.44a38.85,38.85,0,0,1-1.14-4.19,11.88,11.88,0,0,1-.35-2.8s18.85-.12,31.22.34,32.2,1,43.89,1.37,26.75,1,39,1.61,23.2,2,27.95,5.33,6,5.38,6,5.38a33.09,33.09,0,0,1,.69,6.71A44,44,0,0,1,164,101.4Z"/><path class="cls-2" d="M170.3,96.36h-3v-4.3h3.61s0,1.49-.11,2.52A5.52,5.52,0,0,1,170.3,96.36Z"/><path class="cls-7" d="M170.47,92.06a6.55,6.55,0,0,1-.91,2.24c-.69,1-1.21,1.49-1.49,1.54l-.69.12v-3.9Z"/><path class="cls-2" d="M168.47,85.93a19.13,19.13,0,0,0-.46-4.81A6.19,6.19,0,0,0,166.23,78H154.49a4,4,0,0,0,1.66,2.46c1.37.86,4.3,2.52,5.9,3.61a9.37,9.37,0,0,0,4.07,1.66A15.21,15.21,0,0,0,168.47,85.93Z"/><path class="cls-6" d="M164.34,96.82s-.06.46-.11,1.94-.23,2.64-.23,2.64l-5.16,1.26a35.45,35.45,0,0,0-.8-7.33,12.42,12.42,0,0,0-9-9.46c-4.07-1-11.92-1.31-15.13.12s-4.92,3.55-6,8.59a78.46,78.46,0,0,0-1.32,10.09h-1.43a5.34,5.34,0,0,0-2.07-2.53c-1.72-1.26-8.25-1.14-25.32-1.26S62,101.4,62,101.4a46.34,46.34,0,0,0-2-7.73,13.61,13.61,0,0,0-7.85-8c-3.78-1.43-11.34-1.66-15.35-.57s-5.79,4.75-7,8.59A50.44,50.44,0,0,0,28,103.18a60.87,60.87,0,0,1-8.36-1.26,89.64,89.64,0,0,1-9.4-2.41l1.43-3.67a29.05,29.05,0,0,0,5.9,2c3.21.69,6.82,1.14,7.4.63s.4-1.43,1.43-5.33S30.57,84,34.75,83,46.9,81.86,50.68,83l.26.08,1.05.35a14.41,14.41,0,0,1,7.63,5.76A37.69,37.69,0,0,1,63.11,98a2.12,2.12,0,0,0,1.72,1.37h57.26a3.57,3.57,0,0,0,1.46-.45c.8-.46,1.15-4,2.06-7.74s4.76-7.45,8.31-8a59.15,59.15,0,0,1,14.55.34,15.18,15.18,0,0,1,9.63,6,14.9,14.9,0,0,1,2.63,7.22Z"/><path class="cls-8" d="M162.85,78.25a3.22,3.22,0,0,1,2.29,1.9,4.49,4.49,0,0,1-.28,3.83c-.4.52-1.72.52-1.72.52s-2-1.38-3.5-2.18-3.32-1.6-4.06-2.46A6.2,6.2,0,0,1,154.49,78Z"/><path class="cls-9" d="M162.28,78.6l1.49,5.61a3.82,3.82,0,0,0,.92-.34c.4-.23.85-1.83.57-3.21a2.81,2.81,0,0,0-1.66-2.18,4.19,4.19,0,0,0-1.32-.23Z"/><path class="cls-8" d="M126.07,81a.78.78,0,0,0,.78.78h1.6a.77.77,0,0,0,.77-.78h0a.77.77,0,0,0-.77-.77h-1.6a.78.78,0,0,0-.78.77Z"/><path class="cls-10" d="M120.86,96H67.41S71,92.75,75.2,92.29s31.16-.29,37.29.69S120.86,96,120.86,96Z"/><path class="cls-7" d="M125.16,104.67l-63.48-.86L62,101.4s17.53-.52,35.64-.63,23.43.29,25,1A6.78,6.78,0,0,1,125.16,104.67Z"/><path d="M28,103.18l-10.6,0L10,100.37l.23-.86s4.47,1.26,9.34,2.23S28,103.18,28,103.18Z"/><path class="cls-6" d="M11.78,81.41l-2-.23v2.46a4.38,4.38,0,0,1-1.14,2.29c-1,1-1.55,1.66-1.55,1.66a33.83,33.83,0,0,0,.52,8.48c.86,3.5,2.4,4.3,2.4,4.3l1.66-4.53a7.43,7.43,0,0,1-1.77-3.61c-.23-1.94-.35-3.26.51-5A11.46,11.46,0,0,0,11.78,83Z"/><path class="cls-6" d="M13.84,72H11.26a7.72,7.72,0,0,0,2.29-2.18c.63-1.14,4.47-10.08,6-12.49a7.45,7.45,0,0,1,4-3.38,15.15,15.15,0,0,1,3.78-.8s-3.21.46-4.59,2.35A27.67,27.67,0,0,0,18.94,63a29.27,29.27,0,0,1-3.78,7.73A3.4,3.4,0,0,1,13.84,72Z"/><path class="cls-11" d="M11.26,72A3.57,3.57,0,0,0,9.89,74.3a21.21,21.21,0,0,0-.58,5.33,2.77,2.77,0,0,0,.46,1.55l2,.23h5.44A37,37,0,0,1,15.85,76a32.25,32.25,0,0,1-.18-3.32c0-.34-.11-.52-.86-.63S11.26,72,11.26,72Z"/><path class="cls-12" d="M16.48,81.41s-.69-2.41-1-2.58a2.09,2.09,0,0,0-.8-.17H9.31a3.31,3.31,0,0,0,.06,1.54c.23.92.4,1,.4,1l2,.23Z"/><path class="cls-13" d="M16,77.28H11.38a1.11,1.11,0,0,1-.69-1.09A1.3,1.3,0,0,1,12,74.76c.86-.06,1.43-.06,1.43-.06h2.29s.06.46.12,1.26A8.69,8.69,0,0,0,16,77.28Z"/><path class="cls-14" d="M83.53,55.14c-13.33-.3-34.09-.77-41.56-.2-8.19.63-10,0-11.63,6.93s.23,7.91,2.92,8.31c1.26.19,8.82.53,18.38.9l.72,0c10.64.42,23.57.87,33,1.2l.6,0C85.17,66,83.63,55.83,83.53,55.14ZM52.47,69.72l-.13.69-.36,0c-2.33-.07-15.19-.51-16.6-.61s-2.63-.41-3.49-1.72-.35-4.53.74-8.2,3.55-3.78,7.62-4,15-.4,15-.4Z"/><path class="cls-15" d="M55.2,55.45,52.47,69.72l-.13.69-.36,0c-2.33-.07-15.19-.51-16.6-.61s-2.63-.41-3.49-1.72-.35-4.53.74-8.2,3.55-3.78,7.62-4S55.2,55.45,55.2,55.45Z"/><path class="cls-14" d="M123.67,73.9c-.73,0-19.29-.93-37.07-1.56-.73-6.09-2.21-15.87-2.4-17.19l3,.07c12.84.29,19.37,2.47,24.52,6.48s12.66,11.4,12.66,11.4S124.41,73.9,123.67,73.9Z"/><path class="cls-15" d="M115,66.05s-4.82-4.64-8.88-6.53-11.63-2.86-15.19-3-4.81-.17-4.81-.17l2.92,15.47,23.61,1a4.43,4.43,0,0,1,.91-2.92,10.92,10.92,0,0,1,3.1-2.06Z"/><polygon class="cls-15" points="81.73 56.26 82.65 71.61 61.73 70.86 61.33 55.57 81.73 56.26"/><path class="cls-7" d="M28,103.18l33.69.63L62,101.4a34.77,34.77,0,0,0-2.86-9.85c-2.23-4.53-6-5.85-10-6.65s-11.57-.69-14.32,1S30,91.55,29.08,95.38A46.92,46.92,0,0,0,28,103.18Z"/><path class="cls-7" d="M126.59,104.67l32.25-2a47.5,47.5,0,0,0-.69-7.56c-.68-3.73-3.89-6.82-6.7-8.31S143,85,139.08,85s-6.88,1-9,4-2.8,7.73-3.09,10.65S126.59,104.67,126.59,104.67Z"/><path class="cls-16" d="M113.7,71.72V65.65s3.66.12,5,1,2,3.5,2.06,4.3-1.66,1-3.26.92S113.7,71.72,113.7,71.72Z"/><path d="M113.7,71.72A18.74,18.74,0,0,1,116.39,73a3.49,3.49,0,0,1,.57.57h3.21a6.42,6.42,0,0,1,.23-1.2c.17-.51.46-1.2.46-1.2a2.19,2.19,0,0,1-1.15.57c-.63.06-2.46,0-3.49,0S113.7,71.72,113.7,71.72Z"/><line class="cls-17" x1="124.64" y1="68.92" x2="122.46" y2="71.27"/><path class="cls-18" d="M121.82,100.58l-.64-.16c.38-1.64.72-3.31,1-5a66.56,66.56,0,0,0,1-10,59.51,59.51,0,0,0-1-11.93l.64-.12a59.34,59.34,0,0,1,1,12.07,67.46,67.46,0,0,1-1,10C122.55,97.23,122.21,98.92,121.82,100.58Z"/><path class="cls-18" d="M86.47,93a53.46,53.46,0,0,1-1.6,6.37h-.69a53.6,53.6,0,0,0,1.64-6.49c.69-3.7,1.35-8.46.4-18.06-.07-.72-.17-1.58-.28-2.52l.66,0c.11.91.2,1.73.27,2.44C87.83,84.46,87.17,89.27,86.47,93Z"/><path class="cls-18" d="M86.6,72.34l-.66,0c-.77-6.31-2.31-16.49-2.41-17.18h.67C84.39,56.47,85.87,66.25,86.6,72.34Z"/><path class="cls-18" d="M50.81,81.38A7.7,7.7,0,0,0,52,83.44l-1.05-.35a8.14,8.14,0,0,1-.75-1.47A10.32,10.32,0,0,1,50.11,75a.23.23,0,0,1,0-.11c.06-.21.12-.4.17-.55s.72-1.9,1.33-3.24l.72,0c-.47,1.05-1.21,2.75-1.42,3.42,0,.11-.07.23-.12.38l0,.1A9.78,9.78,0,0,0,50.81,81.38Z"/><path class="cls-18" d="M97.26,78.67a1.09,1.09,0,0,0-.63-.82A7.71,7.71,0,0,0,92.27,77a1.92,1.92,0,0,0-1.77,1.35v.77a1.9,1.9,0,0,0,1.77,1.34,7.63,7.63,0,0,0,4.36-.82,1.09,1.09,0,0,0,.63-.82Z"/><path class="cls-16" d="M87.57,78.75a.72.72,0,0,0,.72.72H96a.72.72,0,0,0,.72-.72h0A.71.71,0,0,0,96,78H88.29a.71.71,0,0,0-.72.71Z"/><path class="cls-18" d="M61.91,77.75a1.09,1.09,0,0,0-.63-.82,7.63,7.63,0,0,0-4.36-.82,1.92,1.92,0,0,0-1.77,1.34v.78a1.93,1.93,0,0,0,1.77,1.34,7.71,7.71,0,0,0,4.36-.82,1.12,1.12,0,0,0,.63-.83Z"/><path class="cls-16" d="M52.22,77.84a.72.72,0,0,0,.72.71h7.74a.71.71,0,0,0,.71-.71h0a.71.71,0,0,0-.71-.72H52.94a.72.72,0,0,0-.72.72Z"/><circle cx="44.59" cy="101.45" r="13.75"/><circle class="cls-19" cx="44.59" cy="101.45" r="6.42" transform="translate(-15.59 8.4) rotate(-9.16)"/><path class="cls-20" d="M44.59,91.94a9.51,9.51,0,1,0,9.51,9.51A9.51,9.51,0,0,0,44.59,91.94Zm7.63,6.59a.46.46,0,0,1,.58.29.47.47,0,0,1-.3.58l-1.68.55-2.13.69a.46.46,0,0,1-.58-.3.44.44,0,0,1,.29-.57l2.14-.7Zm-5.86-3.74c.27-.45.73-.72,1.71-.41a2.57,2.57,0,0,1,1.34.8,2.56,2.56,0,0,1,1,1.18c.47.92.29,1.41-.11,1.75l-.18.14a8.66,8.66,0,0,1-2.45.87,2.27,2.27,0,0,1-1.41-.22,2.2,2.2,0,0,1-.45-1.35,8.75,8.75,0,0,1,.36-2.3A2.19,2.19,0,0,1,46.36,94.79Zm-4.54,5.9a.5.5,0,0,1,.64-.33.52.52,0,0,1,.34.65.52.52,0,1,1-1-.32Zm.92,2.48a.51.51,0,0,1,.72-.11.53.53,0,0,1,.12.72.51.51,0,0,1-.72.11.52.52,0,0,1-.22-.44A.42.42,0,0,1,42.74,103.17Zm2.86-1.8a1,1,0,1,1-1-1A1,1,0,0,1,45.6,101.37Zm-1.06-1.63a.52.52,0,1,1,0-1,.52.52,0,1,1,0,1Zm1.08,3.32a.51.51,0,0,1,.72.11.54.54,0,0,1,.09.35.52.52,0,0,1-.21.37.51.51,0,0,1-.72-.11.62.62,0,0,1-.09-.27A.51.51,0,0,1,45.62,103.06Zm1.31-1.72a.52.52,0,0,1-.65-.33.52.52,0,0,1,.33-.65.52.52,0,1,1,.32,1Zm-2.85-8.06a.46.46,0,0,1,.92,0v4a.46.46,0,0,1-.92,0ZM38.86,96A2.59,2.59,0,0,1,40,95a2.62,2.62,0,0,1,1.44-.6c1-.16,1.43.17,1.63.65a1.89,1.89,0,0,1,.06.18,8.46,8.46,0,0,1,.09,2.63,2.3,2.3,0,0,1-.65,1.28,2.27,2.27,0,0,1-1.43,0,9.09,9.09,0,0,1-2-1,2.23,2.23,0,0,1-.41-.34C38.37,97.37,38.26,96.85,38.86,96Zm-2.58,2.82a.46.46,0,0,1,.58-.29l1.77.57,2,.67a.45.45,0,0,1,.3.57.46.46,0,0,1-.58.3l-2-.66-1.77-.58A.46.46,0,0,1,36.28,98.82Zm1.28,6.45a2.58,2.58,0,0,1-.61-1.43,1.71,1.71,0,0,1-.14-.5,3.35,3.35,0,0,1,0-1c.16-1,.6-1.32,1.12-1.35a1.1,1.1,0,0,1,.25,0,8.53,8.53,0,0,1,2.47.71,2.34,2.34,0,0,1,1,1,2.15,2.15,0,0,1-.13.76,2.1,2.1,0,0,1-.3.6,8.83,8.83,0,0,1-1.55,1.57,3.16,3.16,0,0,1-.52.34C38.7,106.15,38.17,106.1,37.56,105.27Zm2.52,3.16a.46.46,0,0,1-.75-.54l1.12-1.54,1.24-1.71a.46.46,0,0,1,.64-.1.45.45,0,0,1,.1.64l-1.23,1.71Zm5.89.94a2.64,2.64,0,0,1-1.55.14,2.62,2.62,0,0,1-1.52-.36c-.92-.47-1.06-1-.93-1.48a1.59,1.59,0,0,1,.12-.31,8.47,8.47,0,0,1,1.4-2,2.32,2.32,0,0,1,1.28-.66,2.23,2.23,0,0,1,1.16.83,8.81,8.81,0,0,1,1,1.93,2.68,2.68,0,0,1,.17.62C47.16,108.55,47,109,46,109.37Zm3.67-.84a.46.46,0,0,1-.64-.1l-1.09-1.5-1.27-1.75a.46.46,0,0,1,.75-.54l1.27,1.76,1.08,1.49A.45.45,0,0,1,49.64,108.53Zm2.48-4.38a2.62,2.62,0,0,1-.81,1.34c-.73.73-1.26.71-1.7.43a1.28,1.28,0,0,1-.25-.2,8.88,8.88,0,0,1-1.52-2,1.42,1.42,0,0,1-.08-.18,2.19,2.19,0,0,1-.15-1.23,2.3,2.3,0,0,1,1.15-.85,8.81,8.81,0,0,1,2.22-.36,2.34,2.34,0,0,1,.57,0c.51.11.9.47.92,1.5a3.56,3.56,0,0,1-.13,1A1.87,1.87,0,0,1,52.12,104.15Z"/><circle cx="142.86" cy="101.45" r="13.75"/><circle class="cls-19" cx="142.86" cy="101.45" r="6.42" transform="translate(-14.33 24.05) rotate(-9.16)"/><path class="cls-20" d="M142.86,91.94a9.51,9.51,0,0,0-9.51,9.51,9.38,9.38,0,0,0,.41,2.77,9.51,9.51,0,0,0,18.47-1.15,9.66,9.66,0,0,0,.14-1.62A9.51,9.51,0,0,0,142.86,91.94Zm7.63,6.59a.46.46,0,0,1,.58.29.47.47,0,0,1-.3.58l-1.68.55-2.13.69a.46.46,0,0,1-.58-.3.44.44,0,0,1,.3-.57l2.12-.69Zm-5.86-3.74c.27-.45.73-.72,1.71-.41a4.82,4.82,0,0,1,2.35,2c.47.92.29,1.41-.11,1.75l-.18.14a8.66,8.66,0,0,1-2.45.87,2.27,2.27,0,0,1-1.41-.22,2.2,2.2,0,0,1-.45-1.35,8.75,8.75,0,0,1,.36-2.3A2.19,2.19,0,0,1,144.63,94.79Zm-4.54,5.9a.51.51,0,0,1,.65-.33.52.52,0,0,1,.33.65.52.52,0,0,1-1-.32Zm.92,2.48a.51.51,0,0,1,.72-.11.52.52,0,0,1,.15.66l0,.06a.51.51,0,0,1-.72.11.25.25,0,0,1-.11-.12A.51.51,0,0,1,141,103.17Zm2.86-1.8a1,1,0,1,1-1-1A1,1,0,0,1,143.87,101.37Zm-1.06-1.63a.52.52,0,1,1,.52-.51A.52.52,0,0,1,142.81,99.74Zm1.08,3.32a.51.51,0,0,1,.72.11.49.49,0,0,1,.09.37.48.48,0,0,1-.21.35.51.51,0,0,1-.72-.11.45.45,0,0,1-.07-.18A.52.52,0,0,1,143.89,103.06Zm1.31-1.72a.52.52,0,0,1-.65-.33.52.52,0,0,1,.33-.65.51.51,0,0,1,.65.33A.52.52,0,0,1,145.2,101.34Zm-2.85-8.06a.46.46,0,0,1,.92,0v4a.46.46,0,0,1-.92,0ZM137.13,96a2.59,2.59,0,0,1,1.17-1,2.62,2.62,0,0,1,1.44-.6c1-.16,1.43.17,1.63.65l.06.18a8.46,8.46,0,0,1,.09,2.63,2.32,2.32,0,0,1-.64,1.28,2.28,2.28,0,0,1-1.43,0,9.16,9.16,0,0,1-2-1,1.93,1.93,0,0,1-.41-.34C136.64,97.37,136.53,96.85,137.13,96Zm-2.58,2.82a.46.46,0,0,1,.58-.29l1.76.57,2.05.67a.44.44,0,0,1,.3.57.46.46,0,0,1-.58.3l-2-.66-1.77-.58A.46.46,0,0,1,134.55,98.82Zm1.28,6.45a3.1,3.1,0,0,1-.57-1.14,1.27,1.27,0,0,1,0-.29,2.6,2.6,0,0,1-.13-1.55c.16-1,.6-1.32,1.12-1.35a1.1,1.1,0,0,1,.25,0,8.53,8.53,0,0,1,2.47.71,2.34,2.34,0,0,1,1,1,2.28,2.28,0,0,1-.32,1.19,1.63,1.63,0,0,1-.11.17A8.83,8.83,0,0,1,138,105.6a3.16,3.16,0,0,1-.52.34C137,106.15,136.45,106.1,135.83,105.27Zm2.52,3.16a.46.46,0,0,1-.75-.54l1.12-1.54,1.24-1.71a.46.46,0,0,1,.64-.1.45.45,0,0,1,.1.64l-1.23,1.71Zm5.89.94a4.85,4.85,0,0,1-3.07-.22c-.92-.47-1.06-1-.93-1.48a1.59,1.59,0,0,1,.12-.31,8.24,8.24,0,0,1,1.41-2,2.28,2.28,0,0,1,1.27-.66,2.23,2.23,0,0,1,1.16.83,8.81,8.81,0,0,1,1,1.93,2.68,2.68,0,0,1,.17.62C145.43,108.55,145.22,109,144.24,109.37Zm3.67-.84a.46.46,0,0,1-.64-.1l-1.09-1.5-1.26-1.75a.45.45,0,0,1,.1-.64.46.46,0,0,1,.64.1l1.27,1.76,1.08,1.49A.45.45,0,0,1,147.91,108.53Zm2.48-4.38a2.62,2.62,0,0,1-.81,1.34c-.73.73-1.26.71-1.7.43a1.81,1.81,0,0,1-.25-.2,8.82,8.82,0,0,1-1.52-2,1.59,1.59,0,0,1-.12-.27,1.31,1.31,0,0,1,1-2,8.81,8.81,0,0,1,2.22-.36,2.34,2.34,0,0,1,.57,0c.51.11.9.47.92,1.5a4.22,4.22,0,0,1,0,.53A2.17,2.17,0,0,1,150.39,104.15Z"/></svg>