<?xml version="1.0" encoding="utf-8"?>
<!-- Generator: Adobe Illustrator 25.4.1, SVG Export Plug-In . SVG Version: 6.00 Build 0)  -->
<svg version="1.1" id="Layer_1" xmlns="http://www.w3.org/2000/svg" xmlns:xlink="http://www.w3.org/1999/xlink" x="0px" y="0px"
	 viewBox="0 0 50 50" style="enable-background:new 0 0 50 50;" xml:space="preserve">
<style type="text/css">
	.st0{fill:#7561EC;}
</style>
<g>
	<g>
		<g>
			<path class="st0" d="M31.5,27.6c-0.3,0-0.4,0.2-0.4,0.4v1.4c0,0.7-0.5,1.2-1.2,1.2H20c-0.7,0-1.2-0.5-1.2-1.2v-1.4
				c0-0.3-0.2-0.4-0.4-0.4c-0.3,0-0.4,0.2-0.4,0.4v1.4c0,1.2,1,2.1,2.1,2.1h9.9c1.2,0,2.1-1,2.1-2.1v-1.4
				C31.9,27.8,31.7,27.6,31.5,27.6z"/>
			<path class="st0" d="M28.5,24.1c-0.2-0.2-0.5-0.2-0.6,0l-2.5,2.5v-7.1c0-0.2-0.2-0.4-0.4-0.4c-0.2,0-0.4,0.2-0.4,0.4v7.1L22,24
				c-0.2-0.2-0.5-0.2-0.6,0c-0.2,0.2-0.2,0.5,0,0.6l3.3,3.3c0,0,0,0,0,0c0,0,0.1,0.1,0.1,0.1c0.1,0,0.1,0,0.2,0c0.1,0,0.1,0,0.2,0
				c0,0,0.1,0,0.1-0.1c0,0,0,0,0,0l0,0c0,0,0,0,0,0l3.3-3.2C28.7,24.5,28.7,24.2,28.5,24.1z"/>
		</g>
	</g>
	<g>
		<g>
			<path class="st0" d="M14.7,13.1h-1.5c-0.3,0-0.5-0.2-0.5-0.5s0.2-0.5,0.5-0.5h1.5c0.3,0,0.5,0.2,0.5,0.5S14.9,13.1,14.7,13.1z"/>
			<path class="st0" d="M32.3,13.1h-2.9c-0.3,0-0.5-0.2-0.5-0.5s0.2-0.5,0.5-0.5h2.9c0.3,0,0.5,0.2,0.5,0.5S32.6,13.1,32.3,13.1z
				 M26.4,13.1h-2.9c-0.3,0-0.5-0.2-0.5-0.5s0.2-0.5,0.5-0.5h2.9c0.3,0,0.5,0.2,0.5,0.5S26.7,13.1,26.4,13.1z M20.5,13.1h-2.9
				c-0.3,0-0.5-0.2-0.5-0.5s0.2-0.5,0.5-0.5h2.9c0.3,0,0.5,0.2,0.5,0.5S20.8,13.1,20.5,13.1z"/>
			<path class="st0" d="M36.7,13.1h-1.5c-0.3,0-0.5-0.2-0.5-0.5s0.2-0.5,0.5-0.5h1.5c0.3,0,0.5,0.2,0.5,0.5S36.9,13.1,36.7,13.1z"/>
		</g>
	</g>
	<path class="st0" d="M35.6,3.6h-5.5c-0.2,0-0.5,0-0.7,0c-0.1,0-0.1,0-0.2,0.1c-0.1,0.1-0.1,0.1,0,0.2c0.1,0.4,0.2,1.1,0,1.8
		c-0.5,1.7-2.4,2.8-4.2,2.8c-1.4,0-3.1-0.7-3.8-2.2c-0.5-1-0.4-2-0.4-2.4c0,0,0-0.1-0.1-0.2c-0.1-0.1-0.1,0-0.1,0
		c-0.2,0-0.5,0-0.7,0c-1.8,0-3.7,0-5.5,0c-1,0-1.8,0.8-1.8,1.7v39.4c0,0.2,0,0.5,0.2,0.8c0.5,0.8,1.5,0.9,1.6,0.9
		c3.1,0.1,5.3,0.1,5.6,0c0.1,0,0.3-0.1,0.3-0.1c0.2-0.1,0.3-0.2,0.3-0.3c0-0.1,0.1-0.2,0.1-0.3c0-0.2,0-0.4,0-0.4
		c0-0.3,0.2-1.4,0.8-2.2c0.7-1,2-1.8,3.5-1.7c2.1,0,3.8,1.6,4.2,3.3c0.1,0.3,0.1,0.6,0.1,0.8c0,0.1,0,0.2,0,0.4c0,0.1,0,0.2,0.1,0.3
		c0.1,0.2,0.5,0.2,0.5,0.2c2.7,0.1,4.8,0.1,5.7,0.1c0.2,0,0.5,0,0.9-0.2c0.5-0.3,0.8-0.9,0.8-1.5V5.3C37.4,4.4,36.6,3.6,35.6,3.6z
		 M36.4,44.7c0,0.4-0.3,0.7-0.7,0.7h-5.4v-0.1c0-2.7-2.4-4.9-5.3-4.9s-5.3,2.2-5.3,4.9v0.1h-5.4c-0.4,0-0.8-0.3-0.8-0.7V5.3
		c0-0.4,0.3-0.7,0.8-0.7h5.4l0,0c0,2.7,2.4,4.9,5.3,4.9s5.3-2.2,5.3-4.9l0,0h5.4c0.4,0,0.7,0.3,0.7,0.7V44.7z"/>
</g>
</svg>
