<svg id="Layer_1" data-name="Layer 1" xmlns="http://www.w3.org/2000/svg" viewBox="0 0 50 50"><path d="M6.14,19.81,4.42,18.1A29.74,29.74,0,0,1,25,9.5h.17a28.56,28.56,0,0,1,14.08,3.81,29,29,0,0,1,6.33,4.79l-1.72,1.71a27.25,27.25,0,0,0-18.71-7.89H25A27.24,27.24,0,0,0,6.14,19.81Z"/><path d="M38.63,25.65a20.19,20.19,0,0,0-13.56-5.48h-.16A20.22,20.22,0,0,0,11.35,25.5L9.7,23.72a22.68,22.68,0,0,1,15.21-6h.18A22.71,22.71,0,0,1,40.3,23.89Z"/><path d="M16.59,31.58l-1.77-1.65A14.29,14.29,0,0,1,24.91,25.5H25a14.22,14.22,0,0,1,10.18,4.43l-1.77,1.65A11.81,11.81,0,0,0,25,27.92h-.07A11.83,11.83,0,0,0,16.59,31.58Z"/><path d="M25,40.5a4,4,0,1,1,4-4A4,4,0,0,1,25,40.5ZM25,35a1.54,1.54,0,1,0,1.54,1.53A1.53,1.53,0,0,0,25,35Z"/></svg>