<svg id="Layer_1" data-name="Layer 1" xmlns="http://www.w3.org/2000/svg" viewBox="0 0 24 24"><defs><style>.cls-1{fill:#414042;}</style></defs><g id="_899_Connection_signal_Wifi" data-name="899, Connection, signal, Wifi"><path class="cls-1" d="M12.46,18.13a.93.93,0,1,1-.92.92A.91.91,0,0,1,12.46,18.13Z"/><path class="cls-1" d="M12.46,20.43A1.41,1.41,0,0,1,11.05,19a1.38,1.38,0,0,1,1.41-1.38,1.41,1.41,0,0,1,1.41,1.41A1.38,1.38,0,0,1,12.46,20.43Zm0-1.86a.49.49,0,0,0-.48.48.48.48,0,1,0,1,0A.49.49,0,0,0,12.46,18.57Z"/><path class="cls-1" d="M17.69,14.27a.45.45,0,0,1-.33-.15,7,7,0,0,0-9.83,0,.47.47,0,1,1-.67-.67,7.91,7.91,0,0,1,11.17,0,.48.48,0,0,1,0,.67A.51.51,0,0,1,17.69,14.27Z"/><path class="cls-1" d="M15.17,16.79a.45.45,0,0,1-.33-.15,3.42,3.42,0,0,0-4.75,0A.47.47,0,0,1,9.42,16a4.3,4.3,0,0,1,6.08,0,.46.46,0,0,1,0,.67A.45.45,0,0,1,15.17,16.79Z"/><path class="cls-1" d="M20.33,11.63a.46.46,0,0,1-.34-.14,10.69,10.69,0,0,0-15.1,0,.47.47,0,0,1-.66,0,.46.46,0,0,1,0-.67,11.53,11.53,0,0,1,16.39,0,.46.46,0,0,1,0,.67C20.59,11.6,20.44,11.63,20.33,11.63Z"/><path class="cls-1" d="M23,9a.45.45,0,0,1-.33-.15A14.25,14.25,0,0,0,12.46,4.66,14.23,14.23,0,0,0,2.3,8.85a.47.47,0,1,1-.67-.67,15.37,15.37,0,0,1,21.67,0,.48.48,0,0,1,0,.67A.68.68,0,0,1,23,9Z"/></g></svg>