<?xml version="1.0" encoding="utf-8"?>
<!-- Generator: Adobe Illustrator 25.2.1, SVG Export Plug-In . SVG Version: 6.00 Build 0)  -->
<svg version="1.1" id="Layer_1" xmlns="http://www.w3.org/2000/svg" xmlns:xlink="http://www.w3.org/1999/xlink" x="0px" y="0px"
	 viewBox="0 0 50 50" style="enable-background:new 0 0 50 50;" xml:space="preserve">
<style type="text/css">
	.st0{fill:#756096;}
	.st1{fill:#9B7AC7;}
	.st2{fill:none;stroke:#868686;stroke-width:0.75;stroke-miterlimit:10;}
	.st3{fill:#E94D75;}
	.st4{fill:#1D1D1B;}
	.st5{fill:none;stroke:#E8477A;stroke-width:0.5;stroke-miterlimit:10;}
	.st6{fill:none;stroke:#DD255E;stroke-width:0.5;stroke-miterlimit:10;}
	.st7{fill:#9C9B9B;}
	.st8{fill:none;stroke:#868686;stroke-width:0.5;stroke-miterlimit:10;}
	.st9{fill:#868686;}
	.st10{fill:#E8477A;}
	.st11{fill:#DD255E;}
	.st12{fill:#7B5FA4;}
	.st13{fill:#7B60A5;}
	.st14{fill:#AFB5BF;}
	.st15{fill:#DEDEE0;}
	.st16{fill:#ABA5B5;}
	.st17{fill:#D6D6D6;}
	.st18{fill:none;stroke:#868686;stroke-width:2;stroke-miterlimit:10;}
	.st19{fill:none;stroke:#DD255E;stroke-width:2;stroke-miterlimit:10;}
	.st20{fill:none;stroke:#7B5FA4;stroke-width:8;stroke-miterlimit:10;}
	.st21{fill:none;stroke:#B0B5C0;stroke-width:8;stroke-miterlimit:10;}
	.st22{fill:none;stroke:#DEDEE0;stroke-width:8;stroke-miterlimit:10;}
	.st23{fill:none;stroke:#868686;stroke-miterlimit:10;}
	.st24{fill:#8F8A9B;}
	.st25{fill:#FFFFFF;}
	.st26{fill:#AAB6C2;}
	.st27{fill:#216835;}
	.st28{fill:#1C3F75;}
	.st29{fill:#298346;}
	.st30{fill:#25723B;}
	.st31{fill:#DFEDED;}
	.st32{fill:#5C7D9E;}
	.st33{fill:none;stroke:#63547F;stroke-width:0.75;stroke-miterlimit:10;}
	.st34{fill:#554A6D;}
	.st35{fill:none;stroke:#216835;stroke-width:0.25;stroke-miterlimit:10;}
	.st36{fill:none;stroke:#AAAAAA;stroke-width:0.25;stroke-miterlimit:10;}
	.st37{fill:#A9A9A9;}
	.st38{fill:#F9F9F9;}
	.st39{fill:#AAAAAA;}
	.st40{fill:#63547F;}
	.st41{fill:none;stroke:#756096;stroke-width:0.75;stroke-miterlimit:10;}
</style>
<path class="st16" d="M38.6,28.62V16.8c0-1.3-1.06-2.36-2.36-2.36c-1.2,0-2.2,0.9-2.34,2.07c-0.08-0.01-0.17-0.03-0.25-0.03h-0.62
	v-4.95c0-0.71-0.44-1.37-1.1-1.67v-3.1h0.01V2.89c0-1.01-0.82-1.82-1.83-1.82h-8.45c-1.01,0-1.83,0.81-1.83,1.82v1.93
	c-0.66,0.3-1.09,0.95-1.09,1.67v3.44c-0.59,0.31-0.97,0.93-0.97,1.6v4.95H16.9c-0.16-1.15-1.16-2.04-2.34-2.04
	c-1.3,0-2.36,1.06-2.36,2.36v11.82c-0.01,5.27-0.01,10.54-0.01,15.81c0,2.87,2.33,5.2,5.21,5.2h16.02c2.86,0,5.19-2.33,5.19-5.2
	C38.61,39.16,38.61,33.89,38.6,28.62z M27.13,31.28c0,0.87-0.62,1.58-1.37,1.58v-3.14C26.51,29.72,27.13,30.42,27.13,31.28z
	 M25.06,29.72v3.14c-0.77,0-1.39-0.71-1.39-1.58C23.67,30.42,24.29,29.72,25.06,29.72z"/>
<g>
	<rect x="25.1" y="4.68" class="st24" width="3.54" height="0.65"/>
	<rect x="22.54" y="4.68" class="st24" width="1.9" height="0.65"/>
	<rect x="25.57" y="9.77" class="st24" width="1.58" height="0.65"/>
	<rect x="24.08" y="13.76" class="st24" width="1.27" height="0.65"/>
	<rect x="25.73" y="13.76" class="st24" width="3.33" height="0.65"/>
	<path class="st24" d="M38.6,28.62V16.8c0-1.3-1.06-2.36-2.36-2.36c-1.2,0-2.2,0.9-2.34,2.07c-0.08-0.01-0.17-0.03-0.25-0.03h-0.62
		v-4.95c0-0.71-0.44-1.37-1.1-1.67v-3.1h0.01V2.89c0-1.01-0.82-1.82-1.83-1.82h-8.45c-1.01,0-1.83,0.81-1.83,1.82v1.93
		c-0.66,0.3-1.09,0.95-1.09,1.67v3.44c-0.59,0.31-0.97,0.93-0.97,1.6v4.95H16.9c-0.16-1.15-1.16-2.04-2.34-2.04
		c-1.3,0-2.36,1.06-2.36,2.36v11.82c-0.01,5.27-0.01,10.54-0.01,15.81c0,2.87,2.33,5.2,5.21,5.2h16.02c2.86,0,5.19-2.33,5.19-5.2
		C38.61,39.16,38.61,33.89,38.6,28.62z M18.42,14.41h4.86v-0.65h-4.86v-2.23c0-0.39,0.19-0.74,0.52-0.96
		c0.09-0.07,0.2-0.13,0.31-0.16h6.1V9.77h-5.96V6.49c0-0.44,0.24-0.83,0.64-1.03c0.08-0.05,0.16-0.07,0.24-0.09
		c0.03-0.01,0.07-0.03,0.1-0.04h1.69V4.68h-1.58V2.89c0-0.64,0.54-1.17,1.18-1.17h8.45c0.64,0,1.18,0.53,1.18,1.17v6.88h-3.5v0.64
		h3.69c0.09,0.02,0.19,0.04,0.27,0.09c0.38,0.19,0.63,0.59,0.63,1.03v2.23h-2.92v0.65h2.92v1.87H18.42V14.41z M16.93,17.12h16.72
		c0.07,0,0.15,0.01,0.22,0.02V29.9c-0.06,0.15-0.29,0.61-0.84,0.93c-0.4,0.24-0.74,0.3-0.86,0.32c-1.06,0-2.94-0.02-4.46-0.03h-0.03
		c-0.09-1.18-1.07-2.11-2.28-2.11c-1.2,0-2.17,0.91-2.28,2.07c-0.01-0.01-0.01,0-0.02-0.01h-3.85c-0.52-0.03-1.04-0.19-1.48-0.47
		c-0.42-0.25-0.69-0.53-0.84-0.72V17.12z M27.13,31.28c0,0.87-0.62,1.58-1.37,1.58v-3.14C26.51,29.72,27.13,30.42,27.13,31.28z
		 M25.06,29.72v3.14c-0.77,0-1.39-0.71-1.39-1.58C23.67,30.42,24.29,29.72,25.06,29.72z M17.42,31.15c0.54,0.32,1.16,0.51,1.81,0.55
		c0.35,0,0.81,0,1.32,0.01c0.45,0,0.94,0,1.42,0.01h1.17c0.19,1.07,1.12,1.89,2.26,1.89c1.12,0,2.04-0.8,2.25-1.85h0.03
		c1.51,0,3.36,0.02,4.44,0.02h0.08c0.35-0.03,0.78-0.17,1.16-0.39c0.2-0.13,0.36-0.27,0.51-0.41v0.04l0.22-0.27
		c0.08-0.1,0.13-0.2,0.2-0.29c0.03-0.06,0.07-0.1,0.1-0.16h1.17l0.02,6.28c0,0.31-0.09,0.54-0.26,0.68
		c-0.21,0.16-0.43,0.15-0.51,0.14h-19.1c-0.46,0-0.83-0.38-0.83-0.84V30.3h1.58C16.75,30.65,17.06,30.93,17.42,31.15z M37.97,44.43
		c0,2.52-2.04,4.57-4.55,4.57H17.4c-2.52,0-4.57-2.05-4.57-4.57v-4.95c0.45,0.52,1.12,0.86,1.86,0.86h21.42
		c0.74,0,1.4-0.34,1.86-0.85V44.43z M37.97,37.84c0,0.17-0.03,0.32-0.07,0.47l-0.02,0.01v0.04c-0.22,0.77-0.93,1.34-1.77,1.34H14.69
		c-0.85,0-1.55-0.58-1.78-1.35l0.01-0.03l-0.02-0.01c-0.04-0.15-0.07-0.3-0.07-0.47V16.8c0-0.95,0.78-1.73,1.73-1.73
		c0.96,0,1.73,0.78,1.73,1.73v12.86h-2.04v6.9c0,0.81,0.65,1.47,1.46,1.47H34.7c0.05,0.02,0.11,0.02,0.18,0.02
		c0.17,0,0.52-0.04,0.84-0.29c0.45-0.36,0.5-0.91,0.49-1.2v-6.9h-1.7V16.73c0.04-0.93,0.79-1.66,1.73-1.66
		c0.95,0,1.73,0.78,1.73,1.73V37.84z"/>
</g>
</svg>
