<?xml version="1.0" encoding="utf-8"?>
<!-- Generator: Adobe Illustrator 25.2.1, SVG Export Plug-In . SVG Version: 6.00 Build 0)  -->
<svg version="1.1" id="Layer_1" xmlns="http://www.w3.org/2000/svg" xmlns:xlink="http://www.w3.org/1999/xlink" x="0px" y="0px"
	 viewBox="0 0 50 50" style="enable-background:new 0 0 50 50;" xml:space="preserve">
<style type="text/css">
	.st0{fill:#756096;}
	.st1{fill:#9B7AC7;}
	.st2{fill:none;stroke:#868686;stroke-width:0.75;stroke-miterlimit:10;}
	.st3{fill:#E94D75;}
	.st4{fill:#1D1D1B;}
	.st5{fill:none;stroke:#E8477A;stroke-width:0.5;stroke-miterlimit:10;}
	.st6{fill:none;stroke:#DD255E;stroke-width:0.5;stroke-miterlimit:10;}
	.st7{fill:#9C9B9B;}
	.st8{fill:none;stroke:#868686;stroke-width:0.5;stroke-miterlimit:10;}
	.st9{fill:#868686;}
	.st10{fill:#E8477A;}
	.st11{fill:#DD255E;}
	.st12{fill:#7B5FA4;}
	.st13{fill:#7B60A5;}
	.st14{fill:#AFB5BF;}
	.st15{fill:#DEDEE0;}
	.st16{fill:#ABA5B5;}
	.st17{fill:#D6D6D6;}
	.st18{fill:none;stroke:#868686;stroke-width:2;stroke-miterlimit:10;}
	.st19{fill:none;stroke:#DD255E;stroke-width:2;stroke-miterlimit:10;}
	.st20{fill:none;stroke:#7B5FA4;stroke-width:8;stroke-miterlimit:10;}
	.st21{fill:none;stroke:#B0B5C0;stroke-width:8;stroke-miterlimit:10;}
	.st22{fill:none;stroke:#DEDEE0;stroke-width:8;stroke-miterlimit:10;}
	.st23{fill:none;stroke:#868686;stroke-miterlimit:10;}
	.st24{fill:#8F8A9B;}
	.st25{fill:#FFFFFF;}
	.st26{fill:#AAB6C2;}
	.st27{fill:#216835;}
	.st28{fill:#1C3F75;}
	.st29{fill:#298346;}
	.st30{fill:#25723B;}
	.st31{fill:#DFEDED;}
	.st32{fill:#5C7D9E;}
	.st33{fill:none;stroke:#63547F;stroke-width:0.75;stroke-miterlimit:10;}
	.st34{fill:#554A6D;}
	.st35{fill:none;stroke:#216835;stroke-width:0.25;stroke-miterlimit:10;}
	.st36{fill:none;stroke:#AAAAAA;stroke-width:0.25;stroke-miterlimit:10;}
	.st37{fill:#A9A9A9;}
	.st38{fill:#F9F9F9;}
	.st39{fill:#AAAAAA;}
	.st40{fill:#0091FF;}
	.st41{fill:#0073A0;}
	.st42{fill:#63547F;}
	.st43{fill:none;stroke:#756096;stroke-width:0.75;stroke-miterlimit:10;}
</style>
<path class="st40" d="M39.24,20.75v25.51c0,1.58-1.29,2.87-2.87,2.87H10.43c-1.59,0-2.88-1.29-2.88-2.87V20.78
	c0-1.5,1.22-2.72,2.72-2.72c1.42,0,2.6,1.09,2.72,2.48h1.8v-5.92c0-0.8,0.48-1.51,1.18-1.84V8.53c0-0.89,0.55-1.64,1.32-1.94V4.16
	c0-1.13,0.93-2.05,2.06-2.05h10.23c1.14,0,2.06,0.92,2.06,2.05v8.54c0.77,0.31,1.33,1.06,1.33,1.92v5.92h0.41
	c0.15,0,0.29,0.01,0.43,0.04c0.08-1.42,1.27-2.55,2.71-2.55C38.02,18.03,39.24,19.25,39.24,20.75z"/>
<g>
	<path class="st39" d="M33.81,27.34c0-0.57,0.17-1.1,0.48-1.55v10.95h-0.48V27.34z"/>
	<path class="st39" d="M39.25,27.34v18.92h-0.48V25.81c0.09,0.12,0.17,0.25,0.23,0.39C39.16,26.53,39.25,26.92,39.25,27.34z"/>
	<g>
		<path class="st41" d="M36.53,18.03c-1.44,0-2.63,1.13-2.71,2.55c-0.14-0.03-0.28-0.04-0.43-0.04h-0.41v-5.92
			c0-0.86-0.56-1.61-1.33-1.92v-4V6.45V4.16c0-1.13-0.92-2.05-2.06-2.05H19.36c-1.13,0-2.06,0.92-2.06,2.05v2.43
			c-0.77,0.3-1.32,1.05-1.32,1.94v4.25c-0.7,0.33-1.18,1.04-1.18,1.84v5.92H13c-0.12-1.39-1.3-2.48-2.72-2.48
			c-1.5,0-2.72,1.22-2.72,2.72v14.46v11.02c0,1.58,1.29,2.87,2.88,2.87h25.94c1.58,0,2.87-1.29,2.87-2.87v-0.03V35.24V20.75
			C39.25,19.25,38.03,18.03,36.53,18.03z M15.28,14.62c0-0.53,0.27-1,0.7-1.28c0.12-0.09,0.28-0.17,0.44-0.22h7.26v-0.48h-7.22V8.53
			c0-0.62,0.34-1.14,0.84-1.39c0.16-0.09,0.31-0.15,0.48-0.17V6.96h1.91V6.48h-1.91V6.47V4.16c0-0.86,0.71-1.57,1.58-1.57h10.23
			c0.87,0,1.58,0.71,1.58,1.57v2.29V8.7v3.94h-4.23v0.48h4.34c0.13,0.03,0.25,0.06,0.37,0.12c0.5,0.25,0.84,0.79,0.84,1.38v5.91
			H15.28V14.62z M33.81,21.06v15.63c-0.1,0.22-0.41,0.81-1.09,1.21c-0.55,0.33-1,0.38-1.11,0.39c-1.9,0-5.62-0.02-7.36-0.04l0,0.48
			c1.72,0.02,5.37,0.04,7.31,0.04c0.02,0,0.05,0,0.07,0c0.41-0.03,0.91-0.2,1.34-0.46c0.7-0.41,1.07-1,1.24-1.33h1.66l0,7.75
			c0.01,0.19,0,0.65-0.35,0.94c-0.36,0.28-0.75,0.21-0.75,0.21l-23.1-0.01c-0.63,0-1.14-0.52-1.14-1.16v-7.72h2.12
			c0.21,0.26,0.59,0.68,1.19,1.04c0.63,0.39,1.35,0.61,2.1,0.65c0.78,0.01,2.01,0.01,3.25,0.02c1.29,0,2.58,0.01,3.38,0.02
			l0.01-0.48c-0.8-0.01-2.1-0.02-3.39-0.02c-1.24,0-2.47-0.01-3.24-0.02c-0.66-0.03-1.31-0.23-1.87-0.58
			c-0.56-0.34-0.89-0.72-1.07-0.95V21.02h20.38C33.53,21.02,33.67,21.03,33.81,21.06z M38.77,46.23v0.03c0,1.32-1.07,2.39-2.39,2.39
			H10.44c-1.32,0-2.4-1.07-2.4-2.39V35.24V20.78c0-1.24,1.01-2.24,2.24-2.24c1.24,0,2.24,1,2.24,2.24V36.5h-2.48v8.2
			c0,0.91,0.73,1.64,1.62,1.64h23.01c0.05,0.01,0.12,0.02,0.2,0.02c0.24,0,0.6-0.06,0.94-0.32c0.53-0.43,0.55-1.08,0.53-1.34v-8.2
			h-2.06V21.23v-0.52c0.02-1.22,1.01-2.2,2.24-2.2c1.24,0,2.24,1,2.24,2.24v14.49V46.23z"/>
		<rect x="15.28" y="17.48" class="st41" width="5.89" height="0.48"/>
		<rect x="28.96" y="17.48" class="st41" width="3.51" height="0.48"/>
		<rect x="23.68" y="6.48" class="st41" width="3.98" height="0.48"/>
		<rect x="20.58" y="6.48" class="st41" width="1.99" height="0.48"/>
		<rect x="24.25" y="12.64" class="st41" width="1.61" height="0.48"/>
		<rect x="22.44" y="17.48" class="st41" width="1.23" height="0.48"/>
		<rect x="24.44" y="17.48" class="st41" width="3.73" height="0.48"/>
	</g>
	<circle class="st41" cx="23.4" cy="38.54" r="2.79"/>
</g>
<path class="st25" d="M25.25,38.6c0,0.64-0.51,1.15-1.14,1.15v-2.29C24.74,37.47,25.25,37.98,25.25,38.6z"/>
<path class="st25" d="M22.7,37.47v2.29c-0.64,0-1.15-0.51-1.15-1.15C21.55,37.98,22.06,37.47,22.7,37.47z"/>
</svg>
