<svg id="Layer_1" data-name="Layer 1" xmlns="http://www.w3.org/2000/svg" viewBox="0 0 50 50"><defs><style>.cls-1,.cls-2{fill:#bd8100;stroke:#231f20;stroke-miterlimit:10;stroke-width:0.5px;}.cls-1{fill-rule:evenodd;}</style></defs><path class="cls-1" d="M26.15,16.31H23.37a6.06,6.06,0,0,0-6.05,6.05V39a6.06,6.06,0,0,0,6.05,6H34.16V41.71l.48-.35A2.94,2.94,0,0,0,35.84,39V31.79a.7.7,0,0,0-.68-.68h0l-1.23.07v-.07h-.34A6.59,6.59,0,0,1,27,24.53V16.31Z"/><path class="cls-1" d="M33.55,21.84a1.09,1.09,0,1,1-1.08,1.1h0a1.09,1.09,0,0,1,1.08-1.09m-5.41-5.53h4.77A6.07,6.07,0,0,1,39,22.36h0V39a6,6,0,0,1-3.64,5.54V42.3A4.08,4.08,0,0,0,37,39V31.79A1.85,1.85,0,0,0,35.16,30H33.55a5.45,5.45,0,0,1-5.41-5.42Z"/><path class="cls-1" d="M25.44,2.91h5.41a2.43,2.43,0,0,1,2.41,2.42V8h-1.8V5.33a.63.63,0,0,0-.61-.61H25.44a.61.61,0,0,0-.61.61h0V8H23V5.33a2.44,2.44,0,0,1,2.42-2.42"/><rect class="cls-2" x="23.39" y="7.95" width="1.07" height="8.68"/><rect class="cls-2" x="31.83" y="7.95" width="1.07" height="8.68"/><rect class="cls-2" x="23.02" y="6.16" width="1.81" height="1.28"/><rect class="cls-2" x="31.46" y="6.29" width="1.81" height="1.38"/><path class="cls-1" d="M22.13,43.91h3.18V45.5a1.6,1.6,0,0,1-1.59,1.59h0a1.6,1.6,0,0,1-1.59-1.59Z"/><path class="cls-1" d="M31,43.88h3.18v1.59a1.6,1.6,0,0,1-1.59,1.59h0A1.59,1.59,0,0,1,31,45.47h0Z"/><path class="cls-1" d="M17.27,23.72h-2A4.3,4.3,0,0,0,11,28V39.75A4.29,4.29,0,0,0,15.31,44h7.62V41.66l.33-.25a2,2,0,0,0,.85-1.66V34.66a.47.47,0,0,0-.48-.48H22.5a4.66,4.66,0,0,1-4.65-4.65V23.72Z"/><path class="cls-1" d="M22.5,27.63a.77.77,0,1,1-.77.77.76.76,0,0,1,.77-.77h0m-3.82-3.91h3.37A4.29,4.29,0,0,1,26.32,28V39.75a4.28,4.28,0,0,1-2.57,3.91V42.08a2.9,2.9,0,0,0,1.19-2.33V34.66a1.31,1.31,0,0,0-1.31-1.31H22.5a3.83,3.83,0,0,1-3.82-3.82Z"/><path class="cls-1" d="M16.77,14.26h3.82A1.72,1.72,0,0,1,22.29,16v1.87H21V16a.43.43,0,0,0-.43-.43h-3.8a.43.43,0,0,0-.43.43h0v1.85H15.06V16a1.73,1.73,0,0,1,1.71-1.71"/><rect class="cls-2" x="15.32" y="17.82" width="0.76" height="6.13"/><rect class="cls-2" x="21.28" y="17.82" width="0.76" height="6.13"/><rect class="cls-2" x="15.06" y="16.55" width="1.28" height="0.91"/><rect class="cls-2" x="21.02" y="16.65" width="1.28" height="0.97"/><path class="cls-1" d="M14.43,43.21h2.25v1.13a1.13,1.13,0,0,1-1.13,1.12h0a1.13,1.13,0,0,1-1.12-1.12Z"/><path class="cls-1" d="M20.68,43.19h2.24v1.12a1.13,1.13,0,0,1-1.12,1.13h0a1.13,1.13,0,0,1-1.12-1.13Z"/></svg>