<?xml version="1.0" encoding="utf-8"?>
<!-- Generator: Adobe Illustrator 25.2.1, SVG Export Plug-In . SVG Version: 6.00 Build 0)  -->
<svg version="1.1" id="Layer_1" xmlns="http://www.w3.org/2000/svg" xmlns:xlink="http://www.w3.org/1999/xlink" x="0px" y="0px"
	 viewBox="0 0 50 50" style="enable-background:new 0 0 50 50;" xml:space="preserve">
<style type="text/css">
	.st0{fill:#756096;}
	.st1{fill:#9B7AC7;}
	.st2{fill:none;stroke:#868686;stroke-width:0.75;stroke-miterlimit:10;}
	.st3{fill:#E94D75;}
	.st4{fill:#1D1D1B;}
	.st5{fill:none;stroke:#E8477A;stroke-width:0.5;stroke-miterlimit:10;}
	.st6{fill:none;stroke:#DD255E;stroke-width:0.5;stroke-miterlimit:10;}
	.st7{fill:#9C9B9B;}
	.st8{fill:none;stroke:#868686;stroke-width:0.5;stroke-miterlimit:10;}
	.st9{fill:#868686;}
	.st10{fill:#E8477A;}
	.st11{fill:#DD255E;}
	.st12{fill:#7B5FA4;}
	.st13{fill:#7B60A5;}
	.st14{fill:#AFB5BF;}
	.st15{fill:#DEDEE0;}
	.st16{fill:#ABA5B5;}
	.st17{fill:#D6D6D6;}
	.st18{fill:none;stroke:#868686;stroke-width:2;stroke-miterlimit:10;}
	.st19{fill:none;stroke:#DD255E;stroke-width:2;stroke-miterlimit:10;}
	.st20{fill:none;stroke:#7B5FA4;stroke-width:8;stroke-miterlimit:10;}
	.st21{fill:none;stroke:#B0B5C0;stroke-width:8;stroke-miterlimit:10;}
	.st22{fill:none;stroke:#DEDEE0;stroke-width:8;stroke-miterlimit:10;}
	.st23{fill:none;stroke:#868686;stroke-miterlimit:10;}
	.st24{fill:#8F8A9B;}
	.st25{fill:#FFFFFF;}
	.st26{fill:#AAB6C2;}
	.st27{fill:#216835;}
	.st28{fill:#1C3F75;}
	.st29{fill:#298346;}
	.st30{fill:#25723B;}
	.st31{fill:#DFEDED;}
	.st32{fill:#5C7D9E;}
	.st33{fill:none;stroke:#63547F;stroke-width:0.75;stroke-miterlimit:10;}
	.st34{fill:#554A6D;}
	.st35{fill:none;stroke:#216835;stroke-width:0.25;stroke-miterlimit:10;}
	.st36{fill:none;stroke:#AAAAAA;stroke-width:0.25;stroke-miterlimit:10;}
	.st37{fill:#A9A9A9;}
	.st38{fill:#F9F9F9;}
	.st39{fill:#AAAAAA;}
	.st40{fill:#0091FF;}
	.st41{fill:#0073A0;}
	.st42{fill:#63547F;}
	.st43{fill:none;stroke:#756096;stroke-width:0.75;stroke-miterlimit:10;}
</style>
<g>
	<path class="st40" d="M39.93,21.66c-0.43-0.44-0.99-0.71-1.61-0.77c-0.49-2.28-2.19-3.94-4.21-4.1V5.17c0-2.06-1.66-3.73-3.72-3.73
		h-8.81c-2.05,0-3.73,1.67-3.73,3.73v11.6h-0.51c-2.16,0-4.03,1.72-4.54,4.12c-1.34,0.14-2.38,1.27-2.38,2.65h-0.01v19.93
		c0,3.01,2.45,5.46,5.47,5.46h19.37c3,0,5.45-2.45,5.45-5.46v-3.55h0.01V23.54C40.71,22.84,40.43,22.17,39.93,21.66z M27.98,43.26
		c0,1.1-0.78,1.99-1.73,1.99V41.3C27.2,41.3,27.98,42.19,27.98,43.26z M25.38,41.3v3.95c-0.97,0-1.75-0.89-1.75-1.99
		C23.63,42.19,24.41,41.3,25.38,41.3z"/>
	<path class="st41" d="M25.8,40.25c-1.67,0-3.02,1.35-3.02,3.02c0,1.68,1.35,3.03,3.02,3.03c1.68,0,3.03-1.35,3.03-3.03
		C28.83,41.61,27.47,40.25,25.8,40.25z M25.45,44.9c-0.8,0-1.44-0.73-1.44-1.63c0-0.88,0.64-1.61,1.44-1.61V44.9z M26.17,44.9v-3.24
		c0.78,0,1.42,0.73,1.42,1.61C27.59,44.17,26.95,44.9,26.17,44.9z"/>
	<path class="st41" d="M40.71,23.54c0-0.7-0.28-1.37-0.78-1.88c-0.43-0.44-0.99-0.71-1.61-0.77c-0.46-2.14-1.98-3.71-3.84-4.03V5.17
		c0-2.26-1.84-4.1-4.09-4.1h-8.81c-2.26,0-4.11,1.84-4.11,4.1v11.6h-0.13c-2.16,0-4.03,1.72-4.54,4.12
		c-1.34,0.14-2.38,1.27-2.38,2.65h-0.01v19.93c0,3.01,2.45,5.46,5.47,5.46h19.37c3,0,5.45-2.45,5.45-5.46v-3.55h0.01V23.54z
		 M18.22,5.17c0-1.85,1.5-3.35,3.36-3.35h8.81c1.84,0,3.34,1.5,3.34,3.35v11.6H18.22V5.17z M39.87,43.47c0,2.55-2.07,4.63-4.62,4.63
		H15.88c-2.56,0-4.64-2.08-4.64-4.63v-3.05V23.54c0-1.01,0.82-1.83,1.83-1.83c0.5,0,0.95,0.19,1.29,0.53
		c0.34,0.35,0.54,0.82,0.54,1.3v15.33h0.83V23.54c0-0.7-0.27-1.37-0.77-1.88c-0.36-0.36-0.81-0.62-1.31-0.72
		c0.46-1.96,1.96-3.34,3.69-3.34h16.43c1.73,0,3.24,1.38,3.7,3.34c-1.19,0.27-2.08,1.33-2.08,2.6v14.45
		c-0.25-0.12-0.5-0.24-0.76-0.34c-0.55-0.24-1.12-0.45-1.68-0.63c-1.32-0.44-2.68-0.76-4.11-0.96l-6.21-0.07
		c-1.27,0.16-2.52,0.43-3.74,0.8c-0.82,0.25-1.62,0.54-2.4,0.88c-0.27,0.11-0.52,0.24-0.77,0.36v0.85l0.77-0.36
		c0.85-0.4,1.73-0.73,2.62-0.99c1.17-0.36,2.39-0.61,3.55-0.77l6.11,0.07c1.33,0.18,2.65,0.5,3.92,0.92
		c0.64,0.22,1.29,0.46,1.92,0.75c0.26,0.1,0.5,0.22,0.76,0.35v0.03h0.82V23.54c0-1.01,0.82-1.83,1.83-1.83
		c0.5,0,0.96,0.19,1.29,0.53c0.35,0.35,0.55,0.82,0.55,1.3h-0.01V43.47z"/>
</g>
</svg>
