<svg id="Layer_1" data-name="Layer 1" xmlns="http://www.w3.org/2000/svg" viewBox="0 0 50 50"><defs><style>.cls-1{opacity:0.25;}.cls-2{fill:#bfbfbe;stroke:#ff6aec;stroke-miterlimit:10;}.cls-3{fill:#231f20;}</style></defs><g id="Layer_1-2" data-name="Layer 1" class="cls-1"><g id="Layer_2" data-name="Layer 2"><path class="cls-2" d="M16.6,3.26H33.4a2.3,2.3,0,0,1,2.39,2.19v39.1a2.3,2.3,0,0,1-2.39,2.19H16.6a2.3,2.3,0,0,1-2.39-2.19V5.45A2.3,2.3,0,0,1,16.6,3.26Z"/><path class="cls-3" d="M20.8,39.63h8.4a2,2,0,0,1,2,2h0a2,2,0,0,1-2,2H20.8a2,2,0,0,1-2-2h0A2,2,0,0,1,20.8,39.63Z"/></g></g></svg>